<svg width="588" height="682" viewBox="0 0 588 682" fill="none" xmlns="http://www.w3.org/2000/svg">
<g clip-path="url(#clip0_314_795)">
<path d="M588 0H0V682H588V0Z" fill="#1980AE"/>
<path d="M87.7406 0C73.1339 13.9574 65.7226 31.0825 62.4961 48.0019C52.9357 98.1314 25.2686 126.209 0 141.753V0H87.7406Z" fill="#00B0FF"/>
<path d="M588.243 0V92.7653C575.429 83.2624 560.107 75.0791 541.835 69.481C489.257 53.3712 468.312 22.8499 460 0H588.243Z" fill="#00B0FF"/>
<path d="M588 511.094V682.374H0C0 609.25 0 536.124 0 463C18.3523 469.521 40.7815 480.826 54.1824 501.372C82.7706 545.201 47.2159 595.726 70.2926 610.769C87.5415 622.015 108.694 594.959 154.52 592.736C226.605 589.237 259.599 655.381 310.562 641.348C335.9 634.371 329.084 617.654 361.985 601.36C408.704 578.224 444.354 601.085 493.202 588.814C518.655 582.421 554.224 564.847 588 511.094Z" fill="#00B0FF"/>
<path d="M118.215 301.754C117.352 301.754 116.609 301.178 116.514 300.402C115.454 291.637 107.127 285.027 97.1445 285.027C94.0967 285.027 91.1809 285.631 88.4754 286.823C87.6288 287.195 86.6017 286.89 86.1793 286.143C85.7588 285.394 86.103 284.486 86.9478 284.112C90.1315 282.71 93.5608 282 97.1427 282C102.831 282 108.284 283.856 112.501 287.227C116.686 290.574 119.319 295.137 119.918 300.079C120.018 300.91 119.337 301.657 118.397 301.746C118.336 301.753 118.275 301.754 118.215 301.754Z" fill="#97BCCC"/>
<path d="M483.031 575.098C482.168 575.098 481.426 574.522 481.331 573.745C480.27 564.981 471.943 558.371 461.961 558.371C458.913 558.371 455.997 558.975 453.291 560.166C452.445 560.54 451.418 560.234 450.995 559.485C450.575 558.736 450.919 557.828 451.766 557.454C454.949 556.052 458.379 555.342 461.961 555.342C467.649 555.342 473.104 557.198 477.319 560.569C481.504 563.916 484.137 568.479 484.734 573.421C484.835 574.252 484.153 574.999 483.214 575.088C483.152 575.095 483.091 575.098 483.031 575.098Z" fill="#97BCCC"/>
<path d="M518.032 368.822C516.348 368.822 514.662 368.654 512.98 368.32C507.429 367.216 502.569 364.346 499.292 360.239C496.04 356.161 494.603 351.198 495.247 346.262C495.355 345.431 496.207 344.836 497.143 344.93C498.083 345.026 498.756 345.778 498.649 346.607C497.508 355.363 503.992 363.428 513.731 365.366C516.705 365.959 519.701 365.934 522.635 365.297C523.552 365.098 524.481 365.595 524.706 366.406C524.931 367.217 524.369 368.039 523.452 368.238C521.658 368.628 519.848 368.822 518.032 368.822Z" fill="#97BCCC"/>
<path d="M120.346 46.0223C120.037 46.0223 119.727 45.9483 119.446 45.7953C116.424 44.1366 113.938 41.9299 112.055 39.2362C109.065 34.9561 107.984 29.8763 109.013 24.9332C110.032 20.0262 113.039 15.6458 117.477 12.5999C118.223 12.0881 119.299 12.2066 119.879 12.8681C120.46 13.528 120.324 14.4791 119.576 14.9925C111.701 20.3964 109.722 30.1347 114.967 37.6466C116.569 39.9388 118.683 41.8164 121.251 43.2249C122.054 43.6659 122.3 44.599 121.803 45.3098C121.478 45.7689 120.918 46.0223 120.346 46.0223Z" fill="#97BCCC"/>
<path d="M452.465 70.99C450.051 70.99 447.636 70.651 445.306 69.9714C444.409 69.7098 443.922 68.8524 444.218 68.0593C444.514 67.2662 445.483 66.835 446.38 67.0967C455.844 69.8628 466.089 65.8856 470.212 57.8455C471.47 55.392 472.054 52.7921 471.945 50.123C471.911 49.2871 472.648 48.5861 473.593 48.5548C474.537 48.5252 475.331 49.1768 475.366 50.0127C475.495 53.1557 474.81 56.2115 473.331 59.0961C470.981 63.6772 466.816 67.304 461.603 69.3066C458.689 70.4272 455.579 70.99 452.465 70.99Z" fill="#97BCCC"/>
<path d="M294.605 611.008C293.825 611.008 293.04 610.974 292.251 610.903C286.591 610.398 281.375 608.066 277.565 604.337C273.782 600.637 271.679 595.861 271.646 590.892C271.64 590.056 272.401 589.374 273.348 589.37C273.352 589.37 273.356 589.37 273.359 589.37C274.301 589.37 275.066 590.041 275.071 590.875C275.131 599.689 282.665 607.005 292.597 607.892C295.63 608.162 298.6 607.821 301.426 606.876C302.31 606.58 303.298 606.975 303.633 607.757C303.968 608.538 303.522 609.412 302.638 609.708C300.044 610.572 297.351 611.008 294.605 611.008Z" fill="#97BCCC"/>
<path d="M431.777 273.69C431.174 273.69 430.57 273.564 430.011 273.307C428.741 272.723 427.952 271.572 427.952 270.305V244.726C427.952 243.458 428.741 242.308 430.011 241.724C431.282 241.14 432.801 241.229 433.973 241.956L454.59 254.747C455.61 255.379 456.218 256.414 456.218 257.516C456.218 258.617 455.61 259.652 454.59 260.286L433.973 273.077C433.314 273.483 432.548 273.69 431.777 273.69ZM431.779 244.368C431.707 244.368 431.641 244.388 431.591 244.411C431.493 244.457 431.375 244.548 431.375 244.726V270.305C431.375 270.483 431.493 270.575 431.591 270.62C431.69 270.664 431.842 270.697 432.006 270.595L452.623 257.804C452.764 257.717 452.794 257.599 452.794 257.515C452.794 257.431 452.764 257.312 452.623 257.225L432.006 244.434C431.926 244.387 431.848 244.368 431.779 244.368Z" fill="#97BCCC"/>
<path d="M23.6718 214.281C23.2792 214.281 22.8829 214.227 22.4996 214.119C21.3143 213.781 20.3876 212.95 20.0192 211.899L12.5838 190.62C12.1614 189.411 12.5317 188.106 13.5495 187.216C14.5692 186.325 16.0484 186.014 17.4123 186.403L44.9399 194.255C46.3038 194.644 47.2974 195.662 47.5375 196.91C47.7756 198.159 47.2156 199.409 46.0712 200.173L25.9773 213.599C25.3074 214.046 24.4943 214.281 23.6718 214.281ZM16.2289 189.263C16.1061 189.263 16.0168 189.315 15.9573 189.368C15.8772 189.437 15.7972 189.556 15.8568 189.725L23.2922 211.004C23.3425 211.148 23.4616 211.211 23.5527 211.236C23.6439 211.262 23.7797 211.273 23.9174 211.181L44.0114 197.755C44.1714 197.648 44.1844 197.51 44.1658 197.413C44.1472 197.316 44.0858 197.189 43.8942 197.135L16.3666 189.282C16.3127 189.269 16.2699 189.263 16.2289 189.263Z" fill="#97BCCC"/>
<path d="M513.148 215.792C514.977 215.121 515.846 213.266 515.089 211.649C514.332 210.031 512.236 209.263 510.408 209.934C508.579 210.605 507.711 212.459 508.467 214.077C509.224 215.695 511.32 216.462 513.148 215.792Z" fill="#97BCCC"/>
<path d="M511.762 230.559C513.742 230.559 515.346 229.14 515.346 227.39C515.346 225.639 513.742 224.22 511.762 224.22C509.783 224.22 508.179 225.639 508.179 227.39C508.179 229.14 509.783 230.559 511.762 230.559Z" fill="#97BCCC"/>
<path d="M511.762 245.082C513.742 245.082 515.346 243.663 515.346 241.913C515.346 240.163 513.742 238.744 511.762 238.744C509.783 238.744 508.179 240.163 508.179 241.913C508.179 243.663 509.783 245.082 511.762 245.082Z" fill="#97BCCC"/>
<path d="M511.762 259.606C513.742 259.606 515.346 258.187 515.346 256.437C515.346 254.686 513.742 253.267 511.762 253.267C509.783 253.267 508.179 254.686 508.179 256.437C508.179 258.187 509.783 259.606 511.762 259.606Z" fill="#97BCCC"/>
<path d="M511.762 274.129C513.742 274.129 515.346 272.71 515.346 270.96C515.346 269.21 513.742 267.791 511.762 267.791C509.783 267.791 508.179 269.21 508.179 270.96C508.179 272.71 509.783 274.129 511.762 274.129Z" fill="#97BCCC"/>
<path d="M511.762 288.653C513.742 288.653 515.346 287.234 515.346 285.483C515.346 283.733 513.742 282.314 511.762 282.314C509.783 282.314 508.179 283.733 508.179 285.483C508.179 287.234 509.783 288.653 511.762 288.653Z" fill="#97BCCC"/>
<path d="M532.301 213.635C532.756 211.932 531.563 210.224 529.636 209.822C527.71 209.419 525.78 210.474 525.326 212.177C524.872 213.881 526.065 215.588 527.991 215.991C529.917 216.394 531.847 215.339 532.301 213.635Z" fill="#97BCCC"/>
<path d="M528.801 230.559C530.78 230.559 532.384 229.14 532.384 227.39C532.384 225.639 530.78 224.22 528.801 224.22C526.821 224.22 525.217 225.639 525.217 227.39C525.217 229.14 526.821 230.559 528.801 230.559Z" fill="#97BCCC"/>
<path d="M528.801 245.082C530.78 245.082 532.384 243.663 532.384 241.913C532.384 240.163 530.78 238.744 528.801 238.744C526.821 238.744 525.217 240.163 525.217 241.913C525.217 243.663 526.821 245.082 528.801 245.082Z" fill="#97BCCC"/>
<path d="M528.801 259.606C530.78 259.606 532.384 258.187 532.384 256.436C532.384 254.686 530.78 253.267 528.801 253.267C526.821 253.267 525.217 254.686 525.217 256.436C525.217 258.187 526.821 259.606 528.801 259.606Z" fill="#97BCCC"/>
<path d="M528.801 274.129C530.78 274.129 532.384 272.71 532.384 270.96C532.384 269.21 530.78 267.791 528.801 267.791C526.821 267.791 525.217 269.21 525.217 270.96C525.217 272.71 526.821 274.129 528.801 274.129Z" fill="#97BCCC"/>
<path d="M528.801 288.653C530.78 288.653 532.384 287.234 532.384 285.483C532.384 283.733 530.78 282.314 528.801 282.314C526.821 282.314 525.217 283.733 525.217 285.483C525.217 287.234 526.821 288.653 528.801 288.653Z" fill="#97BCCC"/>
<path d="M547.228 215.791C549.057 215.12 549.925 213.266 549.169 211.648C548.412 210.03 546.316 209.263 544.487 209.933C542.659 210.604 541.79 212.459 542.547 214.076C543.304 215.694 545.4 216.462 547.228 215.791Z" fill="#97BCCC"/>
<path d="M545.842 230.559C547.821 230.559 549.425 229.14 549.425 227.39C549.425 225.639 547.821 224.22 545.842 224.22C543.862 224.22 542.258 225.639 542.258 227.39C542.258 229.14 543.862 230.559 545.842 230.559Z" fill="#97BCCC"/>
<path d="M545.842 245.082C547.821 245.082 549.425 243.663 549.425 241.913C549.425 240.163 547.821 238.744 545.842 238.744C543.862 238.744 542.258 240.163 542.258 241.913C542.258 243.663 543.862 245.082 545.842 245.082Z" fill="#97BCCC"/>
<path d="M545.842 259.606C547.821 259.606 549.425 258.187 549.425 256.436C549.425 254.686 547.821 253.267 545.842 253.267C543.862 253.267 542.258 254.686 542.258 256.436C542.258 258.187 543.862 259.606 545.842 259.606Z" fill="#97BCCC"/>
<path d="M545.842 274.129C547.821 274.129 549.425 272.71 549.425 270.96C549.425 269.21 547.821 267.791 545.842 267.791C543.862 267.791 542.258 269.21 542.258 270.96C542.258 272.71 543.862 274.129 545.842 274.129Z" fill="#97BCCC"/>
<path d="M545.842 288.653C547.821 288.653 549.425 287.234 549.425 285.483C549.425 283.733 547.821 282.314 545.842 282.314C543.862 282.314 542.258 283.733 542.258 285.483C542.258 287.234 543.862 288.653 545.842 288.653Z" fill="#97BCCC"/>
<path d="M564.267 215.791C566.095 215.121 566.964 213.266 566.207 211.648C565.45 210.03 563.354 209.263 561.526 209.933C559.698 210.604 558.829 212.459 559.586 214.076C560.342 215.694 562.438 216.462 564.267 215.791Z" fill="#97BCCC"/>
<path d="M562.88 230.559C564.859 230.559 566.464 229.14 566.464 227.39C566.464 225.639 564.859 224.22 562.88 224.22C560.9 224.22 559.296 225.639 559.296 227.39C559.296 229.14 560.9 230.559 562.88 230.559Z" fill="#97BCCC"/>
<path d="M562.88 245.082C564.859 245.082 566.464 243.664 566.464 241.913C566.464 240.163 564.859 238.744 562.88 238.744C560.9 238.744 559.296 240.163 559.296 241.913C559.296 243.664 560.9 245.082 562.88 245.082Z" fill="#97BCCC"/>
<path d="M562.88 259.606C564.859 259.606 566.464 258.187 566.464 256.437C566.464 254.686 564.859 253.267 562.88 253.267C560.9 253.267 559.296 254.686 559.296 256.437C559.296 258.187 560.9 259.606 562.88 259.606Z" fill="#97BCCC"/>
<path d="M562.88 274.13C564.859 274.13 566.464 272.711 566.464 270.96C566.464 269.21 564.859 267.791 562.88 267.791C560.9 267.791 559.296 269.21 559.296 270.96C559.296 272.711 560.9 274.13 562.88 274.13Z" fill="#97BCCC"/>
<path d="M562.88 288.653C564.859 288.653 566.464 287.234 566.464 285.484C566.464 283.733 564.859 282.314 562.88 282.314C560.9 282.314 559.296 283.733 559.296 285.484C559.296 287.234 560.9 288.653 562.88 288.653Z" fill="#97BCCC"/>
<path d="M583.422 213.638C583.876 211.934 582.683 210.226 580.757 209.824C578.831 209.421 576.901 210.476 576.447 212.179C575.992 213.883 577.185 215.59 579.112 215.993C581.038 216.396 582.968 215.341 583.422 213.638Z" fill="#97BCCC"/>
<path d="M579.919 230.559C581.899 230.559 583.503 229.14 583.503 227.39C583.503 225.639 581.899 224.22 579.919 224.22C577.94 224.22 576.335 225.639 576.335 227.39C576.335 229.14 577.94 230.559 579.919 230.559Z" fill="#97BCCC"/>
<path d="M579.919 245.082C581.899 245.082 583.503 243.664 583.503 241.913C583.503 240.163 581.899 238.744 579.919 238.744C577.94 238.744 576.335 240.163 576.335 241.913C576.335 243.664 577.94 245.082 579.919 245.082Z" fill="#97BCCC"/>
<path d="M579.919 259.606C581.899 259.606 583.503 258.187 583.503 256.437C583.503 254.686 581.899 253.267 579.919 253.267C577.94 253.267 576.335 254.686 576.335 256.437C576.335 258.187 577.94 259.606 579.919 259.606Z" fill="#97BCCC"/>
<path d="M579.919 274.129C581.899 274.129 583.503 272.71 583.503 270.96C583.503 269.21 581.899 267.791 579.919 267.791C577.94 267.791 576.335 269.21 576.335 270.96C576.335 272.71 577.94 274.129 579.919 274.129Z" fill="#97BCCC"/>
<path d="M579.919 288.653C581.899 288.653 583.503 287.234 583.503 285.483C583.503 283.733 581.899 282.314 579.919 282.314C577.94 282.314 576.335 283.733 576.335 285.483C576.335 287.234 577.94 288.653 579.919 288.653Z" fill="#97BCCC"/>
<path d="M9.40992 347.338C11.3892 347.338 12.9937 345.919 12.9937 344.168C12.9937 342.418 11.3892 340.999 9.40992 340.999C7.43067 340.999 5.82617 342.418 5.82617 344.168C5.82617 345.919 7.43067 347.338 9.40992 347.338Z" fill="#97BCCC"/>
<path d="M12.957 359.206C13.2741 357.479 11.9474 355.851 9.99359 355.57C8.03985 355.29 6.19894 356.463 5.8818 358.191C5.56467 359.919 6.8914 361.547 8.84514 361.827C10.7989 362.107 12.6398 360.934 12.957 359.206Z" fill="#97BCCC"/>
<path d="M12.957 373.73C13.2741 372.002 11.9474 370.374 9.99358 370.094C8.03984 369.814 6.19894 370.987 5.8818 372.715C5.56467 374.442 6.8914 376.07 8.84514 376.351C10.7989 376.631 12.6398 375.458 12.957 373.73Z" fill="#97BCCC"/>
<path d="M12.957 388.254C13.2741 386.526 11.9474 384.898 9.99359 384.618C8.03985 384.337 6.19894 385.511 5.8818 387.238C5.56467 388.966 6.8914 390.594 8.84514 390.875C10.7989 391.155 12.6398 389.982 12.957 388.254Z" fill="#97BCCC"/>
<path d="M10.7897 405.199C12.6182 404.529 13.4869 402.674 12.7301 401.056C11.9733 399.439 9.8776 398.671 8.04916 399.341C6.22072 400.012 5.35198 401.867 6.10876 403.484C6.86554 405.102 8.96128 405.87 10.7897 405.199Z" fill="#97BCCC"/>
<path d="M10.7902 419.723C12.6187 419.053 13.4874 417.198 12.7306 415.58C11.9738 413.963 9.87809 413.195 8.04965 413.865C6.22121 414.536 5.35247 416.391 6.10925 418.008C6.86603 419.626 8.96177 420.394 10.7902 419.723Z" fill="#97BCCC"/>
<path d="M26.4505 347.338C28.4297 347.338 30.0342 345.919 30.0342 344.168C30.0342 342.418 28.4297 340.999 26.4505 340.999C24.4712 340.999 22.8667 342.418 22.8667 344.168C22.8667 345.919 24.4712 347.338 26.4505 347.338Z" fill="#97BCCC"/>
<path d="M29.996 359.205C30.3132 357.477 28.9864 355.849 27.0327 355.569C25.079 355.289 23.238 356.462 22.9209 358.19C22.6038 359.917 23.9305 361.545 25.8842 361.826C27.838 362.106 29.6789 360.933 29.996 359.205Z" fill="#97BCCC"/>
<path d="M29.9964 373.729C30.3135 372.001 28.9868 370.373 27.0331 370.093C25.0793 369.812 23.2384 370.986 22.9213 372.713C22.6042 374.441 23.9309 376.069 25.8846 376.35C27.8384 376.63 29.6793 375.457 29.9964 373.729Z" fill="#97BCCC"/>
<path d="M29.9964 388.253C30.3135 386.525 28.9868 384.897 27.0331 384.616C25.0793 384.336 23.2384 385.509 22.9213 387.237C22.6042 388.965 23.9309 390.593 25.8846 390.873C27.8384 391.154 29.6793 389.98 29.9964 388.253Z" fill="#97BCCC"/>
<path d="M27.8303 405.199C29.6587 404.528 30.5274 402.673 29.7707 401.055C29.0139 399.438 26.9181 398.67 25.0897 399.341C23.2613 400.011 22.3925 401.866 23.1493 403.484C23.9061 405.101 26.0018 405.869 27.8303 405.199Z" fill="#97BCCC"/>
<path d="M27.8303 419.722C29.6587 419.052 30.5275 417.197 29.7707 415.579C29.0139 413.962 26.9181 413.194 25.0897 413.865C23.2613 414.535 22.3925 416.39 23.1493 418.008C23.9061 419.625 26.0018 420.393 27.8303 419.722Z" fill="#97BCCC"/>
<path d="M43.489 347.338C45.4683 347.338 47.0728 345.919 47.0728 344.168C47.0728 342.418 45.4683 340.999 43.489 340.999C41.5098 340.999 39.9053 342.418 39.9053 344.168C39.9053 345.919 41.5098 347.338 43.489 347.338Z" fill="#97BCCC"/>
<path d="M46.9619 359.444C47.4173 357.74 46.2249 356.034 44.2986 355.632C42.3723 355.231 40.4415 356.286 39.9861 357.989C39.5307 359.692 40.7231 361.399 42.6494 361.8C44.5757 362.202 46.5065 361.147 46.9619 359.444Z" fill="#97BCCC"/>
<path d="M46.959 373.969C47.4139 372.266 46.2212 370.559 44.295 370.157C42.3687 369.755 40.4384 370.81 39.9835 372.513C39.5286 374.216 40.7213 375.923 42.6475 376.326C44.5738 376.728 46.5041 375.673 46.959 373.969Z" fill="#97BCCC"/>
<path d="M46.9585 388.493C47.4135 386.79 46.2207 385.083 44.2945 384.681C42.3682 384.279 40.4379 385.334 39.983 387.037C39.5281 388.74 40.7208 390.447 42.6471 390.85C44.5733 391.252 46.5036 390.197 46.9585 388.493Z" fill="#97BCCC"/>
<path d="M46.0161 404.502C47.415 403.264 47.415 401.256 46.0161 400.017C44.6172 398.779 42.349 398.779 40.9501 400.017C39.5512 401.256 39.5512 403.264 40.9501 404.502C42.349 405.741 44.6172 405.741 46.0161 404.502Z" fill="#97BCCC"/>
<path d="M46.0161 419.026C47.415 417.787 47.415 415.779 46.0161 414.54C44.6172 413.302 42.349 413.302 40.9501 414.54C39.5512 415.779 39.5512 417.787 40.9501 419.026C42.349 420.264 44.6172 420.264 46.0161 419.026Z" fill="#97BCCC"/>
<path d="M559.607 656.361H28.3921V25.6375H559.605V656.361H559.607ZM31.3692 653.728H556.628V28.2703H31.3692V653.728Z" fill="white"/>
<path d="M114.589 583.337C120.484 583.337 125.262 579.111 125.262 573.898C125.262 568.685 120.484 564.459 114.589 564.459C108.695 564.459 103.916 568.685 103.916 573.898C103.916 579.111 108.695 583.337 114.589 583.337Z" fill="#97BCCC"/>
<path d="M207.542 62.9137C210.438 60.3523 210.438 56.1993 207.542 53.6378C204.645 51.0764 199.949 51.0764 197.053 53.6378C194.157 56.1993 194.157 60.3523 197.053 62.9137C199.949 65.4752 204.645 65.4752 207.542 62.9137Z" fill="#97BCCC"/>
<path d="M539.988 475.185C540.644 471.609 537.898 468.24 533.855 467.66C529.811 467.08 526.002 469.508 525.345 473.084C524.689 476.659 527.435 480.029 531.478 480.609C535.522 481.189 539.332 478.761 539.988 475.185Z" fill="#97BCCC"/>
<path d="M273.368 352.62C277.464 352.62 280.785 349.683 280.785 346.06C280.785 342.438 277.464 339.501 273.368 339.501C269.272 339.501 265.951 342.438 265.951 346.06C265.951 349.683 269.272 352.62 273.368 352.62Z" fill="#97BCCC"/>
<path d="M265.402 216.986C265.402 216.986 387.702 239.793 434.148 153.32C480.593 66.8469 360.831 58.7361 324.573 66.113C288.315 73.4899 173.97 85.5517 169.166 144.061C164.363 202.568 265.402 216.986 265.402 216.986Z" fill="#97BCCC"/>
<path d="M306.515 217.294C254.197 230.07 198.751 219.315 163.122 200.377C156.581 196.901 97.5795 165.47 103.404 134.432C106.798 116.351 121.708 104.327 122.971 103.469C134.082 95.9411 146.217 94.8402 153.167 94.2873C171.25 92.8491 175.726 98.6694 199.179 99.8328C213.339 100.535 221.603 101.21 231.122 97.6689C242.095 93.5863 244.953 87.8286 253.881 80.6771C269.524 68.1464 290.572 61.9361 307.527 61.1018C340.175 59.4942 365.5 77.4321 367.424 78.8358C379.734 87.8072 383.51 96.1813 400.768 103.998C410.239 108.288 413.527 109.813 424.688 111.171C444.612 113.594 479.65 129.64 484.268 153.03C487.232 168.037 475.824 180.665 474.047 182.574C462.671 194.788 443.064 202.751 427.626 198.362C419.84 196.149 419.939 192.773 411.971 190.174C396.872 185.249 381.389 192.447 369.8 197.278C369.8 197.278 343.383 208.292 306.515 217.294Z" fill="#06354A"/>
<path d="M227.479 157.348H232.784C232.707 152.682 228.872 149.46 223.043 149.46C217.303 149.46 213.097 152.631 213.122 157.386C213.109 161.247 215.832 163.459 220.256 164.52L223.107 165.236C225.957 165.926 227.543 166.744 227.555 168.509C227.543 170.426 225.727 171.73 222.915 171.73C220.038 171.73 217.967 170.401 217.788 167.78H212.432C212.572 173.443 216.625 176.371 222.979 176.371C229.371 176.371 233.129 173.315 233.142 168.521C233.129 164.162 229.844 161.848 225.293 160.825L222.94 160.263C220.665 159.739 218.76 158.895 218.798 157.016C218.798 155.328 220.294 154.088 223.004 154.088C225.651 154.088 227.274 155.29 227.479 157.348ZM240.781 176L242.724 170.03H252.171L254.114 176H260.046L251.021 149.818H243.887L234.849 176H240.781ZM244.13 165.709L247.352 155.801H247.556L250.778 165.709H244.13ZM276.803 157.348H282.108C282.032 152.682 278.196 149.46 272.367 149.46C266.627 149.46 262.421 152.631 262.446 157.386C262.434 161.247 265.157 163.459 269.58 164.52L272.431 165.236C275.282 165.926 276.867 166.744 276.88 168.509C276.867 170.426 275.051 171.73 272.239 171.73C269.363 171.73 267.292 170.401 267.113 167.78H261.756C261.897 173.443 265.949 176.371 272.303 176.371C278.695 176.371 282.453 173.315 282.466 168.521C282.453 164.162 279.168 161.848 274.617 160.825L272.265 160.263C269.989 159.739 268.084 158.895 268.123 157.016C268.123 155.328 269.618 154.088 272.328 154.088C274.975 154.088 276.598 155.29 276.803 157.348ZM285.192 154.382H293.208V176H298.68V154.382H306.695V149.818H285.192V154.382ZM310.237 176H315.772V166.719H319.812L324.772 176H330.883L325.322 165.824C328.3 164.545 329.95 161.95 329.95 158.371C329.95 153.168 326.511 149.818 320.566 149.818H310.237V176ZM315.772 162.27V154.344H319.505C322.701 154.344 324.248 155.763 324.248 158.371C324.248 160.966 322.701 162.27 319.531 162.27H315.772ZM338.374 176L340.317 170.03H349.765L351.708 176H357.64L348.614 149.818H341.481L332.442 176H338.374ZM341.724 165.709L344.945 155.801H345.15L348.371 165.709H341.724Z" fill="white"/>
<path d="M254.688 121.492C254.324 118.469 252.036 116.73 249.006 116.73C245.548 116.73 242.908 119.172 242.908 123.455C242.908 127.724 245.503 130.179 249.006 130.179C252.362 130.179 254.388 127.948 254.688 125.538L251.888 125.526C251.626 126.925 250.527 127.731 249.05 127.731C247.062 127.731 245.714 126.254 245.714 123.455C245.714 120.732 247.043 119.178 249.07 119.178C250.585 119.178 251.678 120.054 251.888 121.492H254.688ZM258.683 130L259.655 127.015H264.379L265.35 130H268.316L263.803 116.909H260.237L255.717 130H258.683ZM260.358 124.854L261.969 119.901H262.071L263.682 124.854H260.358ZM267.776 119.191H271.784V130H274.52V119.191H278.527V116.909H267.776V119.191ZM280.298 130H289.145V127.718H283.066V124.592H288.665V122.31H283.066V119.191H289.119V116.909H280.298V130ZM300 121.141H302.812C302.454 118.552 300.172 116.73 297.213 116.73C293.755 116.73 291.089 119.223 291.089 123.467C291.089 127.609 293.582 130.179 297.27 130.179C300.575 130.179 302.934 128.089 302.934 124.643V122.994H297.456V125.078H300.268C300.23 126.702 299.124 127.731 297.283 127.731C295.206 127.731 293.895 126.178 293.895 123.442C293.895 120.719 295.257 119.178 297.258 119.178C298.683 119.178 299.648 119.913 300 121.141ZM317.043 123.455C317.043 119.172 314.384 116.73 310.913 116.73C307.423 116.73 304.783 119.172 304.783 123.455C304.783 127.718 307.423 130.179 310.913 130.179C314.384 130.179 317.043 127.737 317.043 123.455ZM314.237 123.455C314.237 126.229 312.92 127.731 310.913 127.731C308.899 127.731 307.589 126.229 307.589 123.455C307.589 120.68 308.899 119.178 310.913 119.178C312.92 119.178 314.237 120.68 314.237 123.455ZM319.093 130H321.861V125.359H323.881L326.361 130H329.416L326.635 124.912C328.125 124.273 328.949 122.975 328.949 121.185C328.949 118.584 327.23 116.909 324.258 116.909H319.093V130ZM321.861 123.135V119.172H323.727C325.325 119.172 326.099 119.881 326.099 121.185C326.099 122.483 325.325 123.135 323.74 123.135H321.861ZM329.593 116.909L334.368 125.372V130H337.117V125.372L341.892 116.909H338.792L335.806 122.547H335.679L332.694 116.909H329.593Z" fill="white"/>
<path d="M488.605 134.591C495.74 128.282 495.74 118.051 488.605 111.741C481.47 105.432 469.902 105.432 462.767 111.741C455.632 118.051 455.632 128.282 462.767 134.591C469.902 140.901 481.47 140.901 488.605 134.591Z" fill="#97BCCC"/>
<path d="M131.747 208.191C152.043 208.191 168.495 193.641 168.495 175.693C168.495 157.745 152.043 143.195 131.747 143.195C111.452 143.195 95 157.745 95 175.693C95 193.641 111.452 208.191 131.747 208.191Z" fill="#97BCCC"/>
<path d="M187.756 216.913C193.202 214.918 195.788 209.396 193.532 204.58C191.276 199.764 185.032 197.477 179.586 199.472C174.14 201.466 171.554 206.988 173.81 211.804C176.066 216.62 182.31 218.907 187.756 216.913Z" fill="#97BCCC"/>
<path d="M459.116 150.576C461.962 148.059 461.962 143.978 459.116 141.461C456.269 138.944 451.655 138.944 448.808 141.461C445.962 143.978 445.962 148.059 448.808 150.576C451.655 153.093 456.269 153.093 459.116 150.576Z" fill="#97BCCC"/>
<path d="M64.5535 462.171C65.197 458.657 62.4978 455.345 58.5246 454.773C54.5514 454.202 50.8087 456.587 50.1652 460.101C49.5217 463.615 52.2209 466.927 56.1941 467.499C60.1673 468.07 63.9099 465.685 64.5535 462.171Z" fill="#97BCCC"/>
<path d="M300.467 546.144C407.316 546.144 493.934 540.739 493.934 534.072C493.934 527.405 407.316 522 300.467 522C193.619 522 107 527.405 107 534.072C107 540.739 193.619 546.144 300.467 546.144Z" fill="#06354A"/>
<path opacity="0.3" d="M232.581 484.069C232.195 487.018 231.768 489.964 231.297 492.907C230.417 498.216 229.428 503.514 228.258 508.79L227.342 512.743C227.011 514.057 226.696 515.374 226.349 516.686C225.998 517.999 225.654 519.312 225.272 520.622C224.899 521.94 224.507 523.229 224.066 524.575C224.064 524.58 224.06 524.595 224.058 524.6C223.711 525.602 222.457 526.182 221.255 525.893C220.054 525.604 219.358 524.557 219.705 523.555L219.719 523.512C220.572 521.041 221.348 518.443 222.069 515.878C222.433 514.592 222.766 513.297 223.115 512.005L224.088 508.114C225.335 502.917 226.408 497.685 227.373 492.439C227.893 489.519 228.37 486.593 228.805 483.661C218.795 482.299 184.613 476.809 191.458 466.136C198.122 455.744 221.464 475.063 229.075 481.804C230.074 474.81 230.838 467.789 231.376 460.754C231.677 456.816 231.906 452.874 232.065 448.929C222.914 447.987 186.841 443.534 193.381 432.428C199.745 421.618 224.807 441.313 232.122 447.41C232.345 441.236 232.398 435.056 232.288 428.878L232.048 420.903L231.683 414.633C223.254 415.036 185.527 416.175 189.689 404.088C193.78 392.206 224.044 409.073 231.618 413.519L231.585 412.934L231.467 410.941L231.295 408.951L230.939 404.973L230.582 400.994C230.446 399.669 230.269 398.347 230.115 397.022C229.692 393.281 229.199 389.546 228.638 385.816C220.652 385.785 182.194 385.014 187.314 373.065C192.309 361.407 221.306 379.916 228.472 384.722C226.859 374.229 224.712 363.79 222.084 353.433C215.968 353.532 178.434 353.675 183.027 342.253C187.519 331.087 216.142 348.997 221.909 352.75C220.319 346.539 218.557 340.356 216.632 334.209C215.129 329.568 213.524 324.953 211.824 320.359C206.673 320.533 171.309 321.344 175.343 310.623C179.283 300.153 206.519 316.614 211.623 319.813C208.379 311.093 204.776 302.465 200.819 293.947C196.875 293.97 164.894 293.871 168.896 284.42C172.796 275.212 196.591 290.809 200.631 293.544C198.157 288.237 195.547 282.971 192.796 277.756C191.239 276.775 163.875 259.349 174.343 253.741C184.721 248.181 192.295 275.665 192.835 277.682C195.675 282.851 198.374 288.076 200.941 293.346C200.302 288.534 197.604 264.127 208.847 266.318C220.633 268.613 203.174 291.448 201.228 293.94C205.314 302.366 209.05 310.912 212.436 319.555C212.933 313.77 215.911 286.55 227.832 290.864C240.262 295.363 216.037 317.358 212.724 320.296C214.485 324.825 216.157 329.378 217.727 333.957C219.734 339.996 221.582 346.074 223.266 352.184C225.64 345.655 236.358 318.384 247.562 325.194C259.191 332.265 228.748 350.17 223.53 353.141C226.331 363.42 228.658 373.793 230.46 384.234C234.583 376.785 250.278 350.334 260.84 358.77C271.841 367.556 237.76 382.625 230.694 385.607C231.321 389.339 231.882 393.079 232.373 396.825C232.552 398.153 232.753 399.48 232.912 400.81L233.34 404.804L233.767 408.799L233.976 410.797L234.116 412.622C240.573 405.458 261.626 383.581 269.686 393.414C278.052 403.618 243.183 412.313 234.246 414.346L234.736 420.803L235.12 428.82C235.341 435.036 235.398 441.257 235.284 447.478C242.099 441.219 266.235 420.282 273.244 430.884C280.481 441.835 243.858 447.713 235.256 448.93C235.166 452.925 235.004 456.921 234.77 460.912C234.34 468.209 233.673 475.5 232.751 482.771C240.665 477.966 269.891 461.208 274.185 472.882C278.58 484.838 241.315 484.345 232.581 484.069Z" fill="#06354A"/>
<path opacity="0.3" d="M341.125 455.171C342.096 453.485 343.022 451.78 344.026 450.105C359.535 440.628 381.482 437.08 411.728 436.249C442.287 435.406 447.21 410.409 447.21 410.409C427.839 419.803 426.659 415.787 391.443 421.648C365.099 426.033 351.364 439.947 346.114 446.681L346.443 446.14L348.358 443.188C349.008 442.208 349.615 441.209 350.3 440.246L352.315 437.336L353.322 435.881C353.663 435.398 354.021 434.924 354.37 434.445L356.475 431.577C357.866 429.666 359.342 427.741 360.697 425.785C362.078 423.835 363.385 421.848 364.662 419.849C366.456 416.991 368.127 414.076 369.649 411.109C387.695 399.88 420.925 399.719 420.925 399.719C453.958 395.948 455.444 373.866 455.509 371.761C455.511 371.754 455.509 371.746 455.511 371.738C455.513 371.697 455.517 371.667 455.513 371.647C455.515 371.644 455.515 371.641 455.515 371.641C455.515 371.626 455.513 371.618 455.515 371.61C455.513 371.601 455.513 371.598 455.513 371.598C455.337 372.193 455.134 372.799 454.892 373.409C453.05 376.447 445.776 382.605 417.115 386.345C388.11 390.128 375.643 402.132 371.125 408.112C371.225 407.898 371.328 407.688 371.426 407.474C372.387 405.351 373.28 403.205 374.066 401.03C374.838 398.851 375.517 396.651 376.077 394.426C377.166 389.973 377.771 385.428 377.712 380.88C377.678 378.034 377.381 375.192 376.821 372.387C383.31 364.626 389.757 361.575 395.363 359.656C425.239 349.426 421.167 330.365 421.112 330.121C421.055 330.329 418.859 337.934 398.385 346.724C381.618 353.925 377.531 366.646 376.581 371.269C376.29 369.971 375.943 368.682 375.539 367.405C374.848 365.21 373.997 363.052 373.012 360.941C372.023 358.831 370.894 356.769 369.673 354.753C367.727 351.544 365.513 348.463 363.226 345.43C364.745 341.077 370.587 333.359 370.587 333.359C383.489 314.443 376.79 298.61 376.63 298.245C376.63 298.242 376.626 298.24 376.628 298.237C375.2 309.036 368.808 304.66 362.958 320.102C358.548 331.734 360.841 340.508 362.241 344.128C361.977 343.783 361.713 343.436 361.449 343.091C359.997 341.194 358.54 339.302 357.165 337.37C355.794 335.438 354.506 333.461 353.513 331.376C352.581 329.273 351.707 327.135 350.761 325.028C350.288 323.974 349.818 322.919 349.317 321.874C349.069 321.349 348.813 320.829 348.549 320.311C348.413 320.053 348.281 319.795 348.133 319.54C348.063 319.412 347.986 319.287 347.909 319.162C347.822 319.044 347.759 318.904 347.627 318.816C347.755 318.906 347.818 319.046 347.901 319.166C347.976 319.292 348.051 319.417 348.118 319.547C348.259 319.802 348.388 320.063 348.518 320.322C348.772 320.843 349.016 321.368 349.254 321.895C349.733 322.947 350.182 324.008 350.633 325.068C351.537 327.191 352.363 329.327 353.257 331.458C354.216 333.574 355.473 335.584 356.808 337.543C358.148 339.501 359.57 341.417 360.982 343.335C362.103 344.851 363.212 346.373 364.294 347.907C361.487 345.692 348.833 339.368 343.973 331.782C338.858 323.791 323.629 318.446 323.629 318.446C323.629 318.446 323.627 318.449 323.631 318.454C323.596 318.921 322.313 338.676 343.737 343.55C361.002 347.479 366.514 351.92 368.04 353.566C368.343 354.061 368.641 354.559 368.93 355.06C370.101 357.076 371.174 359.132 372.108 361.228C373.037 363.327 373.831 365.463 374.468 367.632C375.744 371.968 376.37 376.427 376.329 380.883C376.307 383.769 376.012 386.649 375.492 389.502C373.42 366.84 352.357 355.26 335.665 352.595C318.468 349.855 313.489 336.456 313.315 335.988C313.313 335.98 313.313 335.977 313.313 335.977C313.313 335.977 304.219 362.816 339.569 370.369C367.213 376.276 373.693 386.71 375.204 390.974C374.984 392.032 374.732 393.085 374.454 394.134C373.861 396.307 373.15 398.458 372.348 400.586C371.535 402.711 370.613 404.807 369.626 406.883C367.613 411.02 365.284 415.051 362.716 418.974C361.416 420.93 360.084 422.87 358.684 424.778C357.596 426.285 356.458 427.747 355.319 429.231C356.706 421.63 358.112 400.617 336.344 384.184C329.43 378.963 325.654 376.868 303.524 369.375C303.524 369.375 290.566 365.344 283.187 352.786C283.187 352.786 283.186 352.789 283.187 352.801C283.237 353.438 284.868 373.884 303.805 383.3C326.306 394.489 350.623 406.296 354.411 430.421C354.401 430.434 354.389 430.448 354.38 430.462L352.197 433.322C351.835 433.8 351.464 434.274 351.11 434.755L350.064 436.209L347.97 439.118C347.259 440.08 346.623 441.081 345.947 442.062L343.95 445.02L342.045 448.022C340.743 450.01 339.592 452.064 338.375 454.09C337.26 456.068 336.163 458.055 335.109 460.058C327.228 415.322 283.168 405.779 266.974 398.764C254.194 393.232 247.172 384.879 246.973 384.641C246.969 384.636 246.969 384.636 246.969 384.636C242.472 410.383 273.595 421.168 273.595 421.168C317.519 435.447 330.671 453.007 334.286 459.849C334.437 460.183 334.579 460.505 334.715 460.815C333.726 462.72 332.781 464.639 331.906 466.584C329.97 470.828 328.205 475.138 326.771 479.535C325.447 483.587 324.362 487.702 323.578 491.867C322.227 481.736 315.764 460.01 285.47 452.828C246.707 443.638 242.066 428.6 241.81 427.668C246.949 451.773 253.53 455.799 263.907 462.813C272.084 468.341 296.178 472.094 305.783 476.563C313.479 480.15 320.493 491.236 322.971 495.489C322.447 499.184 322.211 502.917 322.276 506.662C322.341 508.969 322.524 511.281 322.889 513.589C323.062 514.744 323.306 515.898 323.584 517.051C323.734 517.628 323.889 518.205 324.072 518.785C324.161 519.074 324.264 519.367 324.364 519.657C324.478 519.963 324.569 520.223 324.734 520.594C324.738 520.602 324.746 520.62 324.75 520.628C325.199 521.578 326.485 522.043 327.622 521.67C328.759 521.297 329.318 520.223 328.871 519.275L328.853 519.238C328.78 519.084 328.668 518.806 328.579 518.575C328.489 518.326 328.396 518.08 328.313 517.825C328.142 517.318 327.99 516.8 327.845 516.277C327.571 515.229 327.321 514.168 327.137 513.091C326.753 510.942 326.535 508.758 326.426 506.567C326.261 502.178 326.529 497.756 327.22 493.367C327.717 490.147 328.41 486.941 329.261 483.76C350.799 474.629 369.035 474.953 369.035 474.953C419.237 475.326 432.133 454.399 433.809 451.198L433.845 451.137C433.941 450.951 433.991 450.835 434.004 450.8C433.831 451.017 430.388 454.52 384.768 454.8C351.003 455.007 336.271 470.176 330.756 478.691C331.973 474.935 333.429 471.226 335.017 467.557C336.803 463.351 338.931 459.248 341.125 455.171Z" fill="#06354A"/>
<path opacity="0.3" d="M167.722 472.524C175.018 463.199 180.204 453.47 179.639 447.836C179.342 444.878 182.95 436.487 182.95 436.487C182.95 436.487 177.685 438.703 175.351 441.894C173.017 445.085 177.782 447.499 167.17 461.063C158.856 471.694 158.846 488.586 159.23 495.398C154.711 489.345 150.447 483.149 146.32 476.89C147.756 472.146 152.541 457.675 160.386 447.171C169.895 434.438 166.497 417.962 162.313 411.966C162.313 411.966 165.851 428.245 154.065 444.622C143.799 458.888 145.751 470.556 145.94 476.31C145.903 476.254 145.865 476.196 145.828 476.141C143.166 472.149 140.588 468.106 137.964 464.088C140.224 460.253 149.222 444.556 150.126 436.342C151.162 426.942 148.006 410.215 148.006 410.215C148.006 410.215 147.711 428.307 141.998 439.367C137.49 448.099 137.267 458.983 137.371 463.183C137.176 462.884 136.981 462.586 136.784 462.287C134.381 458.626 131.968 454.97 129.504 451.336C130.469 447.69 134.367 432.962 135.833 427.203C137.509 420.609 137.915 405.488 129.809 395.535C129.809 395.535 134.389 410.529 128.005 424.676C123.575 434.491 125.907 443.915 127.751 448.768C127.69 448.679 127.631 448.59 127.57 448.503C126.778 447.364 126.014 446.216 125.202 445.087L122.779 441.696C121.113 439.459 119.462 437.213 117.585 435.089C117.549 435.046 117.514 435.006 117.478 434.964C117.567 433.866 117.926 429.62 119.196 415.884C120.754 399.053 107.854 392.398 107.854 392.398C109.851 393.388 112.948 402.875 113.425 414.615C113.826 424.508 116.409 432.414 117.213 434.656C116.868 434.269 116.503 433.894 116.141 433.516C115.662 432.99 115.119 432.509 114.599 432.013C114.116 431.572 113.616 431.145 113.115 430.72C111.579 429.101 107.214 424.08 101.324 413.736C93.9237 400.739 77.1116 397.395 77.1116 397.395C77.1116 397.395 83.0071 399.203 93.4982 413.57C102.636 426.084 111.193 430.269 113.249 431.14C113.633 431.482 114.014 431.824 114.382 432.175C114.886 432.678 115.412 433.163 115.875 433.694C116.352 434.214 116.834 434.729 117.268 435.278C118.383 436.595 119.415 437.962 120.419 439.344C118.641 438.919 112.493 436.814 97.7746 426.461C79.692 413.739 65.6671 418.35 65.6671 418.35C68.8975 417.829 74.1608 420.703 89.8876 429.234C103.853 436.811 117.551 438.988 120.443 439.38C121.06 440.232 121.668 441.089 122.275 441.944L124.607 445.368C125.389 446.507 126.126 447.67 126.888 448.819C127.942 450.424 128.982 452.036 130.016 453.651C109.075 449.921 101.742 446.084 101.742 446.084C82.1759 434.643 62.8739 435.42 62.8739 435.42C69.4373 436.02 76.5009 440.473 93.4529 448.712C108.484 456.017 126.333 454.379 130.186 453.914C132.061 456.849 133.908 459.795 135.752 462.744C136.546 464.013 137.334 465.283 138.12 466.553C113.167 468.323 98.3951 461.2 98.3951 461.2C75.1871 448.802 57 449.708 57 449.708C74.929 453.181 69.3782 457.854 94.2684 465.835C115.794 472.738 133.804 468.166 138.277 466.806C140.324 470.122 142.357 473.444 144.455 476.75C145.583 478.554 146.724 480.355 147.878 482.15C142.022 482.166 130.469 481.244 111.313 473.451C93.2461 466.101 74.2711 472.582 69.3959 474.502C72.3998 473.635 82.103 472.527 109.67 479.332C136.973 486.072 145.725 484.152 148.341 482.864C151.997 488.526 155.797 494.13 159.833 499.623C155.287 497 147.732 493.293 140.86 492.943C130.126 492.398 121.587 490.554 116.373 488.502C111.161 486.45 96.0432 486.436 85.3079 496.07C85.3079 496.07 100.631 490.883 108.699 494.19C116.767 497.498 124.962 499.647 130.012 499.606C134.665 499.567 149.659 498.402 161.123 501.369C161.828 502.314 162.539 503.256 163.26 504.192L165.849 507.513C166.272 508.072 166.733 508.609 167.182 509.154L168.535 510.784L169.889 512.416C170.095 512.659 170.308 512.899 170.521 513.139C136.968 501.653 98.1253 504.601 98.1253 504.601C104.608 504.154 120.985 513.433 133.924 516.184C140.685 517.621 164.348 515.492 171.953 514.751L172.717 515.612L173.428 516.409L174.173 517.188L175.662 518.745L176.407 519.524L177.191 520.282L178.759 521.795C179.015 522.051 179.292 522.293 179.568 522.536L180.396 523.267L181.223 523.998C181.497 524.243 181.8 524.47 182.088 524.707L182.962 525.41C183.11 525.527 183.25 525.646 183.403 525.76L183.868 526.097L184.8 526.769C185.109 526.994 185.458 527.198 185.785 527.413C185.952 527.518 186.114 527.626 186.287 527.73L186.829 528.032C187.014 528.133 187.179 528.234 187.394 528.331C187.613 528.432 187.759 528.517 188.101 528.642L188.19 528.675C188.243 528.693 188.296 528.711 188.351 528.724C189.175 528.933 190.044 528.547 190.296 527.86C190.546 527.173 190.083 526.448 189.26 526.238C189.24 526.233 189.051 526.146 188.923 526.088C188.789 526.034 188.633 525.944 188.485 525.867L188.038 525.628C187.889 525.543 187.741 525.448 187.593 525.357C187.298 525.17 186.994 525.002 186.705 524.8L185.834 524.196L185.399 523.893C185.255 523.791 185.117 523.678 184.975 523.571L184.132 522.92C183.854 522.7 183.563 522.495 183.295 522.263L182.483 521.575L181.672 520.885C181.4 520.655 181.128 520.428 180.872 520.183L179.314 518.739L178.534 518.016L177.787 517.266L176.292 515.766L175.544 515.017L174.825 514.245L173.391 512.697C173.027 512.299 172.654 511.907 172.29 511.509C203.45 475.383 188.062 453.582 189.086 456.029C190.12 458.503 186.287 470.495 178.475 486.56C172.898 498.025 171.579 506.466 171.281 510.36L170.586 509.557L169.209 507.968C168.752 507.437 168.283 506.913 167.85 506.368L165.205 503.121C163.339 500.801 161.521 498.453 159.742 496.083C161.576 481.614 163.43 478.009 167.722 472.524Z" fill="#06354A"/>
<path opacity="0.3" d="M425.271 472.126C417.975 462.801 412.789 453.072 413.354 447.438C413.651 444.48 410.043 436.089 410.043 436.089C410.043 436.089 415.308 438.305 417.642 441.496C419.976 444.687 415.211 447.101 425.823 460.665C434.137 471.296 434.147 488.188 433.763 495C438.282 488.947 442.546 482.751 446.673 476.492C445.237 471.748 440.452 457.277 432.607 446.773C423.098 434.04 426.496 417.564 430.68 411.568C430.68 411.568 427.142 427.847 438.928 444.224C449.194 458.49 447.242 470.158 447.053 475.912C447.09 475.856 447.128 475.798 447.165 475.743C449.827 471.751 452.405 467.708 455.029 463.69C452.769 459.855 443.771 444.158 442.867 435.944C441.831 426.544 444.987 409.817 444.987 409.817C444.987 409.817 445.282 427.909 450.995 438.969C455.503 447.701 455.726 458.585 455.622 462.785C455.817 462.486 456.012 462.188 456.209 461.889C458.612 458.228 461.025 454.572 463.489 450.938C462.524 447.292 458.626 432.564 457.16 426.805C455.484 420.211 455.078 405.09 463.184 395.137C463.184 395.137 458.604 410.131 464.988 424.278C469.418 434.093 467.086 443.517 465.242 448.37C465.303 448.281 465.362 448.192 465.423 448.105C466.215 446.966 466.979 445.818 467.791 444.689L470.214 441.298C471.88 439.061 473.531 436.815 475.408 434.691C475.444 434.648 475.479 434.608 475.515 434.566C475.426 433.468 475.067 429.222 473.797 415.486C472.239 398.655 485.139 392 485.139 392C483.142 392.99 480.045 402.477 479.568 414.217C479.167 424.11 476.584 432.016 475.78 434.258C476.125 433.871 476.49 433.496 476.852 433.118C477.331 432.592 477.874 432.111 478.394 431.615C478.877 431.174 479.377 430.747 479.878 430.322C481.414 428.703 485.779 423.682 491.669 413.338C499.069 400.341 515.881 396.997 515.881 396.997C515.881 396.997 509.986 398.805 499.495 413.172C490.357 425.686 481.8 429.871 479.744 430.742C479.36 431.084 478.979 431.426 478.611 431.777C478.107 432.28 477.581 432.765 477.118 433.296C476.641 433.816 476.159 434.331 475.725 434.88C474.61 436.197 473.578 437.564 472.574 438.946C474.352 438.521 480.5 436.416 495.218 426.063C513.301 413.341 527.326 417.952 527.326 417.952C524.096 417.431 518.83 420.305 503.105 428.836C489.14 436.413 475.442 438.59 472.55 438.982C471.931 439.834 471.325 440.691 470.718 441.546L468.386 444.97C467.604 446.109 466.867 447.272 466.105 448.421C465.051 450.026 464.011 451.638 462.977 453.253C483.918 449.523 491.251 445.686 491.251 445.686C510.817 434.245 530.119 435.022 530.119 435.022C523.556 435.622 516.492 440.075 499.54 448.314C484.509 455.619 466.66 453.981 462.807 453.516C460.932 456.451 459.085 459.397 457.241 462.346C456.447 463.615 455.659 464.885 454.873 466.155C479.826 467.925 494.598 460.802 494.598 460.802C517.806 448.404 535.993 449.31 535.993 449.31C518.064 452.783 523.615 457.456 498.725 465.437C477.199 472.34 459.189 467.768 454.716 466.408C452.669 469.724 450.636 473.046 448.538 476.352C447.41 478.156 446.269 479.957 445.115 481.752C450.971 481.768 462.524 480.846 481.68 473.053C499.747 465.703 518.722 472.184 523.597 474.104C520.593 473.237 510.89 472.129 483.323 478.934C456.02 485.674 447.268 483.754 444.652 482.466C440.996 488.128 437.196 493.732 433.16 499.225C437.706 496.602 445.261 492.895 452.133 492.545C462.867 492 471.406 490.156 476.62 488.104C481.832 486.052 496.95 486.038 507.685 495.672C507.685 495.672 492.362 490.485 484.294 493.792C476.226 497.1 468.031 499.249 462.981 499.208C458.328 499.169 443.334 498.004 431.87 500.971C431.165 501.916 430.454 502.858 429.733 503.794L427.144 507.115C426.721 507.674 426.26 508.211 425.811 508.756L424.458 510.386L423.104 512.018C422.898 512.261 422.685 512.501 422.472 512.741C456.025 501.255 494.868 504.203 494.868 504.203C488.385 503.756 472.008 513.035 459.069 515.786C452.308 517.223 428.645 515.094 421.04 514.353L420.276 515.214L419.565 516.011L418.82 516.79L417.331 518.347L416.586 519.126L415.802 519.884L414.234 521.397C413.978 521.653 413.701 521.895 413.425 522.138L412.598 522.869L411.77 523.6C411.496 523.845 411.193 524.072 410.905 524.309L410.031 525.012C409.883 525.129 409.743 525.248 409.59 525.362L409.125 525.699L408.193 526.371C407.884 526.596 407.535 526.8 407.208 527.015C407.041 527.12 406.879 527.228 406.706 527.332L406.164 527.634C405.979 527.735 405.814 527.836 405.599 527.933C405.38 528.034 405.234 528.119 404.892 528.244L404.803 528.277C404.75 528.295 404.697 528.313 404.641 528.326C403.818 528.535 402.949 528.149 402.697 527.462C402.447 526.775 402.91 526.05 403.733 525.84C403.751 525.835 403.942 525.748 404.07 525.69C404.204 525.636 404.36 525.546 404.508 525.469L404.955 525.23C405.104 525.145 405.252 525.05 405.4 524.959C405.695 524.772 405.999 524.604 406.288 524.402L407.159 523.798L407.596 523.495C407.74 523.393 407.878 523.28 408.02 523.173L408.863 522.522C409.141 522.302 409.432 522.097 409.7 521.865L410.511 521.177L411.323 520.487C411.595 520.257 411.867 520.03 412.123 519.785L413.681 518.341L414.461 517.618L415.207 516.868L416.703 515.368L417.451 514.619L418.17 513.847L419.604 512.299C419.968 511.901 420.341 511.509 420.705 511.111C389.545 474.985 404.933 453.184 403.909 455.631C402.875 458.105 406.708 470.097 414.52 486.162C420.096 497.627 421.416 506.068 421.714 509.962L422.409 509.159L423.786 507.57C424.243 507.039 424.712 506.515 425.145 505.97L427.79 502.723C429.656 500.403 431.474 498.055 433.253 495.685C431.417 481.216 429.563 477.611 425.271 472.126Z" fill="#06354A"/>
<g clip-path="url(#clip1_314_795)">
<path d="M412.606 500.681L413.172 484.896C419.07 480.984 425.649 478.918 432.337 478.877C423.132 488.214 424.282 506.212 418.042 518.769C416.071 522.666 413.419 525.964 410.282 528.417C407.145 530.87 403.603 532.415 399.919 532.939L392.216 538.791C391.159 531.48 391.392 523.972 392.899 516.783C394.406 509.595 397.151 502.897 400.945 497.152C403.099 493.955 405.569 491.108 408.297 488.677C410.142 494.712 412.606 500.681 412.606 500.681Z" fill="#F2F2F2"/>
<path d="M295.802 542.72C291.879 542.374 290.855 543.334 284.92 542.72H274.038L275.453 510.408L292.585 518.926L377.719 521.519L377.669 521.698C377.63 521.836 373.851 535.554 376.805 540.749L376.928 540.964L376.689 540.967L298.591 541.855C297.739 541.865 296.648 542.795 295.802 542.72Z" fill="#F2F2F2"/>
<path d="M300.218 543.142C292.639 542.473 284.791 546.129 278.242 542.002L273.006 542.395L272.991 542.341C272.951 542.191 270.478 518.046 275.477 508.684L275.698 508.272L275.87 510.49L274.221 540.567L277.874 539.054C286.747 544.236 297.299 540.814 307.454 540.766L376.562 540.449C378.009 540.443 379.215 541.67 379.254 543.186L379.258 543.334L304.392 543.327C302.996 543.326 301.604 543.265 300.218 543.142Z" fill="#CCCCCC"/>
<path d="M372.919 528.036L295.148 526.118L295.069 526.081L276.694 517.536L277.042 516.387L295.337 524.895L372.939 526.808L372.919 528.036Z" fill="#E6E6E6"/>
<path d="M372.504 533.202L294.733 531.285L294.654 531.248L276.279 522.703L276.627 521.554L294.922 530.062L372.524 531.975L372.504 533.202Z" fill="#E6E6E6"/>
<path d="M372.089 538.37L294.318 536.451L294.239 536.415L275.864 527.87L276.211 526.72L294.507 535.229L372.109 537.143L372.089 538.37Z" fill="#E6E6E6"/>
<path d="M300.755 521.853C293.544 521.248 286.514 518.787 280.112 514.626L274.721 511.078L274.862 509.325C274.901 509.067 275.016 508.837 275.184 508.678C275.352 508.519 275.561 508.443 275.771 508.464L276.247 508.471L348.775 509.796C353.522 509.869 358.226 510.928 362.691 512.929L378.493 520.048L378.485 520.151C378.352 521.804 377.01 523.08 375.428 523.058L303.986 522.019C302.905 522.003 301.828 521.948 300.755 521.853Z" fill="#E6E6E6"/>
<path d="M378.341 520.428L378.325 520.426L291.351 517.954L291.29 517.919L275.609 508.909L275.769 508.608L276.245 508.615L291.496 517.383L377.664 519.831L378.355 519.851L378.341 520.428Z" fill="#CCCCCC"/>
<path d="M310.726 509.246L309.622 509.226L284.697 508.769L283.516 508.749C289.211 516.272 301.804 518.154 320.262 515.239L310.726 509.246Z" fill="#CCCCCC"/>
<path d="M380.806 329.31L382.327 333.698L379.842 349.284L354.489 344.91L354.691 325.905L355.2 321.743L380.806 329.31Z" fill="#FFB6B6"/>
<path d="M393.905 531.305H388.312L385.649 504.536H393.905V531.305Z" fill="#FFB6B6"/>
<path d="M377.267 540.364C377.268 541.151 377.52 541.904 377.968 542.46C378.416 543.016 379.023 543.329 379.657 543.329H390.298L392.132 538.631L392.845 543.329H396.855L395.728 526.549L393.905 526.417L387.779 525.964L386.792 525.888V530.641L378.299 537.921C377.981 538.195 377.72 538.56 377.541 538.985C377.361 539.411 377.267 539.884 377.267 540.364Z" fill="#2F2E41"/>
<path d="M342.206 500.618H336.613L333.322 461.209L343.832 460.43L342.206 500.618Z" fill="#FFB6B6"/>
<path d="M325.568 509.678C325.568 510.464 325.82 511.218 326.268 511.774C326.716 512.33 327.324 512.643 327.958 512.643H338.599L340.433 507.945L341.145 512.643H345.156L344.029 495.863L342.402 495.744L336.17 495.278L335.093 495.201V499.955L326.6 507.235C326.282 507.508 326.021 507.873 325.841 508.299C325.662 508.724 325.568 509.198 325.568 509.678V509.678Z" fill="#2F2E41"/>
<path d="M396.279 508.221H396.257L395.182 464.696C395.878 463.03 396.231 461.177 396.21 459.3C396.189 457.424 395.794 455.583 395.061 453.941L394.907 453.596L395.307 451.299C395.819 448.348 395.584 445.273 394.633 442.495L393.629 401.894C397.214 373.065 380.128 354.264 380.128 354.264L381.699 339.153L354.063 339.933L354.533 354.264L349.038 377.688C346.146 412.646 326.683 434.619 329.642 468.048C329.648 468.144 329.636 468.241 329.608 468.33C329.308 469.463 329.202 470.661 329.298 471.847C329.394 473.033 329.688 474.181 330.164 475.217C330.287 475.482 330.371 475.771 330.414 476.072C331.023 481.932 331.103 474.519 331.91 480.328L331.753 480.427C331.187 480.669 330.945 481.641 331.211 482.599C331.477 483.556 332.152 484.136 332.718 483.894L347.491 484.09C348.057 483.848 348.3 482.875 348.033 481.917C347.767 480.96 347.092 480.38 346.526 480.622L345.607 481.199L347.145 474.957L347.684 474.333C347.942 474.034 348.143 473.666 348.27 473.257C348.398 472.848 348.449 472.409 348.42 471.972C348.392 471.535 348.284 471.112 348.105 470.734C347.926 470.356 347.68 470.034 347.386 469.79L348.918 459.647L348.7 451.975L349.149 443.272L368.533 408.422L376.375 456.561L384.386 508.706C384.199 508.915 384.059 509.18 383.978 509.476C383.898 509.772 383.88 510.088 383.927 510.395C384 510.824 384.192 511.207 384.469 511.48C384.745 511.753 385.09 511.897 385.443 511.889H396.318C396.546 511.889 396.771 511.823 396.975 511.698C397.179 511.572 397.358 511.389 397.496 511.164C397.634 510.939 397.728 510.677 397.771 510.399C397.814 510.122 397.805 509.835 397.745 509.563C397.653 509.17 397.46 508.827 397.195 508.584C396.93 508.342 396.608 508.214 396.279 508.221V508.221Z" fill="#2F2E41"/>
<path d="M386.608 255.249C386.609 258.028 386.06 260.764 385.009 263.219C383.959 265.673 382.439 267.77 380.583 269.325C378.727 270.88 376.591 271.846 374.364 272.138C372.137 272.43 369.886 272.039 367.809 271C365.731 269.961 363.892 268.305 362.451 266.177C361.01 264.05 360.012 261.516 359.544 258.798C359.077 256.081 359.154 253.262 359.77 250.59C360.385 247.918 361.52 245.475 363.074 243.474L363.14 243.392C363.249 243.25 363.359 243.107 363.474 242.971C363.475 242.971 363.475 242.971 363.476 242.971C363.477 242.971 363.477 242.97 363.478 242.969C363.478 242.969 363.479 242.968 363.479 242.967C363.479 242.966 363.479 242.965 363.479 242.965C363.636 242.822 363.781 242.661 363.912 242.482C365.759 239.28 367.853 236.595 372.926 238.272C380.229 240.688 386.608 245.871 386.608 255.249Z" fill="#2F2E41"/>
<path d="M311.447 247.981C311.416 248.89 311.546 249.795 311.828 250.635C312.109 251.474 312.536 252.226 313.077 252.839C313.619 253.452 314.262 253.91 314.961 254.18C315.66 254.451 316.399 254.529 317.125 254.407L352.412 290.339L357.801 278.585L321.421 246.961C321.176 245.461 320.495 244.125 319.509 243.206C318.522 242.287 317.299 241.849 316.069 241.975C314.84 242.1 313.69 242.781 312.838 243.888C311.987 244.995 311.492 246.452 311.447 247.981V247.981Z" fill="#FFB6B6"/>
<path d="M367.311 300.935C367.311 300.935 367.301 299.641 361.691 299.691C354.728 299.753 335.552 287.35 337.229 275.668C336.433 276.115 335.539 276.22 334.689 275.967C333.839 275.714 333.082 275.118 332.535 274.271L341.871 263.119C344.8 263.365 344.83 265.797 344.579 267.193L352.082 270.892L371.623 284.822L368.173 298.815L367.311 300.935Z" fill="#C6C3F8"/>
<path d="M369.555 273.412C375.891 273.412 381.028 267.039 381.028 259.177C381.028 251.315 375.891 244.941 369.555 244.941C363.218 244.941 358.082 251.315 358.082 259.177C358.082 267.039 363.218 273.412 369.555 273.412Z" fill="#FFB7B7"/>
<path d="M353.786 329.983C353.152 331.033 352.828 332.321 352.869 333.631C352.91 334.941 353.313 336.195 354.01 337.18C354.016 337.598 354.066 338.001 354.543 339.498C354.605 339.643 354.679 339.78 354.762 339.908C354.777 339.94 354.794 339.97 354.812 339.999C355.314 340.805 356.013 341.388 356.804 341.662L377.806 348.936L380.582 349.896L381.07 350.063L381.34 345.358C381.964 344.716 382.383 343.817 382.519 342.826C382.656 341.834 382.502 340.814 382.086 339.95L381.699 339.157L383.954 331.633L384.172 330.888L389.922 311.685L389.928 310.405L389.939 309.082L389.995 299.853C389.998 296.945 389.457 294.075 388.416 291.469C387.374 288.863 385.86 286.592 383.993 284.834C382.292 283.221 380.331 282.081 378.243 281.493L378.198 281.486L375.926 277.693L366.71 278.834L365.947 280.776L365.022 283.115L358.341 288.049L356.058 294.633L354.515 299.088C352.125 301.218 350.7 303.953 350.291 307.21C349.416 314.128 353.32 321.054 353.786 321.847L353.903 329.789L353.786 329.983Z" fill="#C6C3F8"/>
<path d="M381.562 262.909C381.458 262.888 381.354 262.861 381.25 262.841C379.46 262.447 377.671 262.06 375.887 261.659L375.722 256.641L373.56 261.136C368.629 263.167 364.016 262.019 359.675 259.486C358.244 258.643 356.855 257.693 355.516 256.641C355.075 248.154 357.841 242.721 362.987 243.291C363.175 243.311 363.31 243.073 363.474 242.971C363.474 242.971 363.475 242.971 363.476 242.971C363.476 242.971 363.477 242.97 363.478 242.969C363.478 242.969 363.479 242.968 363.479 242.967C363.479 242.966 363.479 242.965 363.479 242.965C363.758 242.802 364.043 242.645 364.328 242.503C366.556 241.422 368.985 241.149 371.333 241.714C373.682 242.279 375.853 243.659 377.594 245.694C381.097 249.844 382.673 256.695 381.562 262.909Z" fill="#2F2E41"/>
<path d="M381.25 262.841C381.25 262.841 377.851 247.1 363.282 243.467C363.266 243.46 363.211 243.433 363.14 243.392C363.096 243.358 363.042 243.324 362.987 243.291C363.151 243.175 363.31 243.073 363.474 242.971C363.475 242.971 363.475 242.971 363.476 242.971C363.477 242.971 363.477 242.97 363.478 242.969C363.478 242.969 363.479 242.968 363.479 242.967C363.479 242.966 363.479 242.965 363.479 242.965C363.622 242.802 363.764 242.639 363.912 242.482L364.328 242.503C364.328 242.503 378.946 239.63 381.25 262.841Z" fill="#FD6584"/>
<path d="M386.855 362.067C386.585 362.353 386.257 362.541 385.907 362.612C385.557 362.682 385.197 362.632 384.869 362.466C384.215 362.121 383.634 361.594 383.171 360.925C381.284 358.469 379.935 355.453 379.254 352.167L379.884 350.778C379.637 349.064 379.869 347.298 380.543 345.771C381.216 344.244 382.29 343.049 383.587 342.385C384.324 341.996 385.142 341.908 385.922 342.132C386.309 342.252 386.663 342.499 386.947 342.847C387.23 343.195 387.432 343.632 387.532 344.111C387.774 345.597 386.777 346.939 385.766 347.792C384.006 349.274 381.971 350.178 379.852 350.417C382.444 352.23 384.684 354.724 386.416 357.726C386.816 358.352 387.111 359.071 387.284 359.841C387.367 360.227 387.371 360.632 387.297 361.021C387.222 361.41 387.07 361.769 386.855 362.067Z" fill="#2F2E41"/>
<path d="M241.83 543.835H434.383C434.547 543.835 434.704 543.754 434.819 543.61C434.935 543.467 435 543.272 435 543.069C435 542.866 434.935 542.672 434.819 542.528C434.704 542.385 434.547 542.304 434.383 542.304H241.83C241.666 542.304 241.509 542.385 241.394 542.528C241.278 542.672 241.213 542.866 241.213 543.069C241.213 543.272 241.278 543.467 241.394 543.61C241.509 543.754 241.666 543.835 241.83 543.835V543.835V543.835Z" fill="#CCCCCC"/>
<path d="M292.968 347.08V347.48C292.274 346.472 291.567 345.472 290.866 344.472C290.572 344.055 290.278 343.638 289.983 343.221C288.736 341.465 287.482 339.714 286.221 337.97C284.953 336.231 283.685 334.493 282.403 332.763C282.094 332.346 281.786 331.929 281.471 331.511C281.219 331.161 280.945 330.835 280.651 330.538C280.355 330.232 280.015 329.999 279.649 329.851C279.228 329.706 278.784 329.7 278.36 329.834C277.877 329.973 277.414 330.19 276.945 330.372C276.462 330.572 275.985 330.764 275.502 330.955C274.535 331.346 273.575 331.737 272.608 332.128C272.597 332.134 272.584 332.137 272.571 332.137C272.559 332.137 272.546 332.134 272.535 332.128C272.523 332.122 272.513 332.113 272.504 332.102C272.495 332.091 272.488 332.078 272.483 332.063L272.482 332.059C272.477 332.042 272.474 332.025 272.475 332.007C272.475 331.989 272.479 331.972 272.486 331.956C272.493 331.94 272.502 331.926 272.513 331.916C272.525 331.905 272.538 331.897 272.552 331.894C272.79 331.798 273.036 331.703 273.281 331.607C274.255 331.207 275.221 330.816 276.195 330.425C276.679 330.225 277.162 330.033 277.646 329.842C278.094 329.631 278.568 329.513 279.047 329.495C279.829 329.564 280.563 329.992 281.107 330.694C281.408 331.042 281.681 331.407 281.954 331.781C282.277 332.215 282.599 332.65 282.921 333.085C284.217 334.841 285.504 336.602 286.782 338.37C288.064 340.143 289.334 341.92 290.593 343.699C290.684 343.829 290.775 343.96 290.866 344.09C291.574 345.081 292.267 346.081 292.968 347.08Z" fill="white"/>
<path d="M280.542 332.139C280.277 331.716 279.925 331.391 279.522 331.198L279.124 331.216C282.25 337.253 286.347 342.426 291.158 346.41C287.619 341.653 284.081 336.896 280.542 332.139Z" fill="white"/>
<path d="M345.8 394.881L329.928 289.437C329.657 287.698 328.917 286.126 327.831 284.978C326.745 283.829 325.376 283.173 323.95 283.116C323.822 283.113 323.693 283.113 323.565 283.116L312.753 283.598L311.589 283.651L306.193 283.891L305.029 283.941L301.558 284.097L231.568 287.214C231.463 287.221 231.354 287.221 231.249 287.218L215.565 286.811L209.761 286.662L209.576 286.659L205.292 286.545L167.964 285.583L158.067 285.324L153.187 285.201L152.018 285.169L146.453 285.027L145.287 284.995L139.594 284.85L138.427 284.818L132.173 284.656L131.192 284.631L125.613 284.486L124.732 284.465H124.603C123.122 284.472 121.691 285.129 120.563 286.319C119.434 287.509 118.681 289.156 118.437 290.969L104.082 400.387C103.937 401.495 103.987 402.63 104.23 403.712C104.472 404.794 104.902 405.797 105.488 406.653C106.074 407.509 106.803 408.196 107.625 408.667C108.446 409.138 109.341 409.382 110.246 409.382H192.683C193.896 409.387 195.077 409.87 196.054 410.763L197.617 412.199C198.694 413.183 199.996 413.716 201.333 413.721C217.255 408.507 233.994 408.507 249.916 413.721C250.736 413.723 251.55 413.524 252.308 413.134C253.066 412.744 253.755 412.171 254.333 411.449C255.323 410.221 256.644 409.492 258.041 409.4L339.987 404.042C340.876 403.985 341.744 403.692 342.535 403.184C343.325 402.676 344.018 401.965 344.568 401.097C345.119 400.23 345.513 399.226 345.726 398.154C345.938 397.082 345.964 395.966 345.8 394.881V394.881Z" fill="#CCCCCC"/>
<path d="M323.343 378.438C323.238 382.011 321.993 385.386 319.883 387.821C317.773 390.256 314.97 391.552 312.09 391.424C307.331 391.215 301.653 391.111 295.49 391.271C275.363 391.805 250.077 395.241 234.867 407.602C232.955 409.159 230.696 409.928 228.412 409.799C228.244 409.787 228.08 409.774 227.912 409.756C225.544 409.487 223.312 408.26 221.561 406.264C213.182 396.751 193.965 385.232 149.977 384.421C149.794 384.421 149.616 384.409 149.438 384.397C148.013 384.286 146.62 383.827 145.338 383.048C144.056 382.268 142.911 381.182 141.967 379.853C141.024 378.524 140.301 376.977 139.839 375.301C139.378 373.625 139.187 371.852 139.278 370.085L143.601 284.955L144.249 272.195L145.387 249.874C145.501 247.626 146.302 245.517 147.625 243.974C148.948 242.432 150.694 241.573 152.51 241.57H152.554L178.76 241.761C189.8 242.381 198.945 244.126 206.193 246.996C208.669 247.948 211.077 249.151 213.395 250.592C216.56 252.496 219.404 255.131 221.774 258.356C223.25 260.416 225.264 261.765 227.462 262.167C227.803 262.23 228.147 262.269 228.491 262.284C230.518 262.388 232.518 261.678 234.194 260.258C251.314 246.026 286.201 244.946 305.467 245.56C308.161 245.638 310.736 246.957 312.689 249.262C314.642 251.566 315.834 254.69 316.032 258.024L316.814 270.722L317.59 283.384L322.072 356.558L323.318 376.916C323.349 377.422 323.357 377.93 323.343 378.438V378.438Z" fill="#F2F2F2"/>
<path d="M156.497 271.526C172.289 265.275 189.908 266.93 204.869 275.737C209.138 278.237 213.169 281.318 216.889 284.923C217.942 285.948 219.439 284.115 218.376 283.079C204.634 269.855 187.368 263.573 170.047 265.495C165.255 266.027 160.524 267.206 155.938 269.012C154.654 269.52 155.203 272.039 156.497 271.526H156.497Z" fill="#3F3D56"/>
<path d="M243.397 285.935C258.08 276.359 275.662 274.271 291.626 279.707C296.177 281.252 300.576 283.422 304.74 286.176C305.933 286.966 306.996 284.715 305.801 283.924C290.586 273.851 272.322 271.532 255.707 277.147C251.072 278.717 246.588 280.908 242.336 283.683C241.138 284.464 242.199 286.716 243.397 285.935Z" fill="#3F3D56"/>
<path d="M243.397 303.321C258.08 293.745 275.662 291.657 291.626 297.092C296.177 298.638 300.576 300.808 304.74 303.562C305.933 304.352 306.996 302.101 305.801 301.31C290.586 291.237 272.322 288.918 255.707 294.533C251.072 296.102 246.588 298.294 242.336 301.069C241.138 301.85 242.199 304.101 243.397 303.321L243.397 303.321Z" fill="#3F3D56"/>
<path d="M306.315 319.774C306.326 319.55 306.282 319.327 306.19 319.134C306.098 318.942 305.961 318.788 305.797 318.693C293.608 310.774 279.788 307.562 266.116 309.471C266.03 309.479 265.951 309.496 265.859 309.505H265.855C265.771 309.514 265.688 309.53 265.605 309.551C257.473 310.713 249.584 313.73 242.336 318.45C242.178 318.567 242.047 318.733 241.957 318.931C241.866 319.13 241.818 319.354 241.818 319.582V352.015C241.821 352.215 241.86 352.411 241.933 352.589C242.006 352.767 242.11 352.922 242.238 353.043C242.366 353.163 242.515 353.246 242.673 353.285C242.831 353.323 242.994 353.317 243.149 353.266C243.472 353.151 243.794 353.041 244.123 352.934C251.45 350.473 258.972 349.014 266.555 348.581C266.716 348.572 266.877 348.564 267.046 348.555C273.222 348.226 279.409 348.502 285.55 349.381C285.679 349.39 285.807 349.407 285.934 349.432C286.25 349.474 286.572 349.521 286.888 349.572C287.015 349.589 287.135 349.606 287.251 349.632C288.479 349.823 289.697 350.04 290.918 350.274C292.681 350.623 294.444 351.012 296.207 351.44C296.317 351.466 296.43 351.5 296.543 351.526C299.373 352.224 302.189 353.032 304.991 353.926C305.147 353.976 305.31 353.981 305.468 353.941C305.626 353.902 305.775 353.818 305.903 353.697C306.031 353.576 306.135 353.42 306.208 353.241C306.28 353.063 306.319 352.866 306.322 352.666V319.825C306.323 319.807 306.32 319.79 306.315 319.774V319.774Z" fill="#3F3D56"/>
<path d="M267.764 311.239C266.994 310.771 266.111 310.675 265.287 310.969C264.923 311.138 264.59 311.396 264.307 311.726C264.024 312.057 263.796 312.453 263.638 312.894C263.352 313.738 263.169 314.631 263.095 315.542C263.051 315.9 263.048 316.352 263.339 316.519C263.444 316.567 263.558 316.578 263.668 316.551C263.778 316.524 263.88 316.46 263.963 316.366C264.113 316.183 264.236 315.969 264.328 315.734C264.832 314.761 265.526 313.961 266.345 313.409C267.164 312.856 268.082 312.569 269.014 312.573L269.79 312.956C269.179 312.274 268.498 311.697 267.764 311.239V311.239Z" fill="#FF6582"/>
<path d="M276.162 318.714C275.56 317.614 274.846 316.44 273.729 316.081C272.435 315.665 271.105 316.491 269.978 317.307C266.624 319.73 263.377 322.372 260.25 325.222L260.253 325.265L267.512 324.712C269.261 324.579 271.069 324.427 272.614 323.514C273.169 323.082 273.789 322.796 274.436 322.672C274.837 322.699 275.231 322.825 275.593 323.041C275.955 323.258 276.279 323.561 276.546 323.934C279.892 327.868 280.86 333.885 284.613 337.341C282.225 330.848 279.398 324.616 276.162 318.714V318.714Z" fill="white"/>
<path d="M267.047 348.554C266.879 348.563 266.717 348.572 266.556 348.581C265.386 348.059 264.188 347.598 262.976 347.198C262.191 346.938 261.393 346.703 260.594 346.503C259.69 346.26 258.78 346.068 257.869 345.903C256.135 345.59 254.387 345.407 252.635 345.356C252.622 345.357 252.608 345.356 252.596 345.351C252.583 345.345 252.571 345.337 252.561 345.326C252.551 345.315 252.543 345.301 252.538 345.286C252.533 345.271 252.53 345.255 252.53 345.238C252.53 345.222 252.533 345.205 252.538 345.19C252.543 345.175 252.551 345.161 252.561 345.15C252.571 345.139 252.583 345.131 252.596 345.126C252.608 345.121 252.622 345.119 252.635 345.121C252.859 345.121 253.083 345.13 253.301 345.147C255.056 345.227 256.806 345.439 258.541 345.782C259.445 345.964 260.349 346.181 261.246 346.425C262.058 346.651 262.871 346.903 263.67 347.181C264.812 347.581 265.937 348.039 267.047 348.554Z" fill="white"/>
<path d="M287.253 349.632C287.134 349.606 287.014 349.589 286.888 349.572C286.405 349.076 285.915 348.607 285.403 348.146C284.765 347.572 284.107 347.033 283.434 346.529C281.945 345.407 280.39 344.425 278.782 343.591C276.241 342.278 273.61 341.248 270.921 340.514C267.854 339.68 264.75 339.076 261.624 338.706C258.5 338.306 255.361 338.062 252.222 337.819C252.089 337.81 252.082 337.567 252.222 337.575C252.614 337.61 253.007 337.636 253.406 337.671C256.58 337.914 259.754 338.193 262.906 338.636C266.032 339.052 269.133 339.72 272.19 340.635C274.798 341.433 277.345 342.518 279.798 343.878C281.209 344.664 282.576 345.568 283.89 346.581C284.723 347.233 285.529 347.929 286.3 348.668C286.622 348.98 286.944 349.293 287.253 349.632Z" fill="white"/>
<path d="M285.935 349.433C285.808 349.407 285.679 349.39 285.55 349.38C285.403 349.233 285.248 349.094 285.095 348.954C284.016 347.997 282.89 347.123 281.725 346.338C280.666 345.624 279.578 344.977 278.467 344.399C275.926 343.082 273.295 342.052 270.606 341.322C267.539 340.488 264.434 339.885 261.309 339.514C258.184 339.114 255.045 338.871 251.906 338.627C251.773 338.61 251.773 338.375 251.906 338.384C252.306 338.419 252.698 338.445 253.09 338.48C256.264 338.723 259.438 339.001 262.591 339.444C265.717 339.86 268.818 340.528 271.874 341.444C274.483 342.24 277.03 343.325 279.482 344.686C280.407 345.208 281.311 345.773 282.194 346.39C283.503 347.282 284.754 348.299 285.935 349.433Z" fill="white"/>
<path d="M296.543 351.528C296.431 351.501 296.318 351.467 296.206 351.441C296.08 351.275 295.961 351.102 295.842 350.928C295.24 350.067 294.644 349.198 294.055 348.32C291.737 344.895 289.536 341.365 287.463 337.767C285.683 334.689 283.995 331.551 282.397 328.352C281.634 326.84 280.898 325.31 280.176 323.762C279.616 322.563 279.069 321.36 278.537 320.155C278.383 319.807 278.236 319.459 278.089 319.112C277.745 318.294 277.402 317.469 277.038 316.66C276.642 315.67 276.06 314.811 275.342 314.157C274.983 313.859 274.568 313.682 274.137 313.644C273.529 313.647 272.932 313.838 272.399 314.2C268.48 316.465 264.782 319.28 261.379 322.589C258.055 325.797 255.049 329.482 252.425 333.568C252.341 333.69 252.159 333.577 252.236 333.446C252.551 332.959 252.873 332.473 253.196 331.994C255.718 328.293 258.558 324.944 261.666 322.006C261.673 321.998 261.687 321.989 261.694 321.98C261.967 321.711 262.241 321.45 262.521 321.198C264.256 319.613 266.062 318.15 267.93 316.817C268.882 316.13 269.856 315.478 270.851 314.861C271.096 314.704 271.349 314.548 271.601 314.4C271.853 314.244 272.105 314.096 272.357 313.948C272.857 313.632 273.403 313.446 273.962 313.401C275.91 313.366 276.911 315.8 277.605 317.443C277.822 317.956 278.047 318.468 278.264 318.981C279.104 320.92 279.98 322.85 280.891 324.753C281.444 325.936 282.019 327.109 282.6 328.274C283.434 329.934 284.289 331.577 285.179 333.212C285.179 333.213 285.179 333.214 285.179 333.215C285.179 333.216 285.18 333.217 285.181 333.218C285.181 333.219 285.182 333.219 285.183 333.22C285.184 333.22 285.185 333.22 285.185 333.22H285.186C286.216 335.15 287.288 337.045 288.395 338.932C290.293 342.157 292.283 345.309 294.364 348.389C295.078 349.45 295.805 350.496 296.543 351.528Z" fill="white"/>
<path d="M271.547 313.135L271.353 313.241C270.909 312.311 270.287 311.531 269.541 310.971C268.796 310.411 267.951 310.089 267.081 310.032C264.213 309.779 261.693 312.151 261.464 315.318C261.371 316.623 261.675 317.923 262.317 318.963L262.137 319.095C261.469 318.012 261.152 316.658 261.249 315.299C261.487 312.001 264.111 309.531 267.098 309.794C268.004 309.853 268.884 310.189 269.66 310.772C270.436 311.355 271.084 312.167 271.547 313.135V313.135Z" fill="#FF6582"/>
<path d="M257.374 319.544C256.621 319.138 255.801 318.96 254.982 319.025C254.162 319.09 253.367 319.395 252.662 319.917C255.237 320.407 257.789 321.064 260.307 321.887C259.264 321.212 258.449 320.155 257.374 319.544Z" fill="white"/>
<path d="M252.648 319.914L252.364 320.168C252.46 320.079 252.56 319.996 252.662 319.917L252.648 319.914Z" fill="white"/>
<path d="M261.185 321.39C261.072 321.25 260.959 321.111 260.846 320.972C259.974 319.795 258.923 318.841 257.755 318.166C257.16 317.855 256.522 317.692 255.876 317.685C255.209 317.704 254.55 317.863 253.926 318.155C253.632 318.285 253.345 318.432 253.062 318.588C252.739 318.768 252.421 318.959 252.105 319.153C251.512 319.515 250.927 319.894 250.349 320.288C249.199 321.072 248.086 321.917 247.008 322.821C246.45 323.29 245.903 323.775 245.367 324.274C244.869 324.739 244.381 325.215 243.903 325.705C243.801 325.809 243.648 325.64 243.751 325.536C243.877 325.406 244.004 325.278 244.131 325.151C244.491 324.791 244.857 324.439 245.228 324.093C245.906 323.462 246.6 322.855 247.313 322.273C248.421 321.367 249.567 320.522 250.751 319.739C251.342 319.347 251.942 318.973 252.55 318.614C252.734 318.506 252.919 318.401 253.107 318.3C253.536 318.062 253.979 317.863 254.432 317.705C255.081 317.474 255.76 317.4 256.432 317.488C257.075 317.59 257.7 317.828 258.278 318.193C259.423 318.99 260.456 320.012 261.337 321.22C261.429 321.335 261.278 321.504 261.185 321.39Z" fill="white"/>
<path d="M156.497 288.912C172.289 282.661 189.908 284.316 204.869 293.123C209.138 295.623 213.169 298.704 216.889 302.309C217.942 303.334 219.439 301.501 218.376 300.465C204.634 287.24 187.368 280.958 170.047 282.88C165.255 283.413 160.524 284.592 155.938 286.397C154.654 286.906 155.203 289.424 156.497 288.912L156.497 288.912Z" fill="#3F3D56"/>
<path d="M156.497 306.298C172.289 300.046 189.908 301.701 204.869 310.509C209.138 313.009 213.169 316.09 216.889 319.695C217.942 320.719 219.439 318.886 218.376 317.851C204.634 304.626 187.368 298.344 170.047 300.266C165.255 300.798 160.524 301.978 155.938 303.783C154.654 304.291 155.203 306.81 156.497 306.298L156.497 306.298Z" fill="#3F3D56"/>
<path d="M156.497 323.684C172.289 317.432 189.908 319.087 204.869 327.894C209.138 330.394 213.169 333.475 216.889 337.08C217.942 338.105 219.439 336.272 218.376 335.236C204.634 322.012 187.368 315.73 170.047 317.652C165.255 318.184 160.524 319.363 155.938 321.169C154.654 321.677 155.203 324.196 156.497 323.684L156.497 323.684Z" fill="#3F3D56"/>
<path d="M156.497 341.069C172.289 334.818 189.908 336.473 204.869 345.28C209.138 347.78 213.169 350.861 216.889 354.466C217.942 355.491 219.439 353.658 218.376 352.622C204.634 339.398 187.368 333.116 170.047 335.038C165.255 335.57 160.524 336.749 155.938 338.555C154.654 339.063 155.203 341.582 156.497 341.069L156.497 341.069Z" fill="#3F3D56"/>
<path d="M156.497 358.455C172.289 352.204 189.908 353.859 204.869 362.666C209.138 365.166 213.169 368.247 216.889 371.852C217.942 372.877 219.439 371.044 218.376 370.008C204.634 356.784 187.368 350.501 170.047 352.424C165.255 352.956 160.524 354.135 155.938 355.941C154.654 356.449 155.203 358.968 156.497 358.455H156.497Z" fill="#3F3D56"/>
<path d="M213.395 250.592V292.283C213.395 293.111 212.227 293.805 210.655 293.995C210.641 293.994 210.628 293.996 210.615 294.001C210.353 294.026 210.076 294.044 209.794 294.044C208.927 294.064 208.064 293.889 207.246 293.529C207.172 293.492 207.098 293.449 207.024 293.412C206.955 293.363 206.88 293.32 206.811 293.271C206.42 292.982 206.193 292.645 206.193 292.283V246.996C208.669 247.948 211.077 249.151 213.395 250.592V250.592Z" fill="#C6C3F8"/>
<path d="M228.49 260.262H227.461V408.928H228.49V260.262Z" fill="#E6E6E6"/>
<path d="M340.388 362.034C341.118 361.951 341.824 361.671 342.457 361.213C343.09 360.755 343.634 360.13 344.052 359.383C344.469 358.635 344.749 357.784 344.872 356.888C344.996 355.991 344.959 355.073 344.765 354.196L366.123 341.826L378.98 316.019L368.874 310.957L360.2 331.752L338.245 349.905C337.08 350.406 336.103 351.421 335.5 352.756C334.898 354.092 334.711 355.655 334.975 357.15C335.239 358.645 335.936 359.968 336.934 360.868C337.931 361.768 339.161 362.183 340.388 362.034V362.034Z" fill="#FFB6B6"/>
<path d="M387.284 291.777C387.284 291.777 389.801 292.796 387.039 298.854C384.827 303.704 374.053 331.638 369.656 337.123C370.118 338.043 370.321 339.127 370.233 340.206C370.144 341.285 369.768 342.296 369.165 343.081L359.014 333.086C358.82 329.45 360.758 329.09 361.907 329.212L364.243 318.943L372.388 293.609L385.475 291L387.284 291.777Z" fill="#C6C3F8"/>
<path d="M387.131 243.814C387.611 241.406 391.093 239.628 385.128 236.267C383.681 235.451 383.741 232.641 382.516 231.383C381.292 230.125 379.499 229.542 378.076 230.421C376.805 231.206 376.089 232.984 375.936 234.735C375.863 236.498 376.027 238.263 376.421 239.959L376.306 240.169C378.668 242.412 381.031 244.655 383.394 246.898C384.262 247.723 385.397 248.586 386.37 247.967C387.471 247.267 386.834 245.305 387.131 243.814Z" fill="#2F2E41"/>
</g>
</g>
<defs>
<clipPath id="clip0_314_795">
<rect width="588" height="682" fill="white"/>
</clipPath>
<clipPath id="clip1_314_795">
<rect width="331" height="314" fill="white" transform="translate(104 230)"/>
</clipPath>
</defs>
</svg>
