<svg width="588" height="682" viewBox="0 0 588 682" fill="none" xmlns="http://www.w3.org/2000/svg">
<path d="M588 0H0V682H588V0Z" fill="#34887D"/>
<path d="M87.7406 0C73.1339 13.9574 65.7226 31.0825 62.4961 48.0019C52.9357 98.1314 25.2686 126.209 0 141.753V0H87.7406Z" fill="#00BFA6"/>
<path d="M588 0V92.7653C575.186 83.2624 559.864 75.0791 541.592 69.481C489.014 53.3712 468.069 22.8499 459.757 0H588Z" fill="#00BFA6"/>
<path d="M118.668 303.038C117.805 303.038 117.062 302.462 116.967 301.686C115.907 292.921 107.58 286.311 97.5972 286.311C94.5494 286.311 91.6336 286.915 88.9281 288.107C88.0815 288.479 87.0544 288.174 86.632 287.427C86.2115 286.678 86.5557 285.77 87.4005 285.396C90.5842 283.994 94.0135 283.284 97.5954 283.284C103.284 283.284 108.737 285.14 112.954 288.511C117.139 291.858 119.772 296.421 120.371 301.363C120.471 302.194 119.79 302.941 118.85 303.03C118.789 303.037 118.728 303.038 118.668 303.038Z" fill="#00BFA6"/>
<path d="M483.031 575.098C482.168 575.098 481.426 574.522 481.331 573.745C480.27 564.981 471.943 558.371 461.961 558.371C458.913 558.371 455.997 558.975 453.291 560.166C452.445 560.54 451.418 560.234 450.995 559.485C450.575 558.736 450.919 557.828 451.766 557.454C454.949 556.052 458.379 555.342 461.961 555.342C467.649 555.342 473.104 557.198 477.319 560.569C481.504 563.916 484.137 568.479 484.734 573.421C484.835 574.252 484.153 574.999 483.214 575.088C483.152 575.095 483.091 575.098 483.031 575.098Z" fill="#00BFA6"/>
<path d="M518.032 368.822C516.348 368.822 514.662 368.654 512.98 368.32C507.429 367.216 502.569 364.346 499.292 360.239C496.04 356.161 494.603 351.198 495.247 346.262C495.355 345.431 496.207 344.836 497.143 344.93C498.083 345.026 498.756 345.778 498.649 346.607C497.508 355.363 503.992 363.428 513.731 365.366C516.705 365.959 519.701 365.934 522.635 365.297C523.552 365.098 524.481 365.595 524.706 366.406C524.931 367.217 524.369 368.039 523.452 368.238C521.658 368.628 519.848 368.822 518.032 368.822Z" fill="#00BFA6"/>
<path d="M120.346 46.0223C120.037 46.0223 119.727 45.9483 119.446 45.7953C116.424 44.1366 113.938 41.9299 112.055 39.2362C109.065 34.9561 107.984 29.8763 109.013 24.9332C110.032 20.0262 113.039 15.6458 117.477 12.5999C118.223 12.0881 119.299 12.2066 119.879 12.8681C120.46 13.528 120.324 14.4791 119.576 14.9925C111.701 20.3964 109.722 30.1347 114.967 37.6466C116.569 39.9388 118.683 41.8164 121.251 43.2249C122.054 43.6659 122.3 44.599 121.803 45.3098C121.478 45.7689 120.918 46.0223 120.346 46.0223Z" fill="#00BFA6"/>
<path d="M452.465 70.99C450.051 70.99 447.636 70.651 445.306 69.9714C444.409 69.7098 443.922 68.8524 444.218 68.0593C444.514 67.2662 445.483 66.835 446.38 67.0967C455.844 69.8628 466.089 65.8856 470.212 57.8455C471.47 55.392 472.054 52.7921 471.945 50.123C471.911 49.2871 472.648 48.5861 473.593 48.5548C474.537 48.5252 475.331 49.1768 475.366 50.0127C475.495 53.1557 474.81 56.2115 473.331 59.0961C470.981 63.6772 466.816 67.304 461.603 69.3066C458.689 70.4272 455.579 70.99 452.465 70.99Z" fill="#00BFA6"/>
<path d="M294.605 611.008C293.825 611.008 293.04 610.974 292.251 610.903C286.591 610.398 281.375 608.066 277.565 604.337C273.782 600.637 271.679 595.861 271.646 590.892C271.64 590.056 272.401 589.374 273.348 589.37C273.352 589.37 273.356 589.37 273.359 589.37C274.301 589.37 275.066 590.041 275.071 590.875C275.131 599.689 282.665 607.005 292.597 607.892C295.63 608.162 298.6 607.821 301.426 606.876C302.31 606.58 303.298 606.975 303.633 607.757C303.968 608.538 303.522 609.412 302.638 609.708C300.044 610.572 297.351 611.008 294.605 611.008Z" fill="#00BFA6"/>
<path d="M431.777 273.69C431.174 273.69 430.57 273.564 430.011 273.307C428.741 272.723 427.952 271.572 427.952 270.305V244.726C427.952 243.458 428.741 242.308 430.011 241.724C431.282 241.14 432.801 241.229 433.973 241.956L454.59 254.747C455.61 255.379 456.218 256.414 456.218 257.516C456.218 258.617 455.61 259.652 454.59 260.286L433.973 273.077C433.314 273.483 432.548 273.69 431.777 273.69ZM431.779 244.368C431.707 244.368 431.641 244.388 431.591 244.411C431.493 244.457 431.375 244.548 431.375 244.726V270.305C431.375 270.483 431.493 270.575 431.591 270.62C431.69 270.664 431.842 270.697 432.006 270.595L452.623 257.804C452.764 257.717 452.794 257.599 452.794 257.515C452.794 257.431 452.764 257.312 452.623 257.225L432.006 244.434C431.926 244.387 431.848 244.368 431.779 244.368Z" fill="#00BFA6"/>
<path d="M23.6718 214.281C23.2792 214.281 22.8829 214.227 22.4996 214.119C21.3143 213.781 20.3876 212.95 20.0192 211.899L12.5838 190.62C12.1614 189.411 12.5317 188.106 13.5495 187.216C14.5692 186.325 16.0484 186.014 17.4123 186.403L44.9399 194.255C46.3038 194.644 47.2974 195.662 47.5375 196.91C47.7756 198.159 47.2156 199.409 46.0712 200.173L25.9773 213.599C25.3074 214.046 24.4943 214.281 23.6718 214.281ZM16.2289 189.263C16.1061 189.263 16.0168 189.315 15.9573 189.368C15.8772 189.437 15.7972 189.556 15.8568 189.725L23.2922 211.004C23.3425 211.148 23.4616 211.211 23.5527 211.236C23.6439 211.262 23.7797 211.273 23.9174 211.181L44.0114 197.755C44.1714 197.648 44.1844 197.51 44.1658 197.413C44.1472 197.316 44.0858 197.189 43.8942 197.135L16.3666 189.282C16.3127 189.269 16.2699 189.263 16.2289 189.263Z" fill="#00BFA6"/>
<path d="M513.148 215.792C514.977 215.121 515.846 213.266 515.089 211.649C514.332 210.031 512.236 209.263 510.408 209.934C508.579 210.605 507.711 212.459 508.467 214.077C509.224 215.695 511.32 216.462 513.148 215.792Z" fill="#00BFA6"/>
<path d="M511.762 230.559C513.742 230.559 515.346 229.14 515.346 227.39C515.346 225.639 513.742 224.22 511.762 224.22C509.783 224.22 508.179 225.639 508.179 227.39C508.179 229.14 509.783 230.559 511.762 230.559Z" fill="#00BFA6"/>
<path d="M511.762 245.082C513.742 245.082 515.346 243.663 515.346 241.913C515.346 240.163 513.742 238.744 511.762 238.744C509.783 238.744 508.179 240.163 508.179 241.913C508.179 243.663 509.783 245.082 511.762 245.082Z" fill="#00BFA6"/>
<path d="M511.762 259.606C513.742 259.606 515.346 258.187 515.346 256.437C515.346 254.686 513.742 253.267 511.762 253.267C509.783 253.267 508.179 254.686 508.179 256.437C508.179 258.187 509.783 259.606 511.762 259.606Z" fill="#00BFA6"/>
<path d="M511.762 274.129C513.742 274.129 515.346 272.71 515.346 270.96C515.346 269.21 513.742 267.791 511.762 267.791C509.783 267.791 508.179 269.21 508.179 270.96C508.179 272.71 509.783 274.129 511.762 274.129Z" fill="#00BFA6"/>
<path d="M511.762 288.653C513.742 288.653 515.346 287.234 515.346 285.483C515.346 283.733 513.742 282.314 511.762 282.314C509.783 282.314 508.179 283.733 508.179 285.483C508.179 287.234 509.783 288.653 511.762 288.653Z" fill="#00BFA6"/>
<path d="M532.301 213.635C532.756 211.932 531.563 210.224 529.636 209.822C527.71 209.419 525.78 210.474 525.326 212.177C524.872 213.881 526.065 215.588 527.991 215.991C529.917 216.394 531.847 215.339 532.301 213.635Z" fill="#00BFA6"/>
<path d="M528.801 230.559C530.78 230.559 532.384 229.14 532.384 227.39C532.384 225.639 530.78 224.22 528.801 224.22C526.821 224.22 525.217 225.639 525.217 227.39C525.217 229.14 526.821 230.559 528.801 230.559Z" fill="#00BFA6"/>
<path d="M528.801 245.082C530.78 245.082 532.384 243.663 532.384 241.913C532.384 240.163 530.78 238.744 528.801 238.744C526.821 238.744 525.217 240.163 525.217 241.913C525.217 243.663 526.821 245.082 528.801 245.082Z" fill="#00BFA6"/>
<path d="M528.801 259.606C530.78 259.606 532.384 258.187 532.384 256.436C532.384 254.686 530.78 253.267 528.801 253.267C526.821 253.267 525.217 254.686 525.217 256.436C525.217 258.187 526.821 259.606 528.801 259.606Z" fill="#00BFA6"/>
<path d="M528.801 274.129C530.78 274.129 532.384 272.71 532.384 270.96C532.384 269.21 530.78 267.791 528.801 267.791C526.821 267.791 525.217 269.21 525.217 270.96C525.217 272.71 526.821 274.129 528.801 274.129Z" fill="#00BFA6"/>
<path d="M528.801 288.653C530.78 288.653 532.384 287.234 532.384 285.483C532.384 283.733 530.78 282.314 528.801 282.314C526.821 282.314 525.217 283.733 525.217 285.483C525.217 287.234 526.821 288.653 528.801 288.653Z" fill="#00BFA6"/>
<path d="M547.228 215.791C549.057 215.12 549.925 213.266 549.169 211.648C548.412 210.03 546.316 209.263 544.487 209.933C542.659 210.604 541.79 212.459 542.547 214.076C543.304 215.694 545.4 216.462 547.228 215.791Z" fill="#00BFA6"/>
<path d="M545.842 230.559C547.821 230.559 549.425 229.14 549.425 227.39C549.425 225.639 547.821 224.22 545.842 224.22C543.862 224.22 542.258 225.639 542.258 227.39C542.258 229.14 543.862 230.559 545.842 230.559Z" fill="#00BFA6"/>
<path d="M545.842 245.082C547.821 245.082 549.425 243.663 549.425 241.913C549.425 240.163 547.821 238.744 545.842 238.744C543.862 238.744 542.258 240.163 542.258 241.913C542.258 243.663 543.862 245.082 545.842 245.082Z" fill="#00BFA6"/>
<path d="M545.842 259.606C547.821 259.606 549.425 258.187 549.425 256.436C549.425 254.686 547.821 253.267 545.842 253.267C543.862 253.267 542.258 254.686 542.258 256.436C542.258 258.187 543.862 259.606 545.842 259.606Z" fill="#00BFA6"/>
<path d="M545.842 274.129C547.821 274.129 549.425 272.71 549.425 270.96C549.425 269.21 547.821 267.791 545.842 267.791C543.862 267.791 542.258 269.21 542.258 270.96C542.258 272.71 543.862 274.129 545.842 274.129Z" fill="#00BFA6"/>
<path d="M545.842 288.653C547.821 288.653 549.425 287.234 549.425 285.483C549.425 283.733 547.821 282.314 545.842 282.314C543.862 282.314 542.258 283.733 542.258 285.483C542.258 287.234 543.862 288.653 545.842 288.653Z" fill="#00BFA6"/>
<path d="M564.267 215.791C566.095 215.121 566.964 213.266 566.207 211.648C565.45 210.03 563.354 209.263 561.526 209.933C559.698 210.604 558.829 212.459 559.586 214.076C560.342 215.694 562.438 216.462 564.267 215.791Z" fill="#00BFA6"/>
<path d="M562.88 230.559C564.859 230.559 566.464 229.14 566.464 227.39C566.464 225.639 564.859 224.22 562.88 224.22C560.9 224.22 559.296 225.639 559.296 227.39C559.296 229.14 560.9 230.559 562.88 230.559Z" fill="#00BFA6"/>
<path d="M562.88 245.082C564.859 245.082 566.464 243.664 566.464 241.913C566.464 240.163 564.859 238.744 562.88 238.744C560.9 238.744 559.296 240.163 559.296 241.913C559.296 243.664 560.9 245.082 562.88 245.082Z" fill="#00BFA6"/>
<path d="M562.88 259.606C564.859 259.606 566.464 258.187 566.464 256.437C566.464 254.686 564.859 253.267 562.88 253.267C560.9 253.267 559.296 254.686 559.296 256.437C559.296 258.187 560.9 259.606 562.88 259.606Z" fill="#00BFA6"/>
<path d="M562.88 274.13C564.859 274.13 566.464 272.711 566.464 270.96C566.464 269.21 564.859 267.791 562.88 267.791C560.9 267.791 559.296 269.21 559.296 270.96C559.296 272.711 560.9 274.13 562.88 274.13Z" fill="#00BFA6"/>
<path d="M562.88 288.653C564.859 288.653 566.464 287.234 566.464 285.484C566.464 283.733 564.859 282.314 562.88 282.314C560.9 282.314 559.296 283.733 559.296 285.484C559.296 287.234 560.9 288.653 562.88 288.653Z" fill="#00BFA6"/>
<path d="M583.422 213.638C583.876 211.934 582.683 210.226 580.757 209.824C578.831 209.421 576.901 210.476 576.447 212.179C575.992 213.883 577.185 215.59 579.112 215.993C581.038 216.396 582.968 215.341 583.422 213.638Z" fill="#00BFA6"/>
<path d="M579.919 230.559C581.899 230.559 583.503 229.14 583.503 227.39C583.503 225.639 581.899 224.22 579.919 224.22C577.94 224.22 576.335 225.639 576.335 227.39C576.335 229.14 577.94 230.559 579.919 230.559Z" fill="#00BFA6"/>
<path d="M579.919 245.082C581.899 245.082 583.503 243.664 583.503 241.913C583.503 240.163 581.899 238.744 579.919 238.744C577.94 238.744 576.335 240.163 576.335 241.913C576.335 243.664 577.94 245.082 579.919 245.082Z" fill="#00BFA6"/>
<path d="M579.919 259.606C581.899 259.606 583.503 258.187 583.503 256.437C583.503 254.686 581.899 253.267 579.919 253.267C577.94 253.267 576.335 254.686 576.335 256.437C576.335 258.187 577.94 259.606 579.919 259.606Z" fill="#00BFA6"/>
<path d="M579.919 274.129C581.899 274.129 583.503 272.71 583.503 270.96C583.503 269.21 581.899 267.791 579.919 267.791C577.94 267.791 576.335 269.21 576.335 270.96C576.335 272.71 577.94 274.129 579.919 274.129Z" fill="#00BFA6"/>
<path d="M579.919 288.653C581.899 288.653 583.503 287.234 583.503 285.483C583.503 283.733 581.899 282.314 579.919 282.314C577.94 282.314 576.335 283.733 576.335 285.483C576.335 287.234 577.94 288.653 579.919 288.653Z" fill="#00BFA6"/>
<path d="M9.40992 347.338C11.3892 347.338 12.9937 345.919 12.9937 344.168C12.9937 342.418 11.3892 340.999 9.40992 340.999C7.43067 340.999 5.82617 342.418 5.82617 344.168C5.82617 345.919 7.43067 347.338 9.40992 347.338Z" fill="#00BFA6"/>
<path d="M12.957 359.206C13.2741 357.479 11.9474 355.851 9.99359 355.57C8.03985 355.29 6.19894 356.463 5.8818 358.191C5.56467 359.919 6.8914 361.547 8.84514 361.827C10.7989 362.107 12.6398 360.934 12.957 359.206Z" fill="#00BFA6"/>
<path d="M12.957 373.73C13.2741 372.002 11.9474 370.374 9.99358 370.094C8.03984 369.814 6.19894 370.987 5.8818 372.715C5.56467 374.442 6.8914 376.07 8.84514 376.351C10.7989 376.631 12.6398 375.458 12.957 373.73Z" fill="#00BFA6"/>
<path d="M12.957 388.254C13.2741 386.526 11.9474 384.898 9.99359 384.618C8.03985 384.337 6.19894 385.511 5.8818 387.238C5.56467 388.966 6.8914 390.594 8.84514 390.875C10.7989 391.155 12.6398 389.982 12.957 388.254Z" fill="#00BFA6"/>
<path d="M10.7897 405.199C12.6182 404.529 13.4869 402.674 12.7301 401.056C11.9733 399.439 9.8776 398.671 8.04916 399.341C6.22072 400.012 5.35198 401.867 6.10876 403.484C6.86554 405.102 8.96128 405.87 10.7897 405.199Z" fill="#00BFA6"/>
<path d="M10.7902 419.723C12.6187 419.053 13.4874 417.198 12.7306 415.58C11.9738 413.963 9.87809 413.195 8.04965 413.865C6.22121 414.536 5.35247 416.391 6.10925 418.008C6.86603 419.626 8.96177 420.394 10.7902 419.723Z" fill="#00BFA6"/>
<path d="M26.4505 347.338C28.4297 347.338 30.0342 345.919 30.0342 344.168C30.0342 342.418 28.4297 340.999 26.4505 340.999C24.4712 340.999 22.8667 342.418 22.8667 344.168C22.8667 345.919 24.4712 347.338 26.4505 347.338Z" fill="#00BFA6"/>
<path d="M29.996 359.205C30.3132 357.477 28.9864 355.849 27.0327 355.569C25.079 355.289 23.238 356.462 22.9209 358.19C22.6038 359.917 23.9305 361.545 25.8842 361.826C27.838 362.106 29.6789 360.933 29.996 359.205Z" fill="#00BFA6"/>
<path d="M29.9964 373.729C30.3135 372.001 28.9868 370.373 27.0331 370.093C25.0793 369.812 23.2384 370.986 22.9213 372.713C22.6042 374.441 23.9309 376.069 25.8846 376.35C27.8384 376.63 29.6793 375.457 29.9964 373.729Z" fill="#00BFA6"/>
<path d="M29.9964 388.253C30.3135 386.525 28.9868 384.897 27.0331 384.616C25.0793 384.336 23.2384 385.509 22.9213 387.237C22.6042 388.965 23.9309 390.593 25.8846 390.873C27.8384 391.154 29.6793 389.98 29.9964 388.253Z" fill="#00BFA6"/>
<path d="M27.8303 405.199C29.6587 404.528 30.5274 402.673 29.7707 401.055C29.0139 399.438 26.9181 398.67 25.0897 399.341C23.2613 400.011 22.3925 401.866 23.1493 403.484C23.9061 405.101 26.0018 405.869 27.8303 405.199Z" fill="#00BFA6"/>
<path d="M27.8303 419.722C29.6587 419.052 30.5275 417.197 29.7707 415.579C29.0139 413.962 26.9181 413.194 25.0897 413.865C23.2613 414.535 22.3925 416.39 23.1493 418.008C23.9061 419.625 26.0018 420.393 27.8303 419.722Z" fill="#00BFA6"/>
<path d="M43.489 347.338C45.4683 347.338 47.0728 345.919 47.0728 344.168C47.0728 342.418 45.4683 340.999 43.489 340.999C41.5098 340.999 39.9053 342.418 39.9053 344.168C39.9053 345.919 41.5098 347.338 43.489 347.338Z" fill="#00BFA6"/>
<path d="M46.9619 359.444C47.4173 357.74 46.2249 356.034 44.2986 355.632C42.3723 355.231 40.4415 356.286 39.9861 357.989C39.5307 359.692 40.7231 361.399 42.6494 361.8C44.5757 362.202 46.5065 361.147 46.9619 359.444Z" fill="#00BFA6"/>
<path d="M46.959 373.969C47.4139 372.266 46.2212 370.559 44.295 370.157C42.3687 369.755 40.4384 370.81 39.9835 372.513C39.5286 374.216 40.7213 375.923 42.6475 376.326C44.5738 376.728 46.5041 375.673 46.959 373.969Z" fill="#00BFA6"/>
<path d="M46.9585 388.493C47.4135 386.79 46.2207 385.083 44.2945 384.681C42.3682 384.279 40.4379 385.334 39.983 387.037C39.5281 388.74 40.7208 390.447 42.6471 390.85C44.5733 391.252 46.5036 390.197 46.9585 388.493Z" fill="#00BFA6"/>
<path d="M46.0161 404.502C47.415 403.264 47.415 401.256 46.0161 400.017C44.6172 398.779 42.349 398.779 40.9501 400.017C39.5512 401.256 39.5512 403.264 40.9501 404.502C42.349 405.741 44.6172 405.741 46.0161 404.502Z" fill="#00BFA6"/>
<path d="M46.0161 419.026C47.415 417.787 47.415 415.779 46.0161 414.54C44.6172 413.302 42.349 413.302 40.9501 414.54C39.5512 415.779 39.5512 417.787 40.9501 419.026C42.349 420.264 44.6172 420.264 46.0161 419.026Z" fill="#00BFA6"/>
<path d="M559.607 656.361H28.3921V25.6375H559.605V656.361H559.607ZM31.3692 653.728H556.628V28.2703H31.3692V653.728Z" fill="white"/>
<path d="M114.589 583.337C120.484 583.337 125.262 579.111 125.262 573.898C125.262 568.685 120.484 564.459 114.589 564.459C108.695 564.459 103.916 568.685 103.916 573.898C103.916 579.111 108.695 583.337 114.589 583.337Z" fill="#7AD0C5"/>
<path d="M207.542 62.9137C210.438 60.3523 210.438 56.1993 207.542 53.6378C204.645 51.0764 199.949 51.0764 197.053 53.6378C194.157 56.1993 194.157 60.3523 197.053 62.9137C199.949 65.4752 204.645 65.4752 207.542 62.9137Z" fill="#7AD0C5"/>
<path d="M539.988 475.185C540.644 471.609 537.898 468.24 533.855 467.66C529.811 467.08 526.002 469.508 525.345 473.084C524.689 476.659 527.435 480.029 531.478 480.609C535.522 481.189 539.332 478.761 539.988 475.185Z" fill="#7AD0C5"/>
<path d="M273.368 352.62C277.464 352.62 280.785 349.683 280.785 346.06C280.785 342.438 277.464 339.501 273.368 339.501C269.272 339.501 265.951 342.438 265.951 346.06C265.951 349.683 269.272 352.62 273.368 352.62Z" fill="#7AD0C5"/>
<path d="M264.937 217.328C264.937 217.328 387.237 240.135 433.683 153.662C480.128 67.1892 360.366 59.0784 324.108 66.4553C287.85 73.8322 173.505 85.894 168.701 144.403C163.898 202.91 264.937 217.328 264.937 217.328Z" fill="#7AD0C5"/>
<path d="M306.515 217.294C254.197 230.07 198.751 219.315 163.122 200.377C156.581 196.901 97.5795 165.47 103.404 134.432C106.798 116.351 121.708 104.327 122.971 103.469C134.082 95.9411 146.217 94.8402 153.167 94.2873C171.25 92.8491 175.726 98.6694 199.179 99.8328C213.339 100.535 221.603 101.21 231.122 97.6689C242.095 93.5863 244.953 87.8286 253.881 80.6771C269.524 68.1464 290.572 61.9361 307.527 61.1018C340.175 59.4942 365.5 77.4321 367.424 78.8358C379.734 87.8072 383.51 96.1813 400.768 103.998C410.239 108.288 413.527 109.813 424.688 111.171C444.612 113.594 479.65 129.64 484.268 153.03C487.232 168.037 475.824 180.665 474.047 182.574C462.671 194.788 443.064 202.751 427.626 198.362C419.84 196.149 419.939 192.773 411.971 190.174C396.872 185.249 381.389 192.447 369.8 197.278C369.8 197.278 343.383 208.292 306.515 217.294Z" fill="#175349"/>
<path d="M488.605 134.591C495.74 128.282 495.74 118.051 488.605 111.741C481.47 105.432 469.902 105.432 462.767 111.741C455.632 118.051 455.632 128.282 462.767 134.591C469.902 140.901 481.47 140.901 488.605 134.591Z" fill="#7AD0C5"/>
<path d="M131.747 208.191C152.043 208.191 168.495 193.641 168.495 175.693C168.495 157.745 152.043 143.195 131.747 143.195C111.452 143.195 95 157.745 95 175.693C95 193.641 111.452 208.191 131.747 208.191Z" fill="#7AD0C5"/>
<path d="M187.756 216.913C193.202 214.918 195.788 209.396 193.532 204.58C191.276 199.764 185.032 197.477 179.586 199.472C174.14 201.466 171.554 206.988 173.81 211.804C176.066 216.62 182.31 218.907 187.756 216.913Z" fill="#7AD0C5"/>
<path d="M459.116 150.576C461.962 148.059 461.962 143.978 459.116 141.461C456.269 138.944 451.655 138.944 448.808 141.461C445.962 143.978 445.962 148.059 448.808 150.576C451.655 153.093 456.269 153.093 459.116 150.576Z" fill="#7AD0C5"/>
<path d="M64.5535 462.171C65.197 458.657 62.4978 455.345 58.5246 454.773C54.5514 454.202 50.8087 456.587 50.1652 460.101C49.5217 463.615 52.2209 466.927 56.1941 467.499C60.1673 468.07 63.9099 465.685 64.5535 462.171Z" fill="#7AD0C5"/>
<path d="M299.467 545.144C406.316 545.144 492.934 539.739 492.934 533.072C492.934 526.405 406.316 521 299.467 521C192.618 521 106 526.405 106 533.072C106 539.739 192.618 545.144 299.467 545.144Z" fill="#175349"/>
<path opacity="0.3" d="M232.581 484.069C232.195 487.018 231.768 489.964 231.297 492.907C230.417 498.216 229.428 503.514 228.258 508.79L227.342 512.743C227.011 514.057 226.696 515.374 226.349 516.686C225.998 517.999 225.654 519.312 225.272 520.622C224.899 521.94 224.507 523.229 224.066 524.575C224.064 524.58 224.06 524.595 224.058 524.6C223.711 525.602 222.457 526.182 221.255 525.893C220.054 525.604 219.358 524.557 219.705 523.555L219.719 523.512C220.572 521.041 221.348 518.443 222.069 515.878C222.433 514.592 222.766 513.297 223.115 512.005L224.088 508.114C225.335 502.917 226.408 497.685 227.373 492.439C227.893 489.519 228.37 486.593 228.805 483.661C218.795 482.299 184.613 476.809 191.458 466.136C198.122 455.744 221.464 475.063 229.075 481.804C230.074 474.81 230.838 467.789 231.376 460.754C231.677 456.816 231.906 452.874 232.065 448.929C222.914 447.987 186.841 443.534 193.381 432.428C199.745 421.618 224.807 441.313 232.122 447.41C232.345 441.236 232.398 435.056 232.288 428.878L232.048 420.903L231.683 414.633C223.254 415.036 185.527 416.175 189.689 404.088C193.78 392.206 224.044 409.073 231.618 413.519L231.585 412.934L231.467 410.941L231.295 408.951L230.939 404.973L230.582 400.994C230.446 399.669 230.269 398.347 230.115 397.022C229.692 393.281 229.199 389.546 228.638 385.816C220.652 385.785 182.194 385.014 187.314 373.065C192.309 361.407 221.306 379.916 228.472 384.722C226.859 374.229 224.712 363.79 222.084 353.433C215.968 353.532 178.434 353.675 183.027 342.253C187.519 331.087 216.142 348.997 221.909 352.75C220.319 346.539 218.557 340.356 216.632 334.209C215.129 329.568 213.524 324.953 211.824 320.359C206.673 320.533 171.309 321.344 175.343 310.623C179.283 300.153 206.519 316.614 211.623 319.813C208.379 311.093 204.776 302.465 200.819 293.947C196.875 293.97 164.894 293.871 168.896 284.42C172.796 275.212 196.591 290.809 200.631 293.544C198.157 288.237 195.547 282.971 192.796 277.756C191.239 276.775 163.875 259.349 174.343 253.741C184.721 248.181 192.295 275.665 192.835 277.682C195.675 282.851 198.374 288.076 200.941 293.346C200.302 288.534 197.604 264.127 208.847 266.318C220.633 268.613 203.174 291.448 201.228 293.94C205.314 302.366 209.05 310.912 212.436 319.555C212.933 313.77 215.911 286.55 227.832 290.864C240.262 295.363 216.037 317.358 212.724 320.296C214.485 324.825 216.157 329.378 217.727 333.957C219.734 339.996 221.582 346.074 223.266 352.184C225.64 345.655 236.358 318.384 247.562 325.194C259.191 332.265 228.748 350.17 223.53 353.141C226.331 363.42 228.658 373.793 230.46 384.234C234.583 376.785 250.278 350.334 260.84 358.77C271.841 367.556 237.76 382.625 230.694 385.607C231.321 389.339 231.882 393.079 232.373 396.825C232.552 398.153 232.753 399.48 232.912 400.81L233.34 404.804L233.767 408.799L233.976 410.797L234.116 412.622C240.573 405.458 261.626 383.581 269.686 393.414C278.052 403.618 243.183 412.313 234.246 414.346L234.736 420.803L235.12 428.82C235.341 435.036 235.398 441.257 235.284 447.478C242.099 441.219 266.235 420.282 273.244 430.884C280.481 441.835 243.858 447.713 235.256 448.93C235.166 452.925 235.004 456.921 234.77 460.912C234.34 468.209 233.673 475.5 232.751 482.771C240.665 477.966 269.891 461.208 274.185 472.882C278.58 484.838 241.315 484.345 232.581 484.069Z" fill="#175349"/>
<path opacity="0.3" d="M341.125 455.171C342.096 453.485 343.022 451.78 344.026 450.105C359.535 440.628 381.482 437.08 411.728 436.249C442.287 435.406 447.21 410.409 447.21 410.409C427.839 419.803 426.659 415.787 391.443 421.648C365.099 426.033 351.364 439.947 346.114 446.681L346.443 446.14L348.358 443.188C349.008 442.208 349.615 441.209 350.3 440.246L352.315 437.336L353.322 435.881C353.663 435.398 354.021 434.924 354.37 434.445L356.475 431.577C357.866 429.666 359.342 427.741 360.697 425.785C362.078 423.835 363.385 421.848 364.662 419.849C366.456 416.991 368.127 414.076 369.649 411.109C387.695 399.88 420.925 399.719 420.925 399.719C453.958 395.948 455.444 373.866 455.509 371.761C455.511 371.754 455.509 371.746 455.511 371.738C455.513 371.697 455.517 371.667 455.513 371.647C455.515 371.644 455.515 371.641 455.515 371.641C455.515 371.626 455.513 371.618 455.515 371.61C455.513 371.601 455.513 371.598 455.513 371.598C455.337 372.193 455.134 372.799 454.892 373.409C453.05 376.447 445.776 382.605 417.115 386.345C388.11 390.128 375.643 402.132 371.125 408.112C371.225 407.898 371.328 407.688 371.426 407.474C372.387 405.351 373.28 403.205 374.066 401.03C374.838 398.851 375.517 396.651 376.077 394.426C377.166 389.973 377.771 385.428 377.712 380.88C377.678 378.034 377.381 375.192 376.821 372.387C383.31 364.626 389.757 361.575 395.363 359.656C425.239 349.426 421.167 330.365 421.112 330.121C421.055 330.329 418.859 337.934 398.385 346.724C381.618 353.925 377.531 366.646 376.581 371.269C376.29 369.971 375.943 368.682 375.539 367.405C374.848 365.21 373.997 363.052 373.012 360.941C372.023 358.831 370.894 356.769 369.673 354.753C367.727 351.544 365.513 348.463 363.226 345.43C364.745 341.077 370.587 333.359 370.587 333.359C383.489 314.443 376.79 298.61 376.63 298.245C376.63 298.242 376.626 298.24 376.628 298.237C375.2 309.036 368.808 304.66 362.958 320.102C358.548 331.734 360.841 340.508 362.241 344.128C361.977 343.783 361.713 343.436 361.449 343.091C359.997 341.194 358.54 339.302 357.165 337.37C355.794 335.438 354.506 333.461 353.513 331.376C352.581 329.273 351.707 327.135 350.761 325.028C350.288 323.974 349.818 322.919 349.317 321.874C349.069 321.349 348.813 320.829 348.549 320.311C348.413 320.053 348.281 319.795 348.133 319.54C348.063 319.412 347.986 319.287 347.909 319.162C347.822 319.044 347.759 318.904 347.627 318.816C347.755 318.906 347.818 319.046 347.901 319.166C347.976 319.292 348.051 319.417 348.118 319.547C348.259 319.802 348.388 320.063 348.518 320.322C348.772 320.843 349.016 321.368 349.254 321.895C349.733 322.947 350.182 324.008 350.633 325.068C351.537 327.191 352.363 329.327 353.257 331.458C354.216 333.574 355.473 335.584 356.808 337.543C358.148 339.501 359.57 341.417 360.982 343.335C362.103 344.851 363.212 346.373 364.294 347.907C361.487 345.692 348.833 339.368 343.973 331.782C338.858 323.791 323.629 318.446 323.629 318.446C323.629 318.446 323.627 318.449 323.631 318.454C323.596 318.921 322.313 338.676 343.737 343.55C361.002 347.479 366.514 351.92 368.04 353.566C368.343 354.061 368.641 354.559 368.93 355.06C370.101 357.076 371.174 359.132 372.108 361.228C373.037 363.327 373.831 365.463 374.468 367.632C375.744 371.968 376.37 376.427 376.329 380.883C376.307 383.769 376.012 386.649 375.492 389.502C373.42 366.84 352.357 355.26 335.665 352.595C318.468 349.855 313.489 336.456 313.315 335.988C313.313 335.98 313.313 335.977 313.313 335.977C313.313 335.977 304.219 362.816 339.569 370.369C367.213 376.276 373.693 386.71 375.204 390.974C374.984 392.032 374.732 393.085 374.454 394.134C373.861 396.307 373.15 398.458 372.348 400.586C371.535 402.711 370.613 404.807 369.626 406.883C367.613 411.02 365.284 415.051 362.716 418.974C361.416 420.93 360.084 422.87 358.684 424.778C357.596 426.285 356.458 427.747 355.319 429.231C356.706 421.63 358.112 400.617 336.344 384.184C329.43 378.963 325.654 376.868 303.524 369.375C303.524 369.375 290.566 365.344 283.187 352.786C283.187 352.786 283.186 352.789 283.187 352.801C283.237 353.438 284.868 373.884 303.805 383.3C326.306 394.489 350.623 406.296 354.411 430.421C354.401 430.434 354.389 430.448 354.38 430.462L352.197 433.322C351.835 433.8 351.464 434.274 351.11 434.755L350.064 436.209L347.97 439.118C347.259 440.08 346.623 441.081 345.947 442.062L343.95 445.02L342.045 448.022C340.743 450.01 339.592 452.064 338.375 454.09C337.26 456.068 336.163 458.055 335.109 460.058C327.228 415.322 283.168 405.779 266.974 398.764C254.194 393.232 247.172 384.879 246.973 384.641C246.969 384.636 246.969 384.636 246.969 384.636C242.472 410.383 273.595 421.168 273.595 421.168C317.519 435.447 330.671 453.007 334.286 459.849C334.437 460.183 334.579 460.505 334.715 460.815C333.726 462.72 332.781 464.639 331.906 466.584C329.97 470.828 328.205 475.138 326.771 479.535C325.447 483.587 324.362 487.702 323.578 491.867C322.227 481.736 315.764 460.01 285.47 452.828C246.707 443.638 242.066 428.6 241.81 427.668C246.949 451.773 253.53 455.799 263.907 462.813C272.084 468.341 296.178 472.094 305.783 476.563C313.479 480.15 320.493 491.236 322.971 495.489C322.447 499.184 322.211 502.917 322.276 506.662C322.341 508.969 322.524 511.281 322.889 513.589C323.062 514.744 323.306 515.898 323.584 517.051C323.734 517.628 323.889 518.205 324.072 518.785C324.161 519.074 324.264 519.367 324.364 519.657C324.478 519.963 324.569 520.223 324.734 520.594C324.738 520.602 324.746 520.62 324.75 520.628C325.199 521.578 326.485 522.043 327.622 521.67C328.759 521.297 329.318 520.223 328.871 519.275L328.853 519.238C328.78 519.084 328.668 518.806 328.579 518.575C328.489 518.326 328.396 518.08 328.313 517.825C328.142 517.318 327.99 516.8 327.845 516.277C327.571 515.229 327.321 514.168 327.137 513.091C326.753 510.942 326.535 508.758 326.426 506.567C326.261 502.178 326.529 497.756 327.22 493.367C327.717 490.147 328.41 486.941 329.261 483.76C350.799 474.629 369.035 474.953 369.035 474.953C419.237 475.326 432.133 454.399 433.809 451.198L433.845 451.137C433.941 450.951 433.991 450.835 434.004 450.8C433.831 451.017 430.388 454.52 384.768 454.8C351.003 455.007 336.271 470.176 330.756 478.691C331.973 474.935 333.429 471.226 335.017 467.557C336.803 463.351 338.931 459.248 341.125 455.171Z" fill="#175349"/>
<path opacity="0.3" d="M167.722 472.524C175.018 463.199 180.204 453.47 179.639 447.836C179.342 444.878 182.95 436.487 182.95 436.487C182.95 436.487 177.685 438.703 175.351 441.894C173.017 445.085 177.782 447.499 167.17 461.063C158.856 471.694 158.846 488.586 159.23 495.398C154.711 489.345 150.447 483.149 146.32 476.89C147.756 472.146 152.541 457.675 160.386 447.171C169.895 434.438 166.497 417.962 162.313 411.966C162.313 411.966 165.851 428.245 154.065 444.622C143.799 458.888 145.751 470.556 145.94 476.31C145.903 476.254 145.865 476.196 145.828 476.141C143.166 472.149 140.588 468.106 137.964 464.088C140.224 460.253 149.222 444.556 150.126 436.342C151.162 426.942 148.006 410.215 148.006 410.215C148.006 410.215 147.711 428.307 141.998 439.367C137.49 448.099 137.267 458.983 137.371 463.183C137.176 462.884 136.981 462.586 136.784 462.287C134.381 458.626 131.968 454.97 129.504 451.336C130.469 447.69 134.367 432.962 135.833 427.203C137.509 420.609 137.915 405.488 129.809 395.535C129.809 395.535 134.389 410.529 128.005 424.676C123.575 434.491 125.907 443.915 127.751 448.768C127.69 448.679 127.631 448.59 127.57 448.503C126.778 447.364 126.014 446.216 125.202 445.087L122.779 441.696C121.113 439.459 119.462 437.213 117.585 435.089C117.549 435.046 117.514 435.006 117.478 434.964C117.567 433.866 117.926 429.62 119.196 415.884C120.754 399.053 107.854 392.398 107.854 392.398C109.851 393.388 112.948 402.875 113.425 414.615C113.826 424.508 116.409 432.414 117.213 434.656C116.868 434.269 116.503 433.894 116.141 433.516C115.662 432.99 115.119 432.509 114.599 432.013C114.116 431.572 113.616 431.145 113.115 430.72C111.579 429.101 107.214 424.08 101.324 413.736C93.9237 400.739 77.1116 397.395 77.1116 397.395C77.1116 397.395 83.0071 399.203 93.4982 413.57C102.636 426.084 111.193 430.269 113.249 431.14C113.633 431.482 114.014 431.824 114.382 432.175C114.886 432.678 115.412 433.163 115.875 433.694C116.352 434.214 116.834 434.729 117.268 435.278C118.383 436.595 119.415 437.962 120.419 439.344C118.641 438.919 112.493 436.814 97.7746 426.461C79.692 413.739 65.6671 418.35 65.6671 418.35C68.8975 417.829 74.1608 420.703 89.8876 429.234C103.853 436.811 117.551 438.988 120.443 439.38C121.06 440.232 121.668 441.089 122.275 441.944L124.607 445.368C125.389 446.507 126.126 447.67 126.888 448.819C127.942 450.424 128.982 452.036 130.016 453.651C109.075 449.921 101.742 446.084 101.742 446.084C82.1759 434.643 62.8739 435.42 62.8739 435.42C69.4373 436.02 76.5009 440.473 93.4529 448.712C108.484 456.017 126.333 454.379 130.186 453.914C132.061 456.849 133.908 459.795 135.752 462.744C136.546 464.013 137.334 465.283 138.12 466.553C113.167 468.323 98.3951 461.2 98.3951 461.2C75.1871 448.802 57 449.708 57 449.708C74.929 453.181 69.3782 457.854 94.2684 465.835C115.794 472.738 133.804 468.166 138.277 466.806C140.324 470.122 142.357 473.444 144.455 476.75C145.583 478.554 146.724 480.355 147.878 482.15C142.022 482.166 130.469 481.244 111.313 473.451C93.2461 466.101 74.2711 472.582 69.3959 474.502C72.3998 473.635 82.103 472.527 109.67 479.332C136.973 486.072 145.725 484.152 148.341 482.864C151.997 488.526 155.797 494.13 159.833 499.623C155.287 497 147.732 493.293 140.86 492.943C130.126 492.398 121.587 490.554 116.373 488.502C111.161 486.45 96.0432 486.436 85.3079 496.07C85.3079 496.07 100.631 490.883 108.699 494.19C116.767 497.498 124.962 499.647 130.012 499.606C134.665 499.567 149.659 498.402 161.123 501.369C161.828 502.314 162.539 503.256 163.26 504.192L165.849 507.513C166.272 508.072 166.733 508.609 167.182 509.154L168.535 510.784L169.889 512.416C170.095 512.659 170.308 512.899 170.521 513.139C136.968 501.653 98.1253 504.601 98.1253 504.601C104.608 504.154 120.985 513.433 133.924 516.184C140.685 517.621 164.348 515.492 171.953 514.751L172.717 515.612L173.428 516.409L174.173 517.188L175.662 518.745L176.407 519.524L177.191 520.282L178.759 521.795C179.015 522.051 179.292 522.293 179.568 522.536L180.396 523.267L181.223 523.998C181.497 524.243 181.8 524.47 182.088 524.707L182.962 525.41C183.11 525.527 183.25 525.646 183.403 525.76L183.868 526.097L184.8 526.769C185.109 526.994 185.458 527.198 185.785 527.413C185.952 527.518 186.114 527.626 186.287 527.73L186.829 528.032C187.014 528.133 187.179 528.234 187.394 528.331C187.613 528.432 187.759 528.517 188.101 528.642L188.19 528.675C188.243 528.693 188.296 528.711 188.351 528.724C189.175 528.933 190.044 528.547 190.296 527.86C190.546 527.173 190.083 526.448 189.26 526.238C189.24 526.233 189.051 526.146 188.923 526.088C188.789 526.034 188.633 525.944 188.485 525.867L188.038 525.628C187.889 525.543 187.741 525.448 187.593 525.357C187.298 525.17 186.994 525.002 186.705 524.8L185.834 524.196L185.399 523.893C185.255 523.791 185.117 523.678 184.975 523.571L184.132 522.92C183.854 522.7 183.563 522.495 183.295 522.263L182.483 521.575L181.672 520.885C181.4 520.655 181.128 520.428 180.872 520.183L179.314 518.739L178.534 518.016L177.787 517.266L176.292 515.766L175.544 515.017L174.825 514.245L173.391 512.697C173.027 512.299 172.654 511.907 172.29 511.509C203.45 475.383 188.062 453.582 189.086 456.029C190.12 458.503 186.287 470.495 178.475 486.56C172.898 498.025 171.579 506.466 171.281 510.36L170.586 509.557L169.209 507.968C168.752 507.437 168.283 506.913 167.85 506.368L165.205 503.121C163.339 500.801 161.521 498.453 159.742 496.083C161.576 481.614 163.43 478.009 167.722 472.524Z" fill="#175349"/>
<path opacity="0.3" d="M425.271 472.126C417.975 462.801 412.789 453.072 413.354 447.438C413.652 444.48 410.043 436.088 410.043 436.088C410.043 436.088 415.308 438.305 417.642 441.496C419.977 444.687 415.212 447.101 425.823 460.665C434.137 471.296 434.147 488.187 433.763 495C438.282 488.946 442.546 482.75 446.673 476.491C445.237 471.748 440.453 457.277 432.607 446.772C423.099 434.039 426.497 417.564 430.68 411.568C430.68 411.568 427.143 427.847 438.928 444.224C449.194 458.489 447.242 470.157 447.053 475.911C447.091 475.856 447.128 475.798 447.166 475.742C449.827 471.751 452.405 467.707 455.029 463.69C452.77 459.855 443.772 444.158 442.868 435.944C441.831 426.544 444.987 409.816 444.987 409.816C444.987 409.816 445.282 427.909 450.995 438.969C455.504 447.7 455.726 458.585 455.622 462.784C455.817 462.485 456.012 462.188 456.209 461.889C458.612 458.228 461.025 454.572 463.489 450.937C462.524 447.291 458.626 432.564 457.16 426.805C455.484 420.211 455.078 405.089 463.184 395.137C463.184 395.137 458.604 410.13 464.988 424.278C469.418 434.092 467.086 443.517 465.242 448.369C465.303 448.28 465.363 448.192 465.424 448.105C466.215 446.966 466.98 445.817 467.791 444.689L470.214 441.297C471.881 439.061 473.531 436.815 475.408 434.69C475.444 434.647 475.479 434.608 475.515 434.565C475.426 433.468 475.068 429.222 473.797 415.485C472.239 398.655 485.139 392 485.139 392C483.142 392.989 480.045 402.477 479.569 414.217C479.167 424.11 476.584 432.015 475.781 434.258C476.125 433.87 476.49 433.496 476.852 433.118C477.331 432.592 477.875 432.11 478.395 431.614C478.877 431.174 479.378 430.747 479.878 430.321C481.414 428.703 485.779 423.681 491.669 413.338C499.07 400.341 515.882 396.997 515.882 396.997C515.882 396.997 509.986 398.804 499.495 413.172C490.357 425.686 481.8 429.871 479.744 430.742C479.36 431.084 478.98 431.425 478.611 431.777C478.107 432.28 477.581 432.764 477.118 433.295C476.642 433.816 476.159 434.33 475.726 434.879C474.611 436.197 473.579 437.564 472.574 438.946C474.353 438.52 480.5 436.415 495.219 426.062C513.301 413.341 527.326 417.952 527.326 417.952C524.096 417.431 518.831 420.305 503.106 428.836C489.14 436.412 475.442 438.589 472.55 438.982C471.932 439.833 471.325 440.691 470.718 441.545L468.386 444.97C467.604 446.108 466.867 447.272 466.105 448.42C465.051 450.025 464.011 451.637 462.977 453.253C483.918 449.523 491.252 445.686 491.252 445.686C510.817 434.245 530.119 435.022 530.119 435.022C523.556 435.622 516.492 440.075 499.54 448.313C484.509 455.619 466.661 453.981 462.808 453.515C460.932 456.45 459.085 459.396 457.241 462.346C456.447 463.614 455.659 464.884 454.873 466.154C479.827 467.924 494.598 460.801 494.598 460.801C517.806 448.404 535.993 449.309 535.993 449.309C518.064 452.783 523.615 457.456 498.725 465.436C477.199 472.339 459.189 467.768 454.716 466.407C452.669 469.723 450.636 473.046 448.539 476.352C447.41 478.156 446.269 479.957 445.115 481.751C450.971 481.767 462.524 480.846 481.68 473.052C499.747 465.703 518.722 472.183 523.597 474.104C520.593 473.236 510.89 472.129 483.323 478.933C456.02 485.673 447.268 483.754 444.652 482.466C440.996 488.128 437.196 493.731 433.16 499.224C437.707 496.602 445.261 492.895 452.133 492.545C462.867 491.999 471.406 490.156 476.62 488.103C481.832 486.051 496.95 486.038 507.685 495.672C507.685 495.672 492.362 490.484 484.294 493.792C476.226 497.1 468.032 499.249 462.981 499.208C458.328 499.168 443.334 498.003 431.87 500.971C431.165 501.916 430.454 502.857 429.733 503.794L427.145 507.114C426.721 507.673 426.26 508.21 425.811 508.756L424.458 510.386L423.105 512.018C422.898 512.261 422.685 512.501 422.472 512.74C456.026 501.255 494.868 504.203 494.868 504.203C488.385 503.756 472.009 513.035 459.069 515.785C452.309 517.223 428.646 515.093 421.04 514.352L420.276 515.213L419.565 516.01L418.82 516.789L417.331 518.347L416.587 519.126L415.803 519.883L414.235 521.397C413.979 521.653 413.701 521.894 413.425 522.138L412.598 522.869L411.77 523.6C411.497 523.845 411.193 524.072 410.906 524.308L410.031 525.011C409.883 525.128 409.744 525.248 409.59 525.361L409.125 525.698L408.193 526.37C407.884 526.595 407.535 526.799 407.208 527.014C407.041 527.12 406.879 527.228 406.706 527.331L406.164 527.634C405.979 527.734 405.814 527.836 405.599 527.933C405.38 528.033 405.235 528.119 404.892 528.243L404.803 528.276C404.75 528.294 404.697 528.312 404.642 528.326C403.818 528.534 402.95 528.148 402.698 527.461C402.447 526.774 402.91 526.05 403.734 525.84C403.751 525.835 403.943 525.748 404.071 525.69C404.204 525.636 404.36 525.545 404.508 525.468L404.955 525.23C405.105 525.144 405.252 525.049 405.4 524.959C405.696 524.771 405.999 524.604 406.289 524.402L407.159 523.797L407.596 523.495C407.74 523.393 407.878 523.28 408.02 523.173L408.863 522.522C409.141 522.302 409.432 522.096 409.7 521.865L410.512 521.176L411.323 520.486C411.595 520.256 411.867 520.029 412.123 519.785L413.681 518.34L414.461 517.617L415.208 516.868L416.703 515.368L417.451 514.619L418.17 513.846L419.604 512.298C419.969 511.901 420.341 511.508 420.705 511.111C389.545 474.985 404.933 453.184 403.909 455.63C402.875 458.105 406.708 470.096 414.52 486.161C420.097 497.627 421.417 506.068 421.714 509.962L422.409 509.158L423.786 507.57C424.243 507.039 424.712 506.515 425.145 505.969L427.791 502.722C429.656 500.402 431.474 498.054 433.253 495.685C431.417 481.215 429.564 477.61 425.271 472.126Z" fill="#175349"/>
<path d="M588 510.718V681.998H0C0 608.874 0 535.748 0 462.624C18.3523 469.145 40.7815 480.45 54.1824 500.996C82.7706 544.825 47.2159 595.35 70.2926 610.393C87.5415 621.639 108.694 594.583 154.52 592.36C226.605 588.861 259.599 655.005 310.562 640.972C335.9 633.995 329.084 617.278 361.985 600.984C408.704 577.848 444.354 600.709 493.202 588.438C518.655 582.045 554.224 564.471 588 510.718Z" fill="#00BFA6"/>
<g clip-path="url(#clip0_316_1342)">
<path d="M81.8734 277.17C76.1627 277.17 70.5804 275.142 65.8322 271.342C61.084 267.541 57.3832 262.14 55.1979 255.82C53.0125 249.501 52.4407 242.547 53.5548 235.838C54.6689 229.129 57.4188 222.967 61.4568 218.13C65.4948 213.293 70.6396 209.999 76.2405 208.665C81.8413 207.33 87.6468 208.015 92.9227 210.633C98.1986 213.25 102.708 217.683 105.881 223.371C109.053 229.058 110.747 235.745 110.747 242.585C110.738 251.755 107.693 260.545 102.28 267.029C96.8674 273.513 89.5284 277.16 81.8734 277.17ZM81.8734 209.441C76.4007 209.441 71.0509 211.385 66.5006 215.027C61.9502 218.669 58.4036 223.845 56.3093 229.901C54.215 235.958 53.6671 242.622 54.7348 249.051C55.8024 255.481 58.4377 261.386 62.3075 266.022C66.1773 270.657 71.1076 273.814 76.4751 275.092C81.8427 276.371 87.4062 275.715 92.4623 273.206C97.5184 270.698 101.84 266.45 104.88 260.999C107.921 255.549 109.544 249.14 109.544 242.585C109.535 233.798 106.617 225.373 101.43 219.16C96.2426 212.946 89.2094 209.451 81.8734 209.441V209.441Z" fill="#F2F2F2"/>
<path d="M277.971 256.996C275.116 256.996 272.325 255.981 269.951 254.081C267.577 252.181 265.726 249.48 264.634 246.321C263.541 243.161 263.255 239.684 263.812 236.33C264.369 232.975 265.744 229.894 267.763 227.475C269.782 225.057 272.354 223.41 275.155 222.743C277.955 222.076 280.858 222.418 283.496 223.727C286.134 225.036 288.389 227.252 289.975 230.096C291.561 232.94 292.408 236.283 292.408 239.703C292.404 244.288 290.881 248.683 288.175 251.925C285.468 255.167 281.799 256.99 277.971 256.996V256.996ZM277.971 223.852C275.354 223.852 272.795 224.781 270.619 226.523C268.443 228.265 266.747 230.741 265.745 233.637C264.743 236.533 264.481 239.721 264.992 242.796C265.503 245.87 266.763 248.695 268.614 250.912C270.465 253.129 272.823 254.638 275.39 255.25C277.957 255.862 280.617 255.548 283.036 254.348C285.454 253.148 287.521 251.117 288.975 248.51C290.429 245.903 291.205 242.838 291.205 239.703C291.201 235.5 289.805 231.471 287.325 228.5C284.844 225.528 281.48 223.856 277.971 223.852Z" fill="#F2F2F2"/>
<path d="M379.629 341.297C376.417 341.297 373.277 340.156 370.606 338.018C367.935 335.881 365.854 332.842 364.624 329.288C363.395 325.733 363.074 321.821 363.7 318.048C364.327 314.274 365.874 310.807 368.145 308.087C370.417 305.366 373.31 303.513 376.461 302.762C379.611 302.012 382.877 302.397 385.845 303.87C388.812 305.342 391.349 307.835 393.134 311.035C394.918 314.234 395.871 317.995 395.871 321.843C395.866 327.001 394.153 331.945 391.108 335.593C388.064 339.24 383.935 341.291 379.629 341.297V341.297ZM379.629 303.83C376.655 303.83 373.748 304.886 371.275 306.865C368.802 308.845 366.874 311.658 365.736 314.95C364.598 318.241 364.3 321.863 364.88 325.357C365.46 328.851 366.893 332.061 368.996 334.58C371.099 337.099 373.779 338.815 376.696 339.51C379.613 340.205 382.636 339.848 385.384 338.485C388.132 337.121 390.481 334.813 392.133 331.85C393.786 328.888 394.668 325.405 394.668 321.843C394.663 317.067 393.077 312.489 390.258 309.112C387.439 305.735 383.616 303.835 379.629 303.83V303.83Z" fill="#F2F2F2"/>
<path d="M438.53 318.418C446.689 318.418 453.304 310.495 453.304 300.721C453.304 290.948 446.689 283.024 438.53 283.024C430.37 283.024 423.755 290.948 423.755 300.721C423.755 310.495 430.37 318.418 438.53 318.418Z" fill="#FFB8B8"/>
<path d="M440.062 510.867L433.079 513.708L420.608 482.798L430.914 478.605L440.062 510.867Z" fill="#FFB8B8"/>
<path d="M427.414 513.347L440.881 507.868L443.761 518.025L421.815 526.954C421.437 525.62 421.282 524.21 421.358 522.804C421.435 521.399 421.742 520.025 422.262 518.761C422.782 517.498 423.505 516.37 424.389 515.441C425.273 514.512 426.301 513.8 427.414 513.347V513.347Z" fill="#2F2E41"/>
<path d="M455.84 528.327L448.475 528.77L443.542 494.952L454.412 494.297L455.84 528.327Z" fill="#FFB8B8"/>
<path d="M443.108 526.566L457.312 525.711L457.762 536.424L434.614 537.817C434.555 536.41 434.727 535.003 435.122 533.677C435.517 532.35 436.126 531.129 436.915 530.084C437.704 529.04 438.657 528.191 439.719 527.588C440.782 526.984 441.933 526.637 443.108 526.566V526.566Z" fill="#2F2E41"/>
<path d="M412.009 415.965C412.67 415.26 413.193 414.391 413.543 413.418C413.892 412.445 414.06 411.392 414.033 410.334C414.006 409.275 413.786 408.236 413.387 407.29C412.989 406.345 412.423 405.515 411.728 404.86L418.75 380.525L407.928 383.838L402.918 406.439C402.077 407.91 401.715 409.7 401.902 411.469C402.089 413.238 402.811 414.864 403.931 416.038C405.052 417.213 406.493 417.854 407.982 417.84C409.471 417.826 410.904 417.159 412.009 415.965Z" fill="#FFB8B8"/>
<path d="M455.151 518.131C455.056 518.131 454.961 518.124 454.866 518.112L444.868 516.844C444.254 516.77 443.68 516.445 443.242 515.924C442.804 515.403 442.529 514.717 442.463 513.981L434.737 431.474L429.146 454.052L439.57 498.424C439.676 498.876 439.699 499.35 439.637 499.814C439.575 500.277 439.43 500.719 439.212 501.109C438.993 501.499 438.707 501.827 438.372 502.071C438.038 502.315 437.663 502.47 437.273 502.523L427.139 503.919C426.493 504.004 425.844 503.81 425.307 503.372C424.771 502.934 424.383 502.281 424.213 501.53L413.14 451.596C413.049 451.185 413.026 450.757 413.073 450.336L418.05 405.52L455.173 409.086L457.857 514.789C457.868 515.223 457.806 515.655 457.675 516.06C457.544 516.465 457.347 516.834 457.094 517.146C456.842 517.457 456.54 517.705 456.206 517.874C455.873 518.044 455.514 518.131 455.151 518.131V518.131Z" fill="#2F2E41"/>
<path d="M442.319 416.749C429.882 416.749 415.801 410.993 414.948 410.64L414.702 410.537L428.732 324.302L428.99 324.315C434.551 324.585 449.724 324.723 449.877 324.725L450.149 324.727L455.998 400.828L457.043 411.959L456.915 412.083C453.337 415.548 448 416.749 442.319 416.749Z" fill="#00BFA6"/>
<path d="M419.851 409.297L411.075 405.063L415.548 340.256C415.655 338.658 416.061 337.11 416.735 335.725C417.409 334.34 418.334 333.155 419.442 332.256L424.06 328.491C423.929 327.959 423.906 327.397 423.992 326.852C424.077 326.307 424.27 325.794 424.553 325.355C424.837 324.916 425.203 324.564 425.622 324.328C426.041 324.091 426.501 323.977 426.964 323.995L428.286 324.046C428.538 323.843 428.835 323.736 429.138 323.739C429.441 323.741 429.736 323.853 429.985 324.061C430.234 324.268 430.425 324.561 430.533 324.9C430.64 325.24 430.66 325.61 430.589 325.963L430.298 332.829L419.851 409.297Z" fill="#2F2E41"/>
<path d="M415.422 397.679L403.964 397.101L407.676 368.501L410.751 341.591C410.812 340.624 411.054 339.687 411.459 338.848C411.865 338.01 412.423 337.292 413.093 336.748C413.763 336.205 414.527 335.849 415.327 335.709C416.127 335.569 416.944 335.647 417.716 335.938V335.938C418.918 336.389 419.949 337.334 420.628 338.604C421.307 339.875 421.591 341.392 421.43 342.889L418.314 372.046L415.422 397.679Z" fill="#2F2E41"/>
<path d="M433.565 410.288L433.488 409.999C433.434 409.801 428.271 389.96 436.911 366.283L441.244 340.47L444.947 324.262C445.016 323.972 445.141 323.706 445.311 323.484C445.482 323.263 445.693 323.091 445.928 322.985C446.205 322.87 446.503 322.855 446.786 322.942C447.07 323.03 447.325 323.215 447.521 323.475V323.475C450.102 322.567 452.877 322.9 455.257 324.401L460.457 327.683C461.613 328.412 462.534 329.581 463.077 331.005C463.619 332.429 463.751 334.029 463.453 335.553L456.346 371.884L459.801 405.818L433.565 410.288Z" fill="#2F2E41"/>
<path d="M441.133 396.3C442.012 396.414 442.901 396.296 443.738 395.955C444.575 395.613 445.339 395.055 445.977 394.321C446.615 393.587 447.11 392.695 447.429 391.707C447.747 390.718 447.881 389.659 447.82 388.602L463.915 374.321L458.289 371.126L440.934 381.834C439.459 382.073 438.108 382.953 437.138 384.305C436.167 385.658 435.645 387.39 435.669 389.173C435.694 390.956 436.263 392.666 437.27 393.98C438.277 395.293 439.652 396.119 441.133 396.3V396.3Z" fill="#FFB8B8"/>
<path d="M451.223 389.907L445.787 377.753L459.193 367.184L452.651 339.077C452.389 337.951 452.324 336.773 452.459 335.616C452.594 334.459 452.927 333.348 453.436 332.352C453.946 331.356 454.622 330.496 455.421 329.827C456.221 329.158 457.127 328.693 458.083 328.462V328.462C459.773 328.059 461.527 328.404 463.02 329.432C464.514 330.461 465.645 332.104 466.204 334.057L475.031 365.136C475.213 365.777 475.223 366.469 475.06 367.117C474.897 367.765 474.569 368.335 474.122 368.748L451.223 389.907Z" fill="#2F2E41"/>
<path d="M439.575 304.475C437.804 304.751 436.468 302.58 435.848 300.574C435.229 298.568 434.757 296.232 433.217 295.148C431.113 293.667 428.422 295.448 426.016 294.959C423.299 294.408 421.533 290.959 421.394 287.662C421.256 284.366 422.351 281.195 423.426 278.156L423.801 281.933C423.751 280.653 423.975 279.379 424.454 278.233C424.932 277.086 425.648 276.106 426.533 275.386L426.05 280.929C426.153 280.164 426.381 279.431 426.721 278.772C427.061 278.113 427.506 277.541 428.031 277.089C428.556 276.637 429.15 276.313 429.78 276.137C430.409 275.96 431.062 275.935 431.7 276.061L431.624 279.363C434.761 278.916 437.927 278.469 441.074 278.809C444.221 279.15 447.39 280.343 449.775 282.825C453.343 286.539 454.647 292.654 454.209 298.292C453.772 303.929 451.829 309.225 449.804 314.341C449.294 315.629 448.59 317.081 447.408 317.245C446.347 317.392 445.376 316.33 445.046 315.112C444.791 313.863 444.801 312.558 445.074 311.314C445.373 309.414 445.749 307.472 445.468 305.568C445.188 303.664 444.044 301.782 442.442 301.549C440.839 301.315 439.2 303.509 439.97 305.208L439.575 304.475Z" fill="#2F2E41"/>
<path d="M254.053 524.856L248.302 521.955L244.356 487.422H191.819L187.543 521.814L182.398 524.895C182.151 525.043 181.954 525.286 181.837 525.584C181.721 525.883 181.692 526.22 181.755 526.541C181.818 526.862 181.97 527.147 182.186 527.352C182.402 527.557 182.669 527.668 182.944 527.668H253.579C253.861 527.668 254.134 527.551 254.352 527.337C254.571 527.123 254.721 526.825 254.776 526.494C254.832 526.163 254.791 525.819 254.659 525.52C254.527 525.221 254.313 524.987 254.053 524.856Z" fill="#E6E6E6"/>
<path d="M347.415 492.016H89.3369C87.9828 492.013 86.6853 491.366 85.7289 490.218C84.7725 489.069 84.2354 487.514 84.2354 485.892V442.3H352.517V485.892C352.517 487.514 351.98 489.069 351.023 490.218C350.067 491.366 348.769 492.013 347.415 492.016V492.016Z" fill="#CCCCCC"/>
<path d="M352.787 462.903H84V276.383C84.0019 274.425 84.6519 272.549 85.8075 271.165C86.963 269.781 88.5297 269.002 90.1639 269H346.623C348.257 269.002 349.824 269.781 350.979 271.165C352.135 272.549 352.785 274.425 352.787 276.383V462.903Z" fill="#3F3D56"/>
<path d="M336.733 449.365H100.054C98.7938 449.363 97.586 448.763 96.6951 447.696C95.8043 446.629 95.3032 445.182 95.3018 443.673V288.229C95.3032 286.72 95.8042 285.273 96.6951 284.206C97.5859 283.139 98.7938 282.539 100.054 282.537H336.733C337.993 282.539 339.201 283.139 340.092 284.206C340.983 285.273 341.484 286.72 341.485 288.229V443.673C341.484 445.182 340.983 446.629 340.092 447.696C339.201 448.763 337.993 449.363 336.733 449.365Z" fill="white"/>
<path d="M314.498 430.051H122.289C122.129 430.051 121.976 429.975 121.863 429.84C121.75 429.705 121.687 429.522 121.687 429.331V318.98C121.687 318.789 121.75 318.606 121.863 318.47C121.976 318.335 122.129 318.259 122.289 318.259C122.448 318.259 122.601 318.335 122.714 318.47C122.827 318.606 122.89 318.789 122.89 318.98V428.61H314.498C314.658 428.61 314.811 428.686 314.923 428.821C315.036 428.956 315.1 429.139 315.1 429.331C315.1 429.522 315.036 429.705 314.923 429.84C314.811 429.975 314.658 430.051 314.498 430.051Z" fill="#3F3D56"/>
<path d="M163.355 422.125H145.873C145.4 422.125 144.946 421.899 144.611 421.498C144.276 421.097 144.088 420.554 144.087 419.987V391.12C144.088 390.553 144.276 390.009 144.611 389.608C144.946 389.207 145.4 388.982 145.873 388.981H163.355C163.829 388.982 164.282 389.207 164.617 389.608C164.952 390.009 165.14 390.553 165.141 391.12V419.987C165.14 420.554 164.952 421.097 164.617 421.498C164.282 421.899 163.829 422.125 163.355 422.125V422.125Z" fill="#00BFA6"/>
<path d="M195.236 422.125H177.754C177.281 422.125 176.827 421.899 176.492 421.498C176.157 421.097 175.969 420.554 175.968 419.987V363.74C175.969 363.173 176.157 362.629 176.492 362.228C176.827 361.827 177.281 361.602 177.754 361.601H195.236C195.709 361.602 196.163 361.827 196.498 362.228C196.833 362.629 197.021 363.173 197.022 363.74V419.987C197.021 420.554 196.833 421.097 196.498 421.498C196.163 421.899 195.709 422.125 195.236 422.125V422.125Z" fill="#00BFA6"/>
<path d="M227.117 422.125H209.635C209.162 422.125 208.708 421.899 208.373 421.498C208.038 421.097 207.85 420.554 207.85 419.987V391.12C207.85 390.553 208.038 390.009 208.373 389.608C208.708 389.207 209.162 388.982 209.635 388.981H227.117C227.591 388.982 228.045 389.207 228.379 389.608C228.714 390.009 228.903 390.553 228.903 391.12V419.987C228.903 420.554 228.714 421.097 228.379 421.498C228.045 421.899 227.591 422.125 227.117 422.125V422.125Z" fill="#00BFA6"/>
<path d="M258.998 422.125H241.516C241.053 422.137 240.606 421.929 240.271 421.546C239.936 421.164 239.742 420.638 239.73 420.084V352.835C239.742 352.281 239.936 351.755 240.271 351.372C240.606 350.99 241.053 350.782 241.516 350.793H258.998C259.461 350.782 259.909 350.99 260.243 351.372C260.578 351.755 260.772 352.281 260.784 352.835V420.084C260.772 420.638 260.578 421.164 260.243 421.546C259.909 421.929 259.461 422.137 258.998 422.125V422.125Z" fill="#00BFA6"/>
<path d="M290.879 422.125H273.397C272.924 422.125 272.47 421.899 272.135 421.498C271.8 421.097 271.612 420.554 271.611 419.987V333.478C271.612 332.911 271.8 332.367 272.135 331.966C272.47 331.566 272.924 331.34 273.397 331.339H290.879C291.353 331.34 291.806 331.566 292.141 331.966C292.476 332.367 292.664 332.911 292.665 333.478V419.987C292.664 420.554 292.476 421.097 292.141 421.498C291.806 421.899 291.353 422.125 290.879 422.125V422.125Z" fill="#00BFA6"/>
<path d="M154.614 380.335C156.607 380.335 158.223 378.399 158.223 376.012C158.223 373.624 156.607 371.689 154.614 371.689C152.621 371.689 151.005 373.624 151.005 376.012C151.005 378.399 152.621 380.335 154.614 380.335Z" fill="#3F3D56"/>
<path d="M186.495 352.235C188.489 352.235 190.105 350.299 190.105 347.911C190.105 345.524 188.489 343.588 186.495 343.588C184.502 343.588 182.886 345.524 182.886 347.911C182.886 350.299 184.502 352.235 186.495 352.235Z" fill="#3F3D56"/>
<path d="M218.376 380.335C220.37 380.335 221.985 378.399 221.985 376.012C221.985 373.624 220.37 371.689 218.376 371.689C216.383 371.689 214.767 373.624 214.767 376.012C214.767 378.399 216.383 380.335 218.376 380.335Z" fill="#3F3D56"/>
<path d="M250.257 338.545C252.25 338.545 253.866 336.609 253.866 334.221C253.866 331.834 252.25 329.898 250.257 329.898C248.264 329.898 246.648 331.834 246.648 334.221C246.648 336.609 248.264 338.545 250.257 338.545Z" fill="#3F3D56"/>
<path d="M282.138 322.693C284.131 322.693 285.747 320.758 285.747 318.37C285.747 315.982 284.131 314.047 282.138 314.047C280.145 314.047 278.529 315.982 278.529 318.37C278.529 320.758 280.145 322.693 282.138 322.693Z" fill="#3F3D56"/>
<path d="M218.452 376.98L186.495 348.309L154.975 376.588L154.253 375.435L186.495 346.509L218.3 375.043L249.905 333.615L250.032 333.553L281.913 318.167L282.363 319.503L250.609 334.828L218.452 376.98Z" fill="#3F3D56"/>
</g>
<path d="M197.276 187H214.969V182.436H202.811V176.185H214.01V171.621H202.811V165.382H214.918V160.818H197.276V187ZM219.319 187H224.854V179.56L227.577 176.236L234.749 187H241.371L231.54 172.541L241.256 160.818H234.621L225.199 172.362H224.854V160.818H219.319V187ZM266.722 173.909C266.722 165.344 261.404 160.46 254.462 160.46C247.482 160.46 242.202 165.344 242.202 173.909C242.202 182.436 247.482 187.358 254.462 187.358C261.404 187.358 266.722 182.474 266.722 173.909ZM261.11 173.909C261.11 179.457 258.476 182.462 254.462 182.462C250.435 182.462 247.814 179.457 247.814 173.909C247.814 168.361 250.435 165.357 254.462 165.357C258.476 165.357 261.11 168.361 261.11 173.909ZM292.722 160.818H287.212V177.284H286.982L275.68 160.818H270.822V187H276.358V170.521H276.55L287.94 187H292.722V160.818ZM321.355 173.909C321.355 165.344 316.037 160.46 309.095 160.46C302.115 160.46 296.835 165.344 296.835 173.909C296.835 182.436 302.115 187.358 309.095 187.358C316.037 187.358 321.355 182.474 321.355 173.909ZM315.743 173.909C315.743 179.457 313.109 182.462 309.095 182.462C305.068 182.462 302.447 179.457 302.447 173.909C302.447 168.361 305.068 165.357 309.095 165.357C313.109 165.357 315.743 168.361 315.743 173.909ZM325.455 160.818V187H330.825V169.895H331.042L337.817 186.872H341.474L348.249 169.959H348.467V187H353.836V160.818H347.009L339.799 178.409H339.492L332.282 160.818H325.455ZM363.932 160.818H358.397V187H363.932V160.818Z" fill="white"/>
<path d="M239.688 132.492C239.324 129.469 237.036 127.73 234.006 127.73C230.548 127.73 227.908 130.172 227.908 134.455C227.908 138.724 230.503 141.179 234.006 141.179C237.362 141.179 239.388 138.948 239.688 136.538L236.888 136.526C236.626 137.925 235.527 138.731 234.05 138.731C232.062 138.731 230.714 137.254 230.714 134.455C230.714 131.732 232.043 130.178 234.07 130.178C235.585 130.178 236.678 131.054 236.888 132.492H239.688ZM243.683 141L244.655 138.015H249.379L250.35 141H253.316L248.803 127.909H245.237L240.717 141H243.683ZM245.358 135.854L246.969 130.901H247.071L248.682 135.854H245.358ZM252.776 130.191H256.784V141H259.52V130.191H263.527V127.909H252.776V130.191ZM265.298 141H274.145V138.718H268.066V135.592H273.665V133.31H268.066V130.191H274.119V127.909H265.298V141ZM285 132.141H287.812C287.454 129.552 285.172 127.73 282.213 127.73C278.755 127.73 276.089 130.223 276.089 134.467C276.089 138.609 278.582 141.179 282.27 141.179C285.575 141.179 287.934 139.089 287.934 135.643V133.994H282.456V136.078H285.268C285.23 137.702 284.124 138.731 282.283 138.731C280.206 138.731 278.895 137.178 278.895 134.442C278.895 131.719 280.257 130.178 282.258 130.178C283.683 130.178 284.648 130.913 285 132.141ZM302.043 134.455C302.043 130.172 299.384 127.73 295.913 127.73C292.423 127.73 289.783 130.172 289.783 134.455C289.783 138.718 292.423 141.179 295.913 141.179C299.384 141.179 302.043 138.737 302.043 134.455ZM299.237 134.455C299.237 137.229 297.92 138.731 295.913 138.731C293.899 138.731 292.589 137.229 292.589 134.455C292.589 131.68 293.899 130.178 295.913 130.178C297.92 130.178 299.237 131.68 299.237 134.455ZM304.093 141H306.861V136.359H308.881L311.361 141H314.416L311.635 135.912C313.125 135.273 313.949 133.975 313.949 132.185C313.949 129.584 312.23 127.909 309.258 127.909H304.093V141ZM306.861 134.135V130.172H308.727C310.325 130.172 311.099 130.881 311.099 132.185C311.099 133.483 310.325 134.135 308.74 134.135H306.861ZM314.593 127.909L319.368 136.372V141H322.117V136.372L326.892 127.909H323.792L320.806 133.547H320.679L317.694 127.909H314.593Z" fill="white"/>
<defs>
<clipPath id="clip0_316_1342">
<rect width="459" height="330" fill="white" transform="translate(53 208)"/>
</clipPath>
</defs>
</svg>
