<svg width="588" height="682" viewBox="0 0 588 682" fill="none" xmlns="http://www.w3.org/2000/svg">
<path d="M588 0H0V682H588V0Z" fill="#F9A826"/>
<path d="M87.7406 0C73.1339 13.9574 65.7226 31.0825 62.4961 48.0019C52.9357 98.1314 25.2686 126.209 0 141.753V0H87.7406Z" fill="#9B7638"/>
<path d="M588 0V92.7653C575.186 83.2624 559.864 75.0791 541.592 69.481C489.014 53.3712 468.069 22.8499 459.757 0H588Z" fill="#9B7638"/>
<path d="M588 510.718V681.998H0C0 608.874 0 535.748 0 462.624C18.3523 469.145 40.7815 480.45 54.1824 500.996C82.7706 544.825 47.2159 595.35 70.2926 610.393C87.5415 621.639 108.694 594.583 154.52 592.36C226.605 588.861 259.599 655.005 310.562 640.972C335.9 633.995 329.084 617.278 361.985 600.984C408.704 577.848 444.354 600.709 493.202 588.438C518.655 582.045 554.224 564.471 588 510.718Z" fill="#9B7638"/>
<path d="M118.668 303.038C117.805 303.038 117.062 302.462 116.967 301.686C115.907 292.921 107.58 286.311 97.5972 286.311C94.5494 286.311 91.6336 286.915 88.9281 288.107C88.0815 288.479 87.0544 288.174 86.632 287.427C86.2115 286.678 86.5557 285.77 87.4005 285.396C90.5842 283.994 94.0135 283.284 97.5954 283.284C103.284 283.284 108.737 285.14 112.954 288.511C117.139 291.858 119.772 296.421 120.371 301.363C120.471 302.194 119.79 302.941 118.85 303.03C118.789 303.037 118.728 303.038 118.668 303.038Z" fill="#9B7638"/>
<path d="M483.031 575.098C482.168 575.098 481.426 574.522 481.331 573.745C480.27 564.981 471.943 558.371 461.961 558.371C458.913 558.371 455.997 558.975 453.291 560.166C452.445 560.54 451.418 560.234 450.995 559.485C450.575 558.736 450.919 557.828 451.766 557.454C454.949 556.052 458.379 555.342 461.961 555.342C467.649 555.342 473.104 557.198 477.319 560.569C481.504 563.916 484.137 568.479 484.734 573.421C484.835 574.252 484.153 574.999 483.214 575.088C483.152 575.095 483.091 575.098 483.031 575.098Z" fill="#9B7638"/>
<path d="M518.032 368.822C516.348 368.822 514.662 368.654 512.98 368.32C507.429 367.216 502.569 364.346 499.292 360.239C496.04 356.161 494.603 351.198 495.247 346.262C495.355 345.431 496.207 344.836 497.143 344.93C498.083 345.026 498.756 345.778 498.649 346.607C497.508 355.363 503.992 363.428 513.731 365.366C516.705 365.959 519.701 365.934 522.635 365.297C523.552 365.098 524.481 365.595 524.706 366.406C524.931 367.217 524.369 368.039 523.452 368.238C521.658 368.628 519.848 368.822 518.032 368.822Z" fill="#9B7638"/>
<path d="M120.346 46.0223C120.037 46.0223 119.727 45.9483 119.446 45.7953C116.424 44.1366 113.938 41.9299 112.055 39.2362C109.065 34.9561 107.984 29.8763 109.013 24.9332C110.032 20.0262 113.039 15.6458 117.477 12.5999C118.223 12.0881 119.299 12.2066 119.879 12.8681C120.46 13.528 120.324 14.4791 119.576 14.9925C111.701 20.3964 109.722 30.1347 114.967 37.6466C116.569 39.9388 118.683 41.8164 121.251 43.2249C122.054 43.6659 122.3 44.599 121.803 45.3098C121.478 45.7689 120.918 46.0223 120.346 46.0223Z" fill="#9B7638"/>
<path d="M452.465 70.99C450.051 70.99 447.636 70.651 445.306 69.9714C444.409 69.7098 443.922 68.8524 444.218 68.0593C444.514 67.2662 445.483 66.835 446.38 67.0967C455.844 69.8628 466.089 65.8856 470.212 57.8455C471.47 55.392 472.054 52.7921 471.945 50.123C471.911 49.2871 472.648 48.5861 473.593 48.5548C474.537 48.5252 475.331 49.1768 475.366 50.0127C475.495 53.1557 474.81 56.2115 473.331 59.0961C470.981 63.6772 466.816 67.304 461.603 69.3066C458.689 70.4272 455.579 70.99 452.465 70.99Z" fill="#9B7638"/>
<path d="M294.605 611.008C293.825 611.008 293.04 610.974 292.251 610.903C286.591 610.398 281.375 608.066 277.565 604.337C273.782 600.637 271.679 595.861 271.646 590.892C271.64 590.056 272.401 589.374 273.348 589.37C273.352 589.37 273.356 589.37 273.359 589.37C274.301 589.37 275.066 590.041 275.071 590.875C275.131 599.689 282.665 607.005 292.597 607.892C295.63 608.162 298.6 607.821 301.426 606.876C302.31 606.58 303.298 606.975 303.633 607.757C303.968 608.538 303.522 609.412 302.638 609.708C300.044 610.572 297.351 611.008 294.605 611.008Z" fill="#9B7638"/>
<path d="M431.777 273.69C431.174 273.69 430.57 273.564 430.011 273.307C428.741 272.723 427.952 271.572 427.952 270.305V244.726C427.952 243.458 428.741 242.308 430.011 241.724C431.282 241.14 432.801 241.229 433.973 241.956L454.59 254.747C455.61 255.379 456.218 256.414 456.218 257.516C456.218 258.617 455.61 259.652 454.59 260.286L433.973 273.077C433.314 273.483 432.548 273.69 431.777 273.69ZM431.779 244.368C431.707 244.368 431.641 244.388 431.591 244.411C431.493 244.457 431.375 244.548 431.375 244.726V270.305C431.375 270.483 431.493 270.575 431.591 270.62C431.69 270.664 431.842 270.697 432.006 270.595L452.623 257.804C452.764 257.717 452.794 257.599 452.794 257.515C452.794 257.431 452.764 257.312 452.623 257.225L432.006 244.434C431.926 244.387 431.848 244.368 431.779 244.368Z" fill="#9B7638"/>
<path d="M23.6718 214.281C23.2792 214.281 22.8829 214.227 22.4996 214.119C21.3143 213.781 20.3876 212.95 20.0192 211.899L12.5838 190.62C12.1614 189.411 12.5317 188.106 13.5495 187.216C14.5692 186.325 16.0484 186.014 17.4123 186.403L44.9399 194.255C46.3038 194.644 47.2974 195.662 47.5375 196.91C47.7756 198.159 47.2156 199.409 46.0712 200.173L25.9773 213.599C25.3074 214.046 24.4943 214.281 23.6718 214.281ZM16.2289 189.263C16.1061 189.263 16.0168 189.315 15.9573 189.368C15.8772 189.437 15.7972 189.556 15.8568 189.725L23.2922 211.004C23.3425 211.148 23.4616 211.211 23.5527 211.236C23.6439 211.262 23.7797 211.273 23.9174 211.181L44.0114 197.755C44.1714 197.648 44.1844 197.51 44.1658 197.413C44.1472 197.316 44.0858 197.189 43.8942 197.135L16.3666 189.282C16.3127 189.269 16.2699 189.263 16.2289 189.263Z" fill="#9B7638"/>
<path d="M513.148 215.792C514.977 215.121 515.846 213.266 515.089 211.649C514.332 210.031 512.236 209.263 510.408 209.934C508.579 210.605 507.711 212.459 508.467 214.077C509.224 215.695 511.32 216.462 513.148 215.792Z" fill="#9B7638"/>
<path d="M511.762 230.559C513.742 230.559 515.346 229.14 515.346 227.39C515.346 225.639 513.742 224.22 511.762 224.22C509.783 224.22 508.179 225.639 508.179 227.39C508.179 229.14 509.783 230.559 511.762 230.559Z" fill="#9B7638"/>
<path d="M511.762 245.082C513.742 245.082 515.346 243.663 515.346 241.913C515.346 240.163 513.742 238.744 511.762 238.744C509.783 238.744 508.179 240.163 508.179 241.913C508.179 243.663 509.783 245.082 511.762 245.082Z" fill="#9B7638"/>
<path d="M511.762 259.606C513.742 259.606 515.346 258.187 515.346 256.437C515.346 254.686 513.742 253.267 511.762 253.267C509.783 253.267 508.179 254.686 508.179 256.437C508.179 258.187 509.783 259.606 511.762 259.606Z" fill="#9B7638"/>
<path d="M511.762 274.129C513.742 274.129 515.346 272.71 515.346 270.96C515.346 269.21 513.742 267.791 511.762 267.791C509.783 267.791 508.179 269.21 508.179 270.96C508.179 272.71 509.783 274.129 511.762 274.129Z" fill="#9B7638"/>
<path d="M511.762 288.653C513.742 288.653 515.346 287.234 515.346 285.483C515.346 283.733 513.742 282.314 511.762 282.314C509.783 282.314 508.179 283.733 508.179 285.483C508.179 287.234 509.783 288.653 511.762 288.653Z" fill="#9B7638"/>
<path d="M532.301 213.635C532.756 211.932 531.563 210.224 529.636 209.822C527.71 209.419 525.78 210.474 525.326 212.177C524.872 213.881 526.065 215.588 527.991 215.991C529.917 216.394 531.847 215.339 532.301 213.635Z" fill="#9B7638"/>
<path d="M528.801 230.559C530.78 230.559 532.384 229.14 532.384 227.39C532.384 225.639 530.78 224.22 528.801 224.22C526.821 224.22 525.217 225.639 525.217 227.39C525.217 229.14 526.821 230.559 528.801 230.559Z" fill="#9B7638"/>
<path d="M528.801 245.082C530.78 245.082 532.384 243.663 532.384 241.913C532.384 240.163 530.78 238.744 528.801 238.744C526.821 238.744 525.217 240.163 525.217 241.913C525.217 243.663 526.821 245.082 528.801 245.082Z" fill="#9B7638"/>
<path d="M528.801 259.606C530.78 259.606 532.384 258.187 532.384 256.436C532.384 254.686 530.78 253.267 528.801 253.267C526.821 253.267 525.217 254.686 525.217 256.436C525.217 258.187 526.821 259.606 528.801 259.606Z" fill="#9B7638"/>
<path d="M528.801 274.129C530.78 274.129 532.384 272.71 532.384 270.96C532.384 269.21 530.78 267.791 528.801 267.791C526.821 267.791 525.217 269.21 525.217 270.96C525.217 272.71 526.821 274.129 528.801 274.129Z" fill="#9B7638"/>
<path d="M528.801 288.653C530.78 288.653 532.384 287.234 532.384 285.483C532.384 283.733 530.78 282.314 528.801 282.314C526.821 282.314 525.217 283.733 525.217 285.483C525.217 287.234 526.821 288.653 528.801 288.653Z" fill="#9B7638"/>
<path d="M547.228 215.791C549.057 215.12 549.925 213.266 549.169 211.648C548.412 210.03 546.316 209.263 544.487 209.933C542.659 210.604 541.79 212.459 542.547 214.076C543.304 215.694 545.4 216.462 547.228 215.791Z" fill="#9B7638"/>
<path d="M545.842 230.559C547.821 230.559 549.425 229.14 549.425 227.39C549.425 225.639 547.821 224.22 545.842 224.22C543.862 224.22 542.258 225.639 542.258 227.39C542.258 229.14 543.862 230.559 545.842 230.559Z" fill="#9B7638"/>
<path d="M545.842 245.082C547.821 245.082 549.425 243.663 549.425 241.913C549.425 240.163 547.821 238.744 545.842 238.744C543.862 238.744 542.258 240.163 542.258 241.913C542.258 243.663 543.862 245.082 545.842 245.082Z" fill="#9B7638"/>
<path d="M545.842 259.606C547.821 259.606 549.425 258.187 549.425 256.436C549.425 254.686 547.821 253.267 545.842 253.267C543.862 253.267 542.258 254.686 542.258 256.436C542.258 258.187 543.862 259.606 545.842 259.606Z" fill="#9B7638"/>
<path d="M545.842 274.129C547.821 274.129 549.425 272.71 549.425 270.96C549.425 269.21 547.821 267.791 545.842 267.791C543.862 267.791 542.258 269.21 542.258 270.96C542.258 272.71 543.862 274.129 545.842 274.129Z" fill="#9B7638"/>
<path d="M545.842 288.653C547.821 288.653 549.425 287.234 549.425 285.483C549.425 283.733 547.821 282.314 545.842 282.314C543.862 282.314 542.258 283.733 542.258 285.483C542.258 287.234 543.862 288.653 545.842 288.653Z" fill="#9B7638"/>
<path d="M564.267 215.791C566.095 215.121 566.964 213.266 566.207 211.648C565.45 210.03 563.354 209.263 561.526 209.933C559.698 210.604 558.829 212.459 559.586 214.076C560.342 215.694 562.438 216.462 564.267 215.791Z" fill="#9B7638"/>
<path d="M562.88 230.559C564.859 230.559 566.464 229.14 566.464 227.39C566.464 225.639 564.859 224.22 562.88 224.22C560.9 224.22 559.296 225.639 559.296 227.39C559.296 229.14 560.9 230.559 562.88 230.559Z" fill="#9B7638"/>
<path d="M562.88 245.082C564.859 245.082 566.464 243.664 566.464 241.913C566.464 240.163 564.859 238.744 562.88 238.744C560.9 238.744 559.296 240.163 559.296 241.913C559.296 243.664 560.9 245.082 562.88 245.082Z" fill="#9B7638"/>
<path d="M562.88 259.606C564.859 259.606 566.464 258.187 566.464 256.437C566.464 254.686 564.859 253.267 562.88 253.267C560.9 253.267 559.296 254.686 559.296 256.437C559.296 258.187 560.9 259.606 562.88 259.606Z" fill="#9B7638"/>
<path d="M562.88 274.13C564.859 274.13 566.464 272.711 566.464 270.96C566.464 269.21 564.859 267.791 562.88 267.791C560.9 267.791 559.296 269.21 559.296 270.96C559.296 272.711 560.9 274.13 562.88 274.13Z" fill="#9B7638"/>
<path d="M562.88 288.653C564.859 288.653 566.464 287.234 566.464 285.484C566.464 283.733 564.859 282.314 562.88 282.314C560.9 282.314 559.296 283.733 559.296 285.484C559.296 287.234 560.9 288.653 562.88 288.653Z" fill="#9B7638"/>
<path d="M583.422 213.638C583.876 211.934 582.683 210.226 580.757 209.824C578.831 209.421 576.901 210.476 576.447 212.179C575.992 213.883 577.185 215.59 579.112 215.993C581.038 216.396 582.968 215.341 583.422 213.638Z" fill="#9B7638"/>
<path d="M579.919 230.559C581.899 230.559 583.503 229.14 583.503 227.39C583.503 225.639 581.899 224.22 579.919 224.22C577.94 224.22 576.335 225.639 576.335 227.39C576.335 229.14 577.94 230.559 579.919 230.559Z" fill="#9B7638"/>
<path d="M579.919 245.082C581.899 245.082 583.503 243.664 583.503 241.913C583.503 240.163 581.899 238.744 579.919 238.744C577.94 238.744 576.335 240.163 576.335 241.913C576.335 243.664 577.94 245.082 579.919 245.082Z" fill="#9B7638"/>
<path d="M579.919 259.606C581.899 259.606 583.503 258.187 583.503 256.437C583.503 254.686 581.899 253.267 579.919 253.267C577.94 253.267 576.335 254.686 576.335 256.437C576.335 258.187 577.94 259.606 579.919 259.606Z" fill="#9B7638"/>
<path d="M579.919 274.129C581.899 274.129 583.503 272.71 583.503 270.96C583.503 269.21 581.899 267.791 579.919 267.791C577.94 267.791 576.335 269.21 576.335 270.96C576.335 272.71 577.94 274.129 579.919 274.129Z" fill="#9B7638"/>
<path d="M579.919 288.653C581.899 288.653 583.503 287.234 583.503 285.483C583.503 283.733 581.899 282.314 579.919 282.314C577.94 282.314 576.335 283.733 576.335 285.483C576.335 287.234 577.94 288.653 579.919 288.653Z" fill="#9B7638"/>
<path d="M9.40992 347.338C11.3892 347.338 12.9937 345.919 12.9937 344.168C12.9937 342.418 11.3892 340.999 9.40992 340.999C7.43067 340.999 5.82617 342.418 5.82617 344.168C5.82617 345.919 7.43067 347.338 9.40992 347.338Z" fill="#9B7638"/>
<path d="M12.957 359.206C13.2741 357.479 11.9474 355.851 9.99363 355.57C8.03989 355.29 6.19898 356.463 5.88184 358.191C5.56471 359.919 6.89144 361.547 8.84518 361.827C10.7989 362.107 12.6398 360.934 12.957 359.206Z" fill="#9B7638"/>
<path d="M12.957 373.73C13.2741 372.002 11.9474 370.374 9.99362 370.094C8.03988 369.814 6.19898 370.987 5.88184 372.715C5.56471 374.442 6.89144 376.07 8.84518 376.351C10.7989 376.631 12.6398 375.458 12.957 373.73Z" fill="#9B7638"/>
<path d="M12.957 388.254C13.2741 386.526 11.9474 384.898 9.99363 384.618C8.03989 384.337 6.19898 385.511 5.88184 387.238C5.56471 388.966 6.89144 390.594 8.84518 390.875C10.7989 391.155 12.6398 389.982 12.957 388.254Z" fill="#9B7638"/>
<path d="M10.7895 405.199C12.618 404.529 13.4867 402.674 12.7299 401.056C11.9731 399.439 9.8774 398.671 8.04896 399.341C6.22052 400.012 5.35178 401.867 6.10856 403.484C6.86534 405.102 8.96108 405.87 10.7895 405.199Z" fill="#9B7638"/>
<path d="M10.79 419.723C12.6185 419.053 13.4872 417.198 12.7304 415.58C11.9736 413.963 9.87789 413.195 8.04945 413.865C6.22101 414.536 5.35227 416.391 6.10905 418.008C6.86583 419.626 8.96157 420.394 10.79 419.723Z" fill="#9B7638"/>
<path d="M26.4505 347.338C28.4297 347.338 30.0342 345.919 30.0342 344.168C30.0342 342.418 28.4297 340.999 26.4505 340.999C24.4712 340.999 22.8667 342.418 22.8667 344.168C22.8667 345.919 24.4712 347.338 26.4505 347.338Z" fill="#9B7638"/>
<path d="M29.996 359.205C30.3132 357.477 28.9864 355.849 27.0327 355.569C25.079 355.289 23.238 356.462 22.9209 358.19C22.6038 359.917 23.9305 361.545 25.8842 361.826C27.838 362.106 29.6789 360.933 29.996 359.205Z" fill="#9B7638"/>
<path d="M29.9965 373.729C30.3136 372.001 28.9869 370.373 27.0332 370.093C25.0794 369.812 23.2385 370.986 22.9214 372.713C22.6043 374.441 23.931 376.069 25.8847 376.35C27.8385 376.63 29.6794 375.457 29.9965 373.729Z" fill="#9B7638"/>
<path d="M29.9965 388.253C30.3136 386.525 28.9869 384.897 27.0332 384.616C25.0794 384.336 23.2385 385.509 22.9214 387.237C22.6043 388.965 23.931 390.593 25.8847 390.873C27.8385 391.154 29.6794 389.98 29.9965 388.253Z" fill="#9B7638"/>
<path d="M27.8301 405.199C29.6585 404.528 30.5272 402.673 29.7705 401.055C29.0137 399.438 26.9179 398.67 25.0895 399.341C23.2611 400.011 22.3923 401.866 23.1491 403.484C23.9059 405.101 26.0016 405.869 27.8301 405.199Z" fill="#9B7638"/>
<path d="M27.8301 419.722C29.6585 419.052 30.5273 417.197 29.7705 415.579C29.0137 413.962 26.9179 413.194 25.0895 413.865C23.2611 414.535 22.3923 416.39 23.1491 418.008C23.9059 419.625 26.0016 420.393 27.8301 419.722Z" fill="#9B7638"/>
<path d="M43.489 347.338C45.4683 347.338 47.0728 345.919 47.0728 344.168C47.0728 342.418 45.4683 340.999 43.489 340.999C41.5098 340.999 39.9053 342.418 39.9053 344.168C39.9053 345.919 41.5098 347.338 43.489 347.338Z" fill="#9B7638"/>
<path d="M46.962 359.444C47.4174 357.74 46.225 356.034 44.2987 355.632C42.3724 355.231 40.4416 356.286 39.9862 357.989C39.5308 359.692 40.7232 361.399 42.6495 361.8C44.5758 362.202 46.5066 361.147 46.962 359.444Z" fill="#9B7638"/>
<path d="M46.9589 373.969C47.4138 372.266 46.2211 370.559 44.2949 370.157C42.3686 369.755 40.4383 370.81 39.9834 372.513C39.5285 374.216 40.7212 375.923 42.6474 376.326C44.5737 376.728 46.504 375.673 46.9589 373.969Z" fill="#9B7638"/>
<path d="M46.9584 388.493C47.4134 386.79 46.2206 385.083 44.2944 384.681C42.3681 384.279 40.4378 385.334 39.9829 387.037C39.528 388.74 40.7207 390.447 42.647 390.85C44.5732 391.252 46.5035 390.197 46.9584 388.493Z" fill="#9B7638"/>
<path d="M46.016 404.502C47.4149 403.264 47.4149 401.256 46.016 400.017C44.6171 398.779 42.3489 398.779 40.95 400.017C39.5511 401.256 39.5511 403.264 40.95 404.502C42.3489 405.741 44.6171 405.741 46.016 404.502Z" fill="#9B7638"/>
<path d="M46.016 419.026C47.4149 417.787 47.4149 415.779 46.016 414.54C44.6171 413.302 42.3489 413.302 40.95 414.54C39.5511 415.779 39.5511 417.787 40.95 419.026C42.3489 420.264 44.6171 420.264 46.016 419.026Z" fill="#9B7638"/>
<path d="M559.607 656.361H28.3921V25.6375H559.605V656.361H559.607ZM31.3692 653.728H556.628V28.2703H31.3692V653.728Z" fill="white"/>
<path d="M114.589 583.337C120.484 583.337 125.262 579.111 125.262 573.898C125.262 568.685 120.484 564.459 114.589 564.459C108.695 564.459 103.916 568.685 103.916 573.898C103.916 579.111 108.695 583.337 114.589 583.337Z" fill="#EDCA86"/>
<path d="M207.542 62.9138C210.438 60.3524 210.438 56.1994 207.542 53.6379C204.645 51.0765 199.949 51.0765 197.053 53.6379C194.157 56.1994 194.157 60.3524 197.053 62.9138C199.949 65.4753 204.645 65.4753 207.542 62.9138Z" fill="#EDCA86"/>
<path d="M539.988 475.185C540.644 471.609 537.898 468.24 533.855 467.66C529.811 467.08 526.002 469.508 525.345 473.084C524.689 476.659 527.435 480.029 531.478 480.609C535.522 481.189 539.332 478.761 539.988 475.185Z" fill="#EDCA86"/>
<path d="M273.368 352.62C277.464 352.62 280.785 349.683 280.785 346.06C280.785 342.438 277.464 339.501 273.368 339.501C269.272 339.501 265.951 342.438 265.951 346.06C265.951 349.683 269.272 352.62 273.368 352.62Z" fill="#EDCA86"/>
<path d="M264.937 217.328C264.937 217.328 387.237 240.135 433.683 153.662C480.128 67.1892 360.366 59.0784 324.108 66.4553C287.85 73.8322 173.505 85.894 168.701 144.403C163.898 202.91 264.937 217.328 264.937 217.328Z" fill="#EDCA86"/>
<path d="M306.515 217.294C254.197 230.07 198.751 219.315 163.122 200.377C156.581 196.901 97.5797 165.47 103.404 134.432C106.798 116.351 121.708 104.327 122.971 103.469C134.082 95.9411 146.217 94.8402 153.167 94.2873C171.25 92.8491 175.726 98.6694 199.179 99.8328C213.339 100.535 221.603 101.21 231.122 97.6689C242.095 93.5863 244.953 87.8286 253.881 80.6771C269.524 68.1464 290.572 61.9361 307.527 61.1018C340.175 59.4942 365.5 77.4321 367.424 78.8358C379.734 87.8072 383.51 96.1813 400.768 103.998C410.239 108.288 413.527 109.813 424.688 111.171C444.612 113.594 479.65 129.64 484.268 153.03C487.232 168.037 475.824 180.665 474.047 182.574C462.671 194.788 443.064 202.751 427.626 198.362C419.84 196.149 419.939 192.773 411.971 190.174C396.872 185.249 381.389 192.447 369.8 197.278C369.8 197.278 343.383 208.292 306.515 217.294Z" fill="#795B22"/>
<path d="M228.276 172H233.811V164.56L236.534 161.236L243.706 172H250.328L240.497 157.541L250.213 145.818H243.578L234.156 157.362H233.811V145.818H228.276V172ZM275.679 158.909C275.679 150.344 270.361 145.46 263.419 145.46C256.439 145.46 251.159 150.344 251.159 158.909C251.159 167.436 256.439 172.358 263.419 172.358C270.361 172.358 275.679 167.474 275.679 158.909ZM270.067 158.909C270.067 164.457 267.433 167.462 263.419 167.462C259.392 167.462 256.771 164.457 256.771 158.909C256.771 153.361 259.392 150.357 263.419 150.357C267.433 150.357 270.067 153.361 270.067 158.909ZM279.779 145.818V172H285.149V154.895H285.366L292.142 171.872H295.798L302.574 154.959H302.791V172H308.16V145.818H301.333L294.123 163.409H293.816L286.606 145.818H279.779ZM318.256 145.818H312.721V172H318.256V145.818ZM322.811 172H328.346V164.56L331.069 161.236L338.241 172H344.863L335.032 157.541L344.748 145.818H338.113L328.691 157.362H328.346V145.818H322.811V172Z" fill="white"/>
<path d="M243.688 121.492C243.324 118.469 241.036 116.73 238.006 116.73C234.548 116.73 231.908 119.172 231.908 123.455C231.908 127.724 234.503 130.179 238.006 130.179C241.362 130.179 243.388 127.948 243.688 125.538L240.888 125.526C240.626 126.925 239.527 127.731 238.05 127.731C236.062 127.731 234.714 126.254 234.714 123.455C234.714 120.732 236.043 119.178 238.07 119.178C239.585 119.178 240.678 120.054 240.888 121.492H243.688ZM247.683 130L248.655 127.015H253.379L254.35 130H257.316L252.803 116.909H249.237L244.717 130H247.683ZM249.358 124.854L250.969 119.901H251.071L252.682 124.854H249.358ZM256.776 119.191H260.784V130H263.52V119.191H267.527V116.909H256.776V119.191ZM269.298 130H278.145V127.718H272.066V124.592H277.665V122.31H272.066V119.191H278.119V116.909H269.298V130ZM289 121.141H291.812C291.454 118.552 289.172 116.73 286.213 116.73C282.755 116.73 280.089 119.223 280.089 123.467C280.089 127.609 282.582 130.179 286.27 130.179C289.575 130.179 291.934 128.089 291.934 124.643V122.994H286.456V125.078H289.268C289.23 126.702 288.124 127.731 286.283 127.731C284.206 127.731 282.895 126.178 282.895 123.442C282.895 120.719 284.257 119.178 286.258 119.178C287.683 119.178 288.648 119.913 289 121.141ZM306.043 123.455C306.043 119.172 303.384 116.73 299.913 116.73C296.423 116.73 293.783 119.172 293.783 123.455C293.783 127.718 296.423 130.179 299.913 130.179C303.384 130.179 306.043 127.737 306.043 123.455ZM303.237 123.455C303.237 126.229 301.92 127.731 299.913 127.731C297.899 127.731 296.589 126.229 296.589 123.455C296.589 120.68 297.899 119.178 299.913 119.178C301.92 119.178 303.237 120.68 303.237 123.455ZM308.093 130H310.861V125.359H312.881L315.361 130H318.416L315.635 124.912C317.125 124.273 317.949 122.975 317.949 121.185C317.949 118.584 316.23 116.909 313.258 116.909H308.093V130ZM310.861 123.135V119.172H312.727C314.325 119.172 315.099 119.881 315.099 121.185C315.099 122.483 314.325 123.135 312.74 123.135H310.861ZM318.593 116.909L323.368 125.372V130H326.117V125.372L330.892 116.909H327.792L324.806 122.547H324.679L321.694 116.909H318.593Z" fill="white"/>
<path d="M488.605 134.591C495.74 128.282 495.74 118.051 488.605 111.741C481.47 105.432 469.902 105.432 462.767 111.741C455.632 118.051 455.632 128.282 462.767 134.591C469.902 140.901 481.47 140.901 488.605 134.591Z" fill="#EDCA86"/>
<path d="M131.747 208.191C152.043 208.191 168.495 193.641 168.495 175.693C168.495 157.745 152.043 143.195 131.747 143.195C111.452 143.195 95 157.745 95 175.693C95 193.641 111.452 208.191 131.747 208.191Z" fill="#EDCA86"/>
<path d="M187.756 216.913C193.202 214.918 195.788 209.396 193.532 204.58C191.276 199.764 185.032 197.477 179.586 199.472C174.14 201.466 171.554 206.988 173.81 211.804C176.066 216.62 182.31 218.907 187.756 216.913Z" fill="#EDCA86"/>
<path d="M459.116 150.576C461.962 148.059 461.962 143.978 459.116 141.461C456.269 138.944 451.655 138.944 448.808 141.461C445.962 143.978 445.962 148.059 448.808 150.576C451.655 153.093 456.269 153.093 459.116 150.576Z" fill="#EDCA86"/>
<path d="M64.5535 462.171C65.197 458.657 62.4978 455.345 58.5246 454.773C54.5514 454.202 50.8087 456.587 50.1652 460.101C49.5217 463.615 52.2209 466.927 56.1941 467.499C60.1673 468.07 63.9099 465.685 64.5535 462.171Z" fill="#EDCA86"/>
<path d="M299.467 545.144C406.316 545.144 492.934 539.739 492.934 533.072C492.934 526.405 406.316 521 299.467 521C192.618 521 106 526.405 106 533.072C106 539.739 192.618 545.144 299.467 545.144Z" fill="#795B22"/>
<path opacity="0.3" d="M232.581 484.069C232.195 487.018 231.768 489.964 231.297 492.907C230.417 498.216 229.428 503.514 228.258 508.79L227.342 512.743C227.011 514.057 226.696 515.374 226.349 516.686C225.998 517.999 225.654 519.312 225.272 520.622C224.899 521.94 224.507 523.229 224.066 524.575C224.064 524.58 224.06 524.595 224.058 524.6C223.711 525.602 222.457 526.182 221.255 525.893C220.054 525.604 219.358 524.557 219.705 523.555L219.719 523.512C220.572 521.041 221.348 518.443 222.069 515.878C222.433 514.592 222.766 513.297 223.115 512.005L224.088 508.114C225.335 502.917 226.408 497.685 227.373 492.439C227.893 489.519 228.37 486.593 228.805 483.661C218.795 482.299 184.613 476.809 191.458 466.136C198.122 455.744 221.464 475.063 229.075 481.804C230.074 474.81 230.838 467.789 231.376 460.754C231.677 456.816 231.906 452.874 232.065 448.929C222.914 447.987 186.841 443.534 193.381 432.428C199.745 421.618 224.807 441.313 232.122 447.41C232.345 441.236 232.398 435.056 232.288 428.878L232.048 420.903L231.683 414.633C223.254 415.036 185.527 416.175 189.689 404.088C193.78 392.206 224.044 409.073 231.618 413.519L231.585 412.934L231.467 410.941L231.295 408.951L230.939 404.973L230.582 400.994C230.446 399.669 230.269 398.347 230.115 397.022C229.692 393.281 229.199 389.546 228.638 385.816C220.652 385.785 182.194 385.014 187.314 373.065C192.309 361.407 221.306 379.916 228.472 384.722C226.859 374.229 224.712 363.79 222.084 353.433C215.968 353.532 178.434 353.675 183.027 342.253C187.519 331.087 216.142 348.997 221.909 352.75C220.319 346.539 218.557 340.356 216.632 334.209C215.129 329.568 213.524 324.953 211.824 320.359C206.673 320.533 171.309 321.344 175.343 310.623C179.283 300.153 206.519 316.614 211.623 319.813C208.379 311.093 204.776 302.465 200.819 293.947C196.875 293.97 164.894 293.871 168.896 284.42C172.796 275.212 196.591 290.809 200.631 293.544C198.157 288.237 195.547 282.971 192.796 277.756C191.239 276.775 163.875 259.349 174.343 253.741C184.721 248.181 192.295 275.665 192.835 277.682C195.675 282.851 198.374 288.076 200.941 293.346C200.302 288.534 197.604 264.127 208.847 266.318C220.633 268.613 203.174 291.448 201.228 293.94C205.314 302.366 209.05 310.912 212.436 319.555C212.933 313.77 215.911 286.55 227.832 290.864C240.262 295.363 216.037 317.358 212.724 320.296C214.485 324.825 216.157 329.378 217.727 333.957C219.734 339.996 221.582 346.074 223.266 352.184C225.64 345.655 236.358 318.384 247.562 325.194C259.191 332.265 228.748 350.17 223.53 353.141C226.331 363.42 228.658 373.793 230.46 384.234C234.583 376.785 250.278 350.334 260.84 358.77C271.841 367.556 237.76 382.625 230.694 385.607C231.321 389.339 231.882 393.079 232.373 396.825C232.552 398.153 232.753 399.48 232.912 400.81L233.34 404.804L233.767 408.799L233.976 410.797L234.116 412.622C240.573 405.458 261.626 383.581 269.686 393.414C278.052 403.618 243.183 412.313 234.246 414.346L234.736 420.803L235.12 428.82C235.341 435.036 235.398 441.257 235.284 447.478C242.099 441.219 266.235 420.282 273.244 430.884C280.481 441.835 243.858 447.713 235.256 448.93C235.166 452.925 235.004 456.921 234.77 460.912C234.34 468.209 233.673 475.5 232.751 482.771C240.665 477.966 269.891 461.208 274.185 472.882C278.58 484.838 241.315 484.345 232.581 484.069Z" fill="#795B22"/>
<path opacity="0.3" d="M341.125 455.171C342.096 453.485 343.022 451.78 344.026 450.105C359.535 440.628 381.482 437.08 411.728 436.249C442.287 435.406 447.21 410.409 447.21 410.409C427.839 419.803 426.659 415.787 391.443 421.648C365.099 426.033 351.364 439.947 346.114 446.681L346.443 446.14L348.358 443.188C349.008 442.208 349.615 441.209 350.3 440.246L352.315 437.336L353.322 435.881C353.663 435.398 354.021 434.924 354.37 434.445L356.475 431.577C357.866 429.666 359.342 427.741 360.697 425.785C362.078 423.835 363.385 421.848 364.662 419.849C366.456 416.991 368.127 414.076 369.649 411.109C387.695 399.88 420.925 399.719 420.925 399.719C453.958 395.948 455.444 373.866 455.509 371.761C455.511 371.754 455.509 371.746 455.511 371.738C455.513 371.697 455.517 371.667 455.513 371.647C455.515 371.644 455.515 371.641 455.515 371.641C455.515 371.626 455.513 371.618 455.515 371.61C455.513 371.601 455.513 371.598 455.513 371.598C455.337 372.193 455.134 372.799 454.892 373.409C453.05 376.447 445.776 382.605 417.115 386.345C388.11 390.128 375.643 402.132 371.125 408.112C371.225 407.898 371.328 407.688 371.426 407.474C372.387 405.351 373.28 403.205 374.066 401.03C374.838 398.851 375.517 396.651 376.077 394.426C377.166 389.973 377.771 385.428 377.712 380.88C377.678 378.034 377.381 375.192 376.821 372.387C383.31 364.626 389.757 361.575 395.363 359.656C425.239 349.426 421.167 330.365 421.112 330.121C421.055 330.329 418.859 337.934 398.385 346.724C381.618 353.925 377.531 366.646 376.581 371.269C376.29 369.971 375.943 368.682 375.539 367.405C374.848 365.21 373.997 363.052 373.012 360.941C372.023 358.831 370.894 356.769 369.673 354.753C367.727 351.544 365.513 348.463 363.226 345.43C364.745 341.077 370.587 333.359 370.587 333.359C383.489 314.443 376.79 298.61 376.63 298.245C376.63 298.242 376.626 298.24 376.628 298.237C375.2 309.036 368.808 304.66 362.958 320.102C358.548 331.734 360.841 340.508 362.241 344.128C361.977 343.783 361.713 343.436 361.449 343.091C359.997 341.194 358.54 339.302 357.165 337.37C355.794 335.438 354.506 333.461 353.513 331.376C352.581 329.273 351.707 327.135 350.761 325.028C350.288 323.974 349.818 322.919 349.317 321.874C349.069 321.349 348.813 320.829 348.549 320.311C348.413 320.053 348.281 319.795 348.133 319.54C348.063 319.412 347.986 319.287 347.909 319.162C347.822 319.044 347.759 318.904 347.627 318.816C347.755 318.906 347.818 319.046 347.901 319.166C347.976 319.292 348.051 319.417 348.118 319.547C348.259 319.802 348.388 320.063 348.518 320.322C348.772 320.843 349.016 321.368 349.254 321.895C349.733 322.947 350.182 324.008 350.633 325.068C351.537 327.191 352.363 329.327 353.257 331.458C354.216 333.574 355.473 335.584 356.808 337.543C358.148 339.501 359.57 341.417 360.982 343.335C362.103 344.851 363.212 346.373 364.294 347.907C361.487 345.692 348.833 339.368 343.973 331.782C338.858 323.791 323.629 318.446 323.629 318.446C323.629 318.446 323.627 318.449 323.631 318.454C323.596 318.921 322.313 338.676 343.737 343.55C361.002 347.479 366.514 351.92 368.04 353.566C368.343 354.061 368.641 354.559 368.93 355.06C370.101 357.076 371.174 359.132 372.108 361.228C373.037 363.327 373.831 365.463 374.468 367.632C375.744 371.968 376.37 376.427 376.329 380.883C376.307 383.769 376.012 386.649 375.492 389.502C373.42 366.84 352.357 355.26 335.665 352.595C318.468 349.855 313.489 336.456 313.315 335.988C313.313 335.98 313.313 335.977 313.313 335.977C313.313 335.977 304.219 362.816 339.569 370.369C367.213 376.276 373.693 386.71 375.204 390.974C374.984 392.032 374.732 393.085 374.454 394.134C373.861 396.307 373.15 398.458 372.348 400.586C371.535 402.711 370.613 404.807 369.626 406.883C367.613 411.02 365.284 415.051 362.716 418.974C361.416 420.93 360.084 422.87 358.684 424.778C357.596 426.285 356.458 427.747 355.319 429.231C356.706 421.63 358.112 400.617 336.344 384.184C329.43 378.963 325.654 376.868 303.524 369.375C303.524 369.375 290.566 365.344 283.187 352.786C283.187 352.786 283.186 352.789 283.187 352.801C283.237 353.438 284.868 373.884 303.805 383.3C326.306 394.489 350.623 406.296 354.411 430.421C354.401 430.434 354.389 430.448 354.38 430.462L352.197 433.322C351.835 433.8 351.464 434.274 351.11 434.755L350.064 436.209L347.97 439.118C347.259 440.08 346.623 441.081 345.947 442.062L343.95 445.02L342.045 448.022C340.743 450.01 339.592 452.064 338.375 454.09C337.26 456.068 336.163 458.055 335.109 460.058C327.228 415.322 283.168 405.779 266.974 398.764C254.194 393.232 247.172 384.879 246.973 384.641C246.969 384.636 246.969 384.636 246.969 384.636C242.472 410.383 273.595 421.168 273.595 421.168C317.519 435.447 330.671 453.007 334.286 459.849C334.437 460.183 334.579 460.505 334.715 460.815C333.726 462.72 332.781 464.639 331.906 466.584C329.97 470.828 328.205 475.138 326.771 479.535C325.447 483.587 324.362 487.702 323.578 491.867C322.227 481.736 315.764 460.01 285.47 452.828C246.707 443.638 242.066 428.6 241.81 427.668C246.949 451.773 253.53 455.799 263.907 462.813C272.084 468.341 296.178 472.094 305.783 476.563C313.479 480.15 320.493 491.236 322.971 495.489C322.447 499.184 322.211 502.917 322.276 506.662C322.341 508.969 322.524 511.281 322.889 513.589C323.062 514.744 323.306 515.898 323.584 517.051C323.734 517.628 323.889 518.205 324.072 518.785C324.161 519.074 324.264 519.367 324.364 519.657C324.478 519.963 324.569 520.223 324.734 520.594C324.738 520.602 324.746 520.62 324.75 520.628C325.199 521.578 326.485 522.043 327.622 521.67C328.759 521.297 329.318 520.223 328.871 519.275L328.853 519.238C328.78 519.084 328.668 518.806 328.579 518.575C328.489 518.326 328.396 518.08 328.313 517.825C328.142 517.318 327.99 516.8 327.845 516.277C327.571 515.229 327.321 514.168 327.137 513.091C326.753 510.942 326.535 508.758 326.426 506.567C326.261 502.178 326.529 497.756 327.22 493.367C327.717 490.147 328.41 486.941 329.261 483.76C350.799 474.629 369.035 474.953 369.035 474.953C419.237 475.326 432.133 454.399 433.809 451.198L433.845 451.137C433.941 450.951 433.991 450.835 434.004 450.8C433.831 451.017 430.388 454.52 384.768 454.8C351.003 455.007 336.271 470.176 330.756 478.691C331.973 474.935 333.429 471.226 335.017 467.557C336.803 463.351 338.931 459.248 341.125 455.171Z" fill="#795B22"/>
<path opacity="0.3" d="M167.722 472.524C175.018 463.199 180.204 453.47 179.639 447.836C179.342 444.878 182.95 436.487 182.95 436.487C182.95 436.487 177.685 438.703 175.351 441.894C173.017 445.085 177.782 447.499 167.17 461.063C158.856 471.694 158.846 488.586 159.23 495.398C154.711 489.345 150.447 483.149 146.32 476.89C147.756 472.146 152.541 457.675 160.386 447.171C169.895 434.438 166.497 417.962 162.313 411.966C162.313 411.966 165.851 428.245 154.065 444.622C143.799 458.888 145.751 470.556 145.94 476.31C145.903 476.254 145.865 476.196 145.828 476.141C143.166 472.149 140.588 468.106 137.964 464.088C140.224 460.253 149.222 444.556 150.126 436.342C151.162 426.942 148.006 410.215 148.006 410.215C148.006 410.215 147.711 428.307 141.998 439.367C137.49 448.099 137.267 458.983 137.371 463.183C137.176 462.884 136.981 462.586 136.784 462.287C134.381 458.626 131.968 454.97 129.504 451.336C130.469 447.69 134.367 432.962 135.833 427.203C137.509 420.609 137.915 405.488 129.809 395.535C129.809 395.535 134.389 410.529 128.005 424.676C123.575 434.491 125.907 443.915 127.751 448.768C127.69 448.679 127.631 448.59 127.57 448.503C126.778 447.364 126.014 446.216 125.202 445.087L122.779 441.696C121.113 439.459 119.462 437.213 117.585 435.089C117.549 435.046 117.514 435.006 117.478 434.964C117.567 433.866 117.926 429.62 119.196 415.884C120.754 399.053 107.854 392.398 107.854 392.398C109.851 393.388 112.948 402.875 113.425 414.615C113.826 424.508 116.409 432.414 117.213 434.656C116.868 434.269 116.503 433.894 116.141 433.516C115.662 432.99 115.119 432.509 114.599 432.013C114.116 431.572 113.616 431.145 113.115 430.72C111.579 429.101 107.214 424.08 101.324 413.736C93.9237 400.739 77.1116 397.395 77.1116 397.395C77.1116 397.395 83.0071 399.203 93.4982 413.57C102.636 426.084 111.193 430.269 113.249 431.14C113.633 431.482 114.014 431.824 114.382 432.175C114.886 432.678 115.412 433.163 115.875 433.694C116.352 434.214 116.834 434.729 117.268 435.278C118.383 436.595 119.415 437.962 120.419 439.344C118.641 438.919 112.493 436.814 97.7746 426.461C79.692 413.739 65.6671 418.35 65.6671 418.35C68.8975 417.829 74.1608 420.703 89.8876 429.234C103.853 436.811 117.551 438.988 120.443 439.38C121.06 440.232 121.668 441.089 122.275 441.944L124.607 445.368C125.389 446.507 126.126 447.67 126.888 448.819C127.942 450.424 128.982 452.036 130.016 453.651C109.075 449.921 101.742 446.084 101.742 446.084C82.1759 434.643 62.8739 435.42 62.8739 435.42C69.4373 436.02 76.5009 440.473 93.4529 448.712C108.484 456.017 126.333 454.379 130.186 453.914C132.061 456.849 133.908 459.795 135.752 462.744C136.546 464.013 137.334 465.283 138.12 466.553C113.167 468.323 98.3951 461.2 98.3951 461.2C75.1871 448.802 57 449.708 57 449.708C74.929 453.181 69.3782 457.854 94.2684 465.835C115.794 472.738 133.804 468.166 138.277 466.806C140.324 470.122 142.357 473.444 144.455 476.75C145.583 478.554 146.724 480.355 147.878 482.15C142.022 482.166 130.469 481.244 111.313 473.451C93.2461 466.101 74.2711 472.582 69.3959 474.502C72.3998 473.635 82.103 472.527 109.67 479.332C136.973 486.072 145.725 484.152 148.341 482.864C151.997 488.526 155.797 494.13 159.833 499.623C155.287 497 147.732 493.293 140.86 492.943C130.126 492.398 121.587 490.554 116.373 488.502C111.161 486.45 96.0432 486.436 85.3079 496.07C85.3079 496.07 100.631 490.883 108.699 494.19C116.767 497.498 124.962 499.647 130.012 499.606C134.665 499.567 149.659 498.402 161.123 501.369C161.828 502.314 162.539 503.256 163.26 504.192L165.849 507.513C166.272 508.072 166.733 508.609 167.182 509.154L168.535 510.784L169.889 512.416C170.095 512.659 170.308 512.899 170.521 513.139C136.968 501.653 98.1253 504.601 98.1253 504.601C104.608 504.154 120.985 513.433 133.924 516.184C140.685 517.621 164.348 515.492 171.953 514.751L172.717 515.612L173.428 516.409L174.173 517.188L175.662 518.745L176.407 519.524L177.191 520.282L178.759 521.795C179.015 522.051 179.292 522.293 179.568 522.536L180.396 523.267L181.223 523.998C181.497 524.243 181.8 524.47 182.088 524.707L182.962 525.41C183.11 525.527 183.25 525.646 183.403 525.76L183.868 526.097L184.8 526.769C185.109 526.994 185.458 527.198 185.785 527.413C185.952 527.518 186.114 527.626 186.287 527.73L186.829 528.032C187.014 528.133 187.179 528.234 187.394 528.331C187.613 528.432 187.759 528.517 188.101 528.642L188.19 528.675C188.243 528.693 188.296 528.711 188.351 528.724C189.175 528.933 190.044 528.547 190.296 527.86C190.546 527.173 190.083 526.448 189.26 526.238C189.24 526.233 189.051 526.146 188.923 526.088C188.789 526.034 188.633 525.944 188.485 525.867L188.038 525.628C187.889 525.543 187.741 525.448 187.593 525.357C187.298 525.17 186.994 525.002 186.705 524.8L185.834 524.196L185.399 523.893C185.255 523.791 185.117 523.678 184.975 523.571L184.132 522.92C183.854 522.7 183.563 522.495 183.295 522.263L182.483 521.575L181.672 520.885C181.4 520.655 181.128 520.428 180.872 520.183L179.314 518.739L178.534 518.016L177.787 517.266L176.292 515.766L175.544 515.017L174.825 514.245L173.391 512.697C173.027 512.299 172.654 511.907 172.29 511.509C203.45 475.383 188.062 453.582 189.086 456.029C190.12 458.503 186.287 470.495 178.475 486.56C172.898 498.025 171.579 506.466 171.281 510.36L170.586 509.557L169.209 507.968C168.752 507.437 168.283 506.913 167.85 506.368L165.205 503.121C163.339 500.801 161.521 498.453 159.742 496.083C161.576 481.614 163.43 478.009 167.722 472.524Z" fill="#795B22"/>
<path opacity="0.3" d="M425.271 472.126C417.975 462.801 412.789 453.072 413.354 447.438C413.652 444.48 410.043 436.088 410.043 436.088C410.043 436.088 415.308 438.305 417.642 441.496C419.977 444.687 415.212 447.101 425.823 460.665C434.137 471.296 434.147 488.187 433.763 495C438.282 488.946 442.546 482.75 446.673 476.491C445.237 471.748 440.453 457.277 432.607 446.772C423.099 434.039 426.497 417.564 430.68 411.568C430.68 411.568 427.143 427.847 438.928 444.224C449.194 458.489 447.242 470.157 447.053 475.911C447.091 475.856 447.128 475.798 447.166 475.742C449.827 471.751 452.405 467.707 455.029 463.69C452.77 459.855 443.772 444.158 442.868 435.944C441.831 426.544 444.987 409.816 444.987 409.816C444.987 409.816 445.282 427.909 450.995 438.969C455.504 447.7 455.726 458.585 455.622 462.784C455.817 462.485 456.012 462.188 456.209 461.889C458.612 458.228 461.025 454.572 463.489 450.937C462.524 447.291 458.626 432.564 457.16 426.805C455.484 420.211 455.078 405.089 463.184 395.137C463.184 395.137 458.604 410.13 464.988 424.278C469.418 434.092 467.086 443.517 465.242 448.369C465.303 448.28 465.363 448.192 465.424 448.105C466.215 446.966 466.98 445.817 467.791 444.689L470.214 441.297C471.881 439.061 473.531 436.815 475.408 434.69C475.444 434.647 475.479 434.608 475.515 434.565C475.426 433.468 475.068 429.222 473.797 415.485C472.239 398.655 485.139 392 485.139 392C483.142 392.989 480.045 402.477 479.569 414.217C479.167 424.11 476.584 432.015 475.781 434.258C476.125 433.87 476.49 433.496 476.852 433.118C477.331 432.592 477.875 432.11 478.395 431.614C478.877 431.174 479.378 430.747 479.878 430.321C481.414 428.703 485.779 423.681 491.669 413.338C499.07 400.341 515.882 396.997 515.882 396.997C515.882 396.997 509.986 398.804 499.495 413.172C490.357 425.686 481.8 429.871 479.744 430.742C479.36 431.084 478.98 431.425 478.611 431.777C478.107 432.28 477.581 432.764 477.118 433.295C476.642 433.816 476.159 434.33 475.726 434.879C474.611 436.197 473.579 437.564 472.574 438.946C474.353 438.52 480.5 436.415 495.219 426.062C513.301 413.341 527.326 417.952 527.326 417.952C524.096 417.431 518.831 420.305 503.106 428.836C489.14 436.412 475.442 438.589 472.55 438.982C471.932 439.833 471.325 440.691 470.718 441.545L468.386 444.97C467.604 446.108 466.867 447.272 466.105 448.42C465.051 450.025 464.011 451.637 462.977 453.253C483.918 449.523 491.252 445.686 491.252 445.686C510.817 434.245 530.119 435.022 530.119 435.022C523.556 435.622 516.492 440.075 499.54 448.313C484.509 455.619 466.661 453.981 462.808 453.515C460.932 456.45 459.085 459.396 457.241 462.346C456.447 463.614 455.659 464.884 454.873 466.154C479.827 467.924 494.598 460.801 494.598 460.801C517.806 448.404 535.993 449.309 535.993 449.309C518.064 452.783 523.615 457.456 498.725 465.436C477.199 472.339 459.189 467.768 454.716 466.407C452.669 469.723 450.636 473.046 448.539 476.352C447.41 478.156 446.269 479.957 445.115 481.751C450.971 481.767 462.524 480.846 481.68 473.052C499.747 465.703 518.722 472.183 523.597 474.104C520.593 473.236 510.89 472.129 483.323 478.933C456.02 485.673 447.268 483.754 444.652 482.466C440.996 488.128 437.196 493.731 433.16 499.224C437.707 496.602 445.261 492.895 452.133 492.545C462.867 491.999 471.406 490.156 476.62 488.103C481.832 486.051 496.95 486.038 507.685 495.672C507.685 495.672 492.362 490.484 484.294 493.792C476.226 497.1 468.032 499.249 462.981 499.208C458.328 499.168 443.334 498.003 431.87 500.971C431.165 501.916 430.454 502.857 429.733 503.794L427.145 507.114C426.721 507.673 426.26 508.21 425.811 508.756L424.458 510.386L423.105 512.018C422.898 512.261 422.685 512.501 422.472 512.74C456.026 501.255 494.868 504.203 494.868 504.203C488.385 503.756 472.009 513.035 459.069 515.785C452.309 517.223 428.646 515.093 421.04 514.352L420.276 515.213L419.565 516.01L418.82 516.789L417.331 518.347L416.587 519.126L415.803 519.883L414.235 521.397C413.979 521.653 413.701 521.894 413.425 522.138L412.598 522.869L411.77 523.6C411.497 523.845 411.193 524.072 410.906 524.308L410.031 525.011C409.883 525.128 409.744 525.248 409.59 525.361L409.125 525.698L408.193 526.37C407.884 526.595 407.535 526.799 407.208 527.014C407.041 527.12 406.879 527.228 406.706 527.331L406.164 527.634C405.979 527.734 405.814 527.836 405.599 527.933C405.38 528.033 405.235 528.119 404.892 528.243L404.803 528.276C404.75 528.294 404.697 528.312 404.642 528.326C403.818 528.534 402.95 528.148 402.698 527.461C402.447 526.774 402.91 526.05 403.734 525.84C403.751 525.835 403.943 525.748 404.071 525.69C404.204 525.636 404.36 525.545 404.508 525.468L404.955 525.23C405.105 525.144 405.252 525.049 405.4 524.959C405.696 524.771 405.999 524.604 406.289 524.402L407.159 523.797L407.596 523.495C407.74 523.393 407.878 523.28 408.02 523.173L408.863 522.522C409.141 522.302 409.432 522.096 409.7 521.865L410.512 521.176L411.323 520.486C411.595 520.256 411.867 520.029 412.123 519.785L413.681 518.34L414.461 517.617L415.208 516.868L416.703 515.368L417.451 514.619L418.17 513.846L419.604 512.298C419.969 511.901 420.341 511.508 420.705 511.111C389.545 474.985 404.933 453.184 403.909 455.63C402.875 458.105 406.708 470.096 414.52 486.161C420.097 497.627 421.417 506.068 421.714 509.962L422.409 509.158L423.786 507.57C424.243 507.039 424.712 506.515 425.145 505.969L427.791 502.722C429.656 500.402 431.474 498.054 433.253 495.685C431.417 481.215 429.564 477.61 425.271 472.126Z" fill="#795B22"/>
<g clip-path="url(#clip0_313_432)">
<path d="M300.374 550.877C367.959 550.877 422.748 542.622 422.748 532.438C422.748 522.255 367.959 514 300.374 514C232.789 514 178 522.255 178 532.438C178 542.622 232.789 550.877 300.374 550.877Z" fill="#795B22"/>
<path d="M377.38 467.292C378.69 467.764 380.092 467.928 381.477 467.771C382.862 467.614 384.191 467.14 385.36 466.387C386.528 465.634 387.504 464.622 388.211 463.431C388.918 462.239 389.336 460.902 389.433 459.523C389.529 458.144 389.302 456.762 388.768 455.485C388.234 454.209 387.408 453.072 386.355 452.166C385.303 451.26 384.053 450.609 382.703 450.263C381.354 449.918 379.942 449.888 378.578 450.176L378.804 454.77L376.612 450.833C374.461 451.835 372.8 453.643 371.992 455.86C371.706 456.636 371.531 457.449 371.475 458.274C371.336 460.209 371.838 462.137 372.904 463.764C373.969 465.392 375.541 466.63 377.38 467.292V467.292Z" fill="#795B22"/>
<path d="M388.224 520.567C387.45 516.661 390.802 513.198 394.114 510.947C397.425 508.696 401.294 506.484 402.424 502.664C404.047 497.173 399.211 492.145 395.446 487.809C392.653 484.592 390.255 481.057 388.301 477.279C387.518 475.764 386.798 474.181 386.592 472.491C386.295 470.057 387.084 467.636 387.878 465.314C390.524 457.581 393.354 449.913 396.366 442.309" stroke="#56523D" stroke-miterlimit="10"/>
<path d="M377.751 466.109C379.06 466.582 380.463 466.746 381.848 466.589C383.233 466.432 384.562 465.958 385.73 465.205C386.899 464.451 387.875 463.439 388.582 462.248C389.289 461.057 389.707 459.719 389.803 458.34C389.9 456.961 389.672 455.579 389.138 454.303C388.604 453.026 387.778 451.89 386.726 450.984C385.674 450.077 384.423 449.426 383.074 449.081C381.724 448.735 380.312 448.706 378.949 448.994L379.174 453.587L376.983 449.651C374.832 450.653 373.17 452.461 372.363 454.677C372.076 455.454 371.902 456.266 371.845 457.091C371.707 459.027 372.209 460.954 373.274 462.581C374.34 464.209 375.911 465.447 377.751 466.109Z" stroke="#56523D" stroke-miterlimit="10"/>
<path d="M387.124 440.723C387.638 439.317 388.501 438.061 389.633 437.072C390.765 436.083 392.129 435.392 393.601 435.064L394.342 439.431L395.716 434.844C397.623 434.873 399.473 435.501 400.996 436.639C402.52 437.777 403.64 439.366 404.194 441.176C404.747 442.986 404.707 444.924 404.078 446.71C403.448 448.496 402.263 450.037 400.693 451.112C399.123 452.186 397.249 452.738 395.342 452.687C393.435 452.636 391.593 451.986 390.083 450.83C388.573 449.674 387.473 448.072 386.941 446.255C386.409 444.439 386.473 442.501 387.124 440.723V440.723Z" fill="#795B22"/>
<path d="M387.618 439.146C388.132 437.74 388.995 436.484 390.127 435.495C391.259 434.506 392.624 433.816 394.095 433.487L394.836 437.854L396.21 433.268C398.118 433.296 399.967 433.924 401.49 435.062C403.014 436.2 404.134 437.789 404.688 439.599C405.242 441.41 405.201 443.347 404.572 445.133C403.942 446.919 402.757 448.46 401.187 449.535C399.617 450.609 397.743 451.161 395.836 451.11C393.929 451.059 392.088 450.409 390.578 449.253C389.068 448.097 387.967 446.495 387.435 444.678C386.903 442.862 386.967 440.924 387.618 439.146H387.618Z" stroke="#56523D" stroke-miterlimit="10"/>
<path d="M393.866 487.898C395.944 488.645 398.226 488.608 400.278 487.794C402.329 486.98 404.007 485.446 404.992 483.484C405.976 481.522 406.198 479.27 405.615 477.156C405.032 475.042 403.685 473.215 401.831 472.023L400.776 475.547L400.027 471.129C400.02 471.125 400.012 471.122 400.004 471.12C398.893 470.72 397.713 470.54 396.532 470.592C395.351 470.644 394.192 470.926 393.121 471.422C392.05 471.919 391.088 472.619 390.29 473.484C389.492 474.349 388.874 475.362 388.471 476.464C388.067 477.566 387.887 478.736 387.94 479.907C387.993 481.078 388.278 482.228 388.78 483.29C389.281 484.351 389.988 485.305 390.861 486.096C391.733 486.886 392.755 487.499 393.866 487.898H393.866Z" fill="#795B22"/>
<path d="M394.295 486.301C396.372 487.048 398.654 487.011 400.706 486.197C402.758 485.383 404.436 483.849 405.42 481.887C406.404 479.925 406.626 477.672 406.043 475.559C405.46 473.445 404.114 471.618 402.259 470.425L401.204 473.95L400.455 469.532C400.448 469.528 400.44 469.525 400.432 469.523C399.321 469.122 398.141 468.943 396.96 468.995C395.779 469.046 394.62 469.328 393.549 469.825C392.477 470.321 391.515 471.022 390.717 471.887C389.919 472.752 389.301 473.764 388.898 474.866C388.495 475.969 388.314 477.139 388.367 478.31C388.421 479.481 388.706 480.631 389.207 481.693C389.708 482.754 390.416 483.708 391.288 484.499C392.161 485.289 393.183 485.902 394.295 486.301V486.301Z" stroke="#56523D" stroke-miterlimit="10"/>
<path d="M384.498 502.718C384.855 504.734 385.9 506.566 387.458 507.908C389.016 509.25 390.991 510.02 393.054 510.089C395.116 510.158 397.14 509.521 398.785 508.286C400.431 507.051 401.598 505.293 402.091 503.306C402.584 501.319 402.373 499.224 401.494 497.373C400.614 495.522 399.119 494.027 397.26 493.139C395.401 492.25 393.291 492.023 391.283 492.495C389.275 492.967 387.491 494.109 386.232 495.73L390.241 501.714L384.763 498.538C384.338 499.89 384.247 501.324 384.498 502.718Z" fill="#795B22"/>
<path d="M384.868 501.536C385.225 503.551 386.27 505.384 387.828 506.725C389.386 508.067 391.362 508.837 393.424 508.906C395.486 508.975 397.51 508.339 399.155 507.104C400.801 505.869 401.968 504.11 402.461 502.123C402.954 500.136 402.743 498.041 401.864 496.19C400.984 494.339 399.49 492.844 397.63 491.956C395.771 491.068 393.661 490.841 391.653 491.313C389.645 491.784 387.862 492.927 386.602 494.547L390.612 500.532L385.133 497.356C384.708 498.708 384.617 500.141 384.868 501.536Z" stroke="#56523D" stroke-miterlimit="10"/>
<path d="M359.724 268.813C360.062 262.398 362.871 256.356 367.57 251.933C372.269 247.511 378.501 245.045 384.979 245.045C385.748 245.045 386.507 245.085 387.258 245.151C390.212 240.111 394.449 235.928 399.544 233.019C404.638 230.111 410.414 228.578 416.293 228.576C422.172 228.573 427.948 230.1 433.046 233.004C438.144 235.907 442.384 240.087 445.343 245.124C445.977 245.077 446.615 245.045 447.261 245.045C453.739 245.045 459.971 247.511 464.67 251.933C469.369 256.356 472.178 262.398 472.516 268.813" fill="#F2F2F2"/>
<path d="M364.991 266.884C365.33 260.469 368.138 254.426 372.838 250.004C377.537 245.581 383.768 243.116 390.247 243.116C391.016 243.116 391.775 243.156 392.526 243.222C395.48 238.182 399.716 233.999 404.811 231.09C409.906 228.181 415.681 226.649 421.56 226.646C427.439 226.644 433.216 228.17 438.314 231.074C443.411 233.978 447.652 238.158 450.611 243.195C451.245 243.148 451.883 243.116 452.528 243.116C459.007 243.116 465.239 245.581 469.938 250.004C474.637 254.426 477.446 260.469 477.784 266.884" stroke="#56523D" stroke-miterlimit="10"/>
<path d="M175.947 388.019C176.285 381.604 179.094 375.562 183.793 371.139C188.492 366.717 194.724 364.251 201.202 364.251C201.971 364.251 202.73 364.291 203.481 364.357C206.436 359.317 210.672 355.134 215.767 352.225C220.862 349.317 226.637 347.784 232.516 347.782C238.395 347.779 244.172 349.306 249.269 352.21C254.367 355.113 258.607 359.293 261.566 364.33C262.2 364.283 262.838 364.251 263.484 364.251C269.963 364.251 276.194 366.717 280.893 371.139C285.593 375.562 288.401 381.604 288.74 388.02" fill="#F2F2F2"/>
<path d="M181.214 386.09C181.553 379.675 184.361 373.633 189.061 369.21C193.76 364.788 199.991 362.322 206.47 362.322C207.239 362.322 207.998 362.362 208.749 362.428C211.703 357.388 215.939 353.205 221.034 350.296C226.129 347.387 231.905 345.855 237.783 345.852C243.662 345.85 249.439 347.376 254.537 350.28C259.635 353.184 263.875 357.364 266.834 362.401C267.468 362.354 268.106 362.322 268.752 362.322C275.23 362.322 281.462 364.788 286.161 369.21C290.86 373.633 293.669 379.675 294.007 386.09" stroke="#56523D" stroke-miterlimit="10"/>
<path d="M122.327 262.381C122.666 255.966 125.474 249.924 130.173 245.501C134.873 241.079 141.104 238.613 147.583 238.613C148.351 238.613 149.11 238.653 149.862 238.719C152.816 233.679 157.052 229.496 162.147 226.587C167.242 223.679 173.017 222.146 178.896 222.144C184.775 222.141 190.552 223.668 195.65 226.572C200.747 229.475 204.988 233.655 207.947 238.692C208.58 238.645 209.218 238.613 209.864 238.613C216.343 238.613 222.574 241.079 227.274 245.501C231.973 249.924 234.781 255.966 235.12 262.381" fill="#F2F2F2"/>
<path d="M127.595 260.452C127.933 254.037 130.742 247.994 135.441 243.572C140.14 239.149 146.372 236.684 152.85 236.684C153.619 236.684 154.378 236.724 155.129 236.79C158.084 231.75 162.32 227.567 167.415 224.658C172.51 221.749 178.285 220.217 184.164 220.214C190.043 220.212 195.82 221.738 200.917 224.642C206.015 227.546 210.255 231.726 213.214 236.763C213.848 236.716 214.486 236.684 215.132 236.684C221.611 236.684 227.842 239.149 232.541 243.572C237.24 247.994 240.049 254.037 240.388 260.452" stroke="#56523D" stroke-miterlimit="10"/>
<path d="M233.585 313.252C233.585 313.252 279.041 335.634 287.192 332.526C295.342 329.417 298.164 301.75 298.164 301.75L264.621 295.533L233.585 313.252Z" fill="#3D2E1E"/>
<path opacity="0.1" d="M233.585 313.252C233.585 313.252 279.041 335.634 287.192 332.526C295.342 329.417 298.164 301.75 298.164 301.75L264.621 295.533L233.585 313.252Z" fill="black"/>
<path d="M327.788 279.834H298.007V305.636H327.788V279.834Z" fill="#FF6584"/>
<path opacity="0.1" d="M327.788 279.834H298.007V305.636H327.788V279.834Z" fill="black"/>
<path d="M270.89 389.725C270.89 389.725 269.636 416.77 278.1 416.148C286.565 415.526 278.1 390.657 278.1 390.657L270.89 389.725Z" fill="#FBBEBE"/>
<path d="M305.687 283.72C305.687 283.72 307.568 295.533 304.12 297.087C300.671 298.641 298.477 299.885 298.477 299.885L306.314 305.17L320.735 306.102L324.496 303.304L327.945 300.196C327.945 300.196 322.302 298.952 322.302 296.155C322.302 293.357 321.989 284.963 321.989 284.963L305.687 283.72Z" fill="#FBBEBE"/>
<path opacity="0.1" d="M305.687 283.72C305.687 283.72 307.568 295.533 304.12 297.087C300.671 298.641 298.477 299.885 298.477 299.885L306.314 305.17L320.735 306.102L324.496 303.304L327.945 300.196C327.945 300.196 322.302 298.952 322.302 296.155C322.302 293.357 321.989 284.963 321.989 284.963L305.687 283.72Z" fill="black"/>
<path d="M285.938 394.388C285.938 394.388 276.847 423.298 276.847 444.437C276.847 444.437 261.799 478.01 262.426 494.486L258.665 517.179L263.994 519.044L268.069 515.625C268.069 515.625 269.323 503.501 273.398 497.595C277.474 491.688 286.878 463.71 286.878 463.71C286.878 463.71 311.957 411.485 311.017 404.024C310.076 396.564 285.938 394.388 285.938 394.388Z" fill="#FBBEBE"/>
<path d="M341.425 387.859C341.425 387.859 347.381 390.657 338.917 440.396C338.917 440.396 343.619 473.347 339.544 491.377L338.917 509.407H332.334L331.08 507.542C331.08 507.542 330.766 491.377 328.572 487.025C326.378 482.673 324.497 457.493 324.497 457.493C324.497 457.493 314.465 406.2 316.66 401.848C318.854 397.496 341.425 387.859 341.425 387.859Z" fill="#FBBEBE"/>
<path d="M257.724 511.894C257.724 511.894 259.918 516.868 263.994 515.625C268.069 514.381 269.009 514.381 269.009 514.381C269.009 514.381 266.188 528.681 267.128 535.52C268.069 542.359 266.501 546.711 260.232 546.711C253.962 546.711 253.021 539.25 253.021 539.25L255.843 521.531L257.724 511.894Z" fill="#3A3731"/>
<path d="M330 503C330 503 332.194 507.352 335.643 506.42C339.091 505.487 340.345 503.933 340.345 503.933C340.345 503.933 340.032 513.569 341.286 517.922C342.539 522.274 340.141 533.664 333.558 534.285C335.139 535.181 331.75 534.503 333.558 534.285C331.976 533.389 330.729 532.011 330 530.356L330 503Z" fill="#3A3731"/>
<path d="M314.152 291.802C321.77 291.802 327.945 285.679 327.945 278.124C327.945 270.57 321.77 264.446 314.152 264.446C306.534 264.446 300.358 270.57 300.358 278.124C300.358 285.679 306.534 291.802 314.152 291.802Z" fill="#FBBEBE"/>
<path d="M339.797 300.513C339.797 300.513 328.871 296.259 324.929 296.832C323.231 298.263 321.251 299.329 319.116 299.963C316.981 300.596 314.736 300.784 312.524 300.513C305 299.58 302.058 296 302.058 296C302.058 296 281.802 300.513 283.056 302.378C284.31 304.243 289.953 334.708 289.953 334.708C289.953 334.708 293.714 361.132 289.326 370.147C284.937 379.162 282.742 394.083 284.623 395.327C286.504 396.57 307.508 402.166 310.016 403.72C312.524 405.274 313.464 399.99 315.032 400.922C316.599 401.855 320.047 403.409 322.242 402.166C324.436 400.922 345.753 389.731 345.126 387.555C344.499 385.379 336.349 358.955 333.527 353.671C330.706 348.386 332.9 337.195 334.468 335.019C336.035 332.843 339.17 330.356 339.797 324.139C340.424 317.921 339.797 300.513 339.797 300.513Z" fill="#3A3731"/>
<path d="M283.494 303.587C283.494 303.587 280.922 305.48 279.981 309.522C279.041 313.563 277.787 345.893 277.787 345.893C277.787 345.893 266.188 390.346 268.696 391.279C271.204 392.212 278.414 394.077 279.354 393.144C280.295 392.212 290.953 354.597 290.013 350.556C289.073 346.515 291.267 334.702 291.267 334.702L283.494 303.587Z" fill="#3A3731"/>
<path d="M341.425 361.436C341.425 361.436 324.496 353.043 322.616 358.638C320.735 364.234 340.484 370.14 340.484 370.14C340.484 370.14 347.381 367.653 347.381 366.099C347.381 364.545 341.425 361.436 341.425 361.436Z" fill="#FBBEBE"/>
<path d="M336.095 303.926L339.544 302.683C339.544 302.683 341.425 301.439 343.619 306.102C345.813 310.765 369.638 338.121 365.25 346.825C360.861 355.53 346.44 373.249 345.813 372.005C345.186 370.762 337.976 361.436 339.23 360.504C340.484 359.571 354.905 346.825 353.024 344.96C351.143 343.095 343.306 327.241 338.917 326.619C334.528 325.998 336.095 303.926 336.095 303.926Z" fill="#3A3731"/>
<path d="M298.947 277.658C298.947 277.658 251.144 258.598 209.764 240.257C209.764 240.257 188.134 234.972 176.848 244.92C176.848 244.92 186.253 243.677 186.253 248.961C186.253 248.961 194.403 259.531 169.011 261.396C151.327 262.695 144.286 273.191 141.641 279.444C139.576 284.463 135.946 288.696 131.281 291.523C125.169 295.146 116.311 297.811 106 293.104C106 293.104 106.586 293.998 107.698 295.487C127.606 322.146 201.74 345.348 227.919 324.696C244.098 311.932 269.746 295.801 288.132 303.926C316.973 316.672 322.302 311.076 322.302 311.076L323.556 307.657C323.556 307.657 295.656 300.196 295.029 290.559C294.402 280.922 298.947 277.658 298.947 277.658Z" fill="#3D2E1E"/>
<path d="M326.848 280.145C326.848 280.145 333.588 282.787 334.842 291.492C334.842 291.492 342.052 305.481 333.901 308.9C325.751 312.32 324.183 311.387 324.183 311.387V309.833C324.183 309.833 332.961 304.548 331.08 300.507C329.199 296.465 326.848 280.145 326.848 280.145Z" fill="#3D2E1E"/>
<path d="M314.779 319.78C314.779 319.78 316.973 314.185 316.346 314.185C315.719 314.185 318.897 310.743 320.129 311.998C321.362 313.252 323.556 316.983 321.049 317.915C318.541 318.848 314.779 319.78 314.779 319.78Z" fill="#3D2E1E"/>
<path d="M330.228 316.459C330.228 316.459 324.498 314.521 324.524 315.143C324.551 315.764 320.949 312.761 322.161 311.487C323.373 310.213 327.038 307.881 328.084 310.326C329.13 312.771 330.228 316.459 330.228 316.459Z" fill="#3D2E1E"/>
<path d="M321.048 307.967C321.048 307.967 323.911 306.374 325.614 308.881C327.318 311.387 323.556 315.739 321.048 315.739C318.541 315.739 318.541 310.454 318.541 310.454L321.048 307.967Z" fill="#3D2E1E"/>
<path opacity="0.1" d="M321.048 307.967C321.048 307.967 323.911 306.374 325.614 308.881C327.318 311.387 323.556 315.739 321.048 315.739C318.541 315.739 318.541 310.454 318.541 310.454L321.048 307.967Z" fill="black"/>
<path d="M301.756 256.099C300.103 257.45 298.535 258.964 297.507 260.828C296.968 261.873 296.518 262.961 296.16 264.08C294.893 267.698 291.741 271.362 293.075 274.956C293.456 275.982 294.049 277.063 293.708 278.102C293.405 279.025 292.47 279.564 291.793 280.265C290.342 281.771 290.097 284.03 290.009 286.112C289.846 289.923 291.96 294.415 294.514 297.268C295.068 297.805 295.582 298.382 296.051 298.994C296.367 299.482 296.573 300.031 296.656 300.605C296.739 301.179 296.697 301.764 296.532 302.321L300.252 301.551C300.386 302.913 300.428 304.282 300.378 305.65C301.26 305.746 302.148 305.537 302.894 305.06C303.639 304.582 304.196 303.864 304.47 303.027C304.68 304.002 305.024 304.945 305.492 305.828C306.583 304.474 307.42 302.937 307.963 301.29C308.675 299.18 308.827 296.924 308.406 294.739C308.012 293.142 307.476 291.584 306.805 290.082C305.49 286.788 304.416 283.405 303.344 280.025C302.787 278.27 302.224 276.458 302.392 274.625L303.714 274.483C303.729 273.759 303.87 273.043 304.132 272.367C304.906 272.53 305.652 272.808 306.342 273.192L307.866 269.358C308.872 270.392 310.315 270.86 311.697 271.292L316.951 272.932L316.983 271.901C319.2 273.847 321.726 275.418 324.458 276.551C324.304 276.366 324.191 276.151 324.127 275.919C324.064 275.688 324.05 275.446 324.089 275.209C325.383 277.509 324.866 280.374 324.067 282.885C323.268 285.397 322.208 287.954 322.529 290.568C322.77 292.524 323.78 294.394 323.593 296.355C323.501 297.32 323.12 298.239 323.001 299.202C322.719 301.499 323.937 303.686 325.112 305.684L327.397 302.572C328.234 301.432 329.096 300.268 330.28 299.49C331.496 298.691 333.003 298.332 334.063 297.338C335.954 295.563 335.714 292.539 335.099 290.03C334.772 288.696 334.376 287.343 334.496 285.976C334.7 283.658 336.324 281.74 337.239 279.597C337.891 278.035 338.174 276.345 338.066 274.657C337.957 272.97 337.46 271.329 336.614 269.862C335.478 267.931 333.763 266.376 332.693 264.408C331.628 262.45 331.222 260.12 329.763 258.43C329.05 257.661 328.222 257.006 327.306 256.489C323.159 254.018 318.501 252.511 313.682 252.081C309.113 251.608 305.257 253.236 301.756 256.099Z" fill="#7D3846"/>
</g>
<defs>
<clipPath id="clip0_313_432">
<rect width="372" height="331" fill="white" transform="translate(106 220)"/>
</clipPath>
</defs>
</svg>
