<svg width="588" height="682" viewBox="0 0 588 682" fill="none" xmlns="http://www.w3.org/2000/svg">
<path d="M588 0H0V682H588V0Z" fill="#6489B6"/>
<path d="M87.7406 0C73.1339 13.9574 65.7226 31.0825 62.4961 48.0019C52.9357 98.1314 25.2686 126.209 0 141.753V0H87.7406Z" fill="#90B4C3"/>
<path d="M588 0V92.7653C575.186 83.2624 559.864 75.0791 541.592 69.481C489.014 53.3712 468.069 22.8499 459.757 0H588Z" fill="#90B4C3"/>
<path d="M588 510.718V681.998H0C0 608.874 0 535.748 0 462.624C18.3523 469.145 40.7815 480.45 54.1824 500.996C82.7706 544.825 47.2159 595.35 70.2926 610.393C87.5415 621.639 108.694 594.583 154.52 592.36C226.605 588.861 259.599 655.005 310.562 640.972C335.9 633.995 329.084 617.278 361.985 600.984C408.704 577.848 444.354 600.709 493.202 588.438C518.655 582.045 554.224 564.471 588 510.718Z" fill="#90B4C3"/>
<path d="M118.668 303.038C117.805 303.038 117.062 302.462 116.967 301.686C115.907 292.921 107.58 286.311 97.5972 286.311C94.5494 286.311 91.6336 286.915 88.9281 288.107C88.0815 288.479 87.0544 288.174 86.632 287.427C86.2115 286.678 86.5557 285.77 87.4005 285.396C90.5842 283.994 94.0135 283.284 97.5954 283.284C103.284 283.284 108.737 285.14 112.954 288.511C117.139 291.858 119.772 296.421 120.371 301.363C120.471 302.194 119.79 302.941 118.85 303.03C118.789 303.037 118.728 303.038 118.668 303.038Z" fill="#90B4C3"/>
<path d="M483.031 575.098C482.168 575.098 481.426 574.522 481.331 573.745C480.27 564.981 471.943 558.371 461.961 558.371C458.913 558.371 455.997 558.975 453.291 560.166C452.445 560.54 451.418 560.234 450.995 559.485C450.575 558.736 450.919 557.828 451.766 557.454C454.949 556.052 458.379 555.342 461.961 555.342C467.649 555.342 473.104 557.198 477.319 560.569C481.504 563.916 484.137 568.479 484.734 573.421C484.835 574.252 484.153 574.999 483.214 575.088C483.152 575.095 483.091 575.098 483.031 575.098Z" fill="#90B4C3"/>
<path d="M518.032 368.822C516.348 368.822 514.662 368.654 512.98 368.32C507.429 367.216 502.569 364.346 499.292 360.239C496.04 356.161 494.603 351.198 495.247 346.262C495.355 345.431 496.207 344.836 497.143 344.93C498.083 345.026 498.756 345.778 498.649 346.607C497.508 355.363 503.992 363.428 513.731 365.366C516.705 365.959 519.701 365.934 522.635 365.297C523.552 365.098 524.481 365.595 524.706 366.406C524.931 367.217 524.369 368.039 523.452 368.238C521.658 368.628 519.848 368.822 518.032 368.822Z" fill="#90B4C3"/>
<path d="M120.346 46.0223C120.037 46.0223 119.727 45.9483 119.446 45.7953C116.424 44.1366 113.938 41.9299 112.055 39.2362C109.065 34.9561 107.984 29.8763 109.013 24.9332C110.032 20.0262 113.039 15.6458 117.477 12.5999C118.223 12.0881 119.299 12.2066 119.879 12.8681C120.46 13.528 120.324 14.4791 119.576 14.9925C111.701 20.3964 109.722 30.1347 114.967 37.6466C116.569 39.9388 118.683 41.8164 121.251 43.2249C122.054 43.6659 122.3 44.599 121.803 45.3098C121.478 45.7689 120.918 46.0223 120.346 46.0223Z" fill="#90B4C3"/>
<path d="M452.465 70.99C450.051 70.99 447.636 70.651 445.306 69.9714C444.409 69.7098 443.922 68.8524 444.218 68.0593C444.514 67.2662 445.483 66.835 446.38 67.0967C455.844 69.8628 466.089 65.8856 470.212 57.8455C471.47 55.392 472.054 52.7921 471.945 50.123C471.911 49.2871 472.648 48.5861 473.593 48.5548C474.537 48.5252 475.331 49.1768 475.366 50.0127C475.495 53.1557 474.81 56.2115 473.331 59.0961C470.981 63.6772 466.816 67.304 461.603 69.3066C458.689 70.4272 455.579 70.99 452.465 70.99Z" fill="#90B4C3"/>
<path d="M294.605 611.008C293.825 611.008 293.04 610.974 292.251 610.903C286.591 610.398 281.375 608.066 277.565 604.337C273.782 600.637 271.679 595.861 271.646 590.892C271.64 590.056 272.401 589.374 273.348 589.37C273.352 589.37 273.356 589.37 273.359 589.37C274.301 589.37 275.066 590.041 275.071 590.875C275.131 599.689 282.665 607.005 292.597 607.892C295.63 608.162 298.6 607.821 301.426 606.876C302.31 606.58 303.298 606.975 303.633 607.757C303.968 608.538 303.522 609.412 302.638 609.708C300.044 610.572 297.351 611.008 294.605 611.008Z" fill="#90B4C3"/>
<path d="M431.777 273.69C431.174 273.69 430.57 273.564 430.011 273.307C428.741 272.723 427.952 271.572 427.952 270.305V244.726C427.952 243.458 428.741 242.308 430.011 241.724C431.282 241.14 432.801 241.229 433.973 241.956L454.59 254.747C455.61 255.379 456.218 256.414 456.218 257.516C456.218 258.617 455.61 259.652 454.59 260.286L433.973 273.077C433.314 273.483 432.548 273.69 431.777 273.69ZM431.779 244.368C431.707 244.368 431.641 244.388 431.591 244.411C431.493 244.457 431.375 244.548 431.375 244.726V270.305C431.375 270.483 431.493 270.575 431.591 270.62C431.69 270.664 431.842 270.697 432.006 270.595L452.623 257.804C452.764 257.717 452.794 257.599 452.794 257.515C452.794 257.431 452.764 257.312 452.623 257.225L432.006 244.434C431.926 244.387 431.848 244.368 431.779 244.368Z" fill="#90B4C3"/>
<path d="M23.6718 214.281C23.2792 214.281 22.8829 214.227 22.4996 214.119C21.3143 213.781 20.3876 212.95 20.0192 211.899L12.5838 190.62C12.1614 189.411 12.5317 188.106 13.5495 187.216C14.5692 186.325 16.0484 186.014 17.4123 186.403L44.9399 194.255C46.3038 194.644 47.2974 195.662 47.5375 196.91C47.7756 198.159 47.2156 199.409 46.0712 200.173L25.9773 213.599C25.3074 214.046 24.4943 214.281 23.6718 214.281ZM16.2289 189.263C16.1061 189.263 16.0168 189.315 15.9573 189.368C15.8772 189.437 15.7972 189.556 15.8568 189.725L23.2922 211.004C23.3425 211.148 23.4616 211.211 23.5527 211.236C23.6439 211.262 23.7797 211.273 23.9174 211.181L44.0114 197.755C44.1714 197.648 44.1844 197.51 44.1658 197.413C44.1472 197.316 44.0858 197.189 43.8942 197.135L16.3666 189.282C16.3127 189.269 16.2699 189.263 16.2289 189.263Z" fill="#90B4C3"/>
<path d="M513.148 215.792C514.977 215.121 515.846 213.266 515.089 211.649C514.332 210.031 512.236 209.263 510.408 209.934C508.579 210.605 507.711 212.459 508.467 214.077C509.224 215.695 511.32 216.462 513.148 215.792Z" fill="#90B4C3"/>
<path d="M511.762 230.559C513.742 230.559 515.346 229.14 515.346 227.39C515.346 225.639 513.742 224.22 511.762 224.22C509.783 224.22 508.179 225.639 508.179 227.39C508.179 229.14 509.783 230.559 511.762 230.559Z" fill="#90B4C3"/>
<path d="M511.762 245.082C513.742 245.082 515.346 243.663 515.346 241.913C515.346 240.163 513.742 238.744 511.762 238.744C509.783 238.744 508.179 240.163 508.179 241.913C508.179 243.663 509.783 245.082 511.762 245.082Z" fill="#90B4C3"/>
<path d="M511.762 259.606C513.742 259.606 515.346 258.187 515.346 256.437C515.346 254.686 513.742 253.267 511.762 253.267C509.783 253.267 508.179 254.686 508.179 256.437C508.179 258.187 509.783 259.606 511.762 259.606Z" fill="#90B4C3"/>
<path d="M511.762 274.129C513.742 274.129 515.346 272.71 515.346 270.96C515.346 269.21 513.742 267.791 511.762 267.791C509.783 267.791 508.179 269.21 508.179 270.96C508.179 272.71 509.783 274.129 511.762 274.129Z" fill="#90B4C3"/>
<path d="M511.762 288.653C513.742 288.653 515.346 287.234 515.346 285.483C515.346 283.733 513.742 282.314 511.762 282.314C509.783 282.314 508.179 283.733 508.179 285.483C508.179 287.234 509.783 288.653 511.762 288.653Z" fill="#90B4C3"/>
<path d="M532.301 213.635C532.756 211.932 531.563 210.224 529.636 209.822C527.71 209.419 525.78 210.474 525.326 212.177C524.872 213.881 526.065 215.588 527.991 215.991C529.917 216.394 531.847 215.339 532.301 213.635Z" fill="#90B4C3"/>
<path d="M528.801 230.559C530.78 230.559 532.384 229.14 532.384 227.39C532.384 225.639 530.78 224.22 528.801 224.22C526.821 224.22 525.217 225.639 525.217 227.39C525.217 229.14 526.821 230.559 528.801 230.559Z" fill="#90B4C3"/>
<path d="M528.801 245.082C530.78 245.082 532.384 243.663 532.384 241.913C532.384 240.163 530.78 238.744 528.801 238.744C526.821 238.744 525.217 240.163 525.217 241.913C525.217 243.663 526.821 245.082 528.801 245.082Z" fill="#90B4C3"/>
<path d="M528.801 259.606C530.78 259.606 532.384 258.187 532.384 256.436C532.384 254.686 530.78 253.267 528.801 253.267C526.821 253.267 525.217 254.686 525.217 256.436C525.217 258.187 526.821 259.606 528.801 259.606Z" fill="#90B4C3"/>
<path d="M528.801 274.129C530.78 274.129 532.384 272.71 532.384 270.96C532.384 269.21 530.78 267.791 528.801 267.791C526.821 267.791 525.217 269.21 525.217 270.96C525.217 272.71 526.821 274.129 528.801 274.129Z" fill="#90B4C3"/>
<path d="M528.801 288.653C530.78 288.653 532.384 287.234 532.384 285.483C532.384 283.733 530.78 282.314 528.801 282.314C526.821 282.314 525.217 283.733 525.217 285.483C525.217 287.234 526.821 288.653 528.801 288.653Z" fill="#90B4C3"/>
<path d="M547.228 215.791C549.057 215.12 549.925 213.266 549.169 211.648C548.412 210.03 546.316 209.263 544.487 209.933C542.659 210.604 541.79 212.459 542.547 214.076C543.304 215.694 545.4 216.462 547.228 215.791Z" fill="#90B4C3"/>
<path d="M545.842 230.559C547.821 230.559 549.425 229.14 549.425 227.39C549.425 225.639 547.821 224.22 545.842 224.22C543.862 224.22 542.258 225.639 542.258 227.39C542.258 229.14 543.862 230.559 545.842 230.559Z" fill="#90B4C3"/>
<path d="M545.842 245.082C547.821 245.082 549.425 243.663 549.425 241.913C549.425 240.163 547.821 238.744 545.842 238.744C543.862 238.744 542.258 240.163 542.258 241.913C542.258 243.663 543.862 245.082 545.842 245.082Z" fill="#90B4C3"/>
<path d="M545.842 259.606C547.821 259.606 549.425 258.187 549.425 256.436C549.425 254.686 547.821 253.267 545.842 253.267C543.862 253.267 542.258 254.686 542.258 256.436C542.258 258.187 543.862 259.606 545.842 259.606Z" fill="#90B4C3"/>
<path d="M545.842 274.129C547.821 274.129 549.425 272.71 549.425 270.96C549.425 269.21 547.821 267.791 545.842 267.791C543.862 267.791 542.258 269.21 542.258 270.96C542.258 272.71 543.862 274.129 545.842 274.129Z" fill="#90B4C3"/>
<path d="M545.842 288.653C547.821 288.653 549.425 287.234 549.425 285.483C549.425 283.733 547.821 282.314 545.842 282.314C543.862 282.314 542.258 283.733 542.258 285.483C542.258 287.234 543.862 288.653 545.842 288.653Z" fill="#90B4C3"/>
<path d="M564.267 215.791C566.095 215.121 566.964 213.266 566.207 211.648C565.45 210.03 563.354 209.263 561.526 209.933C559.698 210.604 558.829 212.459 559.586 214.076C560.342 215.694 562.438 216.462 564.267 215.791Z" fill="#90B4C3"/>
<path d="M562.88 230.559C564.859 230.559 566.464 229.14 566.464 227.39C566.464 225.639 564.859 224.22 562.88 224.22C560.9 224.22 559.296 225.639 559.296 227.39C559.296 229.14 560.9 230.559 562.88 230.559Z" fill="#90B4C3"/>
<path d="M562.88 245.082C564.859 245.082 566.464 243.664 566.464 241.913C566.464 240.163 564.859 238.744 562.88 238.744C560.9 238.744 559.296 240.163 559.296 241.913C559.296 243.664 560.9 245.082 562.88 245.082Z" fill="#90B4C3"/>
<path d="M562.88 259.606C564.859 259.606 566.464 258.187 566.464 256.437C566.464 254.686 564.859 253.267 562.88 253.267C560.9 253.267 559.296 254.686 559.296 256.437C559.296 258.187 560.9 259.606 562.88 259.606Z" fill="#90B4C3"/>
<path d="M562.88 274.13C564.859 274.13 566.464 272.711 566.464 270.96C566.464 269.21 564.859 267.791 562.88 267.791C560.9 267.791 559.296 269.21 559.296 270.96C559.296 272.711 560.9 274.13 562.88 274.13Z" fill="#90B4C3"/>
<path d="M562.88 288.653C564.859 288.653 566.464 287.234 566.464 285.484C566.464 283.733 564.859 282.314 562.88 282.314C560.9 282.314 559.296 283.733 559.296 285.484C559.296 287.234 560.9 288.653 562.88 288.653Z" fill="#90B4C3"/>
<path d="M583.422 213.638C583.876 211.934 582.683 210.226 580.757 209.824C578.831 209.421 576.901 210.476 576.447 212.179C575.992 213.883 577.185 215.59 579.112 215.993C581.038 216.396 582.968 215.341 583.422 213.638Z" fill="#90B4C3"/>
<path d="M579.919 230.559C581.899 230.559 583.503 229.14 583.503 227.39C583.503 225.639 581.899 224.22 579.919 224.22C577.94 224.22 576.335 225.639 576.335 227.39C576.335 229.14 577.94 230.559 579.919 230.559Z" fill="#90B4C3"/>
<path d="M579.919 245.082C581.899 245.082 583.503 243.664 583.503 241.913C583.503 240.163 581.899 238.744 579.919 238.744C577.94 238.744 576.335 240.163 576.335 241.913C576.335 243.664 577.94 245.082 579.919 245.082Z" fill="#90B4C3"/>
<path d="M579.919 259.606C581.899 259.606 583.503 258.187 583.503 256.437C583.503 254.686 581.899 253.267 579.919 253.267C577.94 253.267 576.335 254.686 576.335 256.437C576.335 258.187 577.94 259.606 579.919 259.606Z" fill="#90B4C3"/>
<path d="M579.919 274.129C581.899 274.129 583.503 272.71 583.503 270.96C583.503 269.21 581.899 267.791 579.919 267.791C577.94 267.791 576.335 269.21 576.335 270.96C576.335 272.71 577.94 274.129 579.919 274.129Z" fill="#90B4C3"/>
<path d="M579.919 288.653C581.899 288.653 583.503 287.234 583.503 285.483C583.503 283.733 581.899 282.314 579.919 282.314C577.94 282.314 576.335 283.733 576.335 285.483C576.335 287.234 577.94 288.653 579.919 288.653Z" fill="#90B4C3"/>
<path d="M9.40992 347.338C11.3892 347.338 12.9937 345.919 12.9937 344.168C12.9937 342.418 11.3892 340.999 9.40992 340.999C7.43067 340.999 5.82617 342.418 5.82617 344.168C5.82617 345.919 7.43067 347.338 9.40992 347.338Z" fill="#90B4C3"/>
<path d="M12.957 359.206C13.2741 357.479 11.9474 355.851 9.99363 355.57C8.03989 355.29 6.19898 356.463 5.88184 358.191C5.56471 359.919 6.89144 361.547 8.84518 361.827C10.7989 362.107 12.6398 360.934 12.957 359.206Z" fill="#90B4C3"/>
<path d="M12.957 373.73C13.2741 372.002 11.9474 370.374 9.99362 370.094C8.03988 369.814 6.19898 370.987 5.88184 372.715C5.56471 374.442 6.89144 376.07 8.84518 376.351C10.7989 376.631 12.6398 375.458 12.957 373.73Z" fill="#90B4C3"/>
<path d="M12.957 388.254C13.2741 386.526 11.9474 384.898 9.99363 384.618C8.03989 384.337 6.19898 385.511 5.88184 387.238C5.56471 388.966 6.89144 390.594 8.84518 390.875C10.7989 391.155 12.6398 389.982 12.957 388.254Z" fill="#90B4C3"/>
<path d="M10.7895 405.199C12.618 404.529 13.4867 402.674 12.7299 401.056C11.9731 399.439 9.8774 398.671 8.04896 399.341C6.22052 400.012 5.35178 401.867 6.10856 403.484C6.86534 405.102 8.96108 405.87 10.7895 405.199Z" fill="#90B4C3"/>
<path d="M10.79 419.723C12.6185 419.053 13.4872 417.198 12.7304 415.58C11.9736 413.963 9.87789 413.195 8.04945 413.865C6.22101 414.536 5.35227 416.391 6.10905 418.008C6.86583 419.626 8.96157 420.394 10.79 419.723Z" fill="#90B4C3"/>
<path d="M26.4505 347.338C28.4297 347.338 30.0342 345.919 30.0342 344.168C30.0342 342.418 28.4297 340.999 26.4505 340.999C24.4712 340.999 22.8667 342.418 22.8667 344.168C22.8667 345.919 24.4712 347.338 26.4505 347.338Z" fill="#90B4C3"/>
<path d="M29.996 359.205C30.3132 357.477 28.9864 355.849 27.0327 355.569C25.079 355.289 23.238 356.462 22.9209 358.19C22.6038 359.917 23.9305 361.545 25.8842 361.826C27.838 362.106 29.6789 360.933 29.996 359.205Z" fill="#90B4C3"/>
<path d="M29.9965 373.729C30.3136 372.001 28.9869 370.373 27.0332 370.093C25.0794 369.812 23.2385 370.986 22.9214 372.713C22.6043 374.441 23.931 376.069 25.8847 376.35C27.8385 376.63 29.6794 375.457 29.9965 373.729Z" fill="#90B4C3"/>
<path d="M29.9965 388.253C30.3136 386.525 28.9869 384.897 27.0332 384.616C25.0794 384.336 23.2385 385.509 22.9214 387.237C22.6043 388.965 23.931 390.593 25.8847 390.873C27.8385 391.154 29.6794 389.98 29.9965 388.253Z" fill="#90B4C3"/>
<path d="M27.8301 405.199C29.6585 404.528 30.5272 402.673 29.7705 401.055C29.0137 399.438 26.9179 398.67 25.0895 399.341C23.2611 400.011 22.3923 401.866 23.1491 403.484C23.9059 405.101 26.0016 405.869 27.8301 405.199Z" fill="#90B4C3"/>
<path d="M27.8301 419.722C29.6585 419.052 30.5273 417.197 29.7705 415.579C29.0137 413.962 26.9179 413.194 25.0895 413.865C23.2611 414.535 22.3923 416.39 23.1491 418.008C23.9059 419.625 26.0016 420.393 27.8301 419.722Z" fill="#90B4C3"/>
<path d="M43.489 347.338C45.4683 347.338 47.0728 345.919 47.0728 344.168C47.0728 342.418 45.4683 340.999 43.489 340.999C41.5098 340.999 39.9053 342.418 39.9053 344.168C39.9053 345.919 41.5098 347.338 43.489 347.338Z" fill="#90B4C3"/>
<path d="M46.962 359.444C47.4174 357.74 46.225 356.034 44.2987 355.632C42.3724 355.231 40.4416 356.286 39.9862 357.989C39.5308 359.692 40.7232 361.399 42.6495 361.8C44.5758 362.202 46.5066 361.147 46.962 359.444Z" fill="#90B4C3"/>
<path d="M46.9589 373.969C47.4138 372.266 46.2211 370.559 44.2949 370.157C42.3686 369.755 40.4383 370.81 39.9834 372.513C39.5285 374.216 40.7212 375.923 42.6474 376.326C44.5737 376.728 46.504 375.673 46.9589 373.969Z" fill="#90B4C3"/>
<path d="M46.9584 388.493C47.4134 386.79 46.2206 385.083 44.2944 384.681C42.3681 384.279 40.4378 385.334 39.9829 387.037C39.528 388.74 40.7207 390.447 42.647 390.85C44.5732 391.252 46.5035 390.197 46.9584 388.493Z" fill="#90B4C3"/>
<path d="M46.016 404.502C47.4149 403.264 47.4149 401.256 46.016 400.017C44.6171 398.779 42.3489 398.779 40.95 400.017C39.5511 401.256 39.5511 403.264 40.95 404.502C42.3489 405.741 44.6171 405.741 46.016 404.502Z" fill="#90B4C3"/>
<path d="M46.016 419.026C47.4149 417.787 47.4149 415.779 46.016 414.54C44.6171 413.302 42.3489 413.302 40.95 414.54C39.5511 415.779 39.5511 417.787 40.95 419.026C42.3489 420.264 44.6171 420.264 46.016 419.026Z" fill="#90B4C3"/>
<path d="M559.607 656.361H28.3921V25.6375H559.605V656.361H559.607ZM31.3692 653.728H556.628V28.2703H31.3692V653.728Z" fill="white"/>
<path d="M114.589 583.337C120.484 583.337 125.262 579.111 125.262 573.898C125.262 568.685 120.484 564.459 114.589 564.459C108.695 564.459 103.916 568.685 103.916 573.898C103.916 579.111 108.695 583.337 114.589 583.337Z" fill="#6C63FF"/>
<path d="M207.542 62.9138C210.438 60.3524 210.438 56.1994 207.542 53.6379C204.645 51.0765 199.949 51.0765 197.053 53.6379C194.157 56.1994 194.157 60.3524 197.053 62.9138C199.949 65.4753 204.645 65.4753 207.542 62.9138Z" fill="#6C63FF"/>
<path d="M539.988 475.185C540.644 471.609 537.898 468.24 533.855 467.66C529.811 467.08 526.002 469.508 525.345 473.084C524.689 476.659 527.435 480.029 531.478 480.609C535.522 481.189 539.332 478.761 539.988 475.185Z" fill="#6C63FF"/>
<path d="M273.368 352.62C277.464 352.62 280.785 349.683 280.785 346.06C280.785 342.438 277.464 339.501 273.368 339.501C269.272 339.501 265.951 342.438 265.951 346.06C265.951 349.683 269.272 352.62 273.368 352.62Z" fill="#6C63FF"/>
<path d="M264.937 217.328C264.937 217.328 387.237 240.135 433.683 153.662C480.128 67.1892 360.366 59.0784 324.108 66.4553C287.85 73.8322 173.505 85.894 168.701 144.403C163.898 202.91 264.937 217.328 264.937 217.328Z" fill="#6C63FF"/>
<path d="M306.515 217.294C254.197 230.07 198.751 219.315 163.122 200.377C156.581 196.901 97.5797 165.47 103.404 134.432C106.798 116.351 121.708 104.327 122.971 103.469C134.082 95.9411 146.217 94.8402 153.167 94.2873C171.25 92.8491 175.726 98.6694 199.179 99.8328C213.339 100.535 221.603 101.21 231.122 97.6689C242.095 93.5863 244.953 87.8286 253.881 80.6771C269.524 68.1464 290.572 61.9361 307.527 61.1018C340.175 59.4942 365.5 77.4321 367.424 78.8358C379.734 87.8072 383.51 96.1813 400.768 103.998C410.239 108.288 413.527 109.813 424.688 111.171C444.612 113.594 479.65 129.64 484.268 153.03C487.232 168.037 475.824 180.665 474.047 182.574C462.671 194.788 443.064 202.751 427.626 198.362C419.84 196.149 419.939 192.773 411.971 190.174C396.872 185.249 381.389 192.447 369.8 197.278C369.8 197.278 343.383 208.292 306.515 217.294Z" fill="#2B4EAF"/>
<path d="M224.276 178H229.811V167.185H241.048V178H246.571V151.818H241.048V162.621H229.811V151.818H224.276V178ZM275.195 164.909C275.195 156.344 269.876 151.46 262.935 151.46C255.955 151.46 250.675 156.344 250.675 164.909C250.675 173.436 255.955 178.358 262.935 178.358C269.876 178.358 275.195 173.474 275.195 164.909ZM269.582 164.909C269.582 170.457 266.949 173.462 262.935 173.462C258.908 173.462 256.287 170.457 256.287 164.909C256.287 159.361 258.908 156.357 262.935 156.357C266.949 156.357 269.582 159.361 269.582 164.909ZM279.295 178H290.481C296.362 178 299.494 174.932 299.494 170.764C299.494 166.891 296.72 164.551 293.741 164.411V164.155C296.464 163.541 298.471 161.611 298.471 158.53C298.471 154.605 295.556 151.818 289.778 151.818H279.295V178ZM284.831 173.474V166.52H289.471C292.13 166.52 293.779 168.054 293.779 170.214C293.779 172.183 292.437 173.474 289.343 173.474H284.831ZM284.831 162.774V156.293H289.037C291.491 156.293 292.885 157.558 292.885 159.45C292.885 161.521 291.197 162.774 288.934 162.774H284.831ZM303.096 178H314.282C320.163 178 323.295 174.932 323.295 170.764C323.295 166.891 320.521 164.551 317.542 164.411V164.155C320.265 163.541 322.272 161.611 322.272 158.53C322.272 154.605 319.357 151.818 313.579 151.818H303.096V178ZM308.631 173.474V166.52H313.272C315.931 166.52 317.58 168.054 317.58 170.214C317.58 172.183 316.238 173.474 313.144 173.474H308.631ZM308.631 162.774V156.293H312.837C315.292 156.293 316.685 157.558 316.685 159.45C316.685 161.521 314.998 162.774 312.735 162.774H308.631ZM325.363 151.818L334.912 168.744V178H340.409V168.744L349.959 151.818H343.759L337.789 163.094H337.533L331.563 151.818H325.363Z" fill="white"/>
<path d="M243.688 121.492C243.324 118.469 241.036 116.73 238.006 116.73C234.548 116.73 231.908 119.172 231.908 123.455C231.908 127.724 234.503 130.179 238.006 130.179C241.362 130.179 243.388 127.948 243.688 125.538L240.888 125.526C240.626 126.925 239.527 127.731 238.05 127.731C236.062 127.731 234.714 126.254 234.714 123.455C234.714 120.732 236.043 119.178 238.07 119.178C239.585 119.178 240.678 120.054 240.888 121.492H243.688ZM247.683 130L248.655 127.015H253.379L254.35 130H257.316L252.803 116.909H249.237L244.717 130H247.683ZM249.358 124.854L250.969 119.901H251.071L252.682 124.854H249.358ZM256.776 119.191H260.784V130H263.52V119.191H267.527V116.909H256.776V119.191ZM269.298 130H278.145V127.718H272.066V124.592H277.665V122.31H272.066V119.191H278.119V116.909H269.298V130ZM289 121.141H291.812C291.454 118.552 289.172 116.73 286.213 116.73C282.755 116.73 280.089 119.223 280.089 123.467C280.089 127.609 282.582 130.179 286.27 130.179C289.575 130.179 291.934 128.089 291.934 124.643V122.994H286.456V125.078H289.268C289.23 126.702 288.124 127.731 286.283 127.731C284.206 127.731 282.895 126.178 282.895 123.442C282.895 120.719 284.257 119.178 286.258 119.178C287.683 119.178 288.648 119.913 289 121.141ZM306.043 123.455C306.043 119.172 303.384 116.73 299.913 116.73C296.423 116.73 293.783 119.172 293.783 123.455C293.783 127.718 296.423 130.179 299.913 130.179C303.384 130.179 306.043 127.737 306.043 123.455ZM303.237 123.455C303.237 126.229 301.92 127.731 299.913 127.731C297.899 127.731 296.589 126.229 296.589 123.455C296.589 120.68 297.899 119.178 299.913 119.178C301.92 119.178 303.237 120.68 303.237 123.455ZM308.093 130H310.861V125.359H312.881L315.361 130H318.416L315.635 124.912C317.125 124.273 317.949 122.975 317.949 121.185C317.949 118.584 316.23 116.909 313.258 116.909H308.093V130ZM310.861 123.135V119.172H312.727C314.325 119.172 315.099 119.881 315.099 121.185C315.099 122.483 314.325 123.135 312.74 123.135H310.861ZM318.593 116.909L323.368 125.372V130H326.117V125.372L330.892 116.909H327.792L324.806 122.547H324.679L321.694 116.909H318.593Z" fill="white"/>
<path d="M488.605 134.591C495.74 128.282 495.74 118.051 488.605 111.741C481.47 105.432 469.902 105.432 462.767 111.741C455.632 118.051 455.632 128.282 462.767 134.591C469.902 140.901 481.47 140.901 488.605 134.591Z" fill="#6C63FF"/>
<path d="M131.747 208.191C152.043 208.191 168.495 193.641 168.495 175.693C168.495 157.745 152.043 143.195 131.747 143.195C111.452 143.195 95 157.745 95 175.693C95 193.641 111.452 208.191 131.747 208.191Z" fill="#6C63FF"/>
<path d="M187.756 216.913C193.202 214.918 195.788 209.396 193.532 204.58C191.276 199.764 185.032 197.477 179.586 199.472C174.14 201.466 171.554 206.988 173.81 211.804C176.066 216.62 182.31 218.907 187.756 216.913Z" fill="#6C63FF"/>
<path d="M459.116 150.576C461.962 148.059 461.962 143.978 459.116 141.461C456.269 138.944 451.655 138.944 448.808 141.461C445.962 143.978 445.962 148.059 448.808 150.576C451.655 153.093 456.269 153.093 459.116 150.576Z" fill="#6C63FF"/>
<path d="M64.5535 462.171C65.197 458.657 62.4978 455.345 58.5246 454.773C54.5514 454.202 50.8087 456.587 50.1652 460.101C49.5217 463.615 52.2209 466.927 56.1941 467.499C60.1673 468.07 63.9099 465.685 64.5535 462.171Z" fill="#6C63FF"/>
<path d="M299.467 545.144C406.316 545.144 492.934 539.739 492.934 533.072C492.934 526.405 406.316 521 299.467 521C192.618 521 106 526.405 106 533.072C106 539.739 192.618 545.144 299.467 545.144Z" fill="#2B4EAF"/>
<path opacity="0.3" d="M232.581 484.069C232.195 487.018 231.768 489.964 231.297 492.907C230.417 498.216 229.428 503.514 228.258 508.79L227.342 512.743C227.011 514.057 226.696 515.374 226.349 516.686C225.998 517.999 225.654 519.312 225.272 520.622C224.899 521.94 224.507 523.229 224.066 524.575C224.064 524.58 224.06 524.595 224.058 524.6C223.711 525.602 222.457 526.182 221.255 525.893C220.054 525.604 219.358 524.557 219.705 523.555L219.719 523.512C220.572 521.041 221.348 518.443 222.069 515.878C222.433 514.592 222.766 513.297 223.115 512.005L224.088 508.114C225.335 502.917 226.408 497.685 227.373 492.439C227.893 489.519 228.37 486.593 228.805 483.661C218.795 482.299 184.613 476.809 191.458 466.136C198.122 455.744 221.464 475.063 229.075 481.804C230.074 474.81 230.838 467.789 231.376 460.754C231.677 456.816 231.906 452.874 232.065 448.929C222.914 447.987 186.841 443.534 193.381 432.428C199.745 421.618 224.807 441.313 232.122 447.41C232.345 441.236 232.398 435.056 232.288 428.878L232.048 420.903L231.683 414.633C223.254 415.036 185.527 416.175 189.689 404.088C193.78 392.206 224.044 409.073 231.618 413.519L231.585 412.934L231.467 410.941L231.295 408.951L230.939 404.973L230.582 400.994C230.446 399.669 230.269 398.347 230.115 397.022C229.692 393.281 229.199 389.546 228.638 385.816C220.652 385.785 182.194 385.014 187.314 373.065C192.309 361.407 221.306 379.916 228.472 384.722C226.859 374.229 224.712 363.79 222.084 353.433C215.968 353.532 178.434 353.675 183.027 342.253C187.519 331.087 216.142 348.997 221.909 352.75C220.319 346.539 218.557 340.356 216.632 334.209C215.129 329.568 213.524 324.953 211.824 320.359C206.673 320.533 171.309 321.344 175.343 310.623C179.283 300.153 206.519 316.614 211.623 319.813C208.379 311.093 204.776 302.465 200.819 293.947C196.875 293.97 164.894 293.871 168.896 284.42C172.796 275.212 196.591 290.809 200.631 293.544C198.157 288.237 195.547 282.971 192.796 277.756C191.239 276.775 163.875 259.349 174.343 253.741C184.721 248.181 192.295 275.665 192.835 277.682C195.675 282.851 198.374 288.076 200.941 293.346C200.302 288.534 197.604 264.127 208.847 266.318C220.633 268.613 203.174 291.448 201.228 293.94C205.314 302.366 209.05 310.912 212.436 319.555C212.933 313.77 215.911 286.55 227.832 290.864C240.262 295.363 216.037 317.358 212.724 320.296C214.485 324.825 216.157 329.378 217.727 333.957C219.734 339.996 221.582 346.074 223.266 352.184C225.64 345.655 236.358 318.384 247.562 325.194C259.191 332.265 228.748 350.17 223.53 353.141C226.331 363.42 228.658 373.793 230.46 384.234C234.583 376.785 250.278 350.334 260.84 358.77C271.841 367.556 237.76 382.625 230.694 385.607C231.321 389.339 231.882 393.079 232.373 396.825C232.552 398.153 232.753 399.48 232.912 400.81L233.34 404.804L233.767 408.799L233.976 410.797L234.116 412.622C240.573 405.458 261.626 383.581 269.686 393.414C278.052 403.618 243.183 412.313 234.246 414.346L234.736 420.803L235.12 428.82C235.341 435.036 235.398 441.257 235.284 447.478C242.099 441.219 266.235 420.282 273.244 430.884C280.481 441.835 243.858 447.713 235.256 448.93C235.166 452.925 235.004 456.921 234.77 460.912C234.34 468.209 233.673 475.5 232.751 482.771C240.665 477.966 269.891 461.208 274.185 472.882C278.58 484.838 241.315 484.345 232.581 484.069Z" fill="#2B4EAF"/>
<path opacity="0.3" d="M341.125 455.171C342.096 453.485 343.022 451.78 344.026 450.105C359.535 440.628 381.482 437.08 411.728 436.249C442.287 435.406 447.21 410.409 447.21 410.409C427.839 419.803 426.659 415.787 391.443 421.648C365.099 426.033 351.364 439.947 346.114 446.681L346.443 446.14L348.358 443.188C349.008 442.208 349.615 441.209 350.3 440.246L352.315 437.336L353.322 435.881C353.663 435.398 354.021 434.924 354.37 434.445L356.475 431.577C357.866 429.666 359.342 427.741 360.697 425.785C362.078 423.835 363.385 421.848 364.662 419.849C366.456 416.991 368.127 414.076 369.649 411.109C387.695 399.88 420.925 399.719 420.925 399.719C453.958 395.948 455.444 373.866 455.509 371.761C455.511 371.754 455.509 371.746 455.511 371.738C455.513 371.697 455.517 371.667 455.513 371.647C455.515 371.644 455.515 371.641 455.515 371.641C455.515 371.626 455.513 371.618 455.515 371.61C455.513 371.601 455.513 371.598 455.513 371.598C455.337 372.193 455.134 372.799 454.892 373.409C453.05 376.447 445.776 382.605 417.115 386.345C388.11 390.128 375.643 402.132 371.125 408.112C371.225 407.898 371.328 407.688 371.426 407.474C372.387 405.351 373.28 403.205 374.066 401.03C374.838 398.851 375.517 396.651 376.077 394.426C377.166 389.973 377.771 385.428 377.712 380.88C377.678 378.034 377.381 375.192 376.821 372.387C383.31 364.626 389.757 361.575 395.363 359.656C425.239 349.426 421.167 330.365 421.112 330.121C421.055 330.329 418.859 337.934 398.385 346.724C381.618 353.925 377.531 366.646 376.581 371.269C376.29 369.971 375.943 368.682 375.539 367.405C374.848 365.21 373.997 363.052 373.012 360.941C372.023 358.831 370.894 356.769 369.673 354.753C367.727 351.544 365.513 348.463 363.226 345.43C364.745 341.077 370.587 333.359 370.587 333.359C383.489 314.443 376.79 298.61 376.63 298.245C376.63 298.242 376.626 298.24 376.628 298.237C375.2 309.036 368.808 304.66 362.958 320.102C358.548 331.734 360.841 340.508 362.241 344.128C361.977 343.783 361.713 343.436 361.449 343.091C359.997 341.194 358.54 339.302 357.165 337.37C355.794 335.438 354.506 333.461 353.513 331.376C352.581 329.273 351.707 327.135 350.761 325.028C350.288 323.974 349.818 322.919 349.317 321.874C349.069 321.349 348.813 320.829 348.549 320.311C348.413 320.053 348.281 319.795 348.133 319.54C348.063 319.412 347.986 319.287 347.909 319.162C347.822 319.044 347.759 318.904 347.627 318.816C347.755 318.906 347.818 319.046 347.901 319.166C347.976 319.292 348.051 319.417 348.118 319.547C348.259 319.802 348.388 320.063 348.518 320.322C348.772 320.843 349.016 321.368 349.254 321.895C349.733 322.947 350.182 324.008 350.633 325.068C351.537 327.191 352.363 329.327 353.257 331.458C354.216 333.574 355.473 335.584 356.808 337.543C358.148 339.501 359.57 341.417 360.982 343.335C362.103 344.851 363.212 346.373 364.294 347.907C361.487 345.692 348.833 339.368 343.973 331.782C338.858 323.791 323.629 318.446 323.629 318.446C323.629 318.446 323.627 318.449 323.631 318.454C323.596 318.921 322.313 338.676 343.737 343.55C361.002 347.479 366.514 351.92 368.04 353.566C368.343 354.061 368.641 354.559 368.93 355.06C370.101 357.076 371.174 359.132 372.108 361.228C373.037 363.327 373.831 365.463 374.468 367.632C375.744 371.968 376.37 376.427 376.329 380.883C376.307 383.769 376.012 386.649 375.492 389.502C373.42 366.84 352.357 355.26 335.665 352.595C318.468 349.855 313.489 336.456 313.315 335.988C313.313 335.98 313.313 335.977 313.313 335.977C313.313 335.977 304.219 362.816 339.569 370.369C367.213 376.276 373.693 386.71 375.204 390.974C374.984 392.032 374.732 393.085 374.454 394.134C373.861 396.307 373.15 398.458 372.348 400.586C371.535 402.711 370.613 404.807 369.626 406.883C367.613 411.02 365.284 415.051 362.716 418.974C361.416 420.93 360.084 422.87 358.684 424.778C357.596 426.285 356.458 427.747 355.319 429.231C356.706 421.63 358.112 400.617 336.344 384.184C329.43 378.963 325.654 376.868 303.524 369.375C303.524 369.375 290.566 365.344 283.187 352.786C283.187 352.786 283.186 352.789 283.187 352.801C283.237 353.438 284.868 373.884 303.805 383.3C326.306 394.489 350.623 406.296 354.411 430.421C354.401 430.434 354.389 430.448 354.38 430.462L352.197 433.322C351.835 433.8 351.464 434.274 351.11 434.755L350.064 436.209L347.97 439.118C347.259 440.08 346.623 441.081 345.947 442.062L343.95 445.02L342.045 448.022C340.743 450.01 339.592 452.064 338.375 454.09C337.26 456.068 336.163 458.055 335.109 460.058C327.228 415.322 283.168 405.779 266.974 398.764C254.194 393.232 247.172 384.879 246.973 384.641C246.969 384.636 246.969 384.636 246.969 384.636C242.472 410.383 273.595 421.168 273.595 421.168C317.519 435.447 330.671 453.007 334.286 459.849C334.437 460.183 334.579 460.505 334.715 460.815C333.726 462.72 332.781 464.639 331.906 466.584C329.97 470.828 328.205 475.138 326.771 479.535C325.447 483.587 324.362 487.702 323.578 491.867C322.227 481.736 315.764 460.01 285.47 452.828C246.707 443.638 242.066 428.6 241.81 427.668C246.949 451.773 253.53 455.799 263.907 462.813C272.084 468.341 296.178 472.094 305.783 476.563C313.479 480.15 320.493 491.236 322.971 495.489C322.447 499.184 322.211 502.917 322.276 506.662C322.341 508.969 322.524 511.281 322.889 513.589C323.062 514.744 323.306 515.898 323.584 517.051C323.734 517.628 323.889 518.205 324.072 518.785C324.161 519.074 324.264 519.367 324.364 519.657C324.478 519.963 324.569 520.223 324.734 520.594C324.738 520.602 324.746 520.62 324.75 520.628C325.199 521.578 326.485 522.043 327.622 521.67C328.759 521.297 329.318 520.223 328.871 519.275L328.853 519.238C328.78 519.084 328.668 518.806 328.579 518.575C328.489 518.326 328.396 518.08 328.313 517.825C328.142 517.318 327.99 516.8 327.845 516.277C327.571 515.229 327.321 514.168 327.137 513.091C326.753 510.942 326.535 508.758 326.426 506.567C326.261 502.178 326.529 497.756 327.22 493.367C327.717 490.147 328.41 486.941 329.261 483.76C350.799 474.629 369.035 474.953 369.035 474.953C419.237 475.326 432.133 454.399 433.809 451.198L433.845 451.137C433.941 450.951 433.991 450.835 434.004 450.8C433.831 451.017 430.388 454.52 384.768 454.8C351.003 455.007 336.271 470.176 330.756 478.691C331.973 474.935 333.429 471.226 335.017 467.557C336.803 463.351 338.931 459.248 341.125 455.171Z" fill="#2B4EAF"/>
<path opacity="0.3" d="M167.722 472.524C175.018 463.199 180.204 453.47 179.639 447.836C179.342 444.878 182.95 436.487 182.95 436.487C182.95 436.487 177.685 438.703 175.351 441.894C173.017 445.085 177.782 447.499 167.17 461.063C158.856 471.694 158.846 488.586 159.23 495.398C154.711 489.345 150.447 483.149 146.32 476.89C147.756 472.146 152.541 457.675 160.386 447.171C169.895 434.438 166.497 417.962 162.313 411.966C162.313 411.966 165.851 428.245 154.065 444.622C143.799 458.888 145.751 470.556 145.94 476.31C145.903 476.254 145.865 476.196 145.828 476.141C143.166 472.149 140.588 468.106 137.964 464.088C140.224 460.253 149.222 444.556 150.126 436.342C151.162 426.942 148.006 410.215 148.006 410.215C148.006 410.215 147.711 428.307 141.998 439.367C137.49 448.099 137.267 458.983 137.371 463.183C137.176 462.884 136.981 462.586 136.784 462.287C134.381 458.626 131.968 454.97 129.504 451.336C130.469 447.69 134.367 432.962 135.833 427.203C137.509 420.609 137.915 405.488 129.809 395.535C129.809 395.535 134.389 410.529 128.005 424.676C123.575 434.491 125.907 443.915 127.751 448.768C127.69 448.679 127.631 448.59 127.57 448.503C126.778 447.364 126.014 446.216 125.202 445.087L122.779 441.696C121.113 439.459 119.462 437.213 117.585 435.089C117.549 435.046 117.514 435.006 117.478 434.964C117.567 433.866 117.926 429.62 119.196 415.884C120.754 399.053 107.854 392.398 107.854 392.398C109.851 393.388 112.948 402.875 113.425 414.615C113.826 424.508 116.409 432.414 117.213 434.656C116.868 434.269 116.503 433.894 116.141 433.516C115.662 432.99 115.119 432.509 114.599 432.013C114.116 431.572 113.616 431.145 113.115 430.72C111.579 429.101 107.214 424.08 101.324 413.736C93.9237 400.739 77.1116 397.395 77.1116 397.395C77.1116 397.395 83.0071 399.203 93.4982 413.57C102.636 426.084 111.193 430.269 113.249 431.14C113.633 431.482 114.014 431.824 114.382 432.175C114.886 432.678 115.412 433.163 115.875 433.694C116.352 434.214 116.834 434.729 117.268 435.278C118.383 436.595 119.415 437.962 120.419 439.344C118.641 438.919 112.493 436.814 97.7746 426.461C79.692 413.739 65.6671 418.35 65.6671 418.35C68.8975 417.829 74.1608 420.703 89.8876 429.234C103.853 436.811 117.551 438.988 120.443 439.38C121.06 440.232 121.668 441.089 122.275 441.944L124.607 445.368C125.389 446.507 126.126 447.67 126.888 448.819C127.942 450.424 128.982 452.036 130.016 453.651C109.075 449.921 101.742 446.084 101.742 446.084C82.1759 434.643 62.8739 435.42 62.8739 435.42C69.4373 436.02 76.5009 440.473 93.4529 448.712C108.484 456.017 126.333 454.379 130.186 453.914C132.061 456.849 133.908 459.795 135.752 462.744C136.546 464.013 137.334 465.283 138.12 466.553C113.167 468.323 98.3951 461.2 98.3951 461.2C75.1871 448.802 57 449.708 57 449.708C74.929 453.181 69.3782 457.854 94.2684 465.835C115.794 472.738 133.804 468.166 138.277 466.806C140.324 470.122 142.357 473.444 144.455 476.75C145.583 478.554 146.724 480.355 147.878 482.15C142.022 482.166 130.469 481.244 111.313 473.451C93.2461 466.101 74.2711 472.582 69.3959 474.502C72.3998 473.635 82.103 472.527 109.67 479.332C136.973 486.072 145.725 484.152 148.341 482.864C151.997 488.526 155.797 494.13 159.833 499.623C155.287 497 147.732 493.293 140.86 492.943C130.126 492.398 121.587 490.554 116.373 488.502C111.161 486.45 96.0432 486.436 85.3079 496.07C85.3079 496.07 100.631 490.883 108.699 494.19C116.767 497.498 124.962 499.647 130.012 499.606C134.665 499.567 149.659 498.402 161.123 501.369C161.828 502.314 162.539 503.256 163.26 504.192L165.849 507.513C166.272 508.072 166.733 508.609 167.182 509.154L168.535 510.784L169.889 512.416C170.095 512.659 170.308 512.899 170.521 513.139C136.968 501.653 98.1253 504.601 98.1253 504.601C104.608 504.154 120.985 513.433 133.924 516.184C140.685 517.621 164.348 515.492 171.953 514.751L172.717 515.612L173.428 516.409L174.173 517.188L175.662 518.745L176.407 519.524L177.191 520.282L178.759 521.795C179.015 522.051 179.292 522.293 179.568 522.536L180.396 523.267L181.223 523.998C181.497 524.243 181.8 524.47 182.088 524.707L182.962 525.41C183.11 525.527 183.25 525.646 183.403 525.76L183.868 526.097L184.8 526.769C185.109 526.994 185.458 527.198 185.785 527.413C185.952 527.518 186.114 527.626 186.287 527.73L186.829 528.032C187.014 528.133 187.179 528.234 187.394 528.331C187.613 528.432 187.759 528.517 188.101 528.642L188.19 528.675C188.243 528.693 188.296 528.711 188.351 528.724C189.175 528.933 190.044 528.547 190.296 527.86C190.546 527.173 190.083 526.448 189.26 526.238C189.24 526.233 189.051 526.146 188.923 526.088C188.789 526.034 188.633 525.944 188.485 525.867L188.038 525.628C187.889 525.543 187.741 525.448 187.593 525.357C187.298 525.17 186.994 525.002 186.705 524.8L185.834 524.196L185.399 523.893C185.255 523.791 185.117 523.678 184.975 523.571L184.132 522.92C183.854 522.7 183.563 522.495 183.295 522.263L182.483 521.575L181.672 520.885C181.4 520.655 181.128 520.428 180.872 520.183L179.314 518.739L178.534 518.016L177.787 517.266L176.292 515.766L175.544 515.017L174.825 514.245L173.391 512.697C173.027 512.299 172.654 511.907 172.29 511.509C203.45 475.383 188.062 453.582 189.086 456.029C190.12 458.503 186.287 470.495 178.475 486.56C172.898 498.025 171.579 506.466 171.281 510.36L170.586 509.557L169.209 507.968C168.752 507.437 168.283 506.913 167.85 506.368L165.205 503.121C163.339 500.801 161.521 498.453 159.742 496.083C161.576 481.614 163.43 478.009 167.722 472.524Z" fill="#2B4EAF"/>
<path opacity="0.3" d="M424.449 472.524C417.153 463.199 411.967 453.47 412.532 447.836C412.829 444.878 409.221 436.487 409.221 436.487C409.221 436.487 414.486 438.703 416.82 441.894C419.154 445.085 414.389 447.499 425.001 461.063C433.315 471.694 433.325 488.586 432.941 495.398C437.46 489.345 441.724 483.149 445.851 476.89C444.415 472.146 439.63 457.675 431.785 447.171C422.276 434.438 425.674 417.962 429.858 411.966C429.858 411.966 426.32 428.245 438.106 444.622C448.372 458.888 446.42 470.556 446.231 476.31C446.268 476.254 446.306 476.196 446.343 476.141C449.005 472.149 451.583 468.106 454.207 464.088C451.947 460.253 442.949 444.556 442.045 436.342C441.009 426.942 444.165 410.215 444.165 410.215C444.165 410.215 444.46 428.307 450.173 439.367C454.681 448.099 454.904 458.983 454.8 463.183C454.995 462.884 455.19 462.586 455.387 462.287C457.79 458.626 460.203 454.97 462.667 451.336C461.702 447.69 457.804 432.962 456.338 427.203C454.662 420.609 454.256 405.488 462.362 395.535C462.362 395.535 457.782 410.529 464.166 424.676C468.596 434.491 466.264 443.915 464.42 448.768C464.481 448.679 464.54 448.59 464.601 448.503C465.393 447.364 466.157 446.216 466.969 445.087L469.392 441.696C471.058 439.459 472.709 437.213 474.586 435.089C474.622 435.046 474.657 435.006 474.693 434.964C474.604 433.866 474.245 429.62 472.975 415.884C471.417 399.053 484.317 392.398 484.317 392.398C482.32 393.388 479.223 402.875 478.746 414.615C478.345 424.508 475.762 432.414 474.958 434.656C475.303 434.269 475.668 433.894 476.03 433.516C476.509 432.99 477.052 432.509 477.572 432.013C478.055 431.572 478.555 431.145 479.056 430.72C480.592 429.101 484.957 424.08 490.847 413.736C498.247 400.739 515.059 397.395 515.059 397.395C515.059 397.395 509.164 399.203 498.673 413.57C489.535 426.084 480.978 430.269 478.922 431.14C478.538 431.482 478.157 431.824 477.789 432.175C477.285 432.678 476.759 433.163 476.296 433.694C475.819 434.214 475.337 434.729 474.903 435.278C473.788 436.595 472.756 437.962 471.752 439.344C473.53 438.919 479.678 436.814 494.396 426.461C512.479 413.739 526.504 418.35 526.504 418.35C523.274 417.829 518.008 420.703 502.283 429.234C488.318 436.811 474.62 438.988 471.728 439.38C471.109 440.232 470.503 441.089 469.896 441.944L467.564 445.368C466.782 446.507 466.045 447.67 465.283 448.819C464.229 450.424 463.189 452.036 462.155 453.651C483.096 449.921 490.429 446.084 490.429 446.084C509.995 434.643 529.297 435.42 529.297 435.42C522.734 436.02 515.67 440.473 498.718 448.712C483.687 456.017 465.838 454.379 461.985 453.914C460.11 456.849 458.263 459.795 456.419 462.744C455.625 464.013 454.837 465.283 454.051 466.553C479.004 468.323 493.776 461.2 493.776 461.2C516.984 448.802 535.171 449.708 535.171 449.708C517.242 453.181 522.793 457.854 497.903 465.835C476.377 472.738 458.367 468.166 453.894 466.806C451.847 470.122 449.814 473.444 447.716 476.75C446.588 478.554 445.447 480.355 444.293 482.15C450.149 482.166 461.702 481.244 480.858 473.451C498.925 466.101 517.9 472.582 522.775 474.502C519.771 473.635 510.068 472.527 482.501 479.332C455.198 486.072 446.446 484.152 443.83 482.864C440.174 488.526 436.374 494.13 432.338 499.623C436.884 497 444.439 493.293 451.311 492.943C462.045 492.398 470.584 490.554 475.798 488.502C481.01 486.45 496.128 486.436 506.863 496.07C506.863 496.07 491.54 490.883 483.472 494.19C475.404 497.498 467.209 499.647 462.159 499.606C457.506 499.567 442.512 498.402 431.048 501.369C430.343 502.314 429.632 503.256 428.911 504.192L426.322 507.513C425.899 508.072 425.438 508.609 424.989 509.154L423.636 510.784L422.282 512.416C422.076 512.659 421.863 512.899 421.65 513.139C455.203 501.653 494.046 504.601 494.046 504.601C487.563 504.154 471.186 513.433 458.247 516.184C451.486 517.621 427.823 515.492 420.218 514.751L419.454 515.612L418.743 516.409L417.998 517.188L416.509 518.745L415.764 519.524L414.98 520.282L413.412 521.795C413.156 522.051 412.879 522.293 412.603 522.536L411.776 523.267L410.948 523.998C410.674 524.243 410.371 524.47 410.083 524.707L409.209 525.41C409.061 525.527 408.921 525.646 408.768 525.76L408.303 526.097L407.371 526.769C407.062 526.994 406.713 527.198 406.386 527.413C406.219 527.518 406.057 527.626 405.884 527.73L405.342 528.032C405.157 528.133 404.992 528.234 404.777 528.331C404.558 528.432 404.412 528.517 404.07 528.642L403.981 528.675C403.928 528.693 403.875 528.711 403.819 528.724C402.996 528.933 402.127 528.547 401.875 527.86C401.625 527.173 402.088 526.448 402.911 526.238C402.929 526.233 403.12 526.146 403.248 526.088C403.382 526.034 403.538 525.944 403.686 525.867L404.133 525.628C404.282 525.543 404.43 525.448 404.578 525.357C404.873 525.17 405.177 525.002 405.466 524.8L406.337 524.196L406.774 523.893C406.918 523.791 407.056 523.678 407.198 523.571L408.041 522.92C408.319 522.7 408.61 522.495 408.878 522.263L409.689 521.575L410.501 520.885C410.773 520.655 411.045 520.428 411.301 520.183L412.859 518.739L413.639 518.016L414.385 517.266L415.881 515.766L416.629 515.017L417.348 514.245L418.782 512.697C419.146 512.299 419.519 511.907 419.883 511.509C388.723 475.383 404.111 453.582 403.087 456.029C402.053 458.503 405.886 470.495 413.698 486.56C419.274 498.025 420.594 506.466 420.892 510.36L421.587 509.557L422.964 507.968C423.421 507.437 423.89 506.913 424.323 506.368L426.968 503.121C428.834 500.801 430.652 498.453 432.431 496.083C430.595 481.614 428.741 478.009 424.449 472.524Z" fill="#2B4EAF"/>
<path d="M289.963 529.317C286.916 529.314 283.918 530.152 281.254 531.753H298.65C295.994 530.153 293.003 529.314 289.963 529.317V529.317Z" fill="#E6E6E6"/>
<path d="M323.721 526.881C318.63 526.875 313.664 528.577 309.504 531.753H337.918C333.764 528.581 328.804 526.879 323.721 526.881V526.881Z" fill="#E6E6E6"/>
<path d="M514.941 496.049C513.67 471.105 495.152 450.767 472.122 449.062C461.506 448.255 450.959 451.443 442.266 458.088C433.574 464.732 427.27 474.424 424.424 485.522C423.865 485.5 423.307 485.476 422.743 485.476C412.775 485.478 403.077 488.973 395.097 495.437C387.118 501.901 381.287 510.988 378.477 521.338C371.872 518.197 364.492 517.516 357.491 519.4C350.49 521.285 344.265 525.629 339.789 531.753H483.699C501.38 531.753 515.695 515.904 514.974 496.785C514.965 496.54 514.954 496.295 514.941 496.049Z" fill="#E6E6E6"/>
<path d="M511.204 531.237H107V532.268H511.204V531.237Z" fill="#3F3D56"/>
<path d="M241.899 363.869C241.899 363.869 223.552 357.684 226.369 367.86C229.185 378.035 244.638 372.895 244.638 372.895L241.899 363.869Z" fill="#FFB8B8"/>
<path d="M312.028 325.676C312.028 325.676 302.626 311.771 293.491 326.206C284.338 340.669 275.829 352.543 275.829 352.543L253.098 360.564L239.947 361.827L243.57 374.481L281.806 368.478C281.806 368.478 324.376 341.11 312.028 325.676Z" fill="#2F2E41"/>
<path d="M270.062 402.681C270.062 402.681 255.779 413.502 256.732 423.291C257.684 433.081 263.873 459.875 263.873 459.875L276.728 457.814C276.728 457.814 278.156 437.203 273.395 429.475L296.247 415.563L270.062 402.681Z" fill="#FFB8B8"/>
<path d="M301.722 428.186C301.722 428.186 300.77 447.251 303.151 454.98C305.531 462.708 307.911 491.563 307.911 491.563H321.242C321.242 491.563 327.431 466.315 319.814 454.98C319.814 454.98 317.433 440.037 324.099 432.824L301.722 428.186Z" fill="#FFB8B8"/>
<path d="M298.628 375.373C298.628 375.373 267.682 396.498 267.682 403.197L292.439 425.352L301.008 415.047L300.056 430.505L326.717 436.173C326.717 436.173 336.239 397.013 335.763 395.468C335.287 393.922 333.859 371.251 333.859 371.251L298.628 375.373Z" fill="#2F2E41"/>
<path d="M276.728 455.237L262.921 458.329L265.374 469.243C266.581 474.615 266.719 480.203 265.777 485.637V485.637C265.777 485.637 280.06 489.759 280.06 487.698C280.06 485.637 276.728 477.393 277.68 471.725C278.632 466.058 276.728 455.237 276.728 455.237Z" fill="#6C63FF"/>
<path d="M283.869 493.881C283.393 491.82 279.437 482.476 279.272 484.057C279.108 485.637 271.49 488.214 268.634 485.122C268.634 485.122 264.825 481.515 263.397 485.122C261.968 488.729 259.112 494.912 259.112 494.912C259.112 494.912 246.257 501.61 248.162 505.217C248.547 505.946 249.614 506.254 251.071 506.281C251.037 506.377 251.019 506.478 251.018 506.58V506.945C251.018 507.17 251.101 507.386 251.248 507.545C251.395 507.704 251.594 507.793 251.802 507.793H252.139C252.347 507.793 252.546 507.704 252.693 507.545C252.84 507.386 252.923 507.17 252.923 506.945V506.58C252.922 506.449 252.893 506.319 252.837 506.202C253.226 506.165 253.63 506.117 254.046 506.057C253.936 506.206 253.875 506.39 253.875 506.58V506.945C253.875 507.17 253.957 507.386 254.104 507.545C254.251 507.704 254.451 507.793 254.658 507.793H254.996C255.204 507.793 255.403 507.704 255.55 507.545C255.697 507.386 255.779 507.17 255.779 506.945V506.58C255.779 506.429 255.741 506.281 255.67 506.151C255.599 506.021 255.496 505.915 255.374 505.842C256.47 505.644 257.614 505.392 258.751 505.113C258.676 505.244 258.636 505.395 258.636 505.55V505.915C258.636 506.14 258.718 506.355 258.865 506.514C259.012 506.673 259.211 506.763 259.419 506.763H259.757C259.964 506.763 260.164 506.673 260.311 506.514C260.458 506.355 260.54 506.14 260.54 505.915V505.55C260.54 505.386 260.496 505.225 260.413 505.088C260.331 504.951 260.213 504.842 260.074 504.776C260.927 504.551 261.763 504.316 262.559 504.084C262.485 504.215 262.445 504.365 262.445 504.519V504.884C262.445 505.109 262.527 505.325 262.674 505.484C262.821 505.643 263.02 505.732 263.228 505.732H263.565C263.773 505.732 263.972 505.643 264.119 505.484C264.266 505.325 264.349 505.109 264.349 504.884V504.519C264.349 504.339 264.295 504.163 264.196 504.018C264.097 503.873 263.957 503.767 263.798 503.714C266.594 502.861 268.634 502.125 268.634 502.125C268.634 502.125 271.003 501.193 273.871 499.932V500.247C273.871 500.472 273.953 500.688 274.1 500.847C274.247 501.006 274.446 501.095 274.654 501.095H274.992C275.199 501.095 275.399 501.006 275.546 500.847C275.693 500.688 275.775 500.472 275.775 500.247V499.882C275.775 499.753 275.747 499.627 275.695 499.511C275.642 499.396 275.566 499.295 275.472 499.217C276.048 498.955 276.629 498.685 277.203 498.411V498.701C277.203 498.926 277.286 499.142 277.433 499.301C277.58 499.46 277.779 499.549 277.987 499.549H278.324C278.532 499.549 278.731 499.46 278.878 499.301C279.025 499.142 279.108 498.926 279.108 498.701V498.336C279.108 498.2 279.077 498.065 279.019 497.944C278.96 497.824 278.876 497.72 278.772 497.642C279.394 497.328 279.992 497.015 280.544 496.708C280.541 496.736 280.536 496.762 280.536 496.79V497.155C280.536 497.38 280.619 497.596 280.766 497.755C280.912 497.914 281.112 498.003 281.32 498.003H281.657C281.865 498.003 282.064 497.914 282.211 497.755C282.358 497.596 282.44 497.38 282.44 497.155V496.79C282.44 496.595 282.378 496.405 282.264 496.254C282.149 496.103 281.99 495.999 281.813 495.959C283.145 495.123 283.984 494.381 283.869 493.881Z" fill="#2F2E41"/>
<path d="M322.139 489.205L307.057 488.174C307.057 488.174 307.971 505.178 306.143 510.845C304.314 516.513 305.229 518.574 305.229 518.574L318.483 519.605L322.139 489.205Z" fill="#6C63FF"/>
<path d="M322.38 526.824C322.312 524.701 320.243 514.669 319.778 516.178C319.312 517.687 311.366 518.487 309.167 514.819C309.167 514.819 306.137 510.432 304.046 513.637C301.954 516.843 297.969 522.245 297.969 522.245C297.969 522.245 284.106 525.896 285.274 529.853C285.51 530.653 286.495 531.195 287.914 531.55C287.862 531.636 287.825 531.731 287.805 531.831L287.735 532.188C287.691 532.408 287.731 532.637 287.844 532.826C287.957 533.015 288.134 533.147 288.338 533.194L288.668 533.27C288.871 533.317 289.083 533.275 289.257 533.152C289.432 533.03 289.554 532.838 289.597 532.618L289.668 532.26C289.692 532.132 289.688 531.998 289.657 531.871C290.045 531.923 290.449 531.967 290.867 532.003C290.731 532.123 290.636 532.289 290.599 532.475L290.528 532.832C290.485 533.052 290.524 533.282 290.637 533.471C290.75 533.659 290.928 533.792 291.131 533.839L291.461 533.915C291.665 533.962 291.877 533.919 292.051 533.797C292.225 533.674 292.348 533.482 292.391 533.262L292.461 532.905C292.49 532.757 292.482 532.604 292.437 532.461C292.392 532.318 292.313 532.19 292.207 532.092C293.317 532.145 294.484 532.157 295.65 532.141C295.552 532.252 295.484 532.391 295.454 532.542L295.383 532.899C295.34 533.119 295.379 533.348 295.492 533.537C295.605 533.726 295.783 533.858 295.986 533.905L296.316 533.981C296.519 534.028 296.732 533.986 296.906 533.863C297.08 533.741 297.202 533.549 297.246 533.329L297.316 532.972C297.348 532.811 297.335 532.644 297.281 532.491C297.227 532.338 297.132 532.206 297.01 532.11C297.887 532.082 298.75 532.041 299.573 531.993C299.475 532.105 299.407 532.243 299.377 532.393L299.307 532.75C299.264 532.97 299.303 533.2 299.416 533.389C299.529 533.577 299.707 533.71 299.91 533.757L300.24 533.833C300.443 533.88 300.655 533.837 300.829 533.715C301.004 533.592 301.126 533.4 301.169 533.18L301.24 532.823C301.274 532.647 301.255 532.463 301.186 532.299C301.117 532.135 301.002 531.999 300.856 531.911C303.755 531.708 305.892 531.449 305.892 531.449C305.892 531.449 308.388 531.071 311.436 530.486L311.375 530.794C311.332 531.013 311.371 531.243 311.484 531.432C311.597 531.62 311.775 531.753 311.978 531.8L312.308 531.876C312.511 531.923 312.724 531.88 312.898 531.758C313.072 531.636 313.195 531.443 313.238 531.223L313.308 530.866C313.333 530.74 313.33 530.61 313.301 530.486C313.272 530.361 313.217 530.245 313.14 530.147C313.754 530.021 314.374 529.889 314.988 529.75L314.933 530.034C314.889 530.254 314.928 530.483 315.041 530.672C315.155 530.861 315.332 530.993 315.535 531.04L315.865 531.116C316.069 531.163 316.281 531.121 316.455 530.998C316.629 530.876 316.752 530.683 316.795 530.464L316.865 530.106C316.892 529.973 316.888 529.835 316.854 529.703C316.82 529.572 316.757 529.451 316.671 529.352C317.339 529.185 317.985 529.014 318.583 528.838C318.576 528.864 318.566 528.889 318.56 528.917L318.49 529.274C318.446 529.494 318.486 529.724 318.599 529.912C318.712 530.101 318.889 530.233 319.093 530.28L319.423 530.356C319.626 530.403 319.838 530.361 320.012 530.238C320.187 530.116 320.309 529.924 320.352 529.704L320.423 529.347C320.46 529.155 320.436 528.956 320.353 528.782C320.271 528.608 320.135 528.471 319.969 528.393C321.433 527.875 322.397 527.338 322.38 526.824Z" fill="#2F2E41"/>
<path d="M298.628 308.39C306.253 308.39 312.435 301.7 312.435 293.447C312.435 285.195 306.253 278.505 298.628 278.505C291.003 278.505 284.821 285.195 284.821 293.447C284.821 301.7 291.003 308.39 298.628 308.39Z" fill="#FFB8B8"/>
<path d="M311.006 291.901C311.006 291.901 318.624 302.207 322.432 301.691L305.769 315.603C305.769 315.603 303.865 306.844 301.484 305.813C299.104 304.783 311.006 291.901 311.006 291.901Z" fill="#FFB8B8"/>
<path d="M340.762 368.417C340.762 368.417 340.761 311.56 331.948 306.663C323.14 301.768 317.314 298.974 317.314 298.974C317.185 300.839 316.695 302.655 315.876 304.303C315.058 305.951 313.929 307.394 312.563 308.541C309.642 310.981 306.733 313.004 305.107 313.011L305.055 312.769L304.857 312.157L300.056 320.24C300.056 320.24 295.771 321.271 294.343 324.363C293.57 326.035 297.214 342.872 295.057 358.112C293.227 371.041 285.516 382.713 285.297 384.132C284.928 386.531 294.3 380.246 298.521 377.308C298.583 377.383 298.628 377.434 298.628 377.434C298.628 377.434 296.247 378.464 301.008 376.919C303.706 376.043 307.472 375.994 310.231 376.116C310.228 377.012 310.247 377.723 310.292 378.207C310.768 383.359 334.573 390.573 337.906 389.027C341.238 387.481 340.762 368.417 340.762 368.417Z" fill="#2F2E41"/>
<path d="M324.099 387.997C324.099 387.997 309.816 401.908 319.338 404.485C328.86 407.061 332.669 390.058 332.669 390.058L324.099 387.997Z" fill="#FFB8B8"/>
<path d="M307.436 424.064C307.436 424.064 314.101 417.366 317.91 420.973C321.718 424.58 324.099 427.156 324.099 427.156C324.099 427.156 313.149 419.942 307.436 424.064Z" fill="#6C63FF"/>
<path d="M309.167 504.211C309.167 504.211 312.924 500.436 315.071 502.469C317.217 504.502 318.559 505.954 318.559 505.954C318.559 505.954 312.387 501.888 309.167 504.211Z" fill="#2F2E41"/>
<path d="M267.079 469.094C267.079 469.094 269.658 464.299 272.258 465.568C274.859 466.837 276.533 467.803 276.533 467.803C276.533 467.803 269.535 465.857 267.079 469.094Z" fill="#2F2E41"/>
<path d="M337.165 313.732C332.445 303.465 318.086 309.065 320.419 320.251C320.454 320.417 320.49 320.586 320.528 320.756C322.988 331.344 327.006 341.435 332.431 350.641L327.194 375.888L321.48 388.769L333.383 391.861L348.142 353.217C348.142 353.217 344.071 328.756 337.165 313.732Z" fill="#2F2E41"/>
<path opacity="0.2" d="M330.288 351.413L321.242 388.512L328.86 370.993L330.288 351.413Z" fill="black"/>
<path d="M307.299 276.03C307.299 276.03 299.667 267.334 291.985 272.81C284.303 278.286 280.659 283.606 281.412 287.31C282.166 291.014 284.395 296.166 284.395 296.166C284.395 296.166 283.009 288.492 289.37 287.924C295.731 287.357 304.519 282.801 304.519 282.801L310.463 296.54C310.463 296.54 311.304 293.356 313.634 294.269C315.963 295.182 314.157 277.048 307.299 276.03Z" fill="#2F2E41"/>
<path d="M258.398 472.498C258.397 473.804 258.297 475.106 258.098 476.394V476.399C257.551 479.862 256.285 483.145 254.394 486C252.504 488.856 250.039 491.209 247.185 492.883C244.331 494.557 241.163 495.507 237.92 495.662C234.678 495.817 231.445 495.173 228.466 493.778H228.461C227.579 493.367 226.725 492.89 225.904 492.351C223.36 490.689 221.163 488.472 219.451 485.842C217.74 483.212 216.552 480.227 215.964 477.074C215.687 475.567 215.549 474.034 215.549 472.498C215.549 471.798 215.578 471.102 215.635 470.417V470.412C216.129 464.495 218.703 459.009 222.825 455.086C226.947 451.163 232.304 449.103 237.789 449.329C243.274 449.556 248.47 452.053 252.304 456.305C256.138 460.556 258.317 466.239 258.393 472.179V472.184C258.398 472.292 258.398 472.39 258.398 472.498Z" fill="white"/>
<path d="M242.247 464.754H232.652L227.854 455.763L231.108 449.658L231.298 449.603C235.418 448.411 239.769 448.543 243.821 449.982L243.994 450.044L247.045 455.763L242.247 464.754ZM233.201 463.723H241.698L245.946 455.763L243.351 450.9C239.586 449.608 235.562 449.484 231.735 450.544L228.954 455.763L233.201 463.723Z" fill="black"/>
<path d="M241.771 483.304H232.176L227.378 474.31L232.176 465.317H241.771L246.569 474.31L241.771 483.304ZM232.725 482.273H241.222L245.469 474.31L241.222 466.347H232.725L228.478 474.31L232.725 482.273Z" fill="black"/>
<path d="M236.974 496.2C233.981 496.206 231.02 495.543 228.276 494.251L227.787 494.021L232.652 484.895H242.247L246.907 493.631L246.444 493.872C243.491 495.412 240.252 496.209 236.974 496.2V496.2ZM229.148 493.529C231.766 494.669 234.569 495.225 237.39 495.165C240.211 495.105 242.992 494.429 245.566 493.178L241.698 485.926H233.202L229.148 493.529Z" fill="black"/>
<path d="M257.959 474.029H248.363L243.565 465.037L248.363 456.041H252.732L252.873 456.201C256.662 460.516 258.804 466.221 258.869 472.172V472.322L257.959 474.029ZM248.913 472.998H257.409L257.915 472.05C257.823 466.481 255.831 461.146 252.322 457.071H248.913L244.665 465.037L248.913 472.998Z" fill="black"/>
<path d="M248.231 492.841L243.565 484.102L248.363 475.105H257.958L258.574 476.255L258.568 476.485C258.047 479.766 256.896 482.893 255.187 485.661C253.478 488.43 251.251 490.778 248.65 492.555L248.231 492.841ZM244.665 484.102L248.557 491.392C250.915 489.696 252.931 487.502 254.486 484.942C256.04 482.381 257.099 479.506 257.6 476.491L257.41 476.136H248.913L244.665 484.102Z" fill="black"/>
<path d="M226.074 493.064L225.658 492.792C223.058 491.091 220.813 488.825 219.064 486.137C217.315 483.449 216.1 480.397 215.497 477.175L215.461 476.984L216.465 475.105H226.06L230.858 484.102L226.074 493.064ZM216.466 477.162C217.045 480.12 218.163 482.924 219.755 485.409C221.347 487.894 223.381 490.01 225.738 491.633L229.758 484.102L225.51 476.136H217.014L216.466 477.162Z" fill="black"/>
<path d="M226.06 472.998H216.465L215.159 470.555V470.417C215.629 464.577 218.088 459.136 222.057 455.148L222.194 455.01H226.061L230.858 464.007L226.06 472.998ZM217.014 471.967H225.511L229.759 464.007L225.511 456.041H222.57C218.897 459.793 216.606 464.859 216.123 470.3L217.014 471.967Z" fill="black"/>
</svg>
