<svg width="588" height="682" viewBox="0 0 588 682" fill="none" xmlns="http://www.w3.org/2000/svg">
<path d="M588 0H0V682H588V0Z" fill="#C8524E"/>
<path d="M87.7406 0C73.1339 13.9574 65.7226 31.0825 62.4961 48.0019C52.9357 98.1314 25.2686 126.209 0 141.753V0H87.7406Z" fill="#FC7A57"/>
<path d="M588 0V92.7653C575.186 83.2624 559.864 75.0791 541.592 69.481C489.014 53.3712 468.069 22.8499 459.757 0H588Z" fill="#FC7A57"/>
<path d="M588 510.718V681.998H0C0 608.874 0 535.748 0 462.624C18.3523 469.145 40.7815 480.45 54.1824 500.996C82.7706 544.825 47.2159 595.35 70.2926 610.393C87.5415 621.639 108.694 594.583 154.52 592.36C226.605 588.861 259.599 655.005 310.562 640.972C335.9 633.995 329.084 617.278 361.985 600.984C408.704 577.848 444.354 600.709 493.202 588.438C518.655 582.045 554.224 564.471 588 510.718Z" fill="#FC7A57"/>
<path d="M118.668 303.038C117.805 303.038 117.062 302.462 116.967 301.686C115.907 292.921 107.58 286.311 97.5972 286.311C94.5494 286.311 91.6336 286.915 88.9281 288.107C88.0815 288.479 87.0544 288.174 86.632 287.427C86.2115 286.678 86.5557 285.77 87.4005 285.396C90.5842 283.994 94.0135 283.284 97.5954 283.284C103.284 283.284 108.737 285.14 112.954 288.511C117.139 291.858 119.772 296.421 120.371 301.363C120.471 302.194 119.79 302.941 118.85 303.03C118.789 303.037 118.728 303.038 118.668 303.038Z" fill="#FC7A57"/>
<path d="M483.031 575.098C482.168 575.098 481.426 574.522 481.331 573.745C480.27 564.981 471.943 558.371 461.961 558.371C458.913 558.371 455.997 558.975 453.291 560.166C452.445 560.54 451.418 560.234 450.995 559.485C450.575 558.736 450.919 557.828 451.766 557.454C454.949 556.052 458.379 555.342 461.961 555.342C467.649 555.342 473.104 557.198 477.319 560.569C481.504 563.916 484.137 568.479 484.734 573.421C484.835 574.252 484.153 574.999 483.214 575.088C483.152 575.095 483.091 575.098 483.031 575.098Z" fill="#FC7A57"/>
<path d="M518.032 368.822C516.348 368.822 514.662 368.654 512.98 368.32C507.429 367.216 502.569 364.346 499.292 360.239C496.04 356.161 494.603 351.198 495.247 346.262C495.355 345.431 496.207 344.836 497.143 344.93C498.083 345.026 498.756 345.778 498.649 346.607C497.508 355.363 503.992 363.428 513.731 365.366C516.705 365.959 519.701 365.934 522.635 365.297C523.552 365.098 524.481 365.595 524.706 366.406C524.931 367.217 524.369 368.039 523.452 368.238C521.658 368.628 519.848 368.822 518.032 368.822Z" fill="#FC7A57"/>
<path d="M120.346 46.0223C120.037 46.0223 119.727 45.9483 119.446 45.7953C116.424 44.1366 113.938 41.9299 112.055 39.2362C109.065 34.9561 107.984 29.8763 109.013 24.9332C110.032 20.0262 113.039 15.6458 117.477 12.5999C118.223 12.0881 119.299 12.2066 119.879 12.8681C120.46 13.528 120.324 14.4791 119.576 14.9925C111.701 20.3964 109.722 30.1347 114.967 37.6466C116.569 39.9388 118.683 41.8164 121.251 43.2249C122.054 43.6659 122.3 44.599 121.803 45.3098C121.478 45.7689 120.918 46.0223 120.346 46.0223Z" fill="#FC7A57"/>
<path d="M452.465 70.99C450.051 70.99 447.636 70.651 445.306 69.9714C444.409 69.7098 443.922 68.8524 444.218 68.0593C444.514 67.2662 445.483 66.835 446.38 67.0967C455.844 69.8628 466.089 65.8856 470.212 57.8455C471.47 55.392 472.054 52.7921 471.945 50.123C471.911 49.2871 472.648 48.5861 473.593 48.5548C474.537 48.5252 475.331 49.1768 475.366 50.0127C475.495 53.1557 474.81 56.2115 473.331 59.0961C470.981 63.6772 466.816 67.304 461.603 69.3066C458.689 70.4272 455.579 70.99 452.465 70.99Z" fill="#FC7A57"/>
<path d="M294.605 611.008C293.825 611.008 293.04 610.974 292.251 610.903C286.591 610.398 281.375 608.066 277.565 604.337C273.782 600.637 271.679 595.861 271.646 590.892C271.64 590.056 272.401 589.374 273.348 589.37C273.352 589.37 273.356 589.37 273.359 589.37C274.301 589.37 275.066 590.041 275.071 590.875C275.131 599.689 282.665 607.005 292.597 607.892C295.63 608.162 298.6 607.821 301.426 606.876C302.31 606.58 303.298 606.975 303.633 607.757C303.968 608.538 303.522 609.412 302.638 609.708C300.044 610.572 297.351 611.008 294.605 611.008Z" fill="#FC7A57"/>
<path d="M431.777 273.69C431.174 273.69 430.57 273.564 430.011 273.307C428.741 272.723 427.952 271.572 427.952 270.305V244.726C427.952 243.458 428.741 242.308 430.011 241.724C431.282 241.14 432.801 241.229 433.973 241.956L454.59 254.747C455.61 255.379 456.218 256.414 456.218 257.516C456.218 258.617 455.61 259.652 454.59 260.286L433.973 273.077C433.314 273.483 432.548 273.69 431.777 273.69ZM431.779 244.368C431.707 244.368 431.641 244.388 431.591 244.411C431.493 244.457 431.375 244.548 431.375 244.726V270.305C431.375 270.483 431.493 270.575 431.591 270.62C431.69 270.664 431.842 270.697 432.006 270.595L452.623 257.804C452.764 257.717 452.794 257.599 452.794 257.515C452.794 257.431 452.764 257.312 452.623 257.225L432.006 244.434C431.926 244.387 431.848 244.368 431.779 244.368Z" fill="#FC7A57"/>
<path d="M23.6718 214.281C23.2792 214.281 22.8829 214.227 22.4996 214.119C21.3143 213.781 20.3876 212.95 20.0192 211.899L12.5838 190.62C12.1614 189.411 12.5317 188.106 13.5495 187.216C14.5692 186.325 16.0484 186.014 17.4123 186.403L44.9399 194.255C46.3038 194.644 47.2974 195.662 47.5375 196.91C47.7756 198.159 47.2156 199.409 46.0712 200.173L25.9773 213.599C25.3074 214.046 24.4943 214.281 23.6718 214.281ZM16.2289 189.263C16.1061 189.263 16.0168 189.315 15.9573 189.368C15.8772 189.437 15.7972 189.556 15.8568 189.725L23.2922 211.004C23.3425 211.148 23.4616 211.211 23.5527 211.236C23.6439 211.262 23.7797 211.273 23.9174 211.181L44.0114 197.755C44.1714 197.648 44.1844 197.51 44.1658 197.413C44.1472 197.316 44.0858 197.189 43.8942 197.135L16.3666 189.282C16.3127 189.269 16.2699 189.263 16.2289 189.263Z" fill="#FC7A57"/>
<path d="M513.148 215.792C514.977 215.121 515.846 213.266 515.089 211.649C514.332 210.031 512.236 209.263 510.408 209.934C508.579 210.605 507.711 212.459 508.467 214.077C509.224 215.695 511.32 216.462 513.148 215.792Z" fill="#FC7A57"/>
<path d="M511.762 230.559C513.742 230.559 515.346 229.14 515.346 227.39C515.346 225.639 513.742 224.22 511.762 224.22C509.783 224.22 508.179 225.639 508.179 227.39C508.179 229.14 509.783 230.559 511.762 230.559Z" fill="#FC7A57"/>
<path d="M511.762 245.082C513.742 245.082 515.346 243.663 515.346 241.913C515.346 240.163 513.742 238.744 511.762 238.744C509.783 238.744 508.179 240.163 508.179 241.913C508.179 243.663 509.783 245.082 511.762 245.082Z" fill="#FC7A57"/>
<path d="M511.762 259.606C513.742 259.606 515.346 258.187 515.346 256.437C515.346 254.686 513.742 253.267 511.762 253.267C509.783 253.267 508.179 254.686 508.179 256.437C508.179 258.187 509.783 259.606 511.762 259.606Z" fill="#FC7A57"/>
<path d="M511.762 274.129C513.742 274.129 515.346 272.71 515.346 270.96C515.346 269.21 513.742 267.791 511.762 267.791C509.783 267.791 508.179 269.21 508.179 270.96C508.179 272.71 509.783 274.129 511.762 274.129Z" fill="#FC7A57"/>
<path d="M511.762 288.653C513.742 288.653 515.346 287.234 515.346 285.483C515.346 283.733 513.742 282.314 511.762 282.314C509.783 282.314 508.179 283.733 508.179 285.483C508.179 287.234 509.783 288.653 511.762 288.653Z" fill="#FC7A57"/>
<path d="M532.301 213.635C532.756 211.932 531.563 210.224 529.636 209.822C527.71 209.419 525.78 210.474 525.326 212.177C524.872 213.881 526.065 215.588 527.991 215.991C529.917 216.394 531.847 215.339 532.301 213.635Z" fill="#FC7A57"/>
<path d="M528.801 230.559C530.78 230.559 532.384 229.14 532.384 227.39C532.384 225.639 530.78 224.22 528.801 224.22C526.821 224.22 525.217 225.639 525.217 227.39C525.217 229.14 526.821 230.559 528.801 230.559Z" fill="#FC7A57"/>
<path d="M528.801 245.082C530.78 245.082 532.384 243.663 532.384 241.913C532.384 240.163 530.78 238.744 528.801 238.744C526.821 238.744 525.217 240.163 525.217 241.913C525.217 243.663 526.821 245.082 528.801 245.082Z" fill="#FC7A57"/>
<path d="M528.801 259.606C530.78 259.606 532.384 258.187 532.384 256.436C532.384 254.686 530.78 253.267 528.801 253.267C526.821 253.267 525.217 254.686 525.217 256.436C525.217 258.187 526.821 259.606 528.801 259.606Z" fill="#FC7A57"/>
<path d="M528.801 274.129C530.78 274.129 532.384 272.71 532.384 270.96C532.384 269.21 530.78 267.791 528.801 267.791C526.821 267.791 525.217 269.21 525.217 270.96C525.217 272.71 526.821 274.129 528.801 274.129Z" fill="#FC7A57"/>
<path d="M528.801 288.653C530.78 288.653 532.384 287.234 532.384 285.483C532.384 283.733 530.78 282.314 528.801 282.314C526.821 282.314 525.217 283.733 525.217 285.483C525.217 287.234 526.821 288.653 528.801 288.653Z" fill="#FC7A57"/>
<path d="M547.228 215.791C549.057 215.12 549.925 213.266 549.169 211.648C548.412 210.03 546.316 209.263 544.487 209.933C542.659 210.604 541.79 212.459 542.547 214.076C543.304 215.694 545.4 216.462 547.228 215.791Z" fill="#FC7A57"/>
<path d="M545.842 230.559C547.821 230.559 549.425 229.14 549.425 227.39C549.425 225.639 547.821 224.22 545.842 224.22C543.862 224.22 542.258 225.639 542.258 227.39C542.258 229.14 543.862 230.559 545.842 230.559Z" fill="#FC7A57"/>
<path d="M545.842 245.082C547.821 245.082 549.425 243.663 549.425 241.913C549.425 240.163 547.821 238.744 545.842 238.744C543.862 238.744 542.258 240.163 542.258 241.913C542.258 243.663 543.862 245.082 545.842 245.082Z" fill="#FC7A57"/>
<path d="M545.842 259.606C547.821 259.606 549.425 258.187 549.425 256.436C549.425 254.686 547.821 253.267 545.842 253.267C543.862 253.267 542.258 254.686 542.258 256.436C542.258 258.187 543.862 259.606 545.842 259.606Z" fill="#FC7A57"/>
<path d="M545.842 274.129C547.821 274.129 549.425 272.71 549.425 270.96C549.425 269.21 547.821 267.791 545.842 267.791C543.862 267.791 542.258 269.21 542.258 270.96C542.258 272.71 543.862 274.129 545.842 274.129Z" fill="#FC7A57"/>
<path d="M545.842 288.653C547.821 288.653 549.425 287.234 549.425 285.483C549.425 283.733 547.821 282.314 545.842 282.314C543.862 282.314 542.258 283.733 542.258 285.483C542.258 287.234 543.862 288.653 545.842 288.653Z" fill="#FC7A57"/>
<path d="M564.267 215.791C566.095 215.121 566.964 213.266 566.207 211.648C565.45 210.03 563.354 209.263 561.526 209.933C559.698 210.604 558.829 212.459 559.586 214.076C560.342 215.694 562.438 216.462 564.267 215.791Z" fill="#FC7A57"/>
<path d="M562.88 230.559C564.859 230.559 566.464 229.14 566.464 227.39C566.464 225.639 564.859 224.22 562.88 224.22C560.9 224.22 559.296 225.639 559.296 227.39C559.296 229.14 560.9 230.559 562.88 230.559Z" fill="#FC7A57"/>
<path d="M562.88 245.082C564.859 245.082 566.464 243.664 566.464 241.913C566.464 240.163 564.859 238.744 562.88 238.744C560.9 238.744 559.296 240.163 559.296 241.913C559.296 243.664 560.9 245.082 562.88 245.082Z" fill="#FC7A57"/>
<path d="M562.88 259.606C564.859 259.606 566.464 258.187 566.464 256.437C566.464 254.686 564.859 253.267 562.88 253.267C560.9 253.267 559.296 254.686 559.296 256.437C559.296 258.187 560.9 259.606 562.88 259.606Z" fill="#FC7A57"/>
<path d="M562.88 274.13C564.859 274.13 566.464 272.711 566.464 270.96C566.464 269.21 564.859 267.791 562.88 267.791C560.9 267.791 559.296 269.21 559.296 270.96C559.296 272.711 560.9 274.13 562.88 274.13Z" fill="#FC7A57"/>
<path d="M562.88 288.653C564.859 288.653 566.464 287.234 566.464 285.484C566.464 283.733 564.859 282.314 562.88 282.314C560.9 282.314 559.296 283.733 559.296 285.484C559.296 287.234 560.9 288.653 562.88 288.653Z" fill="#FC7A57"/>
<path d="M583.422 213.638C583.876 211.934 582.683 210.226 580.757 209.824C578.831 209.421 576.901 210.476 576.447 212.179C575.992 213.883 577.185 215.59 579.112 215.993C581.038 216.396 582.968 215.341 583.422 213.638Z" fill="#FC7A57"/>
<path d="M579.919 230.559C581.899 230.559 583.503 229.14 583.503 227.39C583.503 225.639 581.899 224.22 579.919 224.22C577.94 224.22 576.335 225.639 576.335 227.39C576.335 229.14 577.94 230.559 579.919 230.559Z" fill="#FC7A57"/>
<path d="M579.919 245.082C581.899 245.082 583.503 243.664 583.503 241.913C583.503 240.163 581.899 238.744 579.919 238.744C577.94 238.744 576.335 240.163 576.335 241.913C576.335 243.664 577.94 245.082 579.919 245.082Z" fill="#FC7A57"/>
<path d="M579.919 259.606C581.899 259.606 583.503 258.187 583.503 256.437C583.503 254.686 581.899 253.267 579.919 253.267C577.94 253.267 576.335 254.686 576.335 256.437C576.335 258.187 577.94 259.606 579.919 259.606Z" fill="#FC7A57"/>
<path d="M579.919 274.129C581.899 274.129 583.503 272.71 583.503 270.96C583.503 269.21 581.899 267.791 579.919 267.791C577.94 267.791 576.335 269.21 576.335 270.96C576.335 272.71 577.94 274.129 579.919 274.129Z" fill="#FC7A57"/>
<path d="M579.919 288.653C581.899 288.653 583.503 287.234 583.503 285.483C583.503 283.733 581.899 282.314 579.919 282.314C577.94 282.314 576.335 283.733 576.335 285.483C576.335 287.234 577.94 288.653 579.919 288.653Z" fill="#FC7A57"/>
<path d="M9.40992 347.338C11.3892 347.338 12.9937 345.919 12.9937 344.168C12.9937 342.418 11.3892 340.999 9.40992 340.999C7.43067 340.999 5.82617 342.418 5.82617 344.168C5.82617 345.919 7.43067 347.338 9.40992 347.338Z" fill="#FC7A57"/>
<path d="M12.957 359.206C13.2741 357.479 11.9474 355.851 9.99363 355.57C8.03989 355.29 6.19898 356.463 5.88184 358.191C5.56471 359.919 6.89144 361.547 8.84518 361.827C10.7989 362.107 12.6398 360.934 12.957 359.206Z" fill="#FC7A57"/>
<path d="M12.957 373.73C13.2741 372.002 11.9474 370.374 9.99362 370.094C8.03988 369.814 6.19898 370.987 5.88184 372.715C5.56471 374.442 6.89144 376.07 8.84518 376.351C10.7989 376.631 12.6398 375.458 12.957 373.73Z" fill="#FC7A57"/>
<path d="M12.957 388.254C13.2741 386.526 11.9474 384.898 9.99363 384.618C8.03989 384.337 6.19898 385.511 5.88184 387.238C5.56471 388.966 6.89144 390.594 8.84518 390.875C10.7989 391.155 12.6398 389.982 12.957 388.254Z" fill="#FC7A57"/>
<path d="M10.7895 405.199C12.618 404.529 13.4867 402.674 12.7299 401.056C11.9731 399.439 9.8774 398.671 8.04896 399.341C6.22052 400.012 5.35178 401.867 6.10856 403.484C6.86534 405.102 8.96108 405.87 10.7895 405.199Z" fill="#FC7A57"/>
<path d="M10.79 419.723C12.6185 419.053 13.4872 417.198 12.7304 415.58C11.9736 413.963 9.87789 413.195 8.04945 413.865C6.22101 414.536 5.35227 416.391 6.10905 418.008C6.86583 419.626 8.96157 420.394 10.79 419.723Z" fill="#FC7A57"/>
<path d="M26.4505 347.338C28.4297 347.338 30.0342 345.919 30.0342 344.168C30.0342 342.418 28.4297 340.999 26.4505 340.999C24.4712 340.999 22.8667 342.418 22.8667 344.168C22.8667 345.919 24.4712 347.338 26.4505 347.338Z" fill="#FC7A57"/>
<path d="M29.996 359.205C30.3132 357.477 28.9864 355.849 27.0327 355.569C25.079 355.289 23.238 356.462 22.9209 358.19C22.6038 359.917 23.9305 361.545 25.8842 361.826C27.838 362.106 29.6789 360.933 29.996 359.205Z" fill="#FC7A57"/>
<path d="M29.9965 373.729C30.3136 372.001 28.9869 370.373 27.0332 370.093C25.0794 369.812 23.2385 370.986 22.9214 372.713C22.6043 374.441 23.931 376.069 25.8847 376.35C27.8385 376.63 29.6794 375.457 29.9965 373.729Z" fill="#FC7A57"/>
<path d="M29.9965 388.253C30.3136 386.525 28.9869 384.897 27.0332 384.616C25.0794 384.336 23.2385 385.509 22.9214 387.237C22.6043 388.965 23.931 390.593 25.8847 390.873C27.8385 391.154 29.6794 389.98 29.9965 388.253Z" fill="#FC7A57"/>
<path d="M27.8301 405.199C29.6585 404.528 30.5272 402.673 29.7705 401.055C29.0137 399.438 26.9179 398.67 25.0895 399.341C23.2611 400.011 22.3923 401.866 23.1491 403.484C23.9059 405.101 26.0016 405.869 27.8301 405.199Z" fill="#FC7A57"/>
<path d="M27.8301 419.722C29.6585 419.052 30.5273 417.197 29.7705 415.579C29.0137 413.962 26.9179 413.194 25.0895 413.865C23.2611 414.535 22.3923 416.39 23.1491 418.008C23.9059 419.625 26.0016 420.393 27.8301 419.722Z" fill="#FC7A57"/>
<path d="M43.489 347.338C45.4683 347.338 47.0728 345.919 47.0728 344.168C47.0728 342.418 45.4683 340.999 43.489 340.999C41.5098 340.999 39.9053 342.418 39.9053 344.168C39.9053 345.919 41.5098 347.338 43.489 347.338Z" fill="#FC7A57"/>
<path d="M46.962 359.444C47.4174 357.74 46.225 356.034 44.2987 355.632C42.3724 355.231 40.4416 356.286 39.9862 357.989C39.5308 359.692 40.7232 361.399 42.6495 361.8C44.5758 362.202 46.5066 361.147 46.962 359.444Z" fill="#FC7A57"/>
<path d="M46.9589 373.969C47.4138 372.266 46.2211 370.559 44.2949 370.157C42.3686 369.755 40.4383 370.81 39.9834 372.513C39.5285 374.216 40.7212 375.923 42.6474 376.326C44.5737 376.728 46.504 375.673 46.9589 373.969Z" fill="#FC7A57"/>
<path d="M46.9584 388.493C47.4134 386.79 46.2206 385.083 44.2944 384.681C42.3681 384.279 40.4378 385.334 39.9829 387.037C39.528 388.74 40.7207 390.447 42.647 390.85C44.5732 391.252 46.5035 390.197 46.9584 388.493Z" fill="#FC7A57"/>
<path d="M46.016 404.502C47.4149 403.264 47.4149 401.256 46.016 400.017C44.6171 398.779 42.3489 398.779 40.95 400.017C39.5511 401.256 39.5511 403.264 40.95 404.502C42.3489 405.741 44.6171 405.741 46.016 404.502Z" fill="#FC7A57"/>
<path d="M46.016 419.026C47.4149 417.787 47.4149 415.779 46.016 414.54C44.6171 413.302 42.3489 413.302 40.95 414.54C39.5511 415.779 39.5511 417.787 40.95 419.026C42.3489 420.264 44.6171 420.264 46.016 419.026Z" fill="#FC7A57"/>
<path d="M559.607 656.361H28.3921V25.6375H559.605V656.361H559.607ZM31.3692 653.728H556.628V28.2703H31.3692V653.728Z" fill="white"/>
<path d="M114.589 583.337C120.484 583.337 125.262 579.111 125.262 573.898C125.262 568.685 120.484 564.459 114.589 564.459C108.695 564.459 103.916 568.685 103.916 573.898C103.916 579.111 108.695 583.337 114.589 583.337Z" fill="#F44336"/>
<path d="M207.542 62.9138C210.438 60.3524 210.438 56.1994 207.542 53.6379C204.645 51.0765 199.949 51.0765 197.053 53.6379C194.157 56.1994 194.157 60.3524 197.053 62.9138C199.949 65.4753 204.645 65.4753 207.542 62.9138Z" fill="#F44336"/>
<path d="M539.988 475.185C540.644 471.609 537.898 468.24 533.855 467.66C529.811 467.08 526.002 469.508 525.345 473.084C524.689 476.659 527.435 480.029 531.478 480.609C535.522 481.189 539.332 478.761 539.988 475.185Z" fill="#F44336"/>
<path d="M273.368 352.62C277.464 352.62 280.785 349.683 280.785 346.06C280.785 342.438 277.464 339.501 273.368 339.501C269.272 339.501 265.951 342.438 265.951 346.06C265.951 349.683 269.272 352.62 273.368 352.62Z" fill="#F44336"/>
<path d="M264.937 217.328C264.937 217.328 387.237 240.135 433.683 153.662C480.128 67.1892 360.366 59.0784 324.108 66.4553C287.85 73.8322 173.505 85.894 168.701 144.403C163.898 202.91 264.937 217.328 264.937 217.328Z" fill="#F44336"/>
<path d="M306.515 217.294C254.197 230.07 198.751 219.315 163.122 200.377C156.581 196.901 97.5797 165.47 103.404 134.432C106.798 116.351 121.708 104.327 122.971 103.469C134.082 95.9411 146.217 94.8402 153.167 94.2873C171.25 92.8491 175.726 98.6694 199.179 99.8328C213.339 100.535 221.603 101.21 231.122 97.6689C242.095 93.5863 244.953 87.8286 253.881 80.6771C269.524 68.1464 290.572 61.9361 307.527 61.1018C340.175 59.4942 365.5 77.4321 367.424 78.8358C379.734 87.8072 383.51 96.1813 400.768 103.998C410.239 108.288 413.527 109.813 424.688 111.171C444.612 113.594 479.65 129.64 484.268 153.03C487.232 168.037 475.824 180.665 474.047 182.574C462.671 194.788 443.064 202.751 427.626 198.362C419.84 196.149 419.939 192.773 411.971 190.174C396.872 185.249 381.389 192.447 369.8 197.278C369.8 197.278 343.383 208.292 306.515 217.294Z" fill="#992A21"/>
<path d="M242.276 178H247.811V167.185H258.46V162.621H247.811V156.382H259.611V151.818H242.276V178ZM268.87 151.818H263.334V178H268.87V151.818ZM273.424 178H278.96V170.56L281.683 167.236L288.854 178H295.477L285.646 163.541L295.362 151.818H288.727L279.305 163.362H278.96V151.818H273.424V178ZM312.237 159.348H317.542C317.465 154.682 313.63 151.46 307.8 151.46C302.06 151.46 297.854 154.631 297.88 159.386C297.867 163.247 300.59 165.459 305.013 166.52L307.864 167.236C310.715 167.926 312.3 168.744 312.313 170.509C312.3 172.426 310.485 173.73 307.673 173.73C304.796 173.73 302.725 172.401 302.546 169.78H297.19C297.33 175.443 301.383 178.371 307.737 178.371C314.129 178.371 317.887 175.315 317.9 170.521C317.887 166.162 314.602 163.848 310.05 162.825L307.698 162.263C305.423 161.739 303.518 160.895 303.556 159.016C303.556 157.328 305.052 156.088 307.762 156.088C310.408 156.088 312.032 157.29 312.237 159.348ZM327.159 151.818H321.623V178H327.159V151.818Z" fill="white"/>
<path d="M243.688 121.492C243.324 118.469 241.036 116.73 238.006 116.73C234.548 116.73 231.908 119.172 231.908 123.455C231.908 127.724 234.503 130.179 238.006 130.179C241.362 130.179 243.388 127.948 243.688 125.538L240.888 125.526C240.626 126.925 239.527 127.731 238.05 127.731C236.062 127.731 234.714 126.254 234.714 123.455C234.714 120.732 236.043 119.178 238.07 119.178C239.585 119.178 240.678 120.054 240.888 121.492H243.688ZM247.683 130L248.655 127.015H253.379L254.35 130H257.316L252.803 116.909H249.237L244.717 130H247.683ZM249.358 124.854L250.969 119.901H251.071L252.682 124.854H249.358ZM256.776 119.191H260.784V130H263.52V119.191H267.527V116.909H256.776V119.191ZM269.298 130H278.145V127.718H272.066V124.592H277.665V122.31H272.066V119.191H278.119V116.909H269.298V130ZM289 121.141H291.812C291.454 118.552 289.172 116.73 286.213 116.73C282.755 116.73 280.089 119.223 280.089 123.467C280.089 127.609 282.582 130.179 286.27 130.179C289.575 130.179 291.934 128.089 291.934 124.643V122.994H286.456V125.078H289.268C289.23 126.702 288.124 127.731 286.283 127.731C284.206 127.731 282.895 126.178 282.895 123.442C282.895 120.719 284.257 119.178 286.258 119.178C287.683 119.178 288.648 119.913 289 121.141ZM306.043 123.455C306.043 119.172 303.384 116.73 299.913 116.73C296.423 116.73 293.783 119.172 293.783 123.455C293.783 127.718 296.423 130.179 299.913 130.179C303.384 130.179 306.043 127.737 306.043 123.455ZM303.237 123.455C303.237 126.229 301.92 127.731 299.913 127.731C297.899 127.731 296.589 126.229 296.589 123.455C296.589 120.68 297.899 119.178 299.913 119.178C301.92 119.178 303.237 120.68 303.237 123.455ZM308.093 130H310.861V125.359H312.881L315.361 130H318.416L315.635 124.912C317.125 124.273 317.949 122.975 317.949 121.185C317.949 118.584 316.23 116.909 313.258 116.909H308.093V130ZM310.861 123.135V119.172H312.727C314.325 119.172 315.099 119.881 315.099 121.185C315.099 122.483 314.325 123.135 312.74 123.135H310.861ZM318.593 116.909L323.368 125.372V130H326.117V125.372L330.892 116.909H327.792L324.806 122.547H324.679L321.694 116.909H318.593Z" fill="white"/>
<path d="M488.605 134.591C495.74 128.282 495.74 118.051 488.605 111.741C481.47 105.432 469.902 105.432 462.767 111.741C455.632 118.051 455.632 128.282 462.767 134.591C469.902 140.901 481.47 140.901 488.605 134.591Z" fill="#F44336"/>
<path d="M131.747 208.191C152.043 208.191 168.495 193.641 168.495 175.693C168.495 157.745 152.043 143.195 131.747 143.195C111.452 143.195 95 157.745 95 175.693C95 193.641 111.452 208.191 131.747 208.191Z" fill="#F44336"/>
<path d="M187.756 216.913C193.202 214.918 195.788 209.396 193.532 204.58C191.276 199.764 185.032 197.477 179.586 199.472C174.14 201.466 171.554 206.988 173.81 211.804C176.066 216.62 182.31 218.907 187.756 216.913Z" fill="#F44336"/>
<path d="M459.116 150.576C461.962 148.059 461.962 143.978 459.116 141.461C456.269 138.944 451.655 138.944 448.808 141.461C445.962 143.978 445.962 148.059 448.808 150.576C451.655 153.093 456.269 153.093 459.116 150.576Z" fill="#F44336"/>
<path d="M64.5535 462.171C65.197 458.657 62.4978 455.345 58.5246 454.773C54.5514 454.202 50.8087 456.587 50.1652 460.101C49.5217 463.615 52.2209 466.927 56.1941 467.499C60.1673 468.07 63.9099 465.685 64.5535 462.171Z" fill="#F44336"/>
<path d="M299.467 545.144C406.316 545.144 492.934 539.739 492.934 533.072C492.934 526.405 406.316 521 299.467 521C192.618 521 106 526.405 106 533.072C106 539.739 192.618 545.144 299.467 545.144Z" fill="#992A21"/>
<path opacity="0.3" d="M232.581 484.069C232.195 487.018 231.768 489.964 231.297 492.907C230.417 498.216 229.428 503.514 228.258 508.79L227.342 512.743C227.011 514.057 226.696 515.374 226.349 516.686C225.998 517.999 225.654 519.312 225.272 520.622C224.899 521.94 224.507 523.229 224.066 524.575C224.064 524.58 224.06 524.595 224.058 524.6C223.711 525.602 222.457 526.182 221.255 525.893C220.054 525.604 219.358 524.557 219.705 523.555L219.719 523.512C220.572 521.041 221.348 518.443 222.069 515.878C222.433 514.592 222.766 513.297 223.115 512.005L224.088 508.114C225.335 502.917 226.408 497.685 227.373 492.439C227.893 489.519 228.37 486.593 228.805 483.661C218.795 482.299 184.613 476.809 191.458 466.136C198.122 455.744 221.464 475.063 229.075 481.804C230.074 474.81 230.838 467.789 231.376 460.754C231.677 456.816 231.906 452.874 232.065 448.929C222.914 447.987 186.841 443.534 193.381 432.428C199.745 421.618 224.807 441.313 232.122 447.41C232.345 441.236 232.398 435.056 232.288 428.878L232.048 420.903L231.683 414.633C223.254 415.036 185.527 416.175 189.689 404.088C193.78 392.206 224.044 409.073 231.618 413.519L231.585 412.934L231.467 410.941L231.295 408.951L230.939 404.973L230.582 400.994C230.446 399.669 230.269 398.347 230.115 397.022C229.692 393.281 229.199 389.546 228.638 385.816C220.652 385.785 182.194 385.014 187.314 373.065C192.309 361.407 221.306 379.916 228.472 384.722C226.859 374.229 224.712 363.79 222.084 353.433C215.968 353.532 178.434 353.675 183.027 342.253C187.519 331.087 216.142 348.997 221.909 352.75C220.319 346.539 218.557 340.356 216.632 334.209C215.129 329.568 213.524 324.953 211.824 320.359C206.673 320.533 171.309 321.344 175.343 310.623C179.283 300.153 206.519 316.614 211.623 319.813C208.379 311.093 204.776 302.465 200.819 293.947C196.875 293.97 164.894 293.871 168.896 284.42C172.796 275.212 196.591 290.809 200.631 293.544C198.157 288.237 195.547 282.971 192.796 277.756C191.239 276.775 163.875 259.349 174.343 253.741C184.721 248.181 192.295 275.665 192.835 277.682C195.675 282.851 198.374 288.076 200.941 293.346C200.302 288.534 197.604 264.127 208.847 266.318C220.633 268.613 203.174 291.448 201.228 293.94C205.314 302.366 209.05 310.912 212.436 319.555C212.933 313.77 215.911 286.55 227.832 290.864C240.262 295.363 216.037 317.358 212.724 320.296C214.485 324.825 216.157 329.378 217.727 333.957C219.734 339.996 221.582 346.074 223.266 352.184C225.64 345.655 236.358 318.384 247.562 325.194C259.191 332.265 228.748 350.17 223.53 353.141C226.331 363.42 228.658 373.793 230.46 384.234C234.583 376.785 250.278 350.334 260.84 358.77C271.841 367.556 237.76 382.625 230.694 385.607C231.321 389.339 231.882 393.079 232.373 396.825C232.552 398.153 232.753 399.48 232.912 400.81L233.34 404.804L233.767 408.799L233.976 410.797L234.116 412.622C240.573 405.458 261.626 383.581 269.686 393.414C278.052 403.618 243.183 412.313 234.246 414.346L234.736 420.803L235.12 428.82C235.341 435.036 235.398 441.257 235.284 447.478C242.099 441.219 266.235 420.282 273.244 430.884C280.481 441.835 243.858 447.713 235.256 448.93C235.166 452.925 235.004 456.921 234.77 460.912C234.34 468.209 233.673 475.5 232.751 482.771C240.665 477.966 269.891 461.208 274.185 472.882C278.58 484.838 241.315 484.345 232.581 484.069Z" fill="#992A21"/>
<path opacity="0.3" d="M341.125 455.171C342.096 453.485 343.022 451.78 344.026 450.105C359.535 440.628 381.482 437.08 411.728 436.249C442.287 435.406 447.21 410.409 447.21 410.409C427.839 419.803 426.659 415.787 391.443 421.648C365.099 426.033 351.364 439.947 346.114 446.681L346.443 446.14L348.358 443.188C349.008 442.208 349.615 441.209 350.3 440.246L352.315 437.336L353.322 435.881C353.663 435.398 354.021 434.924 354.37 434.445L356.475 431.577C357.866 429.666 359.342 427.741 360.697 425.785C362.078 423.835 363.385 421.848 364.662 419.849C366.456 416.991 368.127 414.076 369.649 411.109C387.695 399.88 420.925 399.719 420.925 399.719C453.958 395.948 455.444 373.866 455.509 371.761C455.511 371.754 455.509 371.746 455.511 371.738C455.513 371.697 455.517 371.667 455.513 371.647C455.515 371.644 455.515 371.641 455.515 371.641C455.515 371.626 455.513 371.618 455.515 371.61C455.513 371.601 455.513 371.598 455.513 371.598C455.337 372.193 455.134 372.799 454.892 373.409C453.05 376.447 445.776 382.605 417.115 386.345C388.11 390.128 375.643 402.132 371.125 408.112C371.225 407.898 371.328 407.688 371.426 407.474C372.387 405.351 373.28 403.205 374.066 401.03C374.838 398.851 375.517 396.651 376.077 394.426C377.166 389.973 377.771 385.428 377.712 380.88C377.678 378.034 377.381 375.192 376.821 372.387C383.31 364.626 389.757 361.575 395.363 359.656C425.239 349.426 421.167 330.365 421.112 330.121C421.055 330.329 418.859 337.934 398.385 346.724C381.618 353.925 377.531 366.646 376.581 371.269C376.29 369.971 375.943 368.682 375.539 367.405C374.848 365.21 373.997 363.052 373.012 360.941C372.023 358.831 370.894 356.769 369.673 354.753C367.727 351.544 365.513 348.463 363.226 345.43C364.745 341.077 370.587 333.359 370.587 333.359C383.489 314.443 376.79 298.61 376.63 298.245C376.63 298.242 376.626 298.24 376.628 298.237C375.2 309.036 368.808 304.66 362.958 320.102C358.548 331.734 360.841 340.508 362.241 344.128C361.977 343.783 361.713 343.436 361.449 343.091C359.997 341.194 358.54 339.302 357.165 337.37C355.794 335.438 354.506 333.461 353.513 331.376C352.581 329.273 351.707 327.135 350.761 325.028C350.288 323.974 349.818 322.919 349.317 321.874C349.069 321.349 348.813 320.829 348.549 320.311C348.413 320.053 348.281 319.795 348.133 319.54C348.063 319.412 347.986 319.287 347.909 319.162C347.822 319.044 347.759 318.904 347.627 318.816C347.755 318.906 347.818 319.046 347.901 319.166C347.976 319.292 348.051 319.417 348.118 319.547C348.259 319.802 348.388 320.063 348.518 320.322C348.772 320.843 349.016 321.368 349.254 321.895C349.733 322.947 350.182 324.008 350.633 325.068C351.537 327.191 352.363 329.327 353.257 331.458C354.216 333.574 355.473 335.584 356.808 337.543C358.148 339.501 359.57 341.417 360.982 343.335C362.103 344.851 363.212 346.373 364.294 347.907C361.487 345.692 348.833 339.368 343.973 331.782C338.858 323.791 323.629 318.446 323.629 318.446C323.629 318.446 323.627 318.449 323.631 318.454C323.596 318.921 322.313 338.676 343.737 343.55C361.002 347.479 366.514 351.92 368.04 353.566C368.343 354.061 368.641 354.559 368.93 355.06C370.101 357.076 371.174 359.132 372.108 361.228C373.037 363.327 373.831 365.463 374.468 367.632C375.744 371.968 376.37 376.427 376.329 380.883C376.307 383.769 376.012 386.649 375.492 389.502C373.42 366.84 352.357 355.26 335.665 352.595C318.468 349.855 313.489 336.456 313.315 335.988C313.313 335.98 313.313 335.977 313.313 335.977C313.313 335.977 304.219 362.816 339.569 370.369C367.213 376.276 373.693 386.71 375.204 390.974C374.984 392.032 374.732 393.085 374.454 394.134C373.861 396.307 373.15 398.458 372.348 400.586C371.535 402.711 370.613 404.807 369.626 406.883C367.613 411.02 365.284 415.051 362.716 418.974C361.416 420.93 360.084 422.87 358.684 424.778C357.596 426.285 356.458 427.747 355.319 429.231C356.706 421.63 358.112 400.617 336.344 384.184C329.43 378.963 325.654 376.868 303.524 369.375C303.524 369.375 290.566 365.344 283.187 352.786C283.187 352.786 283.186 352.789 283.187 352.801C283.237 353.438 284.868 373.884 303.805 383.3C326.306 394.489 350.623 406.296 354.411 430.421C354.401 430.434 354.389 430.448 354.38 430.462L352.197 433.322C351.835 433.8 351.464 434.274 351.11 434.755L350.064 436.209L347.97 439.118C347.259 440.08 346.623 441.081 345.947 442.062L343.95 445.02L342.045 448.022C340.743 450.01 339.592 452.064 338.375 454.09C337.26 456.068 336.163 458.055 335.109 460.058C327.228 415.322 283.168 405.779 266.974 398.764C254.194 393.232 247.172 384.879 246.973 384.641C246.969 384.636 246.969 384.636 246.969 384.636C242.472 410.383 273.595 421.168 273.595 421.168C317.519 435.447 330.671 453.007 334.286 459.849C334.437 460.183 334.579 460.505 334.715 460.815C333.726 462.72 332.781 464.639 331.906 466.584C329.97 470.828 328.205 475.138 326.771 479.535C325.447 483.587 324.362 487.702 323.578 491.867C322.227 481.736 315.764 460.01 285.47 452.828C246.707 443.638 242.066 428.6 241.81 427.668C246.949 451.773 253.53 455.799 263.907 462.813C272.084 468.341 296.178 472.094 305.783 476.563C313.479 480.15 320.493 491.236 322.971 495.489C322.447 499.184 322.211 502.917 322.276 506.662C322.341 508.969 322.524 511.281 322.889 513.589C323.062 514.744 323.306 515.898 323.584 517.051C323.734 517.628 323.889 518.205 324.072 518.785C324.161 519.074 324.264 519.367 324.364 519.657C324.478 519.963 324.569 520.223 324.734 520.594C324.738 520.602 324.746 520.62 324.75 520.628C325.199 521.578 326.485 522.043 327.622 521.67C328.759 521.297 329.318 520.223 328.871 519.275L328.853 519.238C328.78 519.084 328.668 518.806 328.579 518.575C328.489 518.326 328.396 518.08 328.313 517.825C328.142 517.318 327.99 516.8 327.845 516.277C327.571 515.229 327.321 514.168 327.137 513.091C326.753 510.942 326.535 508.758 326.426 506.567C326.261 502.178 326.529 497.756 327.22 493.367C327.717 490.147 328.41 486.941 329.261 483.76C350.799 474.629 369.035 474.953 369.035 474.953C419.237 475.326 432.133 454.399 433.809 451.198L433.845 451.137C433.941 450.951 433.991 450.835 434.004 450.8C433.831 451.017 430.388 454.52 384.768 454.8C351.003 455.007 336.271 470.176 330.756 478.691C331.973 474.935 333.429 471.226 335.017 467.557C336.803 463.351 338.931 459.248 341.125 455.171Z" fill="#992A21"/>
<path opacity="0.3" d="M167.722 472.524C175.018 463.199 180.204 453.47 179.639 447.836C179.342 444.878 182.95 436.487 182.95 436.487C182.95 436.487 177.685 438.703 175.351 441.894C173.017 445.085 177.782 447.499 167.17 461.063C158.856 471.694 158.846 488.586 159.23 495.398C154.711 489.345 150.447 483.149 146.32 476.89C147.756 472.146 152.541 457.675 160.386 447.171C169.895 434.438 166.497 417.962 162.313 411.966C162.313 411.966 165.851 428.245 154.065 444.622C143.799 458.888 145.751 470.556 145.94 476.31C145.903 476.254 145.865 476.196 145.828 476.141C143.166 472.149 140.588 468.106 137.964 464.088C140.224 460.253 149.222 444.556 150.126 436.342C151.162 426.942 148.006 410.215 148.006 410.215C148.006 410.215 147.711 428.307 141.998 439.367C137.49 448.099 137.267 458.983 137.371 463.183C137.176 462.884 136.981 462.586 136.784 462.287C134.381 458.626 131.968 454.97 129.504 451.336C130.469 447.69 134.367 432.962 135.833 427.203C137.509 420.609 137.915 405.488 129.809 395.535C129.809 395.535 134.389 410.529 128.005 424.676C123.575 434.491 125.907 443.915 127.751 448.768C127.69 448.679 127.631 448.59 127.57 448.503C126.778 447.364 126.014 446.216 125.202 445.087L122.779 441.696C121.113 439.459 119.462 437.213 117.585 435.089C117.549 435.046 117.514 435.006 117.478 434.964C117.567 433.866 117.926 429.62 119.196 415.884C120.754 399.053 107.854 392.398 107.854 392.398C109.851 393.388 112.948 402.875 113.425 414.615C113.826 424.508 116.409 432.414 117.213 434.656C116.868 434.269 116.503 433.894 116.141 433.516C115.662 432.99 115.119 432.509 114.599 432.013C114.116 431.572 113.616 431.145 113.115 430.72C111.579 429.101 107.214 424.08 101.324 413.736C93.9237 400.739 77.1116 397.395 77.1116 397.395C77.1116 397.395 83.0071 399.203 93.4982 413.57C102.636 426.084 111.193 430.269 113.249 431.14C113.633 431.482 114.014 431.824 114.382 432.175C114.886 432.678 115.412 433.163 115.875 433.694C116.352 434.214 116.834 434.729 117.268 435.278C118.383 436.595 119.415 437.962 120.419 439.344C118.641 438.919 112.493 436.814 97.7746 426.461C79.692 413.739 65.6671 418.35 65.6671 418.35C68.8975 417.829 74.1608 420.703 89.8876 429.234C103.853 436.811 117.551 438.988 120.443 439.38C121.06 440.232 121.668 441.089 122.275 441.944L124.607 445.368C125.389 446.507 126.126 447.67 126.888 448.819C127.942 450.424 128.982 452.036 130.016 453.651C109.075 449.921 101.742 446.084 101.742 446.084C82.1759 434.643 62.8739 435.42 62.8739 435.42C69.4373 436.02 76.5009 440.473 93.4529 448.712C108.484 456.017 126.333 454.379 130.186 453.914C132.061 456.849 133.908 459.795 135.752 462.744C136.546 464.013 137.334 465.283 138.12 466.553C113.167 468.323 98.3951 461.2 98.3951 461.2C75.1871 448.802 57 449.708 57 449.708C74.929 453.181 69.3782 457.854 94.2684 465.835C115.794 472.738 133.804 468.166 138.277 466.806C140.324 470.122 142.357 473.444 144.455 476.75C145.583 478.554 146.724 480.355 147.878 482.15C142.022 482.166 130.469 481.244 111.313 473.451C93.2461 466.101 74.2711 472.582 69.3959 474.502C72.3998 473.635 82.103 472.527 109.67 479.332C136.973 486.072 145.725 484.152 148.341 482.864C151.997 488.526 155.797 494.13 159.833 499.623C155.287 497 147.732 493.293 140.86 492.943C130.126 492.398 121.587 490.554 116.373 488.502C111.161 486.45 96.0432 486.436 85.3079 496.07C85.3079 496.07 100.631 490.883 108.699 494.19C116.767 497.498 124.962 499.647 130.012 499.606C134.665 499.567 149.659 498.402 161.123 501.369C161.828 502.314 162.539 503.256 163.26 504.192L165.849 507.513C166.272 508.072 166.733 508.609 167.182 509.154L168.535 510.784L169.889 512.416C170.095 512.659 170.308 512.899 170.521 513.139C136.968 501.653 98.1253 504.601 98.1253 504.601C104.608 504.154 120.985 513.433 133.924 516.184C140.685 517.621 164.348 515.492 171.953 514.751L172.717 515.612L173.428 516.409L174.173 517.188L175.662 518.745L176.407 519.524L177.191 520.282L178.759 521.795C179.015 522.051 179.292 522.293 179.568 522.536L180.396 523.267L181.223 523.998C181.497 524.243 181.8 524.47 182.088 524.707L182.962 525.41C183.11 525.527 183.25 525.646 183.403 525.76L183.868 526.097L184.8 526.769C185.109 526.994 185.458 527.198 185.785 527.413C185.952 527.518 186.114 527.626 186.287 527.73L186.829 528.032C187.014 528.133 187.179 528.234 187.394 528.331C187.613 528.432 187.759 528.517 188.101 528.642L188.19 528.675C188.243 528.693 188.296 528.711 188.351 528.724C189.175 528.933 190.044 528.547 190.296 527.86C190.546 527.173 190.083 526.448 189.26 526.238C189.24 526.233 189.051 526.146 188.923 526.088C188.789 526.034 188.633 525.944 188.485 525.867L188.038 525.628C187.889 525.543 187.741 525.448 187.593 525.357C187.298 525.17 186.994 525.002 186.705 524.8L185.834 524.196L185.399 523.893C185.255 523.791 185.117 523.678 184.975 523.571L184.132 522.92C183.854 522.7 183.563 522.495 183.295 522.263L182.483 521.575L181.672 520.885C181.4 520.655 181.128 520.428 180.872 520.183L179.314 518.739L178.534 518.016L177.787 517.266L176.292 515.766L175.544 515.017L174.825 514.245L173.391 512.697C173.027 512.299 172.654 511.907 172.29 511.509C203.45 475.383 188.062 453.582 189.086 456.029C190.12 458.503 186.287 470.495 178.475 486.56C172.898 498.025 171.579 506.466 171.281 510.36L170.586 509.557L169.209 507.968C168.752 507.437 168.283 506.913 167.85 506.368L165.205 503.121C163.339 500.801 161.521 498.453 159.742 496.083C161.576 481.614 163.43 478.009 167.722 472.524Z" fill="#992A21"/>
<path opacity="0.3" d="M424.449 472.524C417.153 463.199 411.967 453.47 412.532 447.836C412.829 444.878 409.221 436.487 409.221 436.487C409.221 436.487 414.486 438.703 416.82 441.894C419.154 445.085 414.389 447.499 425.001 461.063C433.315 471.694 433.325 488.586 432.941 495.398C437.46 489.345 441.724 483.149 445.851 476.89C444.415 472.146 439.63 457.675 431.785 447.171C422.276 434.438 425.674 417.962 429.858 411.966C429.858 411.966 426.32 428.245 438.106 444.622C448.372 458.888 446.42 470.556 446.231 476.31C446.268 476.254 446.306 476.196 446.343 476.141C449.005 472.149 451.583 468.106 454.207 464.088C451.947 460.253 442.949 444.556 442.045 436.342C441.009 426.942 444.165 410.215 444.165 410.215C444.165 410.215 444.46 428.307 450.173 439.367C454.681 448.099 454.904 458.983 454.8 463.183C454.995 462.884 455.19 462.586 455.387 462.287C457.79 458.626 460.203 454.97 462.667 451.336C461.702 447.69 457.804 432.962 456.338 427.203C454.662 420.609 454.256 405.488 462.362 395.535C462.362 395.535 457.782 410.529 464.166 424.676C468.596 434.491 466.264 443.915 464.42 448.768C464.481 448.679 464.54 448.59 464.601 448.503C465.393 447.364 466.157 446.216 466.969 445.087L469.392 441.696C471.058 439.459 472.709 437.213 474.586 435.089C474.622 435.046 474.657 435.006 474.693 434.964C474.604 433.866 474.245 429.62 472.975 415.884C471.417 399.053 484.317 392.398 484.317 392.398C482.32 393.388 479.223 402.875 478.746 414.615C478.345 424.508 475.762 432.414 474.958 434.656C475.303 434.269 475.668 433.894 476.03 433.516C476.509 432.99 477.052 432.509 477.572 432.013C478.055 431.572 478.555 431.145 479.056 430.72C480.592 429.101 484.957 424.08 490.847 413.736C498.247 400.739 515.059 397.395 515.059 397.395C515.059 397.395 509.164 399.203 498.673 413.57C489.535 426.084 480.978 430.269 478.922 431.14C478.538 431.482 478.157 431.824 477.789 432.175C477.285 432.678 476.759 433.163 476.296 433.694C475.819 434.214 475.337 434.729 474.903 435.278C473.788 436.595 472.756 437.962 471.752 439.344C473.53 438.919 479.678 436.814 494.396 426.461C512.479 413.739 526.504 418.35 526.504 418.35C523.274 417.829 518.008 420.703 502.283 429.234C488.318 436.811 474.62 438.988 471.728 439.38C471.109 440.232 470.503 441.089 469.896 441.944L467.564 445.368C466.782 446.507 466.045 447.67 465.283 448.819C464.229 450.424 463.189 452.036 462.155 453.651C483.096 449.921 490.429 446.084 490.429 446.084C509.995 434.643 529.297 435.42 529.297 435.42C522.734 436.02 515.67 440.473 498.718 448.712C483.687 456.017 465.838 454.379 461.985 453.914C460.11 456.849 458.263 459.795 456.419 462.744C455.625 464.013 454.837 465.283 454.051 466.553C479.004 468.323 493.776 461.2 493.776 461.2C516.984 448.802 535.171 449.708 535.171 449.708C517.242 453.181 522.793 457.854 497.903 465.835C476.377 472.738 458.367 468.166 453.894 466.806C451.847 470.122 449.814 473.444 447.716 476.75C446.588 478.554 445.447 480.355 444.293 482.15C450.149 482.166 461.702 481.244 480.858 473.451C498.925 466.101 517.9 472.582 522.775 474.502C519.771 473.635 510.068 472.527 482.501 479.332C455.198 486.072 446.446 484.152 443.83 482.864C440.174 488.526 436.374 494.13 432.338 499.623C436.884 497 444.439 493.293 451.311 492.943C462.045 492.398 470.584 490.554 475.798 488.502C481.01 486.45 496.128 486.436 506.863 496.07C506.863 496.07 491.54 490.883 483.472 494.19C475.404 497.498 467.209 499.647 462.159 499.606C457.506 499.567 442.512 498.402 431.048 501.369C430.343 502.314 429.632 503.256 428.911 504.192L426.322 507.513C425.899 508.072 425.438 508.609 424.989 509.154L423.636 510.784L422.282 512.416C422.076 512.659 421.863 512.899 421.65 513.139C455.203 501.653 494.046 504.601 494.046 504.601C487.563 504.154 471.186 513.433 458.247 516.184C451.486 517.621 427.823 515.492 420.218 514.751L419.454 515.612L418.743 516.409L417.998 517.188L416.509 518.745L415.764 519.524L414.98 520.282L413.412 521.795C413.156 522.051 412.879 522.293 412.603 522.536L411.776 523.267L410.948 523.998C410.674 524.243 410.371 524.47 410.083 524.707L409.209 525.41C409.061 525.527 408.921 525.646 408.768 525.76L408.303 526.097L407.371 526.769C407.062 526.994 406.713 527.198 406.386 527.413C406.219 527.518 406.057 527.626 405.884 527.73L405.342 528.032C405.157 528.133 404.992 528.234 404.777 528.331C404.558 528.432 404.412 528.517 404.07 528.642L403.981 528.675C403.928 528.693 403.875 528.711 403.819 528.724C402.996 528.933 402.127 528.547 401.875 527.86C401.625 527.173 402.088 526.448 402.911 526.238C402.929 526.233 403.12 526.146 403.248 526.088C403.382 526.034 403.538 525.944 403.686 525.867L404.133 525.628C404.282 525.543 404.43 525.448 404.578 525.357C404.873 525.17 405.177 525.002 405.466 524.8L406.337 524.196L406.774 523.893C406.918 523.791 407.056 523.678 407.198 523.571L408.041 522.92C408.319 522.7 408.61 522.495 408.878 522.263L409.689 521.575L410.501 520.885C410.773 520.655 411.045 520.428 411.301 520.183L412.859 518.739L413.639 518.016L414.385 517.266L415.881 515.766L416.629 515.017L417.348 514.245L418.782 512.697C419.146 512.299 419.519 511.907 419.883 511.509C388.723 475.383 404.111 453.582 403.087 456.029C402.053 458.503 405.886 470.495 413.698 486.56C419.274 498.025 420.594 506.466 420.892 510.36L421.587 509.557L422.964 507.968C423.421 507.437 423.89 506.913 424.323 506.368L426.968 503.121C428.834 500.801 430.652 498.453 432.431 496.083C430.595 481.614 428.741 478.009 424.449 472.524Z" fill="#992A21"/>
<g clip-path="url(#clip0_312_391)">
<path d="M337.556 543C383.38 543 420.528 537.056 420.528 529.723C420.528 522.391 383.38 516.447 337.556 516.447C291.731 516.447 254.583 522.391 254.583 529.723C254.583 537.056 291.731 543 337.556 543Z" fill="#FC7A57"/>
<path d="M322.114 539.131C264.602 539.131 219.55 531.765 219.55 522.363C219.55 512.96 264.602 505.595 322.114 505.595C379.626 505.595 424.677 512.96 424.677 522.363C424.677 531.765 379.626 539.131 322.114 539.131ZM322.114 506.455C267.018 506.455 220.472 513.74 220.472 522.363C220.472 530.986 267.018 538.271 322.114 538.271C377.209 538.271 423.755 530.986 423.755 522.363C423.755 513.74 377.209 506.455 322.114 506.455V506.455Z" fill="#FC7A57"/>
<path d="M441 394.7C441.006 403.295 440.101 411.87 438.299 420.299C438.022 421.597 437.723 422.89 437.4 424.177C437.211 424.951 437.013 425.722 436.805 426.49C436.672 426.989 436.533 427.487 436.39 427.986C431.261 446.028 422.043 462.834 409.358 477.272C396.673 491.709 380.817 503.442 362.858 511.678C356.965 514.385 350.871 516.694 344.623 518.587C343.673 518.875 342.719 519.155 341.76 519.426H341.756C328.645 523.115 315.024 524.984 301.33 524.972C299.366 524.972 297.43 524.93 295.522 524.847C290.356 524.637 285.21 524.104 280.121 523.252C217.573 512.71 186.933 455.261 161.659 394.7C161.032 393.2 160.416 391.709 159.811 390.229C159.663 389.863 159.516 389.498 159.368 389.132C92.1419 223.33 165.047 181.372 301.33 264.428C365.905 303.781 441 322.754 441 394.7Z" fill="#FC7A57"/>
<path d="M344.461 472.497L343.822 471.877C343.923 471.787 353.897 462.675 357.696 445.648C361.204 429.922 360.013 404.029 334.412 369.981C314.778 343.868 306.833 321.054 310.797 302.172C314.279 285.584 326.123 278.297 326.243 278.225L326.742 278.948C326.626 279.018 315.093 286.133 311.696 302.364C307.795 321.003 315.692 343.586 335.167 369.487C346.556 384.635 354.138 399.468 357.702 413.576C360.558 424.882 360.855 435.75 358.586 445.878C354.716 463.145 344.563 472.405 344.461 472.497Z" fill="#FC7A57"/>
<path d="M171.906 371.702C167.428 377.614 163.387 383.804 159.811 390.229C159.663 389.863 159.516 389.498 159.368 389.132C162.878 382.927 166.814 376.94 171.15 371.208C190.626 345.304 198.522 322.724 194.622 304.086C191.225 287.851 179.692 280.736 179.577 280.667L180.074 279.945C180.194 280.018 192.041 287.305 195.521 303.892C199.485 322.775 191.538 345.588 171.906 371.702Z" fill="#FC7A57"/>
<path d="M246.723 512.482L246.084 511.862C246.211 511.749 258.786 500.264 263.578 478.801C268.004 458.982 266.509 426.352 234.254 383.454C220.777 365.53 211.587 348.595 206.938 333.12C203.139 320.476 202.335 308.721 204.547 298.183C208.921 277.349 223.788 268.202 223.938 268.112L224.437 268.835C224.291 268.923 209.734 277.898 205.446 298.375C200.526 321.869 210.473 350.328 235.009 382.96C249.337 402.016 258.874 420.675 263.357 438.42C266.947 452.635 267.322 466.299 264.468 479.031C259.605 500.733 246.851 512.367 246.723 512.482Z" fill="white"/>
<path d="M215.685 316.567C235.393 316.567 251.37 301.665 251.37 283.284C251.37 264.902 235.393 250 215.685 250C195.977 250 180 264.902 180 283.284C180 301.665 195.977 316.567 215.685 316.567Z" fill="white"/>
<path d="M224.187 313.823C214.571 313.823 205.171 311.163 197.175 306.18C189.179 301.197 182.948 294.114 179.268 285.828C175.587 277.542 174.625 268.423 176.501 259.626C178.377 250.83 183.007 242.749 189.807 236.407C196.607 230.065 205.27 225.746 214.702 223.996C224.133 222.246 233.909 223.144 242.794 226.576C251.678 230.009 259.272 235.821 264.614 243.279C269.957 250.736 272.808 259.504 272.808 268.473C272.794 280.497 267.666 292.023 258.551 300.525C249.436 309.027 237.078 313.809 224.187 313.823V313.823ZM224.187 223.984C214.753 223.984 205.531 226.594 197.687 231.482C189.843 236.371 183.729 243.319 180.119 251.448C176.509 259.578 175.564 268.523 177.405 277.153C179.245 285.783 183.788 293.71 190.459 299.932C197.13 306.154 205.629 310.391 214.882 312.108C224.134 313.825 233.725 312.944 242.441 309.576C251.157 306.209 258.606 300.507 263.848 293.19C269.089 285.874 271.886 277.273 271.886 268.473C271.872 256.678 266.842 245.37 257.9 237.03C248.958 228.689 236.834 223.998 224.187 223.984V223.984Z" fill="white"/>
<path d="M251.458 385.913C267.802 385.913 281.051 373.555 281.051 358.312C281.051 343.068 267.802 330.711 251.458 330.711C235.115 330.711 221.866 343.068 221.866 358.312C221.866 373.555 235.115 385.913 251.458 385.913Z" fill="white"/>
<path d="M236.372 481.704C252.715 481.704 265.964 469.347 265.964 454.103C265.964 438.86 252.715 426.502 236.372 426.502C220.029 426.502 206.78 438.86 206.78 454.103C206.78 469.347 220.029 481.704 236.372 481.704Z" fill="white"/>
<path d="M437.08 426.904C436.771 425.417 436.453 423.949 436.126 422.502C436.125 422.502 436.125 422.502 436.124 422.501C436.123 422.501 436.123 422.501 436.122 422.501C436.122 422.5 436.122 422.5 436.121 422.499C436.121 422.499 436.121 422.498 436.121 422.498C431.982 404.178 426.404 389.156 419.799 376.902L402.296 371.287L415.489 369.529C410.155 361.089 404.278 354.176 398.032 348.565L365.885 351.992L390.15 342.292C345.557 311.005 287.093 336.135 271.162 344.033C268.978 345.113 267.595 345.874 267.152 346.119C267.148 346.119 267.148 346.119 267.143 346.123C267.046 346.179 267 346.205 267 346.205L276.044 350.586H276.049L436.665 428.401L437.08 426.904Z" fill="#B45656"/>
<path d="M436.89 426.021C437.098 425.251 437.296 424.48 437.485 423.708C437.015 423.067 436.499 422.366 435.936 421.618C435.936 421.618 435.935 421.618 435.935 421.618C435.934 421.618 435.933 421.617 435.933 421.617C435.933 421.616 435.932 421.616 435.932 421.615C435.932 421.615 435.932 421.614 435.932 421.614C417.41 396.914 349.52 316.205 271.319 343.601H271.314C269.867 344.108 268.416 344.653 266.963 345.235C266.958 345.235 266.958 345.235 266.953 345.239C265.631 345.768 264.306 346.33 262.98 346.925C262.307 347.221 261.639 347.531 260.966 347.845C260.38 348.12 259.799 348.399 259.214 348.687C259.214 348.687 255.886 349.465 252.157 352.398C244.832 358.167 235.954 372.265 247.718 405.181C247.718 405.181 258.163 432.453 252.94 445.119C247.718 457.776 280.1 472.385 289.49 445.119C298.889 417.843 302.028 391.544 302.028 391.544C302.028 391.544 312.833 412.778 311.768 434.073C311.33 442.801 312.164 451.538 314.686 459.943C314.944 460.824 315.225 461.706 315.506 462.6C318.904 473.241 324.205 486.93 332.013 500.168C335.692 506.476 339.939 512.481 344.708 518.118C350.956 516.225 357.05 513.916 362.944 511.209C380.902 502.972 396.758 491.24 409.443 476.803C422.128 462.365 431.346 445.559 436.476 427.517L436.89 426.021Z" fill="#753939"/>
<path d="M262.257 358.897L258.08 326.754L275.833 350.131L262.257 358.897Z" fill="#56403D"/>
<path d="M253.155 361.212L248.978 329.07L266.731 352.446L253.155 361.212Z" fill="#56403D"/>
<path d="M244.062 391.164L199.458 337.088L244.632 374.923L244.062 391.164Z" fill="#B45656"/>
<path d="M341.894 256.259C345.713 256.259 348.808 253.372 348.808 249.81C348.808 246.248 345.713 243.361 341.894 243.361C338.075 243.361 334.979 246.248 334.979 249.81C334.979 253.372 338.075 256.259 341.894 256.259Z" fill="#FC7A57"/>
</g>
<defs>
<clipPath id="clip0_312_391">
<rect width="307" height="320" fill="white" transform="translate(134 223)"/>
</clipPath>
</defs>
</svg>
