<svg width="588" height="682" viewBox="0 0 588 682" fill="none" xmlns="http://www.w3.org/2000/svg">
<path d="M588 0H0V682H588V0Z" fill="#505AB4"/>
<path d="M87.7406 0C73.1339 13.9574 65.7226 31.0825 62.4961 48.0019C52.9357 98.1314 25.2686 126.209 0 141.753V0H87.7406Z" fill="#9EAAFF"/>
<path d="M588 0V92.7653C575.186 83.2624 559.864 75.0791 541.592 69.481C489.014 53.3712 468.069 22.8499 459.757 0H588Z" fill="#9EAAFF"/>
<path d="M588 510.718V681.998H0C0 608.874 0 535.748 0 462.624C18.3523 469.145 40.7815 480.45 54.1824 500.996C82.7706 544.825 47.2159 595.35 70.2926 610.393C87.5415 621.639 108.694 594.583 154.52 592.36C226.605 588.861 259.599 655.005 310.562 640.972C335.9 633.995 329.084 617.278 361.985 600.984C408.704 577.848 444.354 600.709 493.202 588.438C518.655 582.045 554.224 564.471 588 510.718Z" fill="#9EAAFF"/>
<path d="M118.668 303.038C117.805 303.038 117.062 302.462 116.967 301.686C115.907 292.921 107.58 286.311 97.5972 286.311C94.5494 286.311 91.6336 286.915 88.9281 288.107C88.0815 288.479 87.0544 288.174 86.632 287.427C86.2115 286.678 86.5557 285.77 87.4005 285.396C90.5842 283.994 94.0135 283.284 97.5954 283.284C103.284 283.284 108.737 285.14 112.954 288.511C117.139 291.858 119.772 296.421 120.371 301.363C120.471 302.194 119.79 302.941 118.85 303.03C118.789 303.037 118.728 303.038 118.668 303.038Z" fill="#9EAAFF"/>
<path d="M483.031 575.098C482.168 575.098 481.426 574.522 481.331 573.745C480.27 564.981 471.943 558.371 461.961 558.371C458.913 558.371 455.997 558.975 453.291 560.166C452.445 560.54 451.418 560.234 450.995 559.485C450.575 558.736 450.919 557.828 451.766 557.454C454.949 556.052 458.379 555.342 461.961 555.342C467.649 555.342 473.104 557.198 477.319 560.569C481.504 563.916 484.137 568.479 484.734 573.421C484.835 574.252 484.153 574.999 483.214 575.088C483.152 575.095 483.091 575.098 483.031 575.098Z" fill="#9EAAFF"/>
<path d="M518.032 368.822C516.348 368.822 514.662 368.654 512.98 368.32C507.429 367.216 502.569 364.346 499.292 360.239C496.04 356.161 494.603 351.198 495.247 346.262C495.355 345.431 496.207 344.836 497.143 344.93C498.083 345.026 498.756 345.778 498.649 346.607C497.508 355.363 503.992 363.428 513.731 365.366C516.705 365.959 519.701 365.934 522.635 365.297C523.552 365.098 524.481 365.595 524.706 366.406C524.931 367.217 524.369 368.039 523.452 368.238C521.658 368.628 519.848 368.822 518.032 368.822Z" fill="#9EAAFF"/>
<path d="M120.346 46.0223C120.037 46.0223 119.727 45.9483 119.446 45.7953C116.424 44.1366 113.938 41.9299 112.055 39.2362C109.065 34.9561 107.984 29.8763 109.013 24.9332C110.032 20.0262 113.039 15.6458 117.477 12.5999C118.223 12.0881 119.299 12.2066 119.879 12.8681C120.46 13.528 120.324 14.4791 119.576 14.9925C111.701 20.3964 109.722 30.1347 114.967 37.6466C116.569 39.9388 118.683 41.8164 121.251 43.2249C122.054 43.6659 122.3 44.599 121.803 45.3098C121.478 45.7689 120.918 46.0223 120.346 46.0223Z" fill="#9EAAFF"/>
<path d="M452.465 70.99C450.051 70.99 447.636 70.651 445.306 69.9714C444.409 69.7098 443.922 68.8524 444.218 68.0593C444.514 67.2662 445.483 66.835 446.38 67.0967C455.844 69.8628 466.089 65.8856 470.212 57.8455C471.47 55.392 472.054 52.7921 471.945 50.123C471.911 49.2871 472.648 48.5861 473.593 48.5548C474.537 48.5252 475.331 49.1768 475.366 50.0127C475.495 53.1557 474.81 56.2115 473.331 59.0961C470.981 63.6772 466.816 67.304 461.603 69.3066C458.689 70.4272 455.579 70.99 452.465 70.99Z" fill="#9EAAFF"/>
<path d="M294.605 611.008C293.825 611.008 293.04 610.974 292.251 610.903C286.591 610.398 281.375 608.066 277.565 604.337C273.782 600.637 271.679 595.861 271.646 590.892C271.64 590.056 272.401 589.374 273.348 589.37C273.352 589.37 273.356 589.37 273.359 589.37C274.301 589.37 275.066 590.041 275.071 590.875C275.131 599.689 282.665 607.005 292.597 607.892C295.63 608.162 298.6 607.821 301.426 606.876C302.31 606.58 303.298 606.975 303.633 607.757C303.968 608.538 303.522 609.412 302.638 609.708C300.044 610.572 297.351 611.008 294.605 611.008Z" fill="#9EAAFF"/>
<path d="M431.777 273.69C431.174 273.69 430.57 273.564 430.011 273.307C428.741 272.723 427.952 271.572 427.952 270.305V244.726C427.952 243.458 428.741 242.308 430.011 241.724C431.282 241.14 432.801 241.229 433.973 241.956L454.59 254.747C455.61 255.379 456.218 256.414 456.218 257.516C456.218 258.617 455.61 259.652 454.59 260.286L433.973 273.077C433.314 273.483 432.548 273.69 431.777 273.69ZM431.779 244.368C431.707 244.368 431.641 244.388 431.591 244.411C431.493 244.457 431.375 244.548 431.375 244.726V270.305C431.375 270.483 431.493 270.575 431.591 270.62C431.69 270.664 431.842 270.697 432.006 270.595L452.623 257.804C452.764 257.717 452.794 257.599 452.794 257.515C452.794 257.431 452.764 257.312 452.623 257.225L432.006 244.434C431.926 244.387 431.848 244.368 431.779 244.368Z" fill="#9EAAFF"/>
<path d="M23.6718 214.281C23.2792 214.281 22.8829 214.227 22.4996 214.119C21.3143 213.781 20.3876 212.95 20.0192 211.899L12.5838 190.62C12.1614 189.411 12.5317 188.106 13.5495 187.216C14.5692 186.325 16.0484 186.014 17.4123 186.403L44.9399 194.255C46.3038 194.644 47.2974 195.662 47.5375 196.91C47.7756 198.159 47.2156 199.409 46.0712 200.173L25.9773 213.599C25.3074 214.046 24.4943 214.281 23.6718 214.281ZM16.2289 189.263C16.1061 189.263 16.0168 189.315 15.9573 189.368C15.8772 189.437 15.7972 189.556 15.8568 189.725L23.2922 211.004C23.3425 211.148 23.4616 211.211 23.5527 211.236C23.6439 211.262 23.7797 211.273 23.9174 211.181L44.0114 197.755C44.1714 197.648 44.1844 197.51 44.1658 197.413C44.1472 197.316 44.0858 197.189 43.8942 197.135L16.3666 189.282C16.3127 189.269 16.2699 189.263 16.2289 189.263Z" fill="#9EAAFF"/>
<path d="M513.148 215.792C514.977 215.121 515.846 213.266 515.089 211.649C514.332 210.031 512.236 209.263 510.408 209.934C508.579 210.605 507.711 212.459 508.467 214.077C509.224 215.695 511.32 216.462 513.148 215.792Z" fill="#9EAAFF"/>
<path d="M511.762 230.559C513.742 230.559 515.346 229.14 515.346 227.39C515.346 225.639 513.742 224.22 511.762 224.22C509.783 224.22 508.179 225.639 508.179 227.39C508.179 229.14 509.783 230.559 511.762 230.559Z" fill="#9EAAFF"/>
<path d="M511.762 245.082C513.742 245.082 515.346 243.663 515.346 241.913C515.346 240.163 513.742 238.744 511.762 238.744C509.783 238.744 508.179 240.163 508.179 241.913C508.179 243.663 509.783 245.082 511.762 245.082Z" fill="#9EAAFF"/>
<path d="M511.762 259.606C513.742 259.606 515.346 258.187 515.346 256.437C515.346 254.686 513.742 253.267 511.762 253.267C509.783 253.267 508.179 254.686 508.179 256.437C508.179 258.187 509.783 259.606 511.762 259.606Z" fill="#9EAAFF"/>
<path d="M511.762 274.129C513.742 274.129 515.346 272.71 515.346 270.96C515.346 269.21 513.742 267.791 511.762 267.791C509.783 267.791 508.179 269.21 508.179 270.96C508.179 272.71 509.783 274.129 511.762 274.129Z" fill="#9EAAFF"/>
<path d="M511.762 288.653C513.742 288.653 515.346 287.234 515.346 285.483C515.346 283.733 513.742 282.314 511.762 282.314C509.783 282.314 508.179 283.733 508.179 285.483C508.179 287.234 509.783 288.653 511.762 288.653Z" fill="#9EAAFF"/>
<path d="M532.301 213.635C532.756 211.932 531.563 210.224 529.636 209.822C527.71 209.419 525.78 210.474 525.326 212.177C524.872 213.881 526.065 215.588 527.991 215.991C529.917 216.394 531.847 215.339 532.301 213.635Z" fill="#9EAAFF"/>
<path d="M528.801 230.559C530.78 230.559 532.384 229.14 532.384 227.39C532.384 225.639 530.78 224.22 528.801 224.22C526.821 224.22 525.217 225.639 525.217 227.39C525.217 229.14 526.821 230.559 528.801 230.559Z" fill="#9EAAFF"/>
<path d="M528.801 245.082C530.78 245.082 532.384 243.663 532.384 241.913C532.384 240.163 530.78 238.744 528.801 238.744C526.821 238.744 525.217 240.163 525.217 241.913C525.217 243.663 526.821 245.082 528.801 245.082Z" fill="#9EAAFF"/>
<path d="M528.801 259.606C530.78 259.606 532.384 258.187 532.384 256.436C532.384 254.686 530.78 253.267 528.801 253.267C526.821 253.267 525.217 254.686 525.217 256.436C525.217 258.187 526.821 259.606 528.801 259.606Z" fill="#9EAAFF"/>
<path d="M528.801 274.129C530.78 274.129 532.384 272.71 532.384 270.96C532.384 269.21 530.78 267.791 528.801 267.791C526.821 267.791 525.217 269.21 525.217 270.96C525.217 272.71 526.821 274.129 528.801 274.129Z" fill="#9EAAFF"/>
<path d="M528.801 288.653C530.78 288.653 532.384 287.234 532.384 285.483C532.384 283.733 530.78 282.314 528.801 282.314C526.821 282.314 525.217 283.733 525.217 285.483C525.217 287.234 526.821 288.653 528.801 288.653Z" fill="#9EAAFF"/>
<path d="M547.228 215.791C549.057 215.12 549.925 213.266 549.169 211.648C548.412 210.03 546.316 209.263 544.487 209.933C542.659 210.604 541.79 212.459 542.547 214.076C543.304 215.694 545.4 216.462 547.228 215.791Z" fill="#9EAAFF"/>
<path d="M545.842 230.559C547.821 230.559 549.425 229.14 549.425 227.39C549.425 225.639 547.821 224.22 545.842 224.22C543.862 224.22 542.258 225.639 542.258 227.39C542.258 229.14 543.862 230.559 545.842 230.559Z" fill="#9EAAFF"/>
<path d="M545.842 245.082C547.821 245.082 549.425 243.663 549.425 241.913C549.425 240.163 547.821 238.744 545.842 238.744C543.862 238.744 542.258 240.163 542.258 241.913C542.258 243.663 543.862 245.082 545.842 245.082Z" fill="#9EAAFF"/>
<path d="M545.842 259.606C547.821 259.606 549.425 258.187 549.425 256.436C549.425 254.686 547.821 253.267 545.842 253.267C543.862 253.267 542.258 254.686 542.258 256.436C542.258 258.187 543.862 259.606 545.842 259.606Z" fill="#9EAAFF"/>
<path d="M545.842 274.129C547.821 274.129 549.425 272.71 549.425 270.96C549.425 269.21 547.821 267.791 545.842 267.791C543.862 267.791 542.258 269.21 542.258 270.96C542.258 272.71 543.862 274.129 545.842 274.129Z" fill="#9EAAFF"/>
<path d="M545.842 288.653C547.821 288.653 549.425 287.234 549.425 285.483C549.425 283.733 547.821 282.314 545.842 282.314C543.862 282.314 542.258 283.733 542.258 285.483C542.258 287.234 543.862 288.653 545.842 288.653Z" fill="#9EAAFF"/>
<path d="M564.267 215.791C566.095 215.121 566.964 213.266 566.207 211.648C565.45 210.03 563.354 209.263 561.526 209.933C559.698 210.604 558.829 212.459 559.586 214.076C560.342 215.694 562.438 216.462 564.267 215.791Z" fill="#9EAAFF"/>
<path d="M562.88 230.559C564.859 230.559 566.464 229.14 566.464 227.39C566.464 225.639 564.859 224.22 562.88 224.22C560.9 224.22 559.296 225.639 559.296 227.39C559.296 229.14 560.9 230.559 562.88 230.559Z" fill="#9EAAFF"/>
<path d="M562.88 245.082C564.859 245.082 566.464 243.664 566.464 241.913C566.464 240.163 564.859 238.744 562.88 238.744C560.9 238.744 559.296 240.163 559.296 241.913C559.296 243.664 560.9 245.082 562.88 245.082Z" fill="#9EAAFF"/>
<path d="M562.88 259.606C564.859 259.606 566.464 258.187 566.464 256.437C566.464 254.686 564.859 253.267 562.88 253.267C560.9 253.267 559.296 254.686 559.296 256.437C559.296 258.187 560.9 259.606 562.88 259.606Z" fill="#9EAAFF"/>
<path d="M562.88 274.13C564.859 274.13 566.464 272.711 566.464 270.96C566.464 269.21 564.859 267.791 562.88 267.791C560.9 267.791 559.296 269.21 559.296 270.96C559.296 272.711 560.9 274.13 562.88 274.13Z" fill="#9EAAFF"/>
<path d="M562.88 288.653C564.859 288.653 566.464 287.234 566.464 285.484C566.464 283.733 564.859 282.314 562.88 282.314C560.9 282.314 559.296 283.733 559.296 285.484C559.296 287.234 560.9 288.653 562.88 288.653Z" fill="#9EAAFF"/>
<path d="M583.422 213.638C583.876 211.934 582.683 210.226 580.757 209.824C578.831 209.421 576.901 210.476 576.447 212.179C575.992 213.883 577.185 215.59 579.112 215.993C581.038 216.396 582.968 215.341 583.422 213.638Z" fill="#9EAAFF"/>
<path d="M579.919 230.559C581.899 230.559 583.503 229.14 583.503 227.39C583.503 225.639 581.899 224.22 579.919 224.22C577.94 224.22 576.335 225.639 576.335 227.39C576.335 229.14 577.94 230.559 579.919 230.559Z" fill="#9EAAFF"/>
<path d="M579.919 245.082C581.899 245.082 583.503 243.664 583.503 241.913C583.503 240.163 581.899 238.744 579.919 238.744C577.94 238.744 576.335 240.163 576.335 241.913C576.335 243.664 577.94 245.082 579.919 245.082Z" fill="#9EAAFF"/>
<path d="M579.919 259.606C581.899 259.606 583.503 258.187 583.503 256.437C583.503 254.686 581.899 253.267 579.919 253.267C577.94 253.267 576.335 254.686 576.335 256.437C576.335 258.187 577.94 259.606 579.919 259.606Z" fill="#9EAAFF"/>
<path d="M579.919 274.129C581.899 274.129 583.503 272.71 583.503 270.96C583.503 269.21 581.899 267.791 579.919 267.791C577.94 267.791 576.335 269.21 576.335 270.96C576.335 272.71 577.94 274.129 579.919 274.129Z" fill="#9EAAFF"/>
<path d="M579.919 288.653C581.899 288.653 583.503 287.234 583.503 285.483C583.503 283.733 581.899 282.314 579.919 282.314C577.94 282.314 576.335 283.733 576.335 285.483C576.335 287.234 577.94 288.653 579.919 288.653Z" fill="#9EAAFF"/>
<path d="M9.40992 347.338C11.3892 347.338 12.9937 345.919 12.9937 344.168C12.9937 342.418 11.3892 340.999 9.40992 340.999C7.43067 340.999 5.82617 342.418 5.82617 344.168C5.82617 345.919 7.43067 347.338 9.40992 347.338Z" fill="#9EAAFF"/>
<path d="M12.957 359.206C13.2741 357.479 11.9474 355.851 9.99359 355.57C8.03985 355.29 6.19894 356.463 5.8818 358.191C5.56467 359.919 6.8914 361.547 8.84514 361.827C10.7989 362.107 12.6398 360.934 12.957 359.206Z" fill="#9EAAFF"/>
<path d="M12.957 373.73C13.2741 372.002 11.9474 370.374 9.99358 370.094C8.03984 369.814 6.19894 370.987 5.8818 372.715C5.56467 374.442 6.8914 376.07 8.84514 376.351C10.7989 376.631 12.6398 375.458 12.957 373.73Z" fill="#9EAAFF"/>
<path d="M12.957 388.254C13.2741 386.526 11.9474 384.898 9.99359 384.618C8.03985 384.337 6.19894 385.511 5.8818 387.238C5.56467 388.966 6.8914 390.594 8.84514 390.875C10.7989 391.155 12.6398 389.982 12.957 388.254Z" fill="#9EAAFF"/>
<path d="M10.7897 405.199C12.6182 404.529 13.4869 402.674 12.7301 401.056C11.9733 399.439 9.8776 398.671 8.04916 399.341C6.22072 400.012 5.35198 401.867 6.10876 403.484C6.86554 405.102 8.96128 405.87 10.7897 405.199Z" fill="#9EAAFF"/>
<path d="M10.7902 419.723C12.6187 419.053 13.4874 417.198 12.7306 415.58C11.9738 413.963 9.87809 413.195 8.04965 413.865C6.22121 414.536 5.35247 416.391 6.10925 418.008C6.86603 419.626 8.96177 420.394 10.7902 419.723Z" fill="#9EAAFF"/>
<path d="M26.4505 347.338C28.4297 347.338 30.0342 345.919 30.0342 344.168C30.0342 342.418 28.4297 340.999 26.4505 340.999C24.4712 340.999 22.8667 342.418 22.8667 344.168C22.8667 345.919 24.4712 347.338 26.4505 347.338Z" fill="#9EAAFF"/>
<path d="M29.996 359.205C30.3132 357.477 28.9864 355.849 27.0327 355.569C25.079 355.289 23.238 356.462 22.9209 358.19C22.6038 359.917 23.9305 361.545 25.8842 361.826C27.838 362.106 29.6789 360.933 29.996 359.205Z" fill="#9EAAFF"/>
<path d="M29.9964 373.729C30.3135 372.001 28.9868 370.373 27.0331 370.093C25.0793 369.812 23.2384 370.986 22.9213 372.713C22.6042 374.441 23.9309 376.069 25.8846 376.35C27.8384 376.63 29.6793 375.457 29.9964 373.729Z" fill="#9EAAFF"/>
<path d="M29.9964 388.253C30.3135 386.525 28.9868 384.897 27.0331 384.616C25.0793 384.336 23.2384 385.509 22.9213 387.237C22.6042 388.965 23.9309 390.593 25.8846 390.873C27.8384 391.154 29.6793 389.98 29.9964 388.253Z" fill="#9EAAFF"/>
<path d="M27.8303 405.199C29.6587 404.528 30.5274 402.673 29.7707 401.055C29.0139 399.438 26.9181 398.67 25.0897 399.341C23.2613 400.011 22.3925 401.866 23.1493 403.484C23.9061 405.101 26.0018 405.869 27.8303 405.199Z" fill="#9EAAFF"/>
<path d="M27.8303 419.722C29.6587 419.052 30.5275 417.197 29.7707 415.579C29.0139 413.962 26.9181 413.194 25.0897 413.865C23.2613 414.535 22.3925 416.39 23.1493 418.008C23.9061 419.625 26.0018 420.393 27.8303 419.722Z" fill="#9EAAFF"/>
<path d="M43.489 347.338C45.4683 347.338 47.0728 345.919 47.0728 344.168C47.0728 342.418 45.4683 340.999 43.489 340.999C41.5098 340.999 39.9053 342.418 39.9053 344.168C39.9053 345.919 41.5098 347.338 43.489 347.338Z" fill="#9EAAFF"/>
<path d="M46.9619 359.444C47.4173 357.74 46.2249 356.034 44.2986 355.632C42.3723 355.231 40.4415 356.286 39.9861 357.989C39.5307 359.692 40.7231 361.399 42.6494 361.8C44.5757 362.202 46.5065 361.147 46.9619 359.444Z" fill="#9EAAFF"/>
<path d="M46.959 373.969C47.4139 372.266 46.2212 370.559 44.295 370.157C42.3687 369.755 40.4384 370.81 39.9835 372.513C39.5286 374.216 40.7213 375.923 42.6475 376.326C44.5738 376.728 46.5041 375.673 46.959 373.969Z" fill="#9EAAFF"/>
<path d="M46.9585 388.493C47.4135 386.79 46.2207 385.083 44.2945 384.681C42.3682 384.279 40.4379 385.334 39.983 387.037C39.5281 388.74 40.7208 390.447 42.6471 390.85C44.5733 391.252 46.5036 390.197 46.9585 388.493Z" fill="#9EAAFF"/>
<path d="M46.0161 404.502C47.415 403.264 47.415 401.256 46.0161 400.017C44.6172 398.779 42.349 398.779 40.9501 400.017C39.5512 401.256 39.5512 403.264 40.9501 404.502C42.349 405.741 44.6172 405.741 46.0161 404.502Z" fill="#9EAAFF"/>
<path d="M46.0161 419.026C47.415 417.787 47.415 415.779 46.0161 414.54C44.6172 413.302 42.349 413.302 40.9501 414.54C39.5512 415.779 39.5512 417.787 40.9501 419.026C42.349 420.264 44.6172 420.264 46.0161 419.026Z" fill="#9EAAFF"/>
<path d="M559.607 656.361H28.3921V25.6375H559.605V656.361H559.607ZM31.3692 653.728H556.628V28.2703H31.3692V653.728Z" fill="white"/>
<path d="M114.589 583.337C120.484 583.337 125.262 579.111 125.262 573.898C125.262 568.685 120.484 564.459 114.589 564.459C108.695 564.459 103.916 568.685 103.916 573.898C103.916 579.111 108.695 583.337 114.589 583.337Z" fill="#7683FC"/>
<path d="M207.542 62.9138C210.438 60.3524 210.438 56.1994 207.542 53.6379C204.645 51.0765 199.949 51.0765 197.053 53.6379C194.157 56.1994 194.157 60.3524 197.053 62.9138C199.949 65.4753 204.645 65.4753 207.542 62.9138Z" fill="#7683FC"/>
<path d="M539.988 475.185C540.644 471.609 537.898 468.24 533.855 467.66C529.811 467.08 526.002 469.508 525.345 473.084C524.689 476.659 527.435 480.029 531.478 480.609C535.522 481.189 539.332 478.761 539.988 475.185Z" fill="#7683FC"/>
<path d="M273.368 352.62C277.464 352.62 280.785 349.683 280.785 346.06C280.785 342.438 277.464 339.501 273.368 339.501C269.272 339.501 265.951 342.438 265.951 346.06C265.951 349.683 269.272 352.62 273.368 352.62Z" fill="#7683FC"/>
<path d="M264.937 217.328C264.937 217.328 387.237 240.135 433.683 153.662C480.128 67.1892 360.366 59.0784 324.108 66.4553C287.85 73.8322 173.505 85.894 168.701 144.403C163.898 202.91 264.937 217.328 264.937 217.328Z" fill="#7683FC"/>
<path d="M306.515 217.294C254.197 230.07 198.751 219.315 163.122 200.377C156.581 196.901 97.5795 165.47 103.404 134.432C106.798 116.351 121.708 104.327 122.971 103.469C134.082 95.9411 146.217 94.8402 153.167 94.2873C171.25 92.8491 175.726 98.6694 199.179 99.8328C213.339 100.535 221.603 101.21 231.122 97.6689C242.095 93.5863 244.953 87.8286 253.881 80.6771C269.524 68.1464 290.572 61.9361 307.527 61.1018C340.175 59.4942 365.5 77.4321 367.424 78.8358C379.734 87.8072 383.51 96.1813 400.768 103.998C410.239 108.288 413.527 109.813 424.688 111.171C444.612 113.594 479.65 129.64 484.268 153.03C487.232 168.037 475.824 180.665 474.047 182.574C462.671 194.788 443.064 202.751 427.626 198.362C419.84 196.149 419.939 192.773 411.971 190.174C396.872 185.249 381.389 192.447 369.8 197.278C369.8 197.278 343.383 208.292 306.515 217.294Z" fill="#1D2253"/>
<path d="M488.605 134.591C495.74 128.282 495.74 118.051 488.605 111.741C481.47 105.432 469.902 105.432 462.767 111.741C455.632 118.051 455.632 128.282 462.767 134.591C469.902 140.901 481.47 140.901 488.605 134.591Z" fill="#7683FC"/>
<path d="M131.747 208.191C152.043 208.191 168.495 193.641 168.495 175.693C168.495 157.745 152.043 143.195 131.747 143.195C111.452 143.195 95 157.745 95 175.693C95 193.641 111.452 208.191 131.747 208.191Z" fill="#7683FC"/>
<path d="M187.756 216.913C193.202 214.918 195.788 209.396 193.532 204.58C191.276 199.764 185.032 197.477 179.586 199.472C174.14 201.466 171.554 206.988 173.81 211.804C176.066 216.62 182.31 218.907 187.756 216.913Z" fill="#7683FC"/>
<path d="M459.116 150.576C461.962 148.059 461.962 143.978 459.116 141.461C456.269 138.944 451.655 138.944 448.808 141.461C445.962 143.978 445.962 148.059 448.808 150.576C451.655 153.093 456.269 153.093 459.116 150.576Z" fill="#7683FC"/>
<path d="M64.5535 462.171C65.197 458.657 62.4978 455.345 58.5246 454.773C54.5514 454.202 50.8087 456.587 50.1652 460.101C49.5217 463.615 52.2209 466.927 56.1941 467.499C60.1673 468.07 63.9099 465.685 64.5535 462.171Z" fill="#7683FC"/>
<path d="M299.467 545.144C406.316 545.144 492.934 539.739 492.934 533.072C492.934 526.405 406.316 521 299.467 521C192.618 521 106 526.405 106 533.072C106 539.739 192.618 545.144 299.467 545.144Z" fill="#1D2253"/>
<path opacity="0.3" d="M232.581 484.069C232.195 487.018 231.768 489.964 231.297 492.907C230.417 498.216 229.428 503.514 228.258 508.79L227.342 512.743C227.011 514.057 226.696 515.374 226.349 516.686C225.998 517.999 225.654 519.312 225.272 520.622C224.899 521.94 224.507 523.229 224.066 524.575C224.064 524.58 224.06 524.595 224.058 524.6C223.711 525.602 222.457 526.182 221.255 525.893C220.054 525.604 219.358 524.557 219.705 523.555L219.719 523.512C220.572 521.041 221.348 518.443 222.069 515.878C222.433 514.592 222.766 513.297 223.115 512.005L224.088 508.114C225.335 502.917 226.408 497.685 227.373 492.439C227.893 489.519 228.37 486.593 228.805 483.661C218.795 482.299 184.613 476.809 191.458 466.136C198.122 455.744 221.464 475.063 229.075 481.804C230.074 474.81 230.838 467.789 231.376 460.754C231.677 456.816 231.906 452.874 232.065 448.929C222.914 447.987 186.841 443.534 193.381 432.428C199.745 421.618 224.807 441.313 232.122 447.41C232.345 441.236 232.398 435.056 232.288 428.878L232.048 420.903L231.683 414.633C223.254 415.036 185.527 416.175 189.689 404.088C193.78 392.206 224.044 409.073 231.618 413.519L231.585 412.934L231.467 410.941L231.295 408.951L230.939 404.973L230.582 400.994C230.446 399.669 230.269 398.347 230.115 397.022C229.692 393.281 229.199 389.546 228.638 385.816C220.652 385.785 182.194 385.014 187.314 373.065C192.309 361.407 221.306 379.916 228.472 384.722C226.859 374.229 224.712 363.79 222.084 353.433C215.968 353.532 178.434 353.675 183.027 342.253C187.519 331.087 216.142 348.997 221.909 352.75C220.319 346.539 218.557 340.356 216.632 334.209C215.129 329.568 213.524 324.953 211.824 320.359C206.673 320.533 171.309 321.344 175.343 310.623C179.283 300.153 206.519 316.614 211.623 319.813C208.379 311.093 204.776 302.465 200.819 293.947C196.875 293.97 164.894 293.871 168.896 284.42C172.796 275.212 196.591 290.809 200.631 293.544C198.157 288.237 195.547 282.971 192.796 277.756C191.239 276.775 163.875 259.349 174.343 253.741C184.721 248.181 192.295 275.665 192.835 277.682C195.675 282.851 198.374 288.076 200.941 293.346C200.302 288.534 197.604 264.127 208.847 266.318C220.633 268.613 203.174 291.448 201.228 293.94C205.314 302.366 209.05 310.912 212.436 319.555C212.933 313.77 215.911 286.55 227.832 290.864C240.262 295.363 216.037 317.358 212.724 320.296C214.485 324.825 216.157 329.378 217.727 333.957C219.734 339.996 221.582 346.074 223.266 352.184C225.64 345.655 236.358 318.384 247.562 325.194C259.191 332.265 228.748 350.17 223.53 353.141C226.331 363.42 228.658 373.793 230.46 384.234C234.583 376.785 250.278 350.334 260.84 358.77C271.841 367.556 237.76 382.625 230.694 385.607C231.321 389.339 231.882 393.079 232.373 396.825C232.552 398.153 232.753 399.48 232.912 400.81L233.34 404.804L233.767 408.799L233.976 410.797L234.116 412.622C240.573 405.458 261.626 383.581 269.686 393.414C278.052 403.618 243.183 412.313 234.246 414.346L234.736 420.803L235.12 428.82C235.341 435.036 235.398 441.257 235.284 447.478C242.099 441.219 266.235 420.282 273.244 430.884C280.481 441.835 243.858 447.713 235.256 448.93C235.166 452.925 235.004 456.921 234.77 460.912C234.34 468.209 233.673 475.5 232.751 482.771C240.665 477.966 269.891 461.208 274.185 472.882C278.58 484.838 241.315 484.345 232.581 484.069Z" fill="#1D2253"/>
<path opacity="0.3" d="M341.125 455.171C342.096 453.485 343.022 451.78 344.026 450.105C359.535 440.628 381.482 437.08 411.728 436.249C442.287 435.406 447.21 410.409 447.21 410.409C427.839 419.803 426.659 415.787 391.443 421.648C365.099 426.033 351.364 439.947 346.114 446.681L346.443 446.14L348.358 443.188C349.008 442.208 349.615 441.209 350.3 440.246L352.315 437.336L353.322 435.881C353.663 435.398 354.021 434.924 354.37 434.445L356.475 431.577C357.866 429.666 359.342 427.741 360.697 425.785C362.078 423.835 363.385 421.848 364.662 419.849C366.456 416.991 368.127 414.076 369.649 411.109C387.695 399.88 420.925 399.719 420.925 399.719C453.958 395.948 455.444 373.866 455.509 371.761C455.511 371.754 455.509 371.746 455.511 371.738C455.513 371.697 455.517 371.667 455.513 371.647C455.515 371.644 455.515 371.641 455.515 371.641C455.515 371.626 455.513 371.618 455.515 371.61C455.513 371.601 455.513 371.598 455.513 371.598C455.337 372.193 455.134 372.799 454.892 373.409C453.05 376.447 445.776 382.605 417.115 386.345C388.11 390.128 375.643 402.132 371.125 408.112C371.225 407.898 371.328 407.688 371.426 407.474C372.387 405.351 373.28 403.205 374.066 401.03C374.838 398.851 375.517 396.651 376.077 394.426C377.166 389.973 377.771 385.428 377.712 380.88C377.678 378.034 377.381 375.192 376.821 372.387C383.31 364.626 389.757 361.575 395.363 359.656C425.239 349.426 421.167 330.365 421.112 330.121C421.055 330.329 418.859 337.934 398.385 346.724C381.618 353.925 377.531 366.646 376.581 371.269C376.29 369.971 375.943 368.682 375.539 367.405C374.848 365.21 373.997 363.052 373.012 360.941C372.023 358.831 370.894 356.769 369.673 354.753C367.727 351.544 365.513 348.463 363.226 345.43C364.745 341.077 370.587 333.359 370.587 333.359C383.489 314.443 376.79 298.61 376.63 298.245C376.63 298.242 376.626 298.24 376.628 298.237C375.2 309.036 368.808 304.66 362.958 320.102C358.548 331.734 360.841 340.508 362.241 344.128C361.977 343.783 361.713 343.436 361.449 343.091C359.997 341.194 358.54 339.302 357.165 337.37C355.794 335.438 354.506 333.461 353.513 331.376C352.581 329.273 351.707 327.135 350.761 325.028C350.288 323.974 349.818 322.919 349.317 321.874C349.069 321.349 348.813 320.829 348.549 320.311C348.413 320.053 348.281 319.795 348.133 319.54C348.063 319.412 347.986 319.287 347.909 319.162C347.822 319.044 347.759 318.904 347.627 318.816C347.755 318.906 347.818 319.046 347.901 319.166C347.976 319.292 348.051 319.417 348.118 319.547C348.259 319.802 348.388 320.063 348.518 320.322C348.772 320.843 349.016 321.368 349.254 321.895C349.733 322.947 350.182 324.008 350.633 325.068C351.537 327.191 352.363 329.327 353.257 331.458C354.216 333.574 355.473 335.584 356.808 337.543C358.148 339.501 359.57 341.417 360.982 343.335C362.103 344.851 363.212 346.373 364.294 347.907C361.487 345.692 348.833 339.368 343.973 331.782C338.858 323.791 323.629 318.446 323.629 318.446C323.629 318.446 323.627 318.449 323.631 318.454C323.596 318.921 322.313 338.676 343.737 343.55C361.002 347.479 366.514 351.92 368.04 353.566C368.343 354.061 368.641 354.559 368.93 355.06C370.101 357.076 371.174 359.132 372.108 361.228C373.037 363.327 373.831 365.463 374.468 367.632C375.744 371.968 376.37 376.427 376.329 380.883C376.307 383.769 376.012 386.649 375.492 389.502C373.42 366.84 352.357 355.26 335.665 352.595C318.468 349.855 313.489 336.456 313.315 335.988C313.313 335.98 313.313 335.977 313.313 335.977C313.313 335.977 304.219 362.816 339.569 370.369C367.213 376.276 373.693 386.71 375.204 390.974C374.984 392.032 374.732 393.085 374.454 394.134C373.861 396.307 373.15 398.458 372.348 400.586C371.535 402.711 370.613 404.807 369.626 406.883C367.613 411.02 365.284 415.051 362.716 418.974C361.416 420.93 360.084 422.87 358.684 424.778C357.596 426.285 356.458 427.747 355.319 429.231C356.706 421.63 358.112 400.617 336.344 384.184C329.43 378.963 325.654 376.868 303.524 369.375C303.524 369.375 290.566 365.344 283.187 352.786C283.187 352.786 283.186 352.789 283.187 352.801C283.237 353.438 284.868 373.884 303.805 383.3C326.306 394.489 350.623 406.296 354.411 430.421C354.401 430.434 354.389 430.448 354.38 430.462L352.197 433.322C351.835 433.8 351.464 434.274 351.11 434.755L350.064 436.209L347.97 439.118C347.259 440.08 346.623 441.081 345.947 442.062L343.95 445.02L342.045 448.022C340.743 450.01 339.592 452.064 338.375 454.09C337.26 456.068 336.163 458.055 335.109 460.058C327.228 415.322 283.168 405.779 266.974 398.764C254.194 393.232 247.172 384.879 246.973 384.641C246.969 384.636 246.969 384.636 246.969 384.636C242.472 410.383 273.595 421.168 273.595 421.168C317.519 435.447 330.671 453.007 334.286 459.849C334.437 460.183 334.579 460.505 334.715 460.815C333.726 462.72 332.781 464.639 331.906 466.584C329.97 470.828 328.205 475.138 326.771 479.535C325.447 483.587 324.362 487.702 323.578 491.867C322.227 481.736 315.764 460.01 285.47 452.828C246.707 443.638 242.066 428.6 241.81 427.668C246.949 451.773 253.53 455.799 263.907 462.813C272.084 468.341 296.178 472.094 305.783 476.563C313.479 480.15 320.493 491.236 322.971 495.489C322.447 499.184 322.211 502.917 322.276 506.662C322.341 508.969 322.524 511.281 322.889 513.589C323.062 514.744 323.306 515.898 323.584 517.051C323.734 517.628 323.889 518.205 324.072 518.785C324.161 519.074 324.264 519.367 324.364 519.657C324.478 519.963 324.569 520.223 324.734 520.594C324.738 520.602 324.746 520.62 324.75 520.628C325.199 521.578 326.485 522.043 327.622 521.67C328.759 521.297 329.318 520.223 328.871 519.275L328.853 519.238C328.78 519.084 328.668 518.806 328.579 518.575C328.489 518.326 328.396 518.08 328.313 517.825C328.142 517.318 327.99 516.8 327.845 516.277C327.571 515.229 327.321 514.168 327.137 513.091C326.753 510.942 326.535 508.758 326.426 506.567C326.261 502.178 326.529 497.756 327.22 493.367C327.717 490.147 328.41 486.941 329.261 483.76C350.799 474.629 369.035 474.953 369.035 474.953C419.237 475.326 432.133 454.399 433.809 451.198L433.845 451.137C433.941 450.951 433.991 450.835 434.004 450.8C433.831 451.017 430.388 454.52 384.768 454.8C351.003 455.007 336.271 470.176 330.756 478.691C331.973 474.935 333.429 471.226 335.017 467.557C336.803 463.351 338.931 459.248 341.125 455.171Z" fill="#1D2253"/>
<path opacity="0.3" d="M167.722 472.524C175.018 463.199 180.204 453.47 179.639 447.836C179.342 444.878 182.95 436.487 182.95 436.487C182.95 436.487 177.685 438.703 175.351 441.894C173.017 445.085 177.782 447.499 167.17 461.063C158.856 471.694 158.846 488.586 159.23 495.398C154.711 489.345 150.447 483.149 146.32 476.89C147.756 472.146 152.541 457.675 160.386 447.171C169.895 434.438 166.497 417.962 162.313 411.966C162.313 411.966 165.851 428.245 154.065 444.622C143.799 458.888 145.751 470.556 145.94 476.31C145.903 476.254 145.865 476.196 145.828 476.141C143.166 472.149 140.588 468.106 137.964 464.088C140.224 460.253 149.222 444.556 150.126 436.342C151.162 426.942 148.006 410.215 148.006 410.215C148.006 410.215 147.711 428.307 141.998 439.367C137.49 448.099 137.267 458.983 137.371 463.183C137.176 462.884 136.981 462.586 136.784 462.287C134.381 458.626 131.968 454.97 129.504 451.336C130.469 447.69 134.367 432.962 135.833 427.203C137.509 420.609 137.915 405.488 129.809 395.535C129.809 395.535 134.389 410.529 128.005 424.676C123.575 434.491 125.907 443.915 127.751 448.768C127.69 448.679 127.631 448.59 127.57 448.503C126.778 447.364 126.014 446.216 125.202 445.087L122.779 441.696C121.113 439.459 119.462 437.213 117.585 435.089C117.549 435.046 117.514 435.006 117.478 434.964C117.567 433.866 117.926 429.62 119.196 415.884C120.754 399.053 107.854 392.398 107.854 392.398C109.851 393.388 112.948 402.875 113.425 414.615C113.826 424.508 116.409 432.414 117.213 434.656C116.868 434.269 116.503 433.894 116.141 433.516C115.662 432.99 115.119 432.509 114.599 432.013C114.116 431.572 113.616 431.145 113.115 430.72C111.579 429.101 107.214 424.08 101.324 413.736C93.9237 400.739 77.1116 397.395 77.1116 397.395C77.1116 397.395 83.0071 399.203 93.4982 413.57C102.636 426.084 111.193 430.269 113.249 431.14C113.633 431.482 114.014 431.824 114.382 432.175C114.886 432.678 115.412 433.163 115.875 433.694C116.352 434.214 116.834 434.729 117.268 435.278C118.383 436.595 119.415 437.962 120.419 439.344C118.641 438.919 112.493 436.814 97.7746 426.461C79.692 413.739 65.6671 418.35 65.6671 418.35C68.8975 417.829 74.1608 420.703 89.8876 429.234C103.853 436.811 117.551 438.988 120.443 439.38C121.06 440.232 121.668 441.089 122.275 441.944L124.607 445.368C125.389 446.507 126.126 447.67 126.888 448.819C127.942 450.424 128.982 452.036 130.016 453.651C109.075 449.921 101.742 446.084 101.742 446.084C82.1759 434.643 62.8739 435.42 62.8739 435.42C69.4373 436.02 76.5009 440.473 93.4529 448.712C108.484 456.017 126.333 454.379 130.186 453.914C132.061 456.849 133.908 459.795 135.752 462.744C136.546 464.013 137.334 465.283 138.12 466.553C113.167 468.323 98.3951 461.2 98.3951 461.2C75.1871 448.802 57 449.708 57 449.708C74.929 453.181 69.3782 457.854 94.2684 465.835C115.794 472.738 133.804 468.166 138.277 466.806C140.324 470.122 142.357 473.444 144.455 476.75C145.583 478.554 146.724 480.355 147.878 482.15C142.022 482.166 130.469 481.244 111.313 473.451C93.2461 466.101 74.2711 472.582 69.3959 474.502C72.3998 473.635 82.103 472.527 109.67 479.332C136.973 486.072 145.725 484.152 148.341 482.864C151.997 488.526 155.797 494.13 159.833 499.623C155.287 497 147.732 493.293 140.86 492.943C130.126 492.398 121.587 490.554 116.373 488.502C111.161 486.45 96.0432 486.436 85.3079 496.07C85.3079 496.07 100.631 490.883 108.699 494.19C116.767 497.498 124.962 499.647 130.012 499.606C134.665 499.567 149.659 498.402 161.123 501.369C161.828 502.314 162.539 503.256 163.26 504.192L165.849 507.513C166.272 508.072 166.733 508.609 167.182 509.154L168.535 510.784L169.889 512.416C170.095 512.659 170.308 512.899 170.521 513.139C136.968 501.653 98.1253 504.601 98.1253 504.601C104.608 504.154 120.985 513.433 133.924 516.184C140.685 517.621 164.348 515.492 171.953 514.751L172.717 515.612L173.428 516.409L174.173 517.188L175.662 518.745L176.407 519.524L177.191 520.282L178.759 521.795C179.015 522.051 179.292 522.293 179.568 522.536L180.396 523.267L181.223 523.998C181.497 524.243 181.8 524.47 182.088 524.707L182.962 525.41C183.11 525.527 183.25 525.646 183.403 525.76L183.868 526.097L184.8 526.769C185.109 526.994 185.458 527.198 185.785 527.413C185.952 527.518 186.114 527.626 186.287 527.73L186.829 528.032C187.014 528.133 187.179 528.234 187.394 528.331C187.613 528.432 187.759 528.517 188.101 528.642L188.19 528.675C188.243 528.693 188.296 528.711 188.351 528.724C189.175 528.933 190.044 528.547 190.296 527.86C190.546 527.173 190.083 526.448 189.26 526.238C189.24 526.233 189.051 526.146 188.923 526.088C188.789 526.034 188.633 525.944 188.485 525.867L188.038 525.628C187.889 525.543 187.741 525.448 187.593 525.357C187.298 525.17 186.994 525.002 186.705 524.8L185.834 524.196L185.399 523.893C185.255 523.791 185.117 523.678 184.975 523.571L184.132 522.92C183.854 522.7 183.563 522.495 183.295 522.263L182.483 521.575L181.672 520.885C181.4 520.655 181.128 520.428 180.872 520.183L179.314 518.739L178.534 518.016L177.787 517.266L176.292 515.766L175.544 515.017L174.825 514.245L173.391 512.697C173.027 512.299 172.654 511.907 172.29 511.509C203.45 475.383 188.062 453.582 189.086 456.029C190.12 458.503 186.287 470.495 178.475 486.56C172.898 498.025 171.579 506.466 171.281 510.36L170.586 509.557L169.209 507.968C168.752 507.437 168.283 506.913 167.85 506.368L165.205 503.121C163.339 500.801 161.521 498.453 159.742 496.083C161.576 481.614 163.43 478.009 167.722 472.524Z" fill="#1D2253"/>
<path opacity="0.3" d="M424.449 472.524C417.153 463.199 411.967 453.47 412.532 447.836C412.829 444.878 409.221 436.487 409.221 436.487C409.221 436.487 414.486 438.703 416.82 441.894C419.154 445.085 414.389 447.499 425.001 461.063C433.315 471.694 433.325 488.586 432.941 495.398C437.46 489.345 441.724 483.149 445.851 476.89C444.415 472.146 439.63 457.675 431.785 447.171C422.276 434.438 425.674 417.962 429.858 411.966C429.858 411.966 426.32 428.245 438.106 444.622C448.372 458.888 446.42 470.556 446.231 476.31C446.268 476.254 446.306 476.196 446.343 476.141C449.005 472.149 451.583 468.106 454.207 464.088C451.947 460.253 442.949 444.556 442.045 436.342C441.009 426.942 444.165 410.215 444.165 410.215C444.165 410.215 444.46 428.307 450.173 439.367C454.681 448.099 454.904 458.983 454.8 463.183C454.995 462.884 455.19 462.586 455.387 462.287C457.79 458.626 460.203 454.97 462.667 451.336C461.702 447.69 457.804 432.962 456.338 427.203C454.662 420.609 454.256 405.488 462.362 395.535C462.362 395.535 457.782 410.529 464.166 424.676C468.596 434.491 466.264 443.915 464.42 448.768C464.481 448.679 464.54 448.59 464.601 448.503C465.393 447.364 466.157 446.216 466.969 445.087L469.392 441.696C471.058 439.459 472.709 437.213 474.586 435.089C474.622 435.046 474.657 435.006 474.693 434.964C474.604 433.866 474.245 429.62 472.975 415.884C471.417 399.053 484.317 392.398 484.317 392.398C482.32 393.388 479.223 402.875 478.746 414.615C478.345 424.508 475.762 432.414 474.958 434.656C475.303 434.269 475.668 433.894 476.03 433.516C476.509 432.99 477.052 432.509 477.572 432.013C478.055 431.572 478.555 431.145 479.056 430.72C480.592 429.101 484.957 424.08 490.847 413.736C498.247 400.739 515.059 397.395 515.059 397.395C515.059 397.395 509.164 399.203 498.673 413.57C489.535 426.084 480.978 430.269 478.922 431.14C478.538 431.482 478.157 431.824 477.789 432.175C477.285 432.678 476.759 433.163 476.296 433.694C475.819 434.214 475.337 434.729 474.903 435.278C473.788 436.595 472.756 437.962 471.752 439.344C473.53 438.919 479.678 436.814 494.396 426.461C512.479 413.739 526.504 418.35 526.504 418.35C523.274 417.829 518.008 420.703 502.283 429.234C488.318 436.811 474.62 438.988 471.728 439.38C471.109 440.232 470.503 441.089 469.896 441.944L467.564 445.368C466.782 446.507 466.045 447.67 465.283 448.819C464.229 450.424 463.189 452.036 462.155 453.651C483.096 449.921 490.429 446.084 490.429 446.084C509.995 434.643 529.297 435.42 529.297 435.42C522.734 436.02 515.67 440.473 498.718 448.712C483.687 456.017 465.838 454.379 461.985 453.914C460.11 456.849 458.263 459.795 456.419 462.744C455.625 464.013 454.837 465.283 454.051 466.553C479.004 468.323 493.776 461.2 493.776 461.2C516.984 448.802 535.171 449.708 535.171 449.708C517.242 453.181 522.793 457.854 497.903 465.835C476.377 472.738 458.367 468.166 453.894 466.806C451.847 470.122 449.814 473.444 447.716 476.75C446.588 478.554 445.447 480.355 444.293 482.15C450.149 482.166 461.702 481.244 480.858 473.451C498.925 466.101 517.9 472.582 522.775 474.502C519.771 473.635 510.068 472.527 482.501 479.332C455.198 486.072 446.446 484.152 443.83 482.864C440.174 488.526 436.374 494.13 432.338 499.623C436.884 497 444.439 493.293 451.311 492.943C462.045 492.398 470.584 490.554 475.798 488.502C481.01 486.45 496.128 486.436 506.863 496.07C506.863 496.07 491.54 490.883 483.472 494.19C475.404 497.498 467.209 499.647 462.159 499.606C457.506 499.567 442.512 498.402 431.048 501.369C430.343 502.314 429.632 503.256 428.911 504.192L426.322 507.513C425.899 508.072 425.438 508.609 424.989 509.154L423.636 510.784L422.282 512.416C422.076 512.659 421.863 512.899 421.65 513.139C455.203 501.653 494.046 504.601 494.046 504.601C487.563 504.154 471.186 513.433 458.247 516.184C451.486 517.621 427.823 515.492 420.218 514.751L419.454 515.612L418.743 516.409L417.998 517.188L416.509 518.745L415.764 519.524L414.98 520.282L413.412 521.795C413.156 522.051 412.879 522.293 412.603 522.536L411.776 523.267L410.948 523.998C410.674 524.243 410.371 524.47 410.083 524.707L409.209 525.41C409.061 525.527 408.921 525.646 408.768 525.76L408.303 526.097L407.371 526.769C407.062 526.994 406.713 527.198 406.386 527.413C406.219 527.518 406.057 527.626 405.884 527.73L405.342 528.032C405.157 528.133 404.992 528.234 404.777 528.331C404.558 528.432 404.412 528.517 404.07 528.642L403.981 528.675C403.928 528.693 403.875 528.711 403.819 528.724C402.996 528.933 402.127 528.547 401.875 527.86C401.625 527.173 402.088 526.448 402.911 526.238C402.929 526.233 403.12 526.146 403.248 526.088C403.382 526.034 403.538 525.944 403.686 525.867L404.133 525.628C404.282 525.543 404.43 525.448 404.578 525.357C404.873 525.17 405.177 525.002 405.466 524.8L406.337 524.196L406.774 523.893C406.918 523.791 407.056 523.678 407.198 523.571L408.041 522.92C408.319 522.7 408.61 522.495 408.878 522.263L409.689 521.575L410.501 520.885C410.773 520.655 411.045 520.428 411.301 520.183L412.859 518.739L413.639 518.016L414.385 517.266L415.881 515.766L416.629 515.017L417.348 514.245L418.782 512.697C419.146 512.299 419.519 511.907 419.883 511.509C388.723 475.383 404.111 453.582 403.087 456.029C402.053 458.503 405.886 470.495 413.698 486.56C419.274 498.025 420.594 506.466 420.892 510.36L421.587 509.557L422.964 507.968C423.421 507.437 423.89 506.913 424.323 506.368L426.968 503.121C428.834 500.801 430.652 498.453 432.431 496.083C430.595 481.614 428.741 478.009 424.449 472.524Z" fill="#1D2253"/>
<path d="M463.162 518.001L499.407 459.216L463.236 524.325L463.311 530.939C460.665 530.961 458.045 530.913 455.45 530.795L457.248 445.767L457.199 445.111L457.265 444.984L457.437 436.949L417.744 374.098L457.39 430.936L457.531 432.634L458.889 368.392L424.604 303.229L458.986 357.106L458.628 224.013L458.628 223.57L458.64 224.005L460.916 328.901L492.162 286.292L461.018 337.938L461.7 395.401L490.453 339.319L461.806 403.849L462.185 435.801L504 357.68L462.313 446.948L463.162 518.001Z" fill="#E6E6E6"/>
<path d="M382.348 524.214L399.908 495.735L382.384 527.277L382.421 530.482C381.139 530.493 379.87 530.469 378.613 530.412L379.483 489.219L379.46 488.901L379.492 488.84L379.575 484.948L360.345 454.499L379.552 482.034L379.621 482.857L380.278 451.734L363.669 420.166L380.326 446.267L380.152 381.789L380.152 381.574L380.158 381.785L381.26 432.603L396.398 411.96L381.31 436.98L381.64 464.819L395.57 437.65L381.692 468.912L381.875 484.391L402.133 446.545L381.937 489.792L382.348 524.214Z" fill="#E6E6E6"/>
<path d="M127.871 524.388L145.43 495.909L127.907 527.451L127.943 530.656C126.661 530.667 125.392 530.643 124.135 530.586L125.006 489.393L124.982 489.076L125.014 489.014L125.098 485.122L105.868 454.673L125.075 482.209L125.143 483.031L125.801 451.908L109.191 420.34L125.848 446.441L125.674 381.963L125.675 381.748L125.68 381.959L126.783 432.777L141.92 412.135L126.832 437.155L127.163 464.993L141.092 437.824L127.214 469.086L127.398 484.566L147.655 446.719L127.459 489.966L127.871 524.388Z" fill="#E6E6E6"/>
<path d="M341.373 376.071C341.373 376.071 334.859 355.942 330.154 362.257C325.45 368.572 337.392 379.228 337.392 379.228L341.373 376.071Z" fill="#FFB9B9"/>
<path d="M372.134 356.336L368.215 357.92C368.215 357.92 366.344 366.993 367.067 368.572C367.791 370.15 368.153 368.966 367.067 372.124C365.982 375.281 362.725 383.569 362.363 384.753C362.001 385.938 341.373 377.255 341.373 372.913C341.373 372.913 337.03 378.439 334.859 379.623C334.859 379.623 358.744 398.567 362.001 400.935C365.258 403.304 367.067 402.119 369.962 399.357C372.858 396.594 385.162 373.702 385.162 373.702L372.134 356.336Z" fill="#575A89"/>
<path d="M364.593 511.637C364.593 511.637 364.955 515.978 365.679 516.373C366.403 516.768 371.831 526.635 365.679 528.608C359.527 530.581 355.908 529.792 354.46 530.581C353.013 531.371 327.68 532.949 327.318 528.608C326.956 524.267 339.623 523.477 339.623 523.477C339.623 523.477 351.203 515.189 353.013 510.847C354.822 506.506 364.593 511.637 364.593 511.637Z" fill="#2F2E41"/>
<path d="M435.103 504.342C435.103 504.342 443.789 520.524 441.617 522.497C439.446 524.471 418.299 531.662 415.199 531.97C411.218 532.364 408.323 528.812 411.58 526.839C414.837 524.865 421.713 516.577 421.713 513.814V506.71L435.103 504.342Z" fill="#2F2E41"/>
<path d="M443.427 398.567C443.427 398.567 451.027 408.829 439.084 425.406L419.18 453.033C419.18 453.033 431.484 474.346 431.846 485.397C432.208 496.448 434.741 494.08 435.465 498.816C436.189 503.553 439.446 501.184 436.913 504.737C434.38 508.289 424.97 511.446 422.075 508.683C421.079 507.69 420.302 506.464 419.8 505.097C419.299 503.731 419.087 502.258 419.18 500.79C419.18 499.211 414.114 490.133 413.752 487.371C413.39 484.608 400 462.111 400 462.111C400 462.111 395.657 448.692 400.723 441.193C405.79 433.694 409.138 423.058 409.138 423.058C409.138 423.058 394.209 442.772 383.715 447.508C383.715 447.508 379.734 448.297 380.457 450.271C381.181 452.244 380.457 453.428 379.372 455.401C378.286 457.375 373.641 495.455 371.107 501.375C368.574 507.295 369.66 510.847 366.765 512.821C363.869 514.794 350.841 513.215 350.841 511.242C350.841 509.269 352.651 504.138 353.736 501.375C354.822 498.612 360.553 451.455 359.83 445.929C359.106 440.404 360.192 432.905 365.62 429.747C371.048 426.59 398.552 400.935 400 400.935C401.447 400.935 443.427 398.567 443.427 398.567Z" fill="#2F2E41"/>
<path d="M370.686 336.602C379.081 336.602 385.886 329.181 385.886 320.026C385.886 310.871 379.081 303.449 370.686 303.449C362.292 303.449 355.487 310.871 355.487 320.026C355.487 329.181 362.292 336.602 370.686 336.602Z" fill="#FFB9B9"/>
<path d="M382.99 321.604C382.99 321.604 387.695 330.682 393.485 331.866C399.276 333.05 378.286 351.206 378.286 351.206C378.286 351.206 373.219 333.84 368.876 333.05C364.534 332.261 382.99 321.604 382.99 321.604Z" fill="#FFB9B9"/>
<path d="M368.153 358.705C368.153 363.836 382.267 378.439 382.267 378.439L395.657 390.674C395.657 390.674 396.019 395.015 397.467 395.41C398.914 395.805 400.724 395.805 399.276 398.173C397.828 400.541 394.21 405.672 397.467 406.461C398.449 406.624 399.438 406.727 400.43 406.769C401.299 406.824 402.32 406.875 403.467 406.923C406.145 407.025 409.496 407.092 413.126 407.065C414.157 407.061 415.207 407.048 416.274 407.025C429.957 406.729 445.808 405.012 444.513 399.357C442.341 389.884 443.789 386.727 439.084 381.596C434.38 376.465 426.78 358.705 426.78 358.705C426.78 358.705 411.58 330.682 398.914 330.682L396.283 329.928C395.061 329.577 393.768 329.654 392.588 330.149C391.408 330.643 390.4 331.53 389.708 332.683C387.167 336.902 383.161 343.241 380.82 345.285C377.201 348.443 376.636 346.177 376.636 346.177C376.636 346.177 368.153 353.574 368.153 358.705Z" fill="#575A89"/>
<path d="M400.361 418.696C400.361 418.696 389.866 436.457 396.381 439.614C402.895 442.772 406.513 421.064 406.513 421.064L400.361 418.696Z" fill="#FFB9B9"/>
<path d="M380.623 318.153C380.039 318.073 379.855 317.27 379.757 316.638C379.231 313.252 376.917 310.042 373.809 309.495C372.621 309.323 371.413 309.429 370.265 309.807C368.621 310.299 367.078 311.127 365.718 312.248C365.053 312.911 364.283 313.438 363.446 313.804C362.875 313.987 360.454 315.161 359.888 315.359C358.644 315.796 357.614 317.216 356.333 316.935C355.107 316.666 354.642 315.052 354.445 313.705C353.996 310.638 355.606 306.06 357.207 303.49C358.422 301.541 360.477 300.418 362.533 299.688C364.941 298.891 367.415 298.355 369.919 298.087C373.3 297.652 376.802 297.421 380.042 298.561C383.282 299.7 386.232 302.488 386.837 306.142C386.963 306.903 386.986 307.683 387.141 308.438C387.517 310.279 388.634 311.827 389.286 313.575C389.756 314.858 389.975 316.235 389.927 317.616C389.879 318.997 389.567 320.352 389.009 321.594C388.107 323.573 386.538 325.475 386.876 327.654L384.084 325.252C383.68 325.002 383.367 324.609 383.198 324.138C383.028 323.667 383.012 323.146 383.152 322.663L383.557 318.85C383.698 318.159 383.635 317.437 383.376 316.788C382.135 314.423 381.595 318.287 380.623 318.153Z" fill="#2F2E41"/>
<path opacity="0.1" d="M406.876 391.463L403.467 406.923C406.905 407.057 411.454 407.128 416.274 407.025C417.49 403.047 418.652 398.899 419.542 395.015C422.799 380.807 417.371 359.099 414.475 348.838C411.58 338.576 404.342 335.813 404.342 335.813C401.375 336.951 398.572 338.546 396.019 340.549C391.314 344.101 406.876 391.463 406.876 391.463Z" fill="black"/>
<path opacity="0.1" d="M403.98 390.674L400.43 406.769C401.299 406.824 402.319 406.875 403.466 406.923C406.144 407.025 409.495 407.092 413.125 407.065C414.432 402.838 415.695 398.378 416.646 394.226C419.903 380.017 414.475 358.31 411.58 348.048C408.685 337.786 402.352 349.035 402.352 349.035C402.352 349.035 404.885 342.325 400.18 345.877C395.476 349.429 403.98 390.674 403.98 390.674Z" fill="black"/>
<path d="M402.895 335.024C402.895 335.024 410.133 337.786 413.028 348.048C415.923 358.31 421.351 380.017 418.094 394.226C414.837 408.434 407.961 426.195 407.961 426.195C407.961 426.195 401.085 420.669 398.552 421.854L405.428 390.674C405.428 390.674 389.867 343.312 394.571 339.76C397.125 337.757 399.927 336.162 402.895 335.024V335.024Z" fill="#575A89"/>
<path d="M333.099 366.929V377.169H334.027V368.447" fill="#3F3D56"/>
<path d="M334.027 364.65V339.22H333.099V363.136" fill="#3F3D56"/>
<path d="M333.563 341.999C339.865 341.999 344.973 336.428 344.973 329.555C344.973 322.682 339.865 317.111 333.563 317.111C327.261 317.111 322.153 322.682 322.153 329.555C322.153 336.428 327.261 341.999 333.563 341.999Z" fill="#FAFAFF"/>
<path d="M297.449 428.12H161.385V530.369H297.449V428.12Z" fill="#E6E6E6"/>
<path d="M240.778 280.143H240.778C229.224 280.143 219.857 291.48 219.857 305.464V323.232H224.867L227.768 316.649L227.043 323.232H259.249L261.886 317.247L261.226 323.232H264.852V309.281C264.852 293.189 254.074 280.143 240.778 280.143Z" fill="#2F2E41"/>
<path d="M216.806 396.226L203.961 402.18L159.323 441.756C157.682 443.956 142.624 477.829 147.441 480.981C152.258 484.133 169.6 493.59 170.563 487.285C171.526 480.981 176.664 454.014 176.664 454.014L219.696 411.987L216.806 396.226Z" fill="#2F2E41"/>
<path d="M166.388 482.032L160.929 499.544C160.929 499.544 166.71 506.198 163.819 511.801V531.064H159.323L158.039 520.907C158.039 520.907 152.918 530.936 150.332 531.064C144.91 531.333 134.173 533.436 133.852 530.284C133.531 527.132 141.982 524.059 141.982 524.059L150.974 497.092L154.828 480.631L166.388 482.032Z" fill="#2F2E41"/>
<path d="M250.204 391.673C250.204 391.673 253.094 422.493 244.744 428.097C236.395 433.701 199.465 451.562 199.465 451.562C199.465 451.562 215.2 467.673 211.989 471.525C208.778 475.378 194.327 485.885 192.4 483.783C190.473 481.682 168.957 456.465 171.526 448.41C174.095 440.355 209.741 414.088 209.741 414.088L213.916 397.627L215.2 384.319L228.688 374.863L250.204 391.673Z" fill="#2F2E41"/>
<path d="M235.491 319.917C242.885 319.917 248.879 313.38 248.879 305.316C248.879 297.253 242.885 290.716 235.491 290.716C228.098 290.716 222.104 297.253 222.104 305.316C222.104 313.38 228.098 319.917 235.491 319.917Z" fill="#A0616A"/>
<path d="M245.868 311.296C245.868 311.296 245.226 324.605 255.181 328.808C265.136 333.01 230.454 360.328 230.454 360.328V329.858C230.454 329.858 234.95 324.605 230.454 316.55L245.868 311.296Z" fill="#A0616A"/>
<path d="M267.224 373.812L264.655 387.471L256.948 434.401C256.948 434.401 263.37 454.364 254.7 454.014C246.029 453.664 250.204 432.3 250.204 432.3L254.7 393.425V378.365L267.224 373.812Z" fill="#A0616A"/>
<path d="M211.989 367.157L209.099 379.415L195.932 414.088C195.932 414.088 186.941 430.549 194.327 430.198C201.713 429.848 201.713 414.088 201.713 414.088L216.806 386.07V370.31L211.989 367.157Z" fill="#A0616A"/>
<path d="M209.741 469.424L220.338 480.281C220.338 480.281 227.725 478.53 230.615 487.986C233.505 497.442 235.432 503.396 235.432 503.396L231.578 505.848L226.761 498.493C226.761 498.493 223.871 511.801 220.981 512.852C218.09 513.903 203.64 520.907 204.924 512.852L211.989 501.645C211.989 501.645 212.952 489.037 210.062 487.986C207.172 486.935 199.465 476.428 199.465 476.428L209.741 469.424Z" fill="#2F2E41"/>
<path d="M231.794 331.698C231.625 336.625 235.896 340.498 240.233 339.104C240.993 338.881 241.695 338.466 242.283 337.895C242.871 337.323 243.329 336.61 243.62 335.812C245.246 331.778 248.229 328.578 251.955 326.874C251.955 326.874 271.238 331.609 270.917 340.015C270.595 348.42 258.714 361.379 258.714 361.379C258.714 361.379 260.319 407.959 251.649 407.258C249.778 404.824 248.459 401.945 247.795 398.853C243.443 406.352 213.562 401.159 216.966 388.696C216.966 388.696 214.397 393.6 214.076 391.498C213.755 389.397 216.645 337.913 216.645 337.913L231.959 326.874L231.794 331.698Z" fill="#536DFE"/>
<path d="M268.443 336.631L268.658 336.763C269.345 337.183 269.916 337.795 270.314 338.536C270.711 339.276 270.921 340.119 270.921 340.977L270.917 366.969C270.922 368.399 269.099 377.619 270.102 378.541C271.339 379.688 267.122 406.286 264.755 407.146C260.901 408.547 248.248 405.928 247.927 403.476C247.606 401.024 252.291 375.038 253.255 375.038C254.009 375.038 258.503 349.923 262.114 339.186C262.334 338.528 262.683 337.931 263.136 337.435C263.589 336.939 264.135 336.556 264.737 336.314C265.339 336.071 265.982 335.973 266.622 336.028C267.262 336.083 267.884 336.289 268.443 336.631V336.631Z" fill="#536DFE"/>
<path d="M220.981 336.688L216.485 338.089L211.347 362.254C211.347 362.254 201.768 391.062 203.695 393.513C205.621 395.965 217.637 395.611 217.637 395.611L220.981 336.688Z" fill="#536DFE"/>
<path d="M246.725 287.118C245.718 285.644 244.414 284.442 242.912 283.607C241.411 282.771 239.753 282.324 238.068 282.3H237.657C229.738 282.3 223.318 290.115 223.318 299.756V299.756H225.971L226.4 296.199L227.028 299.756H242.766L244.085 296.747L243.755 299.756H246.852C248.296 307.581 246.22 315.407 240.624 323.232H245.898L248.535 317.212L247.876 323.232H257.93L259.908 309.387C259.908 299.019 254.384 290.227 246.725 287.118Z" fill="#2F2E41"/>
<path d="M478.753 530.619H104V531.54H478.753V530.619Z" fill="#3F3D56"/>
<path d="M339.794 353.284C337.054 355.652 333.26 355.408 333.26 355.408C333.26 355.408 333.908 351.324 336.648 348.955C339.388 346.587 343.182 346.831 343.182 346.831C343.182 346.831 342.533 350.915 339.794 353.284Z" fill="#DADFFF"/>
<path d="M330.741 348.722C333.194 351.439 333.378 355.579 333.378 355.579C333.378 355.579 329.585 355.314 327.132 352.597C324.679 349.879 324.496 345.739 324.496 345.739C324.496 345.739 328.288 346.005 330.741 348.722Z" fill="#DADFFF"/>
<path d="M212.913 207.232C212.199 207.233 211.486 207.282 210.777 207.376C208.809 202.505 205.585 198.364 201.497 195.456C197.409 192.548 192.633 191 187.753 191C182.872 191 178.097 192.548 174.009 195.456C169.921 198.364 166.696 202.505 164.728 207.376C162.358 207.058 159.953 207.266 157.659 207.989C155.364 208.712 153.228 209.934 151.378 211.582C149.529 213.23 148.004 215.269 146.897 217.577C145.79 219.884 145.123 222.413 144.936 225.009H230.569C230.214 220.168 228.199 215.651 224.927 212.357C221.655 209.062 217.366 207.233 212.913 207.232V207.232Z" fill="#F2F2F2"/>
<path d="M294.687 237.794C294.258 237.795 293.829 237.824 293.403 237.881C292.22 234.952 290.282 232.462 287.824 230.714C285.366 228.965 282.495 228.035 279.56 228.035C276.626 228.035 273.755 228.965 271.297 230.714C268.839 232.462 266.9 234.952 265.717 237.881C264.292 237.689 262.846 237.815 261.466 238.249C260.087 238.684 258.802 239.419 257.69 240.409C256.578 241.4 255.662 242.626 254.996 244.014C254.33 245.401 253.929 246.921 253.817 248.482H305.303C305.089 245.572 303.878 242.856 301.911 240.875C299.944 238.894 297.365 237.794 294.687 237.794V237.794Z" fill="#F2F2F2"/>
<path d="M204.276 173H209.811V163.719H213.851L218.811 173H224.922L219.361 162.824C222.339 161.545 223.989 158.95 223.989 155.371C223.989 150.168 220.55 146.818 214.605 146.818H204.276V173ZM209.811 159.27V151.344H213.544C216.74 151.344 218.287 152.763 218.287 155.371C218.287 157.966 216.74 159.27 213.57 159.27H209.811ZM251.96 159.909C251.96 151.344 246.642 146.46 239.7 146.46C232.72 146.46 227.44 151.344 227.44 159.909C227.44 168.436 232.72 173.358 239.7 173.358C246.642 173.358 251.96 168.474 251.96 159.909ZM246.348 159.909C246.348 165.457 243.714 168.462 239.7 168.462C235.673 168.462 233.053 165.457 233.053 159.909C233.053 154.361 235.673 151.357 239.7 151.357C243.714 151.357 246.348 154.361 246.348 159.909ZM256.061 146.818V173H261.43V155.895H261.647L268.423 172.872H272.079L278.855 155.959H279.072V173H284.441V146.818H277.615L270.404 164.409H270.098L262.887 146.818H256.061ZM293.515 173L295.458 167.03H304.906L306.849 173H312.781L303.755 146.818H296.621L287.583 173H293.515ZM296.864 162.709L300.086 152.801H300.29L303.512 162.709H296.864ZM337.831 146.818H332.321V163.284H332.091L320.79 146.818H315.932V173H321.467V156.521H321.659L333.05 173H337.831V146.818ZM365.505 155.984C364.777 149.938 360.2 146.46 354.14 146.46C347.224 146.46 341.944 151.344 341.944 159.909C341.944 168.449 347.135 173.358 354.14 173.358C360.852 173.358 364.904 168.896 365.505 164.077L359.906 164.051C359.382 166.851 357.183 168.462 354.23 168.462C350.254 168.462 347.556 165.509 347.556 159.909C347.556 154.463 350.216 151.357 354.268 151.357C357.298 151.357 359.484 153.108 359.906 155.984H365.505ZM369.475 173H387.168V168.436H375.01V162.185H386.209V157.621H375.01V151.382H387.117V146.818H369.475V173Z" fill="white"/>
<path d="M242.688 121.492C242.324 118.469 240.036 116.73 237.006 116.73C233.548 116.73 230.908 119.172 230.908 123.455C230.908 127.724 233.503 130.179 237.006 130.179C240.362 130.179 242.388 127.948 242.688 125.538L239.888 125.526C239.626 126.925 238.527 127.731 237.05 127.731C235.062 127.731 233.714 126.254 233.714 123.455C233.714 120.732 235.043 119.178 237.07 119.178C238.585 119.178 239.678 120.054 239.888 121.492H242.688ZM246.683 130L247.655 127.015H252.379L253.35 130H256.316L251.803 116.909H248.237L243.717 130H246.683ZM248.358 124.854L249.969 119.901H250.071L251.682 124.854H248.358ZM255.776 119.191H259.784V130H262.52V119.191H266.527V116.909H255.776V119.191ZM268.298 130H277.145V127.718H271.066V124.592H276.665V122.31H271.066V119.191H277.119V116.909H268.298V130ZM288 121.141H290.812C290.454 118.552 288.172 116.73 285.213 116.73C281.755 116.73 279.089 119.223 279.089 123.467C279.089 127.609 281.582 130.179 285.27 130.179C288.575 130.179 290.934 128.089 290.934 124.643V122.994H285.456V125.078H288.268C288.23 126.702 287.124 127.731 285.283 127.731C283.206 127.731 281.895 126.178 281.895 123.442C281.895 120.719 283.257 119.178 285.258 119.178C286.683 119.178 287.648 119.913 288 121.141ZM305.043 123.455C305.043 119.172 302.384 116.73 298.913 116.73C295.423 116.73 292.783 119.172 292.783 123.455C292.783 127.718 295.423 130.179 298.913 130.179C302.384 130.179 305.043 127.737 305.043 123.455ZM302.237 123.455C302.237 126.229 300.92 127.731 298.913 127.731C296.899 127.731 295.589 126.229 295.589 123.455C295.589 120.68 296.899 119.178 298.913 119.178C300.92 119.178 302.237 120.68 302.237 123.455ZM307.093 130H309.861V125.359H311.881L314.361 130H317.416L314.635 124.912C316.125 124.273 316.949 122.975 316.949 121.185C316.949 118.584 315.23 116.909 312.258 116.909H307.093V130ZM309.861 123.135V119.172H311.727C313.325 119.172 314.099 119.881 314.099 121.185C314.099 122.483 313.325 123.135 311.74 123.135H309.861ZM317.593 116.909L322.368 125.372V130H325.117V125.372L329.892 116.909H326.792L323.806 122.547H323.679L320.694 116.909H317.593Z" fill="white"/>
</svg>
