<svg width="588" height="682" viewBox="0 0 588 682" fill="none" xmlns="http://www.w3.org/2000/svg">
<path d="M588 0H0V682H588V0Z" fill="#C8524E"/>
<path d="M87.7406 0C73.1339 13.9574 65.7226 31.0825 62.4961 48.0019C52.9357 98.1314 25.2686 126.209 0 141.753V0H87.7406Z" fill="#F8A690"/>
<path d="M588 0V92.7653C575.186 83.2624 559.864 75.0791 541.592 69.481C489.014 53.3712 468.069 22.8499 459.757 0H588Z" fill="#F8A690"/>
<path d="M588 510.718V681.998H0C0 608.874 0 535.748 0 462.624C18.3523 469.145 40.7815 480.45 54.1824 500.996C82.7706 544.825 47.2159 595.35 70.2926 610.393C87.5415 621.639 108.694 594.583 154.52 592.36C226.605 588.861 259.599 655.005 310.562 640.972C335.9 633.995 329.084 617.278 361.985 600.984C408.704 577.848 444.354 600.709 493.202 588.438C518.655 582.045 554.224 564.471 588 510.718Z" fill="#F8A690"/>
<path d="M118.668 303.038C117.805 303.038 117.062 302.462 116.967 301.686C115.907 292.921 107.58 286.311 97.5972 286.311C94.5494 286.311 91.6336 286.915 88.9281 288.107C88.0815 288.479 87.0544 288.174 86.632 287.427C86.2115 286.678 86.5557 285.77 87.4005 285.396C90.5842 283.994 94.0135 283.284 97.5954 283.284C103.284 283.284 108.737 285.14 112.954 288.511C117.139 291.858 119.772 296.421 120.371 301.363C120.471 302.194 119.79 302.941 118.85 303.03C118.789 303.037 118.728 303.038 118.668 303.038Z" fill="#F8A690"/>
<path d="M483.031 575.098C482.168 575.098 481.426 574.522 481.331 573.745C480.27 564.981 471.943 558.371 461.961 558.371C458.913 558.371 455.997 558.975 453.291 560.166C452.445 560.54 451.418 560.234 450.995 559.485C450.575 558.736 450.919 557.828 451.766 557.454C454.949 556.052 458.379 555.342 461.961 555.342C467.649 555.342 473.104 557.198 477.319 560.569C481.504 563.916 484.137 568.479 484.734 573.421C484.835 574.252 484.153 574.999 483.214 575.088C483.152 575.095 483.091 575.098 483.031 575.098Z" fill="#F8A690"/>
<path d="M518.032 368.822C516.348 368.822 514.662 368.654 512.98 368.32C507.429 367.216 502.569 364.346 499.292 360.239C496.04 356.161 494.603 351.198 495.247 346.262C495.355 345.431 496.207 344.836 497.143 344.93C498.083 345.026 498.756 345.778 498.649 346.607C497.508 355.363 503.992 363.428 513.731 365.366C516.705 365.959 519.701 365.934 522.635 365.297C523.552 365.098 524.481 365.595 524.706 366.406C524.931 367.217 524.369 368.039 523.452 368.238C521.658 368.628 519.848 368.822 518.032 368.822Z" fill="#F8A690"/>
<path d="M120.346 46.0223C120.037 46.0223 119.727 45.9483 119.446 45.7953C116.424 44.1366 113.938 41.9299 112.055 39.2362C109.065 34.9561 107.984 29.8763 109.013 24.9332C110.032 20.0262 113.039 15.6458 117.477 12.5999C118.223 12.0881 119.299 12.2066 119.879 12.8681C120.46 13.528 120.324 14.4791 119.576 14.9925C111.701 20.3964 109.722 30.1347 114.967 37.6466C116.569 39.9388 118.683 41.8164 121.251 43.2249C122.054 43.6659 122.3 44.599 121.803 45.3098C121.478 45.7689 120.918 46.0223 120.346 46.0223Z" fill="#F8A690"/>
<path d="M452.465 70.99C450.051 70.99 447.636 70.651 445.306 69.9714C444.409 69.7098 443.922 68.8524 444.218 68.0593C444.514 67.2662 445.483 66.835 446.38 67.0967C455.844 69.8628 466.089 65.8856 470.212 57.8455C471.47 55.392 472.054 52.7921 471.945 50.123C471.911 49.2871 472.648 48.5861 473.593 48.5548C474.537 48.5252 475.331 49.1768 475.366 50.0127C475.495 53.1557 474.81 56.2115 473.331 59.0961C470.981 63.6772 466.816 67.304 461.603 69.3066C458.689 70.4272 455.579 70.99 452.465 70.99Z" fill="#F8A690"/>
<path d="M294.605 611.008C293.825 611.008 293.04 610.974 292.251 610.903C286.591 610.398 281.375 608.066 277.565 604.337C273.782 600.637 271.679 595.861 271.646 590.892C271.64 590.056 272.401 589.374 273.348 589.37C273.352 589.37 273.356 589.37 273.359 589.37C274.301 589.37 275.066 590.041 275.071 590.875C275.131 599.689 282.665 607.005 292.597 607.892C295.63 608.162 298.6 607.821 301.426 606.876C302.31 606.58 303.298 606.975 303.633 607.757C303.968 608.538 303.522 609.412 302.638 609.708C300.044 610.572 297.351 611.008 294.605 611.008Z" fill="#F8A690"/>
<path d="M431.777 273.69C431.174 273.69 430.57 273.564 430.011 273.307C428.741 272.723 427.952 271.572 427.952 270.305V244.726C427.952 243.458 428.741 242.308 430.011 241.724C431.282 241.14 432.801 241.229 433.973 241.956L454.59 254.747C455.61 255.379 456.218 256.414 456.218 257.516C456.218 258.617 455.61 259.652 454.59 260.286L433.973 273.077C433.314 273.483 432.548 273.69 431.777 273.69ZM431.779 244.368C431.707 244.368 431.641 244.388 431.591 244.411C431.493 244.457 431.375 244.548 431.375 244.726V270.305C431.375 270.483 431.493 270.575 431.591 270.62C431.69 270.664 431.842 270.697 432.006 270.595L452.623 257.804C452.764 257.717 452.794 257.599 452.794 257.515C452.794 257.431 452.764 257.312 452.623 257.225L432.006 244.434C431.926 244.387 431.848 244.368 431.779 244.368Z" fill="#F8A690"/>
<path d="M23.6718 214.281C23.2792 214.281 22.8829 214.227 22.4996 214.119C21.3143 213.781 20.3876 212.95 20.0192 211.899L12.5838 190.62C12.1614 189.411 12.5317 188.106 13.5495 187.216C14.5692 186.325 16.0484 186.014 17.4123 186.403L44.9399 194.255C46.3038 194.644 47.2974 195.662 47.5375 196.91C47.7756 198.159 47.2156 199.409 46.0712 200.173L25.9773 213.599C25.3074 214.046 24.4943 214.281 23.6718 214.281ZM16.2289 189.263C16.1061 189.263 16.0168 189.315 15.9573 189.368C15.8772 189.437 15.7972 189.556 15.8568 189.725L23.2922 211.004C23.3425 211.148 23.4616 211.211 23.5527 211.236C23.6439 211.262 23.7797 211.273 23.9174 211.181L44.0114 197.755C44.1714 197.648 44.1844 197.51 44.1658 197.413C44.1472 197.316 44.0858 197.189 43.8942 197.135L16.3666 189.282C16.3127 189.269 16.2699 189.263 16.2289 189.263Z" fill="#F8A690"/>
<path d="M513.148 215.792C514.977 215.121 515.846 213.266 515.089 211.649C514.332 210.031 512.236 209.263 510.408 209.934C508.579 210.605 507.711 212.459 508.467 214.077C509.224 215.695 511.32 216.462 513.148 215.792Z" fill="#F8A690"/>
<path d="M511.762 230.559C513.742 230.559 515.346 229.14 515.346 227.39C515.346 225.639 513.742 224.22 511.762 224.22C509.783 224.22 508.179 225.639 508.179 227.39C508.179 229.14 509.783 230.559 511.762 230.559Z" fill="#F8A690"/>
<path d="M511.762 245.082C513.742 245.082 515.346 243.663 515.346 241.913C515.346 240.163 513.742 238.744 511.762 238.744C509.783 238.744 508.179 240.163 508.179 241.913C508.179 243.663 509.783 245.082 511.762 245.082Z" fill="#F8A690"/>
<path d="M511.762 259.606C513.742 259.606 515.346 258.187 515.346 256.437C515.346 254.686 513.742 253.267 511.762 253.267C509.783 253.267 508.179 254.686 508.179 256.437C508.179 258.187 509.783 259.606 511.762 259.606Z" fill="#F8A690"/>
<path d="M511.762 274.129C513.742 274.129 515.346 272.71 515.346 270.96C515.346 269.21 513.742 267.791 511.762 267.791C509.783 267.791 508.179 269.21 508.179 270.96C508.179 272.71 509.783 274.129 511.762 274.129Z" fill="#F8A690"/>
<path d="M511.762 288.653C513.742 288.653 515.346 287.234 515.346 285.483C515.346 283.733 513.742 282.314 511.762 282.314C509.783 282.314 508.179 283.733 508.179 285.483C508.179 287.234 509.783 288.653 511.762 288.653Z" fill="#F8A690"/>
<path d="M532.301 213.635C532.756 211.932 531.563 210.224 529.636 209.822C527.71 209.419 525.78 210.474 525.326 212.177C524.872 213.881 526.065 215.588 527.991 215.991C529.917 216.394 531.847 215.339 532.301 213.635Z" fill="#F8A690"/>
<path d="M528.801 230.559C530.78 230.559 532.384 229.14 532.384 227.39C532.384 225.639 530.78 224.22 528.801 224.22C526.821 224.22 525.217 225.639 525.217 227.39C525.217 229.14 526.821 230.559 528.801 230.559Z" fill="#F8A690"/>
<path d="M528.801 245.082C530.78 245.082 532.384 243.663 532.384 241.913C532.384 240.163 530.78 238.744 528.801 238.744C526.821 238.744 525.217 240.163 525.217 241.913C525.217 243.663 526.821 245.082 528.801 245.082Z" fill="#F8A690"/>
<path d="M528.801 259.606C530.78 259.606 532.384 258.187 532.384 256.436C532.384 254.686 530.78 253.267 528.801 253.267C526.821 253.267 525.217 254.686 525.217 256.436C525.217 258.187 526.821 259.606 528.801 259.606Z" fill="#F8A690"/>
<path d="M528.801 274.129C530.78 274.129 532.384 272.71 532.384 270.96C532.384 269.21 530.78 267.791 528.801 267.791C526.821 267.791 525.217 269.21 525.217 270.96C525.217 272.71 526.821 274.129 528.801 274.129Z" fill="#F8A690"/>
<path d="M528.801 288.653C530.78 288.653 532.384 287.234 532.384 285.483C532.384 283.733 530.78 282.314 528.801 282.314C526.821 282.314 525.217 283.733 525.217 285.483C525.217 287.234 526.821 288.653 528.801 288.653Z" fill="#F8A690"/>
<path d="M547.228 215.791C549.057 215.12 549.925 213.266 549.169 211.648C548.412 210.03 546.316 209.263 544.487 209.933C542.659 210.604 541.79 212.459 542.547 214.076C543.304 215.694 545.4 216.462 547.228 215.791Z" fill="#F8A690"/>
<path d="M545.842 230.559C547.821 230.559 549.425 229.14 549.425 227.39C549.425 225.639 547.821 224.22 545.842 224.22C543.862 224.22 542.258 225.639 542.258 227.39C542.258 229.14 543.862 230.559 545.842 230.559Z" fill="#F8A690"/>
<path d="M545.842 245.082C547.821 245.082 549.425 243.663 549.425 241.913C549.425 240.163 547.821 238.744 545.842 238.744C543.862 238.744 542.258 240.163 542.258 241.913C542.258 243.663 543.862 245.082 545.842 245.082Z" fill="#F8A690"/>
<path d="M545.842 259.606C547.821 259.606 549.425 258.187 549.425 256.436C549.425 254.686 547.821 253.267 545.842 253.267C543.862 253.267 542.258 254.686 542.258 256.436C542.258 258.187 543.862 259.606 545.842 259.606Z" fill="#F8A690"/>
<path d="M545.842 274.129C547.821 274.129 549.425 272.71 549.425 270.96C549.425 269.21 547.821 267.791 545.842 267.791C543.862 267.791 542.258 269.21 542.258 270.96C542.258 272.71 543.862 274.129 545.842 274.129Z" fill="#F8A690"/>
<path d="M545.842 288.653C547.821 288.653 549.425 287.234 549.425 285.483C549.425 283.733 547.821 282.314 545.842 282.314C543.862 282.314 542.258 283.733 542.258 285.483C542.258 287.234 543.862 288.653 545.842 288.653Z" fill="#F8A690"/>
<path d="M564.267 215.791C566.095 215.121 566.964 213.266 566.207 211.648C565.45 210.03 563.354 209.263 561.526 209.933C559.698 210.604 558.829 212.459 559.586 214.076C560.342 215.694 562.438 216.462 564.267 215.791Z" fill="#F8A690"/>
<path d="M562.88 230.559C564.859 230.559 566.464 229.14 566.464 227.39C566.464 225.639 564.859 224.22 562.88 224.22C560.9 224.22 559.296 225.639 559.296 227.39C559.296 229.14 560.9 230.559 562.88 230.559Z" fill="#F8A690"/>
<path d="M562.88 245.082C564.859 245.082 566.464 243.664 566.464 241.913C566.464 240.163 564.859 238.744 562.88 238.744C560.9 238.744 559.296 240.163 559.296 241.913C559.296 243.664 560.9 245.082 562.88 245.082Z" fill="#F8A690"/>
<path d="M562.88 259.606C564.859 259.606 566.464 258.187 566.464 256.437C566.464 254.686 564.859 253.267 562.88 253.267C560.9 253.267 559.296 254.686 559.296 256.437C559.296 258.187 560.9 259.606 562.88 259.606Z" fill="#F8A690"/>
<path d="M562.88 274.13C564.859 274.13 566.464 272.711 566.464 270.96C566.464 269.21 564.859 267.791 562.88 267.791C560.9 267.791 559.296 269.21 559.296 270.96C559.296 272.711 560.9 274.13 562.88 274.13Z" fill="#F8A690"/>
<path d="M562.88 288.653C564.859 288.653 566.464 287.234 566.464 285.484C566.464 283.733 564.859 282.314 562.88 282.314C560.9 282.314 559.296 283.733 559.296 285.484C559.296 287.234 560.9 288.653 562.88 288.653Z" fill="#F8A690"/>
<path d="M583.422 213.638C583.876 211.934 582.683 210.226 580.757 209.824C578.831 209.421 576.901 210.476 576.447 212.179C575.992 213.883 577.185 215.59 579.112 215.993C581.038 216.396 582.968 215.341 583.422 213.638Z" fill="#F8A690"/>
<path d="M579.919 230.559C581.899 230.559 583.503 229.14 583.503 227.39C583.503 225.639 581.899 224.22 579.919 224.22C577.94 224.22 576.335 225.639 576.335 227.39C576.335 229.14 577.94 230.559 579.919 230.559Z" fill="#F8A690"/>
<path d="M579.919 245.082C581.899 245.082 583.503 243.664 583.503 241.913C583.503 240.163 581.899 238.744 579.919 238.744C577.94 238.744 576.335 240.163 576.335 241.913C576.335 243.664 577.94 245.082 579.919 245.082Z" fill="#F8A690"/>
<path d="M579.919 259.606C581.899 259.606 583.503 258.187 583.503 256.437C583.503 254.686 581.899 253.267 579.919 253.267C577.94 253.267 576.335 254.686 576.335 256.437C576.335 258.187 577.94 259.606 579.919 259.606Z" fill="#F8A690"/>
<path d="M579.919 274.129C581.899 274.129 583.503 272.71 583.503 270.96C583.503 269.21 581.899 267.791 579.919 267.791C577.94 267.791 576.335 269.21 576.335 270.96C576.335 272.71 577.94 274.129 579.919 274.129Z" fill="#F8A690"/>
<path d="M579.919 288.653C581.899 288.653 583.503 287.234 583.503 285.483C583.503 283.733 581.899 282.314 579.919 282.314C577.94 282.314 576.335 283.733 576.335 285.483C576.335 287.234 577.94 288.653 579.919 288.653Z" fill="#F8A690"/>
<path d="M9.40992 347.338C11.3892 347.338 12.9937 345.919 12.9937 344.168C12.9937 342.418 11.3892 340.999 9.40992 340.999C7.43067 340.999 5.82617 342.418 5.82617 344.168C5.82617 345.919 7.43067 347.338 9.40992 347.338Z" fill="#F8A690"/>
<path d="M12.957 359.206C13.2741 357.479 11.9474 355.851 9.99359 355.57C8.03985 355.29 6.19894 356.463 5.8818 358.191C5.56467 359.919 6.8914 361.547 8.84514 361.827C10.7989 362.107 12.6398 360.934 12.957 359.206Z" fill="#F8A690"/>
<path d="M12.957 373.73C13.2741 372.002 11.9474 370.374 9.99358 370.094C8.03984 369.814 6.19894 370.987 5.8818 372.715C5.56467 374.442 6.8914 376.07 8.84514 376.351C10.7989 376.631 12.6398 375.458 12.957 373.73Z" fill="#F8A690"/>
<path d="M12.957 388.254C13.2741 386.526 11.9474 384.898 9.99359 384.618C8.03985 384.337 6.19894 385.511 5.8818 387.238C5.56467 388.966 6.8914 390.594 8.84514 390.875C10.7989 391.155 12.6398 389.982 12.957 388.254Z" fill="#F8A690"/>
<path d="M10.7897 405.199C12.6182 404.529 13.4869 402.674 12.7301 401.056C11.9733 399.439 9.8776 398.671 8.04916 399.341C6.22072 400.012 5.35198 401.867 6.10876 403.484C6.86554 405.102 8.96128 405.87 10.7897 405.199Z" fill="#F8A690"/>
<path d="M10.7902 419.723C12.6187 419.053 13.4874 417.198 12.7306 415.58C11.9738 413.963 9.87809 413.195 8.04965 413.865C6.22121 414.536 5.35247 416.391 6.10925 418.008C6.86603 419.626 8.96177 420.394 10.7902 419.723Z" fill="#F8A690"/>
<path d="M26.4505 347.338C28.4297 347.338 30.0342 345.919 30.0342 344.168C30.0342 342.418 28.4297 340.999 26.4505 340.999C24.4712 340.999 22.8667 342.418 22.8667 344.168C22.8667 345.919 24.4712 347.338 26.4505 347.338Z" fill="#F8A690"/>
<path d="M29.996 359.205C30.3132 357.477 28.9864 355.849 27.0327 355.569C25.079 355.289 23.238 356.462 22.9209 358.19C22.6038 359.917 23.9305 361.545 25.8842 361.826C27.838 362.106 29.6789 360.933 29.996 359.205Z" fill="#F8A690"/>
<path d="M29.9964 373.729C30.3135 372.001 28.9868 370.373 27.0331 370.093C25.0793 369.812 23.2384 370.986 22.9213 372.713C22.6042 374.441 23.9309 376.069 25.8846 376.35C27.8384 376.63 29.6793 375.457 29.9964 373.729Z" fill="#F8A690"/>
<path d="M29.9964 388.253C30.3135 386.525 28.9868 384.897 27.0331 384.616C25.0793 384.336 23.2384 385.509 22.9213 387.237C22.6042 388.965 23.9309 390.593 25.8846 390.873C27.8384 391.154 29.6793 389.98 29.9964 388.253Z" fill="#F8A690"/>
<path d="M27.8303 405.199C29.6587 404.528 30.5274 402.673 29.7707 401.055C29.0139 399.438 26.9181 398.67 25.0897 399.341C23.2613 400.011 22.3925 401.866 23.1493 403.484C23.9061 405.101 26.0018 405.869 27.8303 405.199Z" fill="#F8A690"/>
<path d="M27.8303 419.722C29.6587 419.052 30.5275 417.197 29.7707 415.579C29.0139 413.962 26.9181 413.194 25.0897 413.865C23.2613 414.535 22.3925 416.39 23.1493 418.008C23.9061 419.625 26.0018 420.393 27.8303 419.722Z" fill="#F8A690"/>
<path d="M43.489 347.338C45.4683 347.338 47.0728 345.919 47.0728 344.168C47.0728 342.418 45.4683 340.999 43.489 340.999C41.5098 340.999 39.9053 342.418 39.9053 344.168C39.9053 345.919 41.5098 347.338 43.489 347.338Z" fill="#F8A690"/>
<path d="M46.9619 359.444C47.4173 357.74 46.2249 356.034 44.2986 355.632C42.3723 355.231 40.4415 356.286 39.9861 357.989C39.5307 359.692 40.7231 361.399 42.6494 361.8C44.5757 362.202 46.5065 361.147 46.9619 359.444Z" fill="#F8A690"/>
<path d="M46.959 373.969C47.4139 372.266 46.2212 370.559 44.295 370.157C42.3687 369.755 40.4384 370.81 39.9835 372.513C39.5286 374.216 40.7213 375.923 42.6475 376.326C44.5738 376.728 46.5041 375.673 46.959 373.969Z" fill="#F8A690"/>
<path d="M46.9585 388.493C47.4135 386.79 46.2207 385.083 44.2945 384.681C42.3682 384.279 40.4379 385.334 39.983 387.037C39.5281 388.74 40.7208 390.447 42.6471 390.85C44.5733 391.252 46.5036 390.197 46.9585 388.493Z" fill="#F8A690"/>
<path d="M46.0161 404.502C47.415 403.264 47.415 401.256 46.0161 400.017C44.6172 398.779 42.349 398.779 40.9501 400.017C39.5512 401.256 39.5512 403.264 40.9501 404.502C42.349 405.741 44.6172 405.741 46.0161 404.502Z" fill="#F8A690"/>
<path d="M46.0161 419.026C47.415 417.787 47.415 415.779 46.0161 414.54C44.6172 413.302 42.349 413.302 40.9501 414.54C39.5512 415.779 39.5512 417.787 40.9501 419.026C42.349 420.264 44.6172 420.264 46.0161 419.026Z" fill="#F8A690"/>
<path d="M559.607 656.361H28.3921V25.6375H559.605V656.361H559.607ZM31.3692 653.728H556.628V28.2703H31.3692V653.728Z" fill="white"/>
<path d="M114.589 583.337C120.484 583.337 125.262 579.111 125.262 573.898C125.262 568.685 120.484 564.459 114.589 564.459C108.695 564.459 103.916 568.685 103.916 573.898C103.916 579.111 108.695 583.337 114.589 583.337Z" fill="#FF584B"/>
<path d="M207.542 62.9138C210.438 60.3524 210.438 56.1994 207.542 53.6379C204.645 51.0765 199.949 51.0765 197.053 53.6379C194.157 56.1994 194.157 60.3524 197.053 62.9138C199.949 65.4753 204.645 65.4753 207.542 62.9138Z" fill="#FF584B"/>
<path d="M539.988 475.185C540.644 471.609 537.898 468.24 533.855 467.66C529.811 467.08 526.002 469.508 525.345 473.084C524.689 476.659 527.435 480.029 531.478 480.609C535.522 481.189 539.332 478.761 539.988 475.185Z" fill="#FF584B"/>
<path d="M273.368 352.62C277.464 352.62 280.785 349.683 280.785 346.06C280.785 342.438 277.464 339.501 273.368 339.501C269.272 339.501 265.951 342.438 265.951 346.06C265.951 349.683 269.272 352.62 273.368 352.62Z" fill="#FF584B"/>
<path d="M264.937 217.328C264.937 217.328 387.237 240.135 433.683 153.662C480.128 67.1892 360.366 59.0784 324.108 66.4553C287.85 73.8322 173.505 85.894 168.701 144.403C163.898 202.91 264.937 217.328 264.937 217.328Z" fill="#FF584B"/>
<path d="M306.515 217.294C254.197 230.07 198.751 219.315 163.122 200.377C156.581 196.901 97.5795 165.47 103.404 134.432C106.798 116.351 121.708 104.327 122.971 103.469C134.082 95.9411 146.217 94.8402 153.167 94.2873C171.25 92.8491 175.726 98.6694 199.179 99.8328C213.339 100.535 221.603 101.21 231.122 97.6689C242.095 93.5863 244.953 87.8286 253.881 80.6771C269.524 68.1464 290.572 61.9361 307.527 61.1018C340.175 59.4942 365.5 77.4321 367.424 78.8358C379.734 87.8072 383.51 96.1813 400.768 103.998C410.239 108.288 413.527 109.813 424.688 111.171C444.612 113.594 479.65 129.64 484.268 153.03C487.232 168.037 475.824 180.665 474.047 182.574C462.671 194.788 443.064 202.751 427.626 198.362C419.84 196.149 419.939 192.773 411.971 190.174C396.872 185.249 381.389 192.447 369.8 197.278C369.8 197.278 343.383 208.292 306.515 217.294Z" fill="#7C332D"/>
<path d="M488.605 134.591C495.74 128.282 495.74 118.051 488.605 111.741C481.47 105.432 469.902 105.432 462.767 111.741C455.632 118.051 455.632 128.282 462.767 134.591C469.902 140.901 481.47 140.901 488.605 134.591Z" fill="#FF584B"/>
<path d="M131.747 208.191C152.043 208.191 168.495 193.641 168.495 175.693C168.495 157.745 152.043 143.195 131.747 143.195C111.452 143.195 95 157.745 95 175.693C95 193.641 111.452 208.191 131.747 208.191Z" fill="#FF584B"/>
<path d="M187.756 216.913C193.202 214.918 195.788 209.396 193.532 204.58C191.276 199.764 185.032 197.477 179.586 199.472C174.14 201.466 171.554 206.988 173.81 211.804C176.066 216.62 182.31 218.907 187.756 216.913Z" fill="#FF584B"/>
<path d="M459.116 150.576C461.962 148.059 461.962 143.978 459.116 141.461C456.269 138.944 451.655 138.944 448.808 141.461C445.962 143.978 445.962 148.059 448.808 150.576C451.655 153.093 456.269 153.093 459.116 150.576Z" fill="#FF584B"/>
<path d="M64.5535 462.171C65.197 458.657 62.4978 455.345 58.5246 454.773C54.5514 454.202 50.8087 456.587 50.1652 460.101C49.5217 463.615 52.2209 466.927 56.1941 467.499C60.1673 468.07 63.9099 465.685 64.5535 462.171Z" fill="#FF584B"/>
<path d="M299.467 545.144C406.316 545.144 492.934 539.739 492.934 533.072C492.934 526.405 406.316 521 299.467 521C192.618 521 106 526.405 106 533.072C106 539.739 192.618 545.144 299.467 545.144Z" fill="#7C332D"/>
<path opacity="0.3" d="M232.581 484.069C232.195 487.018 231.768 489.964 231.297 492.907C230.417 498.216 229.428 503.514 228.258 508.79L227.342 512.743C227.011 514.057 226.696 515.374 226.349 516.686C225.998 517.999 225.654 519.312 225.272 520.622C224.899 521.94 224.507 523.229 224.066 524.575C224.064 524.58 224.06 524.595 224.058 524.6C223.711 525.602 222.457 526.182 221.255 525.893C220.054 525.604 219.358 524.557 219.705 523.555L219.719 523.512C220.572 521.041 221.348 518.443 222.069 515.878C222.433 514.592 222.766 513.297 223.115 512.005L224.088 508.114C225.335 502.917 226.408 497.685 227.373 492.439C227.893 489.519 228.37 486.593 228.805 483.661C218.795 482.299 184.613 476.809 191.458 466.136C198.122 455.744 221.464 475.063 229.075 481.804C230.074 474.81 230.838 467.789 231.376 460.754C231.677 456.816 231.906 452.874 232.065 448.929C222.914 447.987 186.841 443.534 193.381 432.428C199.745 421.618 224.807 441.313 232.122 447.41C232.345 441.236 232.398 435.056 232.288 428.878L232.048 420.903L231.683 414.633C223.254 415.036 185.527 416.175 189.689 404.088C193.78 392.206 224.044 409.073 231.618 413.519L231.585 412.934L231.467 410.941L231.295 408.951L230.939 404.973L230.582 400.994C230.446 399.669 230.269 398.347 230.115 397.022C229.692 393.281 229.199 389.546 228.638 385.816C220.652 385.785 182.194 385.014 187.314 373.065C192.309 361.407 221.306 379.916 228.472 384.722C226.859 374.229 224.712 363.79 222.084 353.433C215.968 353.532 178.434 353.675 183.027 342.253C187.519 331.087 216.142 348.997 221.909 352.75C220.319 346.539 218.557 340.356 216.632 334.209C215.129 329.568 213.524 324.953 211.824 320.359C206.673 320.533 171.309 321.344 175.343 310.623C179.283 300.153 206.519 316.614 211.623 319.813C208.379 311.093 204.776 302.465 200.819 293.947C196.875 293.97 164.894 293.871 168.896 284.42C172.796 275.212 196.591 290.809 200.631 293.544C198.157 288.237 195.547 282.971 192.796 277.756C191.239 276.775 163.875 259.349 174.343 253.741C184.721 248.181 192.295 275.665 192.835 277.682C195.675 282.851 198.374 288.076 200.941 293.346C200.302 288.534 197.604 264.127 208.847 266.318C220.633 268.613 203.174 291.448 201.228 293.94C205.314 302.366 209.05 310.912 212.436 319.555C212.933 313.77 215.911 286.55 227.832 290.864C240.262 295.363 216.037 317.358 212.724 320.296C214.485 324.825 216.157 329.378 217.727 333.957C219.734 339.996 221.582 346.074 223.266 352.184C225.64 345.655 236.358 318.384 247.562 325.194C259.191 332.265 228.748 350.17 223.53 353.141C226.331 363.42 228.658 373.793 230.46 384.234C234.583 376.785 250.278 350.334 260.84 358.77C271.841 367.556 237.76 382.625 230.694 385.607C231.321 389.339 231.882 393.079 232.373 396.825C232.552 398.153 232.753 399.48 232.912 400.81L233.34 404.804L233.767 408.799L233.976 410.797L234.116 412.622C240.573 405.458 261.626 383.581 269.686 393.414C278.052 403.618 243.183 412.313 234.246 414.346L234.736 420.803L235.12 428.82C235.341 435.036 235.398 441.257 235.284 447.478C242.099 441.219 266.235 420.282 273.244 430.884C280.481 441.835 243.858 447.713 235.256 448.93C235.166 452.925 235.004 456.921 234.77 460.912C234.34 468.209 233.673 475.5 232.751 482.771C240.665 477.966 269.891 461.208 274.185 472.882C278.58 484.838 241.315 484.345 232.581 484.069Z" fill="#7C332D"/>
<path opacity="0.3" d="M341.125 455.171C342.096 453.485 343.022 451.78 344.026 450.105C359.535 440.628 381.482 437.08 411.728 436.249C442.287 435.406 447.21 410.409 447.21 410.409C427.839 419.803 426.659 415.787 391.443 421.648C365.099 426.033 351.364 439.947 346.114 446.681L346.443 446.14L348.358 443.188C349.008 442.208 349.615 441.209 350.3 440.246L352.315 437.336L353.322 435.881C353.663 435.398 354.021 434.924 354.37 434.445L356.475 431.577C357.866 429.666 359.342 427.741 360.697 425.785C362.078 423.835 363.385 421.848 364.662 419.849C366.456 416.991 368.127 414.076 369.649 411.109C387.695 399.88 420.925 399.719 420.925 399.719C453.958 395.948 455.444 373.866 455.509 371.761C455.511 371.754 455.509 371.746 455.511 371.738C455.513 371.697 455.517 371.667 455.513 371.647C455.515 371.644 455.515 371.641 455.515 371.641C455.515 371.626 455.513 371.618 455.515 371.61C455.513 371.601 455.513 371.598 455.513 371.598C455.337 372.193 455.134 372.799 454.892 373.409C453.05 376.447 445.776 382.605 417.115 386.345C388.11 390.128 375.643 402.132 371.125 408.112C371.225 407.898 371.328 407.688 371.426 407.474C372.387 405.351 373.28 403.205 374.066 401.03C374.838 398.851 375.517 396.651 376.077 394.426C377.166 389.973 377.771 385.428 377.712 380.88C377.678 378.034 377.381 375.192 376.821 372.387C383.31 364.626 389.757 361.575 395.363 359.656C425.239 349.426 421.167 330.365 421.112 330.121C421.055 330.329 418.859 337.934 398.385 346.724C381.618 353.925 377.531 366.646 376.581 371.269C376.29 369.971 375.943 368.682 375.539 367.405C374.848 365.21 373.997 363.052 373.012 360.941C372.023 358.831 370.894 356.769 369.673 354.753C367.727 351.544 365.513 348.463 363.226 345.43C364.745 341.077 370.587 333.359 370.587 333.359C383.489 314.443 376.79 298.61 376.63 298.245C376.63 298.242 376.626 298.24 376.628 298.237C375.2 309.036 368.808 304.66 362.958 320.102C358.548 331.734 360.841 340.508 362.241 344.128C361.977 343.783 361.713 343.436 361.449 343.091C359.997 341.194 358.54 339.302 357.165 337.37C355.794 335.438 354.506 333.461 353.513 331.376C352.581 329.273 351.707 327.135 350.761 325.028C350.288 323.974 349.818 322.919 349.317 321.874C349.069 321.349 348.813 320.829 348.549 320.311C348.413 320.053 348.281 319.795 348.133 319.54C348.063 319.412 347.986 319.287 347.909 319.162C347.822 319.044 347.759 318.904 347.627 318.816C347.755 318.906 347.818 319.046 347.901 319.166C347.976 319.292 348.051 319.417 348.118 319.547C348.259 319.802 348.388 320.063 348.518 320.322C348.772 320.843 349.016 321.368 349.254 321.895C349.733 322.947 350.182 324.008 350.633 325.068C351.537 327.191 352.363 329.327 353.257 331.458C354.216 333.574 355.473 335.584 356.808 337.543C358.148 339.501 359.57 341.417 360.982 343.335C362.103 344.851 363.212 346.373 364.294 347.907C361.487 345.692 348.833 339.368 343.973 331.782C338.858 323.791 323.629 318.446 323.629 318.446C323.629 318.446 323.627 318.449 323.631 318.454C323.596 318.921 322.313 338.676 343.737 343.55C361.002 347.479 366.514 351.92 368.04 353.566C368.343 354.061 368.641 354.559 368.93 355.06C370.101 357.076 371.174 359.132 372.108 361.228C373.037 363.327 373.831 365.463 374.468 367.632C375.744 371.968 376.37 376.427 376.329 380.883C376.307 383.769 376.012 386.649 375.492 389.502C373.42 366.84 352.357 355.26 335.665 352.595C318.468 349.855 313.489 336.456 313.315 335.988C313.313 335.98 313.313 335.977 313.313 335.977C313.313 335.977 304.219 362.816 339.569 370.369C367.213 376.276 373.693 386.71 375.204 390.974C374.984 392.032 374.732 393.085 374.454 394.134C373.861 396.307 373.15 398.458 372.348 400.586C371.535 402.711 370.613 404.807 369.626 406.883C367.613 411.02 365.284 415.051 362.716 418.974C361.416 420.93 360.084 422.87 358.684 424.778C357.596 426.285 356.458 427.747 355.319 429.231C356.706 421.63 358.112 400.617 336.344 384.184C329.43 378.963 325.654 376.868 303.524 369.375C303.524 369.375 290.566 365.344 283.187 352.786C283.187 352.786 283.186 352.789 283.187 352.801C283.237 353.438 284.868 373.884 303.805 383.3C326.306 394.489 350.623 406.296 354.411 430.421C354.401 430.434 354.389 430.448 354.38 430.462L352.197 433.322C351.835 433.8 351.464 434.274 351.11 434.755L350.064 436.209L347.97 439.118C347.259 440.08 346.623 441.081 345.947 442.062L343.95 445.02L342.045 448.022C340.743 450.01 339.592 452.064 338.375 454.09C337.26 456.068 336.163 458.055 335.109 460.058C327.228 415.322 283.168 405.779 266.974 398.764C254.194 393.232 247.172 384.879 246.973 384.641C246.969 384.636 246.969 384.636 246.969 384.636C242.472 410.383 273.595 421.168 273.595 421.168C317.519 435.447 330.671 453.007 334.286 459.849C334.437 460.183 334.579 460.505 334.715 460.815C333.726 462.72 332.781 464.639 331.906 466.584C329.97 470.828 328.205 475.138 326.771 479.535C325.447 483.587 324.362 487.702 323.578 491.867C322.227 481.736 315.764 460.01 285.47 452.828C246.707 443.638 242.066 428.6 241.81 427.668C246.949 451.773 253.53 455.799 263.907 462.813C272.084 468.341 296.178 472.094 305.783 476.563C313.479 480.15 320.493 491.236 322.971 495.489C322.447 499.184 322.211 502.917 322.276 506.662C322.341 508.969 322.524 511.281 322.889 513.589C323.062 514.744 323.306 515.898 323.584 517.051C323.734 517.628 323.889 518.205 324.072 518.785C324.161 519.074 324.264 519.367 324.364 519.657C324.478 519.963 324.569 520.223 324.734 520.594C324.738 520.602 324.746 520.62 324.75 520.628C325.199 521.578 326.485 522.043 327.622 521.67C328.759 521.297 329.318 520.223 328.871 519.275L328.853 519.238C328.78 519.084 328.668 518.806 328.579 518.575C328.489 518.326 328.396 518.08 328.313 517.825C328.142 517.318 327.99 516.8 327.845 516.277C327.571 515.229 327.321 514.168 327.137 513.091C326.753 510.942 326.535 508.758 326.426 506.567C326.261 502.178 326.529 497.756 327.22 493.367C327.717 490.147 328.41 486.941 329.261 483.76C350.799 474.629 369.035 474.953 369.035 474.953C419.237 475.326 432.133 454.399 433.809 451.198L433.845 451.137C433.941 450.951 433.991 450.835 434.004 450.8C433.831 451.017 430.388 454.52 384.768 454.8C351.003 455.007 336.271 470.176 330.756 478.691C331.973 474.935 333.429 471.226 335.017 467.557C336.803 463.351 338.931 459.248 341.125 455.171Z" fill="#7C332D"/>
<path opacity="0.3" d="M167.722 472.524C175.018 463.199 180.204 453.47 179.639 447.836C179.342 444.878 182.95 436.487 182.95 436.487C182.95 436.487 177.685 438.703 175.351 441.894C173.017 445.085 177.782 447.499 167.17 461.063C158.856 471.694 158.846 488.586 159.23 495.398C154.711 489.345 150.447 483.149 146.32 476.89C147.756 472.146 152.541 457.675 160.386 447.171C169.895 434.438 166.497 417.962 162.313 411.966C162.313 411.966 165.851 428.245 154.065 444.622C143.799 458.888 145.751 470.556 145.94 476.31C145.903 476.254 145.865 476.196 145.828 476.141C143.166 472.149 140.588 468.106 137.964 464.088C140.224 460.253 149.222 444.556 150.126 436.342C151.162 426.942 148.006 410.215 148.006 410.215C148.006 410.215 147.711 428.307 141.998 439.367C137.49 448.099 137.267 458.983 137.371 463.183C137.176 462.884 136.981 462.586 136.784 462.287C134.381 458.626 131.968 454.97 129.504 451.336C130.469 447.69 134.367 432.962 135.833 427.203C137.509 420.609 137.915 405.488 129.809 395.535C129.809 395.535 134.389 410.529 128.005 424.676C123.575 434.491 125.907 443.915 127.751 448.768C127.69 448.679 127.631 448.59 127.57 448.503C126.778 447.364 126.014 446.216 125.202 445.087L122.779 441.696C121.113 439.459 119.462 437.213 117.585 435.089C117.549 435.046 117.514 435.006 117.478 434.964C117.567 433.866 117.926 429.62 119.196 415.884C120.754 399.053 107.854 392.398 107.854 392.398C109.851 393.388 112.948 402.875 113.425 414.615C113.826 424.508 116.409 432.414 117.213 434.656C116.868 434.269 116.503 433.894 116.141 433.516C115.662 432.99 115.119 432.509 114.599 432.013C114.116 431.572 113.616 431.145 113.115 430.72C111.579 429.101 107.214 424.08 101.324 413.736C93.9237 400.739 77.1116 397.395 77.1116 397.395C77.1116 397.395 83.0071 399.203 93.4982 413.57C102.636 426.084 111.193 430.269 113.249 431.14C113.633 431.482 114.014 431.824 114.382 432.175C114.886 432.678 115.412 433.163 115.875 433.694C116.352 434.214 116.834 434.729 117.268 435.278C118.383 436.595 119.415 437.962 120.419 439.344C118.641 438.919 112.493 436.814 97.7746 426.461C79.692 413.739 65.6671 418.35 65.6671 418.35C68.8975 417.829 74.1608 420.703 89.8876 429.234C103.853 436.811 117.551 438.988 120.443 439.38C121.06 440.232 121.668 441.089 122.275 441.944L124.607 445.368C125.389 446.507 126.126 447.67 126.888 448.819C127.942 450.424 128.982 452.036 130.016 453.651C109.075 449.921 101.742 446.084 101.742 446.084C82.1759 434.643 62.8739 435.42 62.8739 435.42C69.4373 436.02 76.5009 440.473 93.4529 448.712C108.484 456.017 126.333 454.379 130.186 453.914C132.061 456.849 133.908 459.795 135.752 462.744C136.546 464.013 137.334 465.283 138.12 466.553C113.167 468.323 98.3951 461.2 98.3951 461.2C75.1871 448.802 57 449.708 57 449.708C74.929 453.181 69.3782 457.854 94.2684 465.835C115.794 472.738 133.804 468.166 138.277 466.806C140.324 470.122 142.357 473.444 144.455 476.75C145.583 478.554 146.724 480.355 147.878 482.15C142.022 482.166 130.469 481.244 111.313 473.451C93.2461 466.101 74.2711 472.582 69.3959 474.502C72.3998 473.635 82.103 472.527 109.67 479.332C136.973 486.072 145.725 484.152 148.341 482.864C151.997 488.526 155.797 494.13 159.833 499.623C155.287 497 147.732 493.293 140.86 492.943C130.126 492.398 121.587 490.554 116.373 488.502C111.161 486.45 96.0432 486.436 85.3079 496.07C85.3079 496.07 100.631 490.883 108.699 494.19C116.767 497.498 124.962 499.647 130.012 499.606C134.665 499.567 149.659 498.402 161.123 501.369C161.828 502.314 162.539 503.256 163.26 504.192L165.849 507.513C166.272 508.072 166.733 508.609 167.182 509.154L168.535 510.784L169.889 512.416C170.095 512.659 170.308 512.899 170.521 513.139C136.968 501.653 98.1253 504.601 98.1253 504.601C104.608 504.154 120.985 513.433 133.924 516.184C140.685 517.621 164.348 515.492 171.953 514.751L172.717 515.612L173.428 516.409L174.173 517.188L175.662 518.745L176.407 519.524L177.191 520.282L178.759 521.795C179.015 522.051 179.292 522.293 179.568 522.536L180.396 523.267L181.223 523.998C181.497 524.243 181.8 524.47 182.088 524.707L182.962 525.41C183.11 525.527 183.25 525.646 183.403 525.76L183.868 526.097L184.8 526.769C185.109 526.994 185.458 527.198 185.785 527.413C185.952 527.518 186.114 527.626 186.287 527.73L186.829 528.032C187.014 528.133 187.179 528.234 187.394 528.331C187.613 528.432 187.759 528.517 188.101 528.642L188.19 528.675C188.243 528.693 188.296 528.711 188.351 528.724C189.175 528.933 190.044 528.547 190.296 527.86C190.546 527.173 190.083 526.448 189.26 526.238C189.24 526.233 189.051 526.146 188.923 526.088C188.789 526.034 188.633 525.944 188.485 525.867L188.038 525.628C187.889 525.543 187.741 525.448 187.593 525.357C187.298 525.17 186.994 525.002 186.705 524.8L185.834 524.196L185.399 523.893C185.255 523.791 185.117 523.678 184.975 523.571L184.132 522.92C183.854 522.7 183.563 522.495 183.295 522.263L182.483 521.575L181.672 520.885C181.4 520.655 181.128 520.428 180.872 520.183L179.314 518.739L178.534 518.016L177.787 517.266L176.292 515.766L175.544 515.017L174.825 514.245L173.391 512.697C173.027 512.299 172.654 511.907 172.29 511.509C203.45 475.383 188.062 453.582 189.086 456.029C190.12 458.503 186.287 470.495 178.475 486.56C172.898 498.025 171.579 506.466 171.281 510.36L170.586 509.557L169.209 507.968C168.752 507.437 168.283 506.913 167.85 506.368L165.205 503.121C163.339 500.801 161.521 498.453 159.742 496.083C161.576 481.614 163.43 478.009 167.722 472.524Z" fill="#7C332D"/>
<path opacity="0.3" d="M424.449 472.524C417.153 463.199 411.967 453.47 412.532 447.836C412.829 444.878 409.221 436.487 409.221 436.487C409.221 436.487 414.486 438.703 416.82 441.894C419.154 445.085 414.389 447.499 425.001 461.063C433.315 471.694 433.325 488.586 432.941 495.398C437.46 489.345 441.724 483.149 445.851 476.89C444.415 472.146 439.63 457.675 431.785 447.171C422.276 434.438 425.674 417.962 429.858 411.966C429.858 411.966 426.32 428.245 438.106 444.622C448.372 458.888 446.42 470.556 446.231 476.31C446.268 476.254 446.306 476.196 446.343 476.141C449.005 472.149 451.583 468.106 454.207 464.088C451.947 460.253 442.949 444.556 442.045 436.342C441.009 426.942 444.165 410.215 444.165 410.215C444.165 410.215 444.46 428.307 450.173 439.367C454.681 448.099 454.904 458.983 454.8 463.183C454.995 462.884 455.19 462.586 455.387 462.287C457.79 458.626 460.203 454.97 462.667 451.336C461.702 447.69 457.804 432.962 456.338 427.203C454.662 420.609 454.256 405.488 462.362 395.535C462.362 395.535 457.782 410.529 464.166 424.676C468.596 434.491 466.264 443.915 464.42 448.768C464.481 448.679 464.54 448.59 464.601 448.503C465.393 447.364 466.157 446.216 466.969 445.087L469.392 441.696C471.058 439.459 472.709 437.213 474.586 435.089C474.622 435.046 474.657 435.006 474.693 434.964C474.604 433.866 474.245 429.62 472.975 415.884C471.417 399.053 484.317 392.398 484.317 392.398C482.32 393.388 479.223 402.875 478.746 414.615C478.345 424.508 475.762 432.414 474.958 434.656C475.303 434.269 475.668 433.894 476.03 433.516C476.509 432.99 477.052 432.509 477.572 432.013C478.055 431.572 478.555 431.145 479.056 430.72C480.592 429.101 484.957 424.08 490.847 413.736C498.247 400.739 515.059 397.395 515.059 397.395C515.059 397.395 509.164 399.203 498.673 413.57C489.535 426.084 480.978 430.269 478.922 431.14C478.538 431.482 478.157 431.824 477.789 432.175C477.285 432.678 476.759 433.163 476.296 433.694C475.819 434.214 475.337 434.729 474.903 435.278C473.788 436.595 472.756 437.962 471.752 439.344C473.53 438.919 479.678 436.814 494.396 426.461C512.479 413.739 526.504 418.35 526.504 418.35C523.274 417.829 518.008 420.703 502.283 429.234C488.318 436.811 474.62 438.988 471.728 439.38C471.109 440.232 470.503 441.089 469.896 441.944L467.564 445.368C466.782 446.507 466.045 447.67 465.283 448.819C464.229 450.424 463.189 452.036 462.155 453.651C483.096 449.921 490.429 446.084 490.429 446.084C509.995 434.643 529.297 435.42 529.297 435.42C522.734 436.02 515.67 440.473 498.718 448.712C483.687 456.017 465.838 454.379 461.985 453.914C460.11 456.849 458.263 459.795 456.419 462.744C455.625 464.013 454.837 465.283 454.051 466.553C479.004 468.323 493.776 461.2 493.776 461.2C516.984 448.802 535.171 449.708 535.171 449.708C517.242 453.181 522.793 457.854 497.903 465.835C476.377 472.738 458.367 468.166 453.894 466.806C451.847 470.122 449.814 473.444 447.716 476.75C446.588 478.554 445.447 480.355 444.293 482.15C450.149 482.166 461.702 481.244 480.858 473.451C498.925 466.101 517.9 472.582 522.775 474.502C519.771 473.635 510.068 472.527 482.501 479.332C455.198 486.072 446.446 484.152 443.83 482.864C440.174 488.526 436.374 494.13 432.338 499.623C436.884 497 444.439 493.293 451.311 492.943C462.045 492.398 470.584 490.554 475.798 488.502C481.01 486.45 496.128 486.436 506.863 496.07C506.863 496.07 491.54 490.883 483.472 494.19C475.404 497.498 467.209 499.647 462.159 499.606C457.506 499.567 442.512 498.402 431.048 501.369C430.343 502.314 429.632 503.256 428.911 504.192L426.322 507.513C425.899 508.072 425.438 508.609 424.989 509.154L423.636 510.784L422.282 512.416C422.076 512.659 421.863 512.899 421.65 513.139C455.203 501.653 494.046 504.601 494.046 504.601C487.563 504.154 471.186 513.433 458.247 516.184C451.486 517.621 427.823 515.492 420.218 514.751L419.454 515.612L418.743 516.409L417.998 517.188L416.509 518.745L415.764 519.524L414.98 520.282L413.412 521.795C413.156 522.051 412.879 522.293 412.603 522.536L411.776 523.267L410.948 523.998C410.674 524.243 410.371 524.47 410.083 524.707L409.209 525.41C409.061 525.527 408.921 525.646 408.768 525.76L408.303 526.097L407.371 526.769C407.062 526.994 406.713 527.198 406.386 527.413C406.219 527.518 406.057 527.626 405.884 527.73L405.342 528.032C405.157 528.133 404.992 528.234 404.777 528.331C404.558 528.432 404.412 528.517 404.07 528.642L403.981 528.675C403.928 528.693 403.875 528.711 403.819 528.724C402.996 528.933 402.127 528.547 401.875 527.86C401.625 527.173 402.088 526.448 402.911 526.238C402.929 526.233 403.12 526.146 403.248 526.088C403.382 526.034 403.538 525.944 403.686 525.867L404.133 525.628C404.282 525.543 404.43 525.448 404.578 525.357C404.873 525.17 405.177 525.002 405.466 524.8L406.337 524.196L406.774 523.893C406.918 523.791 407.056 523.678 407.198 523.571L408.041 522.92C408.319 522.7 408.61 522.495 408.878 522.263L409.689 521.575L410.501 520.885C410.773 520.655 411.045 520.428 411.301 520.183L412.859 518.739L413.639 518.016L414.385 517.266L415.881 515.766L416.629 515.017L417.348 514.245L418.782 512.697C419.146 512.299 419.519 511.907 419.883 511.509C388.723 475.383 404.111 453.582 403.087 456.029C402.053 458.503 405.886 470.495 413.698 486.56C419.274 498.025 420.594 506.466 420.892 510.36L421.587 509.557L422.964 507.968C423.421 507.437 423.89 506.913 424.323 506.368L426.968 503.121C428.834 500.801 430.652 498.453 432.431 496.083C430.595 481.614 428.741 478.009 424.449 472.524Z" fill="#7C332D"/>
<g clip-path="url(#clip0_321_1938)">
<g opacity="0.3">
<path opacity="0.3" d="M348.853 471.741H316.337C315.185 471.741 314.252 472.573 314.252 473.6V479.77C314.252 480.796 315.185 481.629 316.337 481.629H348.853C350.004 481.629 350.938 480.796 350.938 479.77V473.6C350.938 472.573 350.004 471.741 348.853 471.741Z" fill="#F2F2F2"/>
<path opacity="0.3" d="M387.244 481.629H354.729C353.577 481.629 352.644 482.461 352.644 483.488V489.657C352.644 490.684 353.577 491.516 354.729 491.516H387.244C388.396 491.516 389.329 490.684 389.329 489.657V483.488C389.329 482.461 388.396 481.629 387.244 481.629Z" fill="#F2F2F2"/>
<path opacity="0.3" d="M425.639 491.519H393.124C391.972 491.519 391.039 492.351 391.039 493.378V499.547C391.039 500.574 391.972 501.406 393.124 501.406H425.639C426.791 501.406 427.724 500.574 427.724 499.547V493.378C427.724 492.351 426.791 491.519 425.639 491.519Z" fill="#F2F2F2"/>
<path opacity="0.3" d="M348.853 456.907H316.337C315.185 456.907 314.252 457.74 314.252 458.766V464.936C314.252 465.963 315.185 466.795 316.337 466.795H348.853C350.004 466.795 350.938 465.963 350.938 464.936V458.766C350.938 457.74 350.004 456.907 348.853 456.907Z" fill="#F2F2F2"/>
<path opacity="0.3" d="M387.244 466.797H354.729C353.577 466.797 352.644 467.63 352.644 468.656V474.826C352.644 475.853 353.577 476.685 354.729 476.685H387.244C388.396 476.685 389.329 475.853 389.329 474.826V468.656C389.329 467.63 388.396 466.797 387.244 466.797Z" fill="#F2F2F2"/>
<path opacity="0.3" d="M425.639 476.685H393.124C391.972 476.685 391.039 477.517 391.039 478.544V484.714C391.039 485.74 391.972 486.572 393.124 486.572H425.639C426.791 486.572 427.724 485.74 427.724 484.714V478.544C427.724 477.517 426.791 476.685 425.639 476.685Z" fill="#F2F2F2"/>
<path opacity="0.3" d="M348.853 437.132H316.337C315.185 437.132 314.252 437.964 314.252 438.991V445.161C314.252 446.187 315.185 447.02 316.337 447.02H348.853C350.004 447.02 350.938 446.187 350.938 445.161V438.991C350.938 437.964 350.004 437.132 348.853 437.132Z" fill="#F2F2F2"/>
<path opacity="0.3" d="M387.244 447.02H354.729C353.577 447.02 352.644 447.852 352.644 448.879V455.048C352.644 456.075 353.577 456.907 354.729 456.907H387.244C388.396 456.907 389.329 456.075 389.329 455.048V448.879C389.329 447.852 388.396 447.02 387.244 447.02Z" fill="#F2F2F2"/>
<path opacity="0.3" d="M425.639 456.907H393.124C391.972 456.907 391.039 457.74 391.039 458.766V464.936C391.039 465.963 391.972 466.795 393.124 466.795H425.639C426.791 466.795 427.724 465.963 427.724 464.936V458.766C427.724 457.74 426.791 456.907 425.639 456.907Z" fill="#F2F2F2"/>
<path opacity="0.3" d="M348.853 422.298H316.337C315.185 422.298 314.252 423.131 314.252 424.157V430.327C314.252 431.354 315.185 432.186 316.337 432.186H348.853C350.004 432.186 350.938 431.354 350.938 430.327V424.157C350.938 423.131 350.004 422.298 348.853 422.298Z" fill="#F2F2F2"/>
<path opacity="0.3" d="M387.244 432.186H354.729C353.577 432.186 352.644 433.018 352.644 434.045V440.214C352.644 441.241 353.577 442.073 354.729 442.073H387.244C388.396 442.073 389.329 441.241 389.329 440.214V434.045C389.329 433.018 388.396 432.186 387.244 432.186Z" fill="#F2F2F2"/>
<path opacity="0.3" d="M425.639 442.076H393.124C391.972 442.076 391.039 442.908 391.039 443.935V450.104C391.039 451.131 391.972 451.963 393.124 451.963H425.639C426.791 451.963 427.724 451.131 427.724 450.104V443.935C427.724 442.908 426.791 442.076 425.639 442.076Z" fill="#F2F2F2"/>
<path opacity="0.1" d="M348.853 471.741H316.337C315.185 471.741 314.252 472.573 314.252 473.6V479.77C314.252 480.796 315.185 481.629 316.337 481.629H348.853C350.004 481.629 350.938 480.796 350.938 479.77V473.6C350.938 472.573 350.004 471.741 348.853 471.741Z" fill="#AB3E37"/>
<path opacity="0.1" d="M387.244 481.629H354.729C353.577 481.629 352.644 482.461 352.644 483.488V489.657C352.644 490.684 353.577 491.516 354.729 491.516H387.244C388.396 491.516 389.329 490.684 389.329 489.657V483.488C389.329 482.461 388.396 481.629 387.244 481.629Z" fill="#AB3E37"/>
<path opacity="0.1" d="M425.639 491.519H393.124C391.972 491.519 391.039 492.351 391.039 493.378V499.547C391.039 500.574 391.972 501.406 393.124 501.406H425.639C426.791 501.406 427.724 500.574 427.724 499.547V493.378C427.724 492.351 426.791 491.519 425.639 491.519Z" fill="#AB3E37"/>
<path opacity="0.1" d="M348.853 456.907H316.337C315.185 456.907 314.252 457.74 314.252 458.766V464.936C314.252 465.963 315.185 466.795 316.337 466.795H348.853C350.004 466.795 350.938 465.963 350.938 464.936V458.766C350.938 457.74 350.004 456.907 348.853 456.907Z" fill="#AB3E37"/>
<path opacity="0.1" d="M387.244 466.797H354.729C353.577 466.797 352.644 467.63 352.644 468.656V474.826C352.644 475.853 353.577 476.685 354.729 476.685H387.244C388.396 476.685 389.329 475.853 389.329 474.826V468.656C389.329 467.63 388.396 466.797 387.244 466.797Z" fill="#AB3E37"/>
<path opacity="0.1" d="M425.639 476.685H393.124C391.972 476.685 391.039 477.517 391.039 478.544V484.714C391.039 485.74 391.972 486.572 393.124 486.572H425.639C426.791 486.572 427.724 485.74 427.724 484.714V478.544C427.724 477.517 426.791 476.685 425.639 476.685Z" fill="#AB3E37"/>
<path opacity="0.1" d="M348.853 437.132H316.337C315.185 437.132 314.252 437.964 314.252 438.991V445.161C314.252 446.187 315.185 447.02 316.337 447.02H348.853C350.004 447.02 350.938 446.187 350.938 445.161V438.991C350.938 437.964 350.004 437.132 348.853 437.132Z" fill="#AB3E37"/>
<path opacity="0.1" d="M387.244 447.02H354.729C353.577 447.02 352.644 447.852 352.644 448.879V455.048C352.644 456.075 353.577 456.907 354.729 456.907H387.244C388.396 456.907 389.329 456.075 389.329 455.048V448.879C389.329 447.852 388.396 447.02 387.244 447.02Z" fill="#AB3E37"/>
<path opacity="0.1" d="M425.639 456.907H393.124C391.972 456.907 391.039 457.74 391.039 458.766V464.936C391.039 465.963 391.972 466.795 393.124 466.795H425.639C426.791 466.795 427.724 465.963 427.724 464.936V458.766C427.724 457.74 426.791 456.907 425.639 456.907Z" fill="#AB3E37"/>
<path opacity="0.1" d="M348.853 422.298H316.337C315.185 422.298 314.252 423.131 314.252 424.157V430.327C314.252 431.354 315.185 432.186 316.337 432.186H348.853C350.004 432.186 350.938 431.354 350.938 430.327V424.157C350.938 423.131 350.004 422.298 348.853 422.298Z" fill="#AB3E37"/>
<path opacity="0.1" d="M387.244 432.186H354.729C353.577 432.186 352.644 433.018 352.644 434.045V440.214C352.644 441.241 353.577 442.073 354.729 442.073H387.244C388.396 442.073 389.329 441.241 389.329 440.214V434.045C389.329 433.018 388.396 432.186 387.244 432.186Z" fill="#AB3E37"/>
<path opacity="0.1" d="M425.639 442.076H393.124C391.972 442.076 391.039 442.908 391.039 443.935V450.104C391.039 451.131 391.972 451.963 393.124 451.963H425.639C426.791 451.963 427.724 451.131 427.724 450.104V443.935C427.724 442.908 426.791 442.076 425.639 442.076Z" fill="#AB3E37"/>
</g>
<g opacity="0.3">
<path opacity="0.3" d="M205.174 408.443H172.659C171.507 408.443 170.574 409.275 170.574 410.302V416.471C170.574 417.498 171.507 418.33 172.659 418.33H205.174C206.326 418.33 207.259 417.498 207.259 416.471V410.302C207.259 409.275 206.326 408.443 205.174 408.443Z" fill="#F2F2F2"/>
<path opacity="0.3" d="M243.566 418.33H211.051C209.899 418.33 208.966 419.163 208.966 420.189V426.359C208.966 427.386 209.899 428.218 211.051 428.218H243.566C244.718 428.218 245.651 427.386 245.651 426.359V420.189C245.651 419.163 244.718 418.33 243.566 418.33Z" fill="#F2F2F2"/>
<path opacity="0.3" d="M281.961 428.22H249.445C248.294 428.22 247.36 429.053 247.36 430.079V436.249C247.36 437.276 248.294 438.108 249.445 438.108H281.961C283.113 438.108 284.046 437.276 284.046 436.249V430.079C284.046 429.053 283.113 428.22 281.961 428.22Z" fill="#F2F2F2"/>
<path opacity="0.3" d="M205.174 393.609H172.659C171.507 393.609 170.574 394.441 170.574 395.468V401.638C170.574 402.664 171.507 403.497 172.659 403.497H205.174C206.326 403.497 207.259 402.664 207.259 401.638V395.468C207.259 394.441 206.326 393.609 205.174 393.609Z" fill="#F2F2F2"/>
<path opacity="0.3" d="M243.566 403.499H211.051C209.899 403.499 208.966 404.331 208.966 405.358V411.528C208.966 412.554 209.899 413.387 211.051 413.387H243.566C244.718 413.387 245.651 412.554 245.651 411.528V405.358C245.651 404.331 244.718 403.499 243.566 403.499Z" fill="#F2F2F2"/>
<path opacity="0.3" d="M281.961 413.387H249.445C248.294 413.387 247.36 414.219 247.36 415.246V421.415C247.36 422.442 248.294 423.274 249.445 423.274H281.961C283.113 423.274 284.046 422.442 284.046 421.415V415.246C284.046 414.219 283.113 413.387 281.961 413.387Z" fill="#F2F2F2"/>
<path opacity="0.3" d="M205.174 373.834H172.659C171.507 373.834 170.574 374.666 170.574 375.693V381.862C170.574 382.889 171.507 383.721 172.659 383.721H205.174C206.326 383.721 207.259 382.889 207.259 381.862V375.693C207.259 374.666 206.326 373.834 205.174 373.834Z" fill="#F2F2F2"/>
<path opacity="0.3" d="M243.566 383.721H211.051C209.899 383.721 208.966 384.554 208.966 385.58V391.75C208.966 392.777 209.899 393.609 211.051 393.609H243.566C244.718 393.609 245.651 392.777 245.651 391.75V385.58C245.651 384.554 244.718 383.721 243.566 383.721Z" fill="#F2F2F2"/>
<path opacity="0.3" d="M281.961 393.609H249.445C248.294 393.609 247.36 394.441 247.36 395.468V401.638C247.36 402.664 248.294 403.497 249.445 403.497H281.961C283.113 403.497 284.046 402.664 284.046 401.638V395.468C284.046 394.441 283.113 393.609 281.961 393.609Z" fill="#F2F2F2"/>
<path opacity="0.3" d="M205.174 359H172.659C171.507 359 170.574 359.832 170.574 360.859V367.029C170.574 368.055 171.507 368.888 172.659 368.888H205.174C206.326 368.888 207.259 368.055 207.259 367.029V360.859C207.259 359.832 206.326 359 205.174 359Z" fill="#F2F2F2"/>
<path opacity="0.3" d="M243.566 368.888H211.051C209.899 368.888 208.966 369.72 208.966 370.746V376.916C208.966 377.943 209.899 378.775 211.051 378.775H243.566C244.718 378.775 245.651 377.943 245.651 376.916V370.746C245.651 369.72 244.718 368.888 243.566 368.888Z" fill="#F2F2F2"/>
<path opacity="0.3" d="M281.961 378.778H249.445C248.294 378.778 247.36 379.61 247.36 380.637V386.806C247.36 387.833 248.294 388.665 249.445 388.665H281.961C283.113 388.665 284.046 387.833 284.046 386.806V380.637C284.046 379.61 283.113 378.778 281.961 378.778Z" fill="#F2F2F2"/>
<path opacity="0.1" d="M205.174 408.443H172.659C171.507 408.443 170.574 409.275 170.574 410.302V416.471C170.574 417.498 171.507 418.33 172.659 418.33H205.174C206.326 418.33 207.259 417.498 207.259 416.471V410.302C207.259 409.275 206.326 408.443 205.174 408.443Z" fill="#AB3E37"/>
<path opacity="0.1" d="M243.566 418.33H211.051C209.899 418.33 208.966 419.163 208.966 420.189V426.359C208.966 427.386 209.899 428.218 211.051 428.218H243.566C244.718 428.218 245.651 427.386 245.651 426.359V420.189C245.651 419.163 244.718 418.33 243.566 418.33Z" fill="#AB3E37"/>
<path opacity="0.1" d="M281.961 428.22H249.445C248.294 428.22 247.36 429.053 247.36 430.079V436.249C247.36 437.276 248.294 438.108 249.445 438.108H281.961C283.113 438.108 284.046 437.276 284.046 436.249V430.079C284.046 429.053 283.113 428.22 281.961 428.22Z" fill="#AB3E37"/>
<path opacity="0.1" d="M205.174 393.609H172.659C171.507 393.609 170.574 394.441 170.574 395.468V401.638C170.574 402.664 171.507 403.497 172.659 403.497H205.174C206.326 403.497 207.259 402.664 207.259 401.638V395.468C207.259 394.441 206.326 393.609 205.174 393.609Z" fill="#AB3E37"/>
<path opacity="0.1" d="M243.566 403.499H211.051C209.899 403.499 208.966 404.331 208.966 405.358V411.528C208.966 412.554 209.899 413.387 211.051 413.387H243.566C244.718 413.387 245.651 412.554 245.651 411.528V405.358C245.651 404.331 244.718 403.499 243.566 403.499Z" fill="#AB3E37"/>
<path opacity="0.1" d="M281.961 413.387H249.445C248.294 413.387 247.36 414.219 247.36 415.246V421.415C247.36 422.442 248.294 423.274 249.445 423.274H281.961C283.113 423.274 284.046 422.442 284.046 421.415V415.246C284.046 414.219 283.113 413.387 281.961 413.387Z" fill="#AB3E37"/>
<path opacity="0.1" d="M205.174 373.834H172.659C171.507 373.834 170.574 374.666 170.574 375.693V381.862C170.574 382.889 171.507 383.721 172.659 383.721H205.174C206.326 383.721 207.259 382.889 207.259 381.862V375.693C207.259 374.666 206.326 373.834 205.174 373.834Z" fill="#AB3E37"/>
<path opacity="0.1" d="M243.566 383.721H211.051C209.899 383.721 208.966 384.554 208.966 385.58V391.75C208.966 392.777 209.899 393.609 211.051 393.609H243.566C244.718 393.609 245.651 392.777 245.651 391.75V385.58C245.651 384.554 244.718 383.721 243.566 383.721Z" fill="#AB3E37"/>
<path opacity="0.1" d="M281.961 393.609H249.445C248.294 393.609 247.36 394.441 247.36 395.468V401.638C247.36 402.664 248.294 403.497 249.445 403.497H281.961C283.113 403.497 284.046 402.664 284.046 401.638V395.468C284.046 394.441 283.113 393.609 281.961 393.609Z" fill="#AB3E37"/>
<path opacity="0.1" d="M205.174 359H172.659C171.507 359 170.574 359.832 170.574 360.859V367.029C170.574 368.055 171.507 368.888 172.659 368.888H205.174C206.326 368.888 207.259 368.055 207.259 367.029V360.859C207.259 359.832 206.326 359 205.174 359Z" fill="#AB3E37"/>
<path opacity="0.1" d="M243.566 368.888H211.051C209.899 368.888 208.966 369.72 208.966 370.746V376.916C208.966 377.943 209.899 378.775 211.051 378.775H243.566C244.718 378.775 245.651 377.943 245.651 376.916V370.746C245.651 369.72 244.718 368.888 243.566 368.888Z" fill="#AB3E37"/>
<path opacity="0.1" d="M281.961 378.778H249.445C248.294 378.778 247.36 379.61 247.36 380.637V386.806C247.36 387.833 248.294 388.665 249.445 388.665H281.961C283.113 388.665 284.046 387.833 284.046 386.806V380.637C284.046 379.61 283.113 378.778 281.961 378.778Z" fill="#AB3E37"/>
</g>
<g opacity="0.1">
<path opacity="0.1" d="M219.954 497.156C219.959 498.574 219.795 499.989 219.466 501.376C219.404 501.626 219.337 501.894 219.27 502.144C217.538 508.342 212.647 512.875 206.813 513.153C206.619 513.153 206.423 513.168 206.221 513.168C200.047 513.168 194.833 508.414 193.113 501.889C193.062 501.714 193.02 501.541 192.978 501.366C192.649 499.979 192.486 498.564 192.49 497.146C192.49 488.291 198.635 481.133 206.221 481.133C213.806 481.133 219.954 488.301 219.954 497.156Z" fill="#3F3D56"/>
<path opacity="0.1" d="M219.954 497.155C219.959 498.574 219.795 499.989 219.466 501.376C219.404 501.626 219.337 501.894 219.27 502.144C219.062 502.144 218.86 502.144 218.655 502.122C217.144 502.048 215.643 501.865 214.165 501.574C212.855 501.934 211.516 502.207 210.161 502.389C209.121 502.525 208.073 502.609 207.023 502.64C206.67 502.64 206.316 502.657 205.962 502.657C204.705 502.657 203.449 502.582 202.202 502.434C200.19 502.192 198.214 501.754 196.309 501.128C195.265 501.435 194.202 501.686 193.124 501.879C193.074 501.704 193.031 501.531 192.989 501.356C192.66 499.968 192.497 498.554 192.501 497.135C192.501 488.281 198.647 481.123 206.232 481.123C213.817 481.123 219.954 488.301 219.954 497.155Z" fill="black"/>
<path opacity="0.1" d="M249.249 467.3C249.255 463.405 248.231 459.563 246.26 456.087L230.111 460.563L244.285 453.132C241.908 450.069 238.79 447.521 235.161 445.677C231.531 443.832 227.484 442.739 223.317 442.476C222.655 441.579 221.928 440.721 221.142 439.907L197.926 446.344L216.949 436.372C213.311 433.886 209.042 432.238 204.52 431.572C199.998 430.906 195.361 431.244 191.02 432.554C186.679 433.865 182.766 436.109 179.628 439.087C176.49 442.065 174.223 445.687 173.027 449.632L192.897 470.025L171.312 456.134C165.853 459.586 161.967 464.671 160.362 470.464C158.756 476.256 159.538 482.369 162.564 487.691C165.591 493.012 170.661 497.187 176.851 499.456C183.04 501.724 189.938 501.934 196.287 500.048C202.035 501.929 208.316 502.083 214.171 500.486C218.251 501.29 222.481 501.267 226.55 500.42C230.618 499.573 234.422 497.923 237.68 495.591C240.939 493.259 243.569 490.306 245.377 486.947C247.184 483.589 248.124 479.912 248.126 476.187C248.126 475.634 248.104 475.086 248.065 474.541C248.857 472.192 249.256 469.753 249.249 467.3V467.3Z" fill="#AB3E37"/>
<path opacity="0.1" d="M248.769 471.916C240.24 470.475 231.494 470.376 222.926 471.623C213.231 473.055 203.319 476.199 193.834 473.9C188.27 472.549 183.451 469.427 178.021 467.695C172.776 466.059 167.123 465.755 161.695 466.817C159.624 471.229 159.023 476.079 159.962 480.787C160.901 485.496 163.341 489.863 166.99 493.368C170.64 496.873 175.344 499.367 180.541 500.551C185.737 501.736 191.207 501.561 196.295 500.048C202.041 501.928 208.318 502.081 214.171 500.485C218.251 501.289 222.481 501.267 226.549 500.42C230.618 499.573 234.422 497.923 237.68 495.591C240.938 493.259 243.568 490.306 245.376 486.947C247.184 483.589 248.124 479.912 248.126 476.187C248.126 475.634 248.104 475.086 248.064 474.541C248.353 473.678 248.588 472.802 248.769 471.916Z" fill="black"/>
</g>
<path opacity="0.1" d="M290.5 558.928C375.276 558.928 444 547.782 444 534.034C444 520.285 375.276 509.14 290.5 509.14C205.724 509.14 137 520.285 137 534.034C137 547.782 205.724 558.928 290.5 558.928Z" fill="#AB3E37"/>
<path d="M340.922 536.903C341.129 536.151 341.538 535.455 342.116 534.876C342.693 534.297 343.42 533.852 344.234 533.581C345.048 533.31 345.924 533.22 346.785 533.319C347.647 533.418 348.468 533.704 349.178 534.151L349.397 534.294C354.092 537.431 351.305 543.186 349.397 543.316C347.489 543.446 343.818 543.586 343.818 543.586C343.818 543.586 339.494 541.995 340.922 536.903Z" fill="#192534"/>
<path d="M383.279 532.993V534.039C383.279 534.039 364.197 535.215 362.16 535.215H358.346C358.346 535.215 358.29 535.267 358.197 535.362C358.04 535.52 357.774 535.798 357.479 536.143C356.878 536.838 356.163 537.809 355.997 538.615C355.717 540.053 354.678 540.576 354.678 540.576L350.865 539.663L347.186 535.74L346.65 535.28L345.123 533.981L343.818 532.868L343.883 532.242V532.147C344.195 530.803 344.594 529.477 345.078 528.174C345.078 528.139 345.104 528.102 345.118 528.067C346.176 525.234 347.941 521.794 350.483 520.771C350.677 520.694 350.879 520.618 351.095 520.551L351.353 520.471C356.23 519.015 365.446 519.593 365.446 519.593C365.446 519.593 372.484 521.424 373.073 522.21C373.662 522.995 380.333 529.465 380.333 529.465C380.918 529.859 381.458 530.304 381.944 530.794C382.569 531.412 383.15 532.19 383.279 532.993Z" fill="#AB3E37"/>
<path opacity="0.1" d="M343.237 541.625C344.372 541.625 345.291 540.336 345.291 538.747C345.291 537.158 344.372 535.87 343.237 535.87C342.103 535.87 341.183 537.158 341.183 538.747C341.183 540.336 342.103 541.625 343.237 541.625Z" fill="white"/>
<path opacity="0.1" d="M351.745 521.747C351.745 521.747 350.062 524.049 348.283 527.001C348.282 527.008 348.282 527.016 348.283 527.023C347.808 527.809 347.326 528.637 346.865 529.485L346.846 529.525C346.846 529.525 345.872 528.837 345.106 528.167C345.106 528.132 345.131 528.094 345.145 528.059C346.203 525.227 347.968 521.787 350.511 520.764C350.704 520.686 350.906 520.611 351.122 520.543L351.745 521.747Z" fill="black"/>
<path opacity="0.1" d="M346.759 529.463C346.759 529.463 357.173 532.215 359.224 531.031C359.224 531.031 359.959 522.663 355.119 522.14C355.119 522.14 352.332 521.484 351.751 521.889C351.17 522.295 346.759 529.463 346.759 529.463Z" fill="white"/>
<path opacity="0.1" d="M360.251 523.315C360.251 523.315 362.306 530.246 363.773 530.378C365.241 530.511 380.049 530.246 379.466 529.33C378.882 528.414 372.425 522.532 372.425 522.532L360.251 523.315Z" fill="white"/>
<path d="M357.732 535.855C357.732 535.855 360.397 532.73 365.092 535.87C369.787 539.01 366.998 544.762 365.092 544.892C363.187 545.022 359.533 545.155 359.533 545.155C359.533 545.155 353.744 543.033 357.732 535.855Z" fill="#192534"/>
<path d="M385.42 536.651C385.225 536.157 384.917 535.705 384.515 535.322C384.114 534.94 383.628 534.636 383.088 534.43C382.548 534.223 381.966 534.119 381.379 534.123C380.792 534.127 380.212 534.24 379.676 534.454C379.151 534.674 378.655 534.944 378.194 535.257C374.016 538.049 376.51 543.171 378.194 543.288C378.803 543.328 379.614 543.371 380.403 543.408C381.21 543.447 382.016 543.317 382.758 543.031C383.5 542.744 384.157 542.308 384.677 541.756C385.198 541.205 385.568 540.553 385.758 539.853C385.948 539.152 385.954 538.422 385.774 537.719C385.679 537.357 385.561 537.001 385.42 536.651V536.651Z" fill="#192534"/>
<path opacity="0.1" d="M358.933 543.193C360.067 543.193 360.987 541.905 360.987 540.316C360.987 538.727 360.067 537.439 358.933 537.439C357.798 537.439 356.878 538.727 356.878 540.316C356.878 541.905 357.798 543.193 358.933 543.193Z" fill="white"/>
<path opacity="0.1" d="M364.651 534.824C364.651 534.824 364.371 531.031 368.906 532.6C373.44 534.169 370.519 535.87 370.519 535.87L364.651 534.824Z" fill="white"/>
<path opacity="0.1" d="M383.279 532.993V533.516L382.547 533.766L381.051 533.516C381.051 533.516 380.731 531.374 381.957 530.764C382.569 531.412 383.15 532.19 383.279 532.993Z" fill="white"/>
<path opacity="0.1" d="M383.279 533.018V534.039C383.279 534.039 364.197 535.215 362.16 535.215H362.143C361.088 534.714 360.033 534.492 359.146 534.824C358.876 534.924 358.622 535.055 358.391 535.215C358.324 535.262 358.259 535.312 358.197 535.362C357.918 535.591 357.676 535.854 357.479 536.143C356.166 538.037 356.446 540.969 356.446 540.969C352.633 542.015 348.673 539.27 348.673 539.27C347.955 537.349 347.284 536.095 346.669 535.267C346.108 534.517 345.597 534.149 345.143 533.969L343.818 532.868L343.883 532.242L354.527 539.143C354.527 539.143 355.554 533.258 357.894 533.651C360.235 534.044 364.935 534.044 364.935 534.044L383.279 533.018Z" fill="black"/>
<path d="M343.237 532.207C343.237 532.207 342.356 534.169 343.237 534.301C344.118 534.434 346.097 532.8 348.665 539.663C348.665 539.663 352.624 542.415 356.438 541.362C356.438 541.362 355.983 536.393 359.146 535.214C362.308 534.036 367.584 539.923 367.584 539.923V541.232L380.052 540.053C380.052 540.053 383.866 537.439 383.72 533.386L364.946 534.431C364.946 534.431 360.251 534.431 357.905 534.039C355.559 533.646 354.538 539.543 354.538 539.543L343.237 532.207Z" fill="#AB3E37"/>
<path d="M290.438 496.442H290.436C286.102 496.442 282.589 499.574 282.589 503.438V503.44C282.589 507.304 286.102 510.436 290.436 510.436H290.438C294.772 510.436 298.285 507.304 298.285 503.44V503.438C298.285 499.574 294.772 496.442 290.438 496.442Z" fill="#192534"/>
<path d="M286.327 521.444C287.38 520.621 288.449 519.783 289.206 518.735C289.902 517.774 290.312 516.676 290.697 515.585C291.795 512.467 292.74 509.311 293.534 506.115C289.215 505.527 285.99 502.127 281.767 501.129C281.666 501.104 278.436 518.407 278.2 519.988C278.007 521.294 276.334 527.531 278.24 527.566C279.258 527.586 281.385 525.315 282.138 524.717L286.327 521.444Z" fill="#3F3D56"/>
<path opacity="0.1" d="M286.327 521.444C287.38 520.621 288.449 519.783 289.206 518.735C289.902 517.774 290.312 516.676 290.697 515.585C291.795 512.467 292.74 509.311 293.534 506.115C289.215 505.527 285.99 502.127 281.767 501.129C281.666 501.104 278.436 518.407 278.2 519.988C278.007 521.294 276.334 527.531 278.24 527.566C279.258 527.586 281.385 525.315 282.138 524.717L286.327 521.444Z" fill="black"/>
<path d="M232.956 477.786C232.479 477.851 231.973 477.883 231.581 478.131C231.019 478.481 230.876 479.132 230.61 479.697C230.26 480.423 229.667 481.035 228.912 481.449C228.269 481.799 227.486 482.034 227.102 482.609C226.885 482.997 226.781 483.427 226.802 483.86C226.751 485.142 226.816 486.426 226.995 487.698C227.085 488.336 227.203 488.987 227.054 489.615C226.883 490.348 226.367 490.971 225.876 491.579C224.697 493.032 223.544 494.629 223.448 496.42C223.401 497.321 223.625 498.244 223.37 499.117C222.918 500.666 221.077 501.677 220.718 503.243C220.611 503.706 220.639 504.196 220.437 504.629C220.084 505.379 219.11 505.79 218.86 506.563C218.672 507.143 218.947 507.756 218.967 508.359C218.995 509.242 218.476 510.058 217.976 510.818L215.055 515.247C214.106 516.683 213.135 518.184 212.975 519.845C212.832 521.319 213.346 522.778 213.91 524.169C215.164 527.259 217.028 530.531 220.465 531.719C222.488 532.42 224.742 532.27 226.905 532.11C229.869 531.892 232.852 531.669 235.711 530.946C237.129 530.589 238.518 530.111 239.949 529.856C240.903 529.688 241.882 529.605 242.803 529.333C243.797 529.014 244.677 528.462 245.351 527.736C246.024 527.01 246.466 526.135 246.63 525.204C247.854 525.635 248.988 524.204 248.814 523.043C248.64 521.882 247.764 520.899 247.41 519.773C246.905 518.219 247.41 516.533 248.252 515.102C249.094 513.671 250.256 512.405 251.174 511.011C252.196 509.451 252.906 507.744 253.273 505.967C253.764 503.568 253.615 501.104 253.463 498.669L252.885 489.365C252.779 487.661 252.658 485.902 251.816 484.361C250.893 482.682 249.209 481.451 247.528 480.333C245.048 478.65 242.446 477.114 239.741 475.734C237.996 474.864 238.119 475.201 236.73 476.235C235.654 477.049 234.349 477.585 232.956 477.786V477.786Z" fill="#3F3D56"/>
<path d="M256.545 503.673C254.561 505.069 252.551 506.485 251.025 508.282C249.181 510.466 248.135 513.103 248.028 515.835C248.01 517.113 248.111 518.391 248.328 519.655C248.628 521.719 249.17 524.019 251.12 525.159C252.349 525.877 254.039 526.058 254.878 527.133C255.142 527.471 255.296 527.884 255.605 528.182C256.166 528.722 257.041 528.84 257.85 528.88C259.057 528.94 260.269 528.907 261.47 528.78C262.842 528.632 264.237 528.364 265.595 528.595C268.238 529.037 270.211 531.262 272.891 531.559C275.116 531.81 277.201 530.656 279.065 529.558C280.987 528.424 282.993 527.211 284.034 525.377C285.047 523.596 284.991 521.499 284.913 519.5C284.826 517.281 284.736 515.034 284.071 512.893C283.864 512.332 283.706 511.758 283.597 511.176C283.397 509.675 284.158 508.199 284.719 506.763C285.592 504.579 285.974 501.887 284.239 500.16C283.507 499.43 282.488 498.979 281.456 498.659C276.895 497.198 271.861 497.754 267.183 498.409C262.718 499.012 260.047 501.214 256.545 503.673Z" fill="#3F3D56"/>
<path d="M295.214 495.027C293.407 497.446 291.594 499.883 290.289 502.532C289.399 504.455 288.649 506.428 288.044 508.437C286.243 513.988 284.455 519.66 280.858 524.466C280.341 525.157 279.769 525.875 279.716 526.703C279.665 527.479 280.08 528.204 280.482 528.895C281.324 530.356 282.205 531.832 283.406 533.088C284.607 534.344 286.044 535.295 287.492 536.266C290.497 538.267 293.837 540.389 297.594 540.239C298.371 540.206 299.202 540.046 299.721 539.528C300.24 539.01 300.313 538.295 300.221 537.629C299.94 535.57 298.2 533.951 296.623 532.425C295.046 530.899 293.46 529.115 293.587 527.033C293.685 525.315 294.948 523.849 296.157 522.507C297.541 520.971 298.927 519.438 300.232 517.849C305.875 510.981 309.95 503.173 313.18 495.159C314.541 491.777 315.778 488.224 315.355 484.651C312.268 483.976 306.094 481.719 303.487 484.048C301.907 485.459 300.79 487.551 299.558 489.215L295.214 495.027Z" fill="#FBBEBE"/>
<path d="M321.278 471.536C319.323 474.577 317.792 477.82 316.721 481.193C316.46 482.009 316.227 482.87 316.427 483.695C316.643 484.581 317.319 485.309 317.83 486.09C318.34 486.87 318.7 487.858 318.237 488.664C316.048 488.817 313.879 488.284 311.763 487.756L305.129 486.105C304.579 486.01 304.063 485.797 303.627 485.484C302.859 484.836 302.917 483.748 303.066 482.817C304.365 475.196 308.538 468.171 310.101 460.593C310.329 459.499 310.567 458.288 311.544 457.59C314.35 455.614 320.703 457.288 322.157 460.15C323.782 463.327 323.117 468.681 321.278 471.536Z" fill="#AB3E37"/>
<path d="M285.766 445.491C285.516 445.606 285.235 445.741 285.16 445.976C285.143 446.104 285.158 446.234 285.203 446.356C285.249 446.479 285.324 446.591 285.423 446.684L288.255 450.237C291.047 453.74 293.845 457.265 297.075 460.46C299.513 462.87 302.183 465.085 305.056 467.08C305.864 467.64 306.725 468.223 307.121 469.066C305.356 464.407 305.67 459.322 307.997 454.863C308.923 453.112 310.146 451.488 311.109 449.747C311.199 449.651 311.261 449.536 311.287 449.413C311.314 449.29 311.304 449.163 311.259 449.044C311.214 448.925 311.136 448.819 311.031 448.735C310.927 448.651 310.8 448.593 310.662 448.566C308.21 447.44 305.527 446.759 303.086 445.614C301.169 444.713 299.438 443.542 297.717 442.389C296.182 441.36 294.139 439.544 292.245 439.111C290.2 438.641 290.281 440.305 289.621 441.693C288.863 443.316 287.502 444.657 285.766 445.491Z" fill="#FBBEBE"/>
<path opacity="0.1" d="M285.766 445.491C285.516 445.606 285.235 445.741 285.16 445.976C285.143 446.104 285.158 446.234 285.203 446.356C285.249 446.479 285.324 446.591 285.423 446.684L288.255 450.237C291.047 453.74 293.845 457.265 297.075 460.46C299.513 462.87 302.183 465.085 305.056 467.08C305.864 467.64 306.725 468.223 307.121 469.066C305.356 464.407 305.67 459.322 307.997 454.863C308.923 453.112 310.146 451.488 311.109 449.747C311.199 449.651 311.261 449.536 311.287 449.413C311.314 449.29 311.304 449.163 311.259 449.044C311.214 448.925 311.136 448.819 311.031 448.735C310.927 448.651 310.8 448.593 310.662 448.566C308.21 447.44 305.527 446.759 303.086 445.614C301.169 444.713 299.438 443.542 297.717 442.389C296.182 441.36 294.139 439.544 292.245 439.111C290.2 438.641 290.281 440.305 289.621 441.693C288.863 443.316 287.502 444.657 285.766 445.491Z" fill="black"/>
<path d="M303.128 459.649C301.846 458.359 300.114 457.505 298.596 456.435C296.413 454.893 294.687 452.907 293.02 450.918C289.961 447.258 286.877 442.774 288.401 438.408C286.782 438.268 285.384 439.454 284.621 440.733C283.858 442.011 283.465 443.467 282.514 444.641C281.068 446.424 278.61 447.255 276.32 448.071C271.287 449.866 266.424 452.021 261.779 454.513C259.912 455.514 258.055 456.587 256.629 458.053C255.103 459.617 254.146 461.556 252.849 463.27C250.324 466.64 246.485 469.169 242.225 470.6C240.822 471.076 239.318 471.446 238.063 472.202C235.375 473.82 234.255 477.048 234.892 479.885C235.529 482.722 237.698 485.139 240.305 486.855C242.912 488.572 245.881 489.585 248.89 490.586C251.411 491.411 253.949 492.199 256.503 492.947C258.382 493.527 260.303 493.992 262.253 494.339C265.842 494.926 269.532 494.781 273.161 495.139C276.477 495.464 279.736 496.212 283.066 496.42C286.397 496.628 289.925 496.232 292.638 494.504C294.796 493.13 296.233 491.056 297.561 488.999C301.006 483.697 304.084 478.211 306.776 472.572C307.57 470.903 314.939 461.451 313.104 460.23C303.863 454.083 306.931 463.85 306.049 463.1C304.871 462.094 304.194 460.723 303.128 459.649Z" fill="#AB3E37"/>
<path d="M291.681 453.995C289.697 450.437 288.356 446.629 287.023 442.842C286.656 441.791 286.285 440.655 286.681 439.614C287.158 438.363 288.684 437.295 288.235 436.041C284.666 437.042 280.521 438.611 279.817 441.891C279.662 442.606 279.69 443.369 279.317 444.015C278.59 445.281 276.738 445.551 275.164 445.766C270.584 446.419 266.033 448.066 262.895 451.11C262.368 451.611 261.871 452.179 261.212 452.554C260.735 452.805 260.227 453.006 259.699 453.154C256.629 454.138 253.472 455.364 251.496 457.678C250.478 458.869 249.827 460.297 248.69 461.403C247.152 462.904 244.888 463.655 243.224 465.054C242.101 465.984 241.301 467.165 240.561 468.359C237.71 472.952 235.619 478.339 237.131 483.415C237.92 486.07 239.657 488.434 240.591 491.051C241.88 494.616 241.753 498.682 244.169 501.747C245.693 503.673 248.05 504.947 250.464 505.907C255.834 508.037 261.733 508.884 267.582 508.364C269.75 508.139 271.905 507.815 274.036 507.393C279.124 506.458 284.265 505.439 288.886 503.323C296.769 499.713 302.44 493.26 307.856 487.005C308.886 485.814 309.925 484.614 310.663 483.252C311.384 481.954 311.819 480.548 312.304 479.167C313.946 474.511 316.255 469.875 316.039 465.001C316.048 464.417 315.919 463.839 315.661 463.302C315.442 462.902 315.099 462.552 314.906 462.149C314.563 461.428 314.718 460.595 314.476 459.842C313.806 457.74 310.708 457.34 308.255 457.358L307.469 469.69C307.349 471.541 307.127 473.595 305.581 474.836C304.919 475.343 304.094 475.65 303.224 475.71C302.354 475.771 301.485 475.583 300.743 475.174C299.093 474.221 298.86 472.557 298.871 470.963C298.888 468.962 298.705 467.128 297.99 465.209C296.508 461.228 293.764 457.735 291.681 453.995Z" fill="#192534"/>
<path d="M292.658 489.137C302.429 493.553 312.257 498.001 321.001 503.881C323.021 505.237 324.986 506.673 327.121 507.884C333.241 511.351 340.835 513.04 345.558 517.944C346.551 518.972 347.393 520.128 348.538 521.019C349.532 521.746 350.642 522.336 351.833 522.77C355.627 524.263 359.735 525.014 363.882 524.974C364.968 524.962 366.085 524.889 367.062 524.474C369.691 523.338 370.289 520.296 370.556 517.701C370.645 516.823 370.665 515.787 369.891 515.242C369.472 514.949 368.92 514.874 368.395 514.801C359.861 513.6 351.987 509.938 344.856 505.587C337.726 501.236 331.19 496.157 324.158 491.681C321.685 490.108 319.154 488.609 316.623 487.11L308.432 482.262C304.099 479.697 299.536 477.055 294.361 476.572C294.067 476.527 293.765 476.545 293.48 476.625C293.026 476.782 292.773 477.203 292.551 477.588C291.033 480.225 289.184 482.619 287.323 485.061C286.327 486.367 286.215 486.705 287.932 487.403C289.478 488.033 291.117 488.441 292.658 489.137Z" fill="#FBBEBE"/>
<path d="M311.858 562C311.97 562 312.077 561.961 312.156 561.89C312.235 561.82 312.279 561.724 312.279 561.625C312.279 561.525 312.235 561.43 312.156 561.359C312.077 561.289 311.97 561.25 311.858 561.25C311.746 561.25 311.639 561.289 311.56 561.359C311.481 561.43 311.437 561.525 311.437 561.625C311.437 561.724 311.481 561.82 311.56 561.89C311.639 561.961 311.746 562 311.858 562Z" fill="black"/>
<path d="M314.928 462.379C329.752 462.379 341.77 451.665 341.77 438.448C341.77 425.232 329.752 414.517 314.928 414.517C300.104 414.517 288.087 425.232 288.087 438.448C288.087 451.665 300.104 462.379 314.928 462.379Z" fill="#FBBEBE"/>
<path d="M293.831 447.78C294.308 445.631 297.075 444.545 299.525 444.4C302.004 444.281 304.474 444.747 306.687 445.75C308.9 446.753 310.778 448.259 312.131 450.115C312.698 448.773 313.081 447.375 313.27 445.951L317.76 446.249C318.261 446.318 318.773 446.277 319.253 446.129C319.831 445.899 320.187 445.378 320.487 444.878C322.452 441.608 323.765 437.595 327.452 435.871V440.375C328.462 440.199 329.413 439.82 330.232 439.265C331.051 438.71 331.716 437.995 332.175 437.175C332.428 438.421 332.831 439.64 333.376 440.81C333.466 441.005 333.592 441.22 333.82 441.27C333.931 441.277 334.042 441.264 334.147 441.23C334.251 441.195 334.346 441.142 334.426 441.073C336.145 439.909 337.701 438.565 339.059 437.07L344.391 445.311C347.471 438.376 347.64 430.682 344.865 423.645C342.09 416.607 336.558 410.7 329.288 407.009C328.055 406.376 326.769 405.83 325.44 405.375C321.969 404.21 318.228 403.837 314.527 403.612C309.265 403.291 303.712 403.304 299.093 405.553C296.609 406.761 294.547 408.543 292.554 410.334C289.86 412.751 287.166 415.305 285.732 418.465C284.742 420.647 284.402 423.011 284.102 425.348C283.92 426.762 283.751 428.223 284.203 429.586C284.517 430.53 285.109 431.378 285.508 432.296C286.17 433.822 286.274 435.488 286.529 437.11C287.096 440.692 288.408 444.149 290.399 447.302C290.82 447.97 291.359 448.681 292.198 448.851C293.037 449.021 294.044 448.196 293.601 447.545" fill="#192534"/>
<path d="M293.831 447.78C294.308 445.631 297.075 444.545 299.525 444.4C302.004 444.281 304.474 444.747 306.687 445.75C308.9 446.753 310.778 448.259 312.131 450.115C312.698 448.773 313.081 447.375 313.27 445.951L317.76 446.249C318.261 446.318 318.773 446.277 319.253 446.129C319.831 445.899 320.187 445.378 320.487 444.878C322.452 441.608 323.765 437.595 327.452 435.871V440.375C328.462 440.199 329.413 439.82 330.232 439.265C331.051 438.71 331.716 437.995 332.175 437.175C332.428 438.421 332.831 439.64 333.376 440.81C333.466 441.005 333.592 441.22 333.82 441.27C333.931 441.277 334.042 441.264 334.147 441.23C334.251 441.195 334.346 441.142 334.426 441.073C336.145 439.909 337.701 438.565 339.059 437.07L344.391 445.311C347.471 438.376 347.64 430.682 344.865 423.645C342.09 416.607 336.558 410.7 329.288 407.009C328.055 406.376 326.769 405.83 325.44 405.375C321.969 404.21 318.228 403.837 314.527 403.612C309.265 403.291 303.712 403.304 299.093 405.553C296.609 406.761 294.547 408.543 292.554 410.334C289.86 412.751 287.166 415.305 285.732 418.465C284.742 420.647 284.402 423.011 284.102 425.348C283.92 426.762 283.751 428.223 284.203 429.586C284.517 430.53 285.109 431.378 285.508 432.296C286.17 433.822 286.274 435.488 286.529 437.11C287.096 440.692 288.408 444.149 290.399 447.302C290.82 447.97 291.359 448.681 292.198 448.851C293.037 449.021 294.044 448.196 293.601 447.545" stroke="black" stroke-miterlimit="10"/>
<path d="M263.024 470.748C264.107 473.402 266.829 475.204 269.411 476.845L276.146 481.128C277.936 482.267 279.775 483.447 280.939 485.109C279.236 485.684 278.458 487.636 279.017 489.182C279.575 490.728 281.178 491.836 282.923 492.337C284.669 492.837 286.521 492.82 288.342 492.727C290.433 492.625 292.621 492.399 294.347 491.341L290.556 489.259C289.557 488.707 288.409 487.826 288.774 486.833L292.773 486.798C293.194 486.798 293.651 486.78 293.985 486.547C294.319 486.315 294.434 485.957 294.574 485.617C295.169 484.241 296.184 483.041 297.504 482.153C298.825 481.265 300.397 480.725 302.045 480.593C303.032 480.528 304.169 480.565 304.851 479.91C305.294 479.474 305.39 478.849 305.468 478.266C305.617 477.155 305.763 476.014 305.516 474.926C305.269 473.838 304.556 472.757 303.411 472.299C302.569 471.959 301.596 471.991 300.675 471.881C296.441 471.381 293.505 467.958 291.232 464.733C288.959 461.508 286.521 457.941 282.468 456.74C281.203 456.402 279.891 456.223 278.571 456.207C275.649 456.099 272.641 456.312 269.981 457.393C265.022 459.407 261.094 466.024 263.024 470.748Z" fill="#AB3E37"/>
<path opacity="0.1" d="M344.416 440.858L339.084 432.616C337.726 434.113 336.171 435.457 334.451 436.619C334.372 436.69 334.277 436.744 334.172 436.778C334.067 436.813 333.956 436.827 333.845 436.82C333.617 436.769 333.491 436.554 333.401 436.359C332.856 435.188 332.453 433.969 332.2 432.721C331.741 433.542 331.076 434.258 330.257 434.813C329.438 435.369 328.487 435.749 327.477 435.924V431.42C323.79 433.149 322.488 437.162 320.512 440.427C320.212 440.928 319.856 441.441 319.277 441.678C318.798 441.826 318.286 441.867 317.785 441.798L313.295 441.501C313.105 442.924 312.723 444.322 312.155 445.664C310.802 443.808 308.925 442.303 306.712 441.299C304.499 440.296 302.029 439.831 299.55 439.949C297.1 440.095 294.333 441.18 293.856 443.329L293.617 443.094C294.069 443.747 293.056 444.573 292.214 444.403C291.372 444.233 290.836 443.522 290.416 442.854C288.43 439.698 287.123 436.238 286.563 432.654C286.307 431.033 286.203 429.366 285.541 427.84C285.143 426.922 284.551 426.074 284.236 425.131C284.236 425.098 284.217 425.068 284.208 425.036C284.183 425.223 284.158 425.411 284.135 425.598C283.953 427.015 283.784 428.473 284.236 429.852C284.551 430.795 285.143 431.643 285.541 432.559C286.203 434.087 286.307 435.751 286.563 437.375C287.123 440.959 288.429 444.417 290.416 447.573C290.836 448.241 291.375 448.954 292.214 449.124C293.053 449.294 294.061 448.468 293.617 447.815L293.856 448.048C294.333 445.901 297.1 444.813 299.55 444.671C302.029 444.551 304.499 445.016 306.712 446.018C308.925 447.021 310.803 448.526 312.155 450.382C312.723 449.042 313.106 447.645 313.295 446.222L317.785 446.517C318.286 446.587 318.798 446.546 319.277 446.397C319.856 446.167 320.212 445.646 320.512 445.146C322.477 441.873 323.79 437.863 327.477 436.139V440.642C328.487 440.467 329.438 440.087 330.257 439.532C331.076 438.977 331.741 438.261 332.2 437.44C332.454 438.687 332.856 439.907 333.401 441.078C333.491 441.27 333.617 441.488 333.845 441.536C333.956 441.544 334.067 441.531 334.172 441.496C334.277 441.462 334.372 441.408 334.451 441.338C336.171 440.175 337.726 438.831 339.084 437.335L344.416 445.576C346.338 441.203 347.13 436.499 346.731 431.816C346.473 434.916 345.692 437.964 344.416 440.858Z" fill="black"/>
</g>
<path d="M179.788 173L181.732 167.03H191.179L193.122 173H199.054L190.028 146.818H182.895L173.857 173H179.788ZM183.138 162.709L186.359 152.801H186.564L189.786 162.709H183.138ZM224.104 146.818H218.594V163.284H218.364L207.063 146.818H202.205V173H207.741V156.521H207.933L219.323 173H224.104V146.818ZM233.191 173L235.134 167.03H244.581L246.525 173H252.456L243.431 146.818H236.297L227.259 173H233.191ZM236.54 162.709L239.762 152.801H239.966L243.188 162.709H236.54ZM255.608 173H261.143V165.56L263.866 162.236L271.038 173H277.66L267.829 158.541L277.545 146.818H270.91L261.488 158.362H261.143V146.818H255.608V173ZM291.013 157.749H279.073V162.07H291.013V157.749ZM300.269 173L302.212 167.03H311.659L313.603 173H319.534L310.509 146.818H303.375L294.337 173H300.269ZM303.618 162.709L306.84 152.801H307.044L310.266 162.709H303.618ZM344.585 146.818H339.075V163.284H338.845L327.544 146.818H322.686V173H328.221V156.521H328.413L339.804 173H344.585V146.818ZM353.671 173L355.614 167.03H365.062L367.005 173H372.937L363.911 146.818H356.778L347.739 173H353.671ZM357.021 162.709L360.242 152.801H360.447L363.668 162.709H357.021ZM376.088 173H381.624V165.56L384.347 162.236L391.518 173H398.141L388.31 158.541L398.026 146.818H391.391L381.969 158.362H381.624V146.818H376.088V173Z" fill="white"/>
<path d="M242.688 121.492C242.324 118.469 240.036 116.73 237.006 116.73C233.548 116.73 230.908 119.172 230.908 123.455C230.908 127.724 233.503 130.179 237.006 130.179C240.362 130.179 242.388 127.948 242.688 125.538L239.888 125.526C239.626 126.925 238.527 127.731 237.05 127.731C235.062 127.731 233.714 126.254 233.714 123.455C233.714 120.732 235.043 119.178 237.07 119.178C238.585 119.178 239.678 120.054 239.888 121.492H242.688ZM246.683 130L247.655 127.015H252.379L253.35 130H256.316L251.803 116.909H248.237L243.717 130H246.683ZM248.358 124.854L249.969 119.901H250.071L251.682 124.854H248.358ZM255.776 119.191H259.784V130H262.52V119.191H266.527V116.909H255.776V119.191ZM268.298 130H277.145V127.718H271.066V124.592H276.665V122.31H271.066V119.191H277.119V116.909H268.298V130ZM288 121.141H290.812C290.454 118.552 288.172 116.73 285.213 116.73C281.755 116.73 279.089 119.223 279.089 123.467C279.089 127.609 281.582 130.179 285.27 130.179C288.575 130.179 290.934 128.089 290.934 124.643V122.994H285.456V125.078H288.268C288.23 126.702 287.124 127.731 285.283 127.731C283.206 127.731 281.895 126.178 281.895 123.442C281.895 120.719 283.257 119.178 285.258 119.178C286.683 119.178 287.648 119.913 288 121.141ZM305.043 123.455C305.043 119.172 302.384 116.73 298.913 116.73C295.423 116.73 292.783 119.172 292.783 123.455C292.783 127.718 295.423 130.179 298.913 130.179C302.384 130.179 305.043 127.737 305.043 123.455ZM302.237 123.455C302.237 126.229 300.92 127.731 298.913 127.731C296.899 127.731 295.589 126.229 295.589 123.455C295.589 120.68 296.899 119.178 298.913 119.178C300.92 119.178 302.237 120.68 302.237 123.455ZM307.093 130H309.861V125.359H311.881L314.361 130H317.416L314.635 124.912C316.125 124.273 316.949 122.975 316.949 121.185C316.949 118.584 315.23 116.909 312.258 116.909H307.093V130ZM309.861 123.135V119.172H311.727C313.325 119.172 314.099 119.881 314.099 121.185C314.099 122.483 313.325 123.135 311.74 123.135H309.861ZM317.593 116.909L322.368 125.372V130H325.117V125.372L329.892 116.909H326.792L323.806 122.547H323.679L320.694 116.909H317.593Z" fill="white"/>
<defs>
<clipPath id="clip0_321_1938">
<rect width="307" height="203" fill="white" transform="translate(137 359)"/>
</clipPath>
</defs>
</svg>
