<svg width="588" height="682" viewBox="0 0 588 682" fill="none" xmlns="http://www.w3.org/2000/svg">
<path d="M588 0H0V682H588V0Z" fill="#00B09B"/>
<path d="M87.7406 0C73.1339 13.9574 65.7226 31.0825 62.4961 48.0019C52.9357 98.1314 25.2686 126.209 0 141.753V0H87.7406Z" fill="#35E97E"/>
<path d="M588 0V92.7653C575.186 83.2624 559.864 75.0791 541.592 69.481C489.014 53.3712 468.069 22.8499 459.757 0H588Z" fill="#35E97E"/>
<path d="M588 510.718V681.998H0C0 608.874 0 535.748 0 462.624C18.3523 469.145 40.7815 480.45 54.1824 500.996C82.7706 544.825 47.2159 595.35 70.2926 610.393C87.5415 621.639 108.694 594.583 154.52 592.36C226.605 588.861 259.599 655.005 310.562 640.972C335.9 633.995 329.084 617.278 361.985 600.984C408.704 577.848 444.354 600.709 493.202 588.438C518.655 582.045 554.224 564.471 588 510.718Z" fill="#35E97E"/>
<path d="M118.668 303.038C117.805 303.038 117.062 302.462 116.967 301.686C115.907 292.921 107.58 286.311 97.5972 286.311C94.5494 286.311 91.6336 286.915 88.9281 288.107C88.0815 288.479 87.0544 288.174 86.632 287.427C86.2115 286.678 86.5557 285.77 87.4005 285.396C90.5842 283.994 94.0135 283.284 97.5954 283.284C103.284 283.284 108.737 285.14 112.954 288.511C117.139 291.858 119.772 296.421 120.371 301.363C120.471 302.194 119.79 302.941 118.85 303.03C118.789 303.037 118.728 303.038 118.668 303.038Z" fill="#35E97E"/>
<path d="M483.031 575.098C482.168 575.098 481.426 574.522 481.331 573.745C480.27 564.981 471.943 558.371 461.961 558.371C458.913 558.371 455.997 558.975 453.291 560.166C452.445 560.54 451.418 560.234 450.995 559.485C450.575 558.736 450.919 557.828 451.766 557.454C454.949 556.052 458.379 555.342 461.961 555.342C467.649 555.342 473.104 557.198 477.319 560.569C481.504 563.916 484.137 568.479 484.734 573.421C484.835 574.252 484.153 574.999 483.214 575.088C483.152 575.095 483.091 575.098 483.031 575.098Z" fill="#35E97E"/>
<path d="M518.032 368.822C516.348 368.822 514.662 368.654 512.98 368.32C507.429 367.216 502.569 364.346 499.292 360.239C496.04 356.161 494.603 351.198 495.247 346.262C495.355 345.431 496.207 344.836 497.143 344.93C498.083 345.026 498.756 345.778 498.649 346.607C497.508 355.363 503.992 363.428 513.731 365.366C516.705 365.959 519.701 365.934 522.635 365.297C523.552 365.098 524.481 365.595 524.706 366.406C524.931 367.217 524.369 368.039 523.452 368.238C521.658 368.628 519.848 368.822 518.032 368.822Z" fill="#35E97E"/>
<path d="M120.346 46.0223C120.037 46.0223 119.727 45.9483 119.446 45.7953C116.424 44.1366 113.938 41.9299 112.055 39.2362C109.065 34.9561 107.984 29.8763 109.013 24.9332C110.032 20.0262 113.039 15.6458 117.477 12.5999C118.223 12.0881 119.299 12.2066 119.879 12.8681C120.46 13.528 120.324 14.4791 119.576 14.9925C111.701 20.3964 109.722 30.1347 114.967 37.6466C116.569 39.9388 118.683 41.8164 121.251 43.2249C122.054 43.6659 122.3 44.599 121.803 45.3098C121.478 45.7689 120.918 46.0223 120.346 46.0223Z" fill="#35E97E"/>
<path d="M452.465 70.99C450.051 70.99 447.636 70.651 445.306 69.9714C444.409 69.7098 443.922 68.8524 444.218 68.0593C444.514 67.2662 445.483 66.835 446.38 67.0967C455.844 69.8628 466.089 65.8856 470.212 57.8455C471.47 55.392 472.054 52.7921 471.945 50.123C471.911 49.2871 472.648 48.5861 473.593 48.5548C474.537 48.5252 475.331 49.1768 475.366 50.0127C475.495 53.1557 474.81 56.2115 473.331 59.0961C470.981 63.6772 466.816 67.304 461.603 69.3066C458.689 70.4272 455.579 70.99 452.465 70.99Z" fill="#35E97E"/>
<path d="M294.605 611.008C293.825 611.008 293.04 610.974 292.251 610.903C286.591 610.398 281.375 608.066 277.565 604.337C273.782 600.637 271.679 595.861 271.646 590.892C271.64 590.056 272.401 589.374 273.348 589.37C273.352 589.37 273.356 589.37 273.359 589.37C274.301 589.37 275.066 590.041 275.071 590.875C275.131 599.689 282.665 607.005 292.597 607.892C295.63 608.162 298.6 607.821 301.426 606.876C302.31 606.58 303.298 606.975 303.633 607.757C303.968 608.538 303.522 609.412 302.638 609.708C300.044 610.572 297.351 611.008 294.605 611.008Z" fill="#35E97E"/>
<path d="M431.777 273.69C431.174 273.69 430.57 273.564 430.011 273.307C428.741 272.723 427.952 271.572 427.952 270.305V244.726C427.952 243.458 428.741 242.308 430.011 241.724C431.282 241.14 432.801 241.229 433.973 241.956L454.59 254.747C455.61 255.379 456.218 256.414 456.218 257.516C456.218 258.617 455.61 259.652 454.59 260.286L433.973 273.077C433.314 273.483 432.548 273.69 431.777 273.69ZM431.779 244.368C431.707 244.368 431.641 244.388 431.591 244.411C431.493 244.457 431.375 244.548 431.375 244.726V270.305C431.375 270.483 431.493 270.575 431.591 270.62C431.69 270.664 431.842 270.697 432.006 270.595L452.623 257.804C452.764 257.717 452.794 257.599 452.794 257.515C452.794 257.431 452.764 257.312 452.623 257.225L432.006 244.434C431.926 244.387 431.848 244.368 431.779 244.368Z" fill="#35E97E"/>
<path d="M23.6718 214.281C23.2792 214.281 22.8829 214.227 22.4996 214.119C21.3143 213.781 20.3876 212.95 20.0192 211.899L12.5838 190.62C12.1614 189.411 12.5317 188.106 13.5495 187.216C14.5692 186.325 16.0484 186.014 17.4123 186.403L44.9399 194.255C46.3038 194.644 47.2974 195.662 47.5375 196.91C47.7756 198.159 47.2156 199.409 46.0712 200.173L25.9773 213.599C25.3074 214.046 24.4943 214.281 23.6718 214.281ZM16.2289 189.263C16.1061 189.263 16.0168 189.315 15.9573 189.368C15.8772 189.437 15.7972 189.556 15.8568 189.725L23.2922 211.004C23.3425 211.148 23.4616 211.211 23.5527 211.236C23.6439 211.262 23.7797 211.273 23.9174 211.181L44.0114 197.755C44.1714 197.648 44.1844 197.51 44.1658 197.413C44.1472 197.316 44.0858 197.189 43.8942 197.135L16.3666 189.282C16.3127 189.269 16.2699 189.263 16.2289 189.263Z" fill="#35E97E"/>
<path d="M513.148 215.792C514.977 215.121 515.846 213.266 515.089 211.649C514.332 210.031 512.236 209.263 510.408 209.934C508.579 210.605 507.711 212.459 508.467 214.077C509.224 215.695 511.32 216.462 513.148 215.792Z" fill="#35E97E"/>
<path d="M511.762 230.559C513.742 230.559 515.346 229.14 515.346 227.39C515.346 225.639 513.742 224.22 511.762 224.22C509.783 224.22 508.179 225.639 508.179 227.39C508.179 229.14 509.783 230.559 511.762 230.559Z" fill="#35E97E"/>
<path d="M511.762 245.082C513.742 245.082 515.346 243.663 515.346 241.913C515.346 240.163 513.742 238.744 511.762 238.744C509.783 238.744 508.179 240.163 508.179 241.913C508.179 243.663 509.783 245.082 511.762 245.082Z" fill="#35E97E"/>
<path d="M511.762 259.606C513.742 259.606 515.346 258.187 515.346 256.437C515.346 254.686 513.742 253.267 511.762 253.267C509.783 253.267 508.179 254.686 508.179 256.437C508.179 258.187 509.783 259.606 511.762 259.606Z" fill="#35E97E"/>
<path d="M511.762 274.129C513.742 274.129 515.346 272.71 515.346 270.96C515.346 269.21 513.742 267.791 511.762 267.791C509.783 267.791 508.179 269.21 508.179 270.96C508.179 272.71 509.783 274.129 511.762 274.129Z" fill="#35E97E"/>
<path d="M511.762 288.653C513.742 288.653 515.346 287.234 515.346 285.483C515.346 283.733 513.742 282.314 511.762 282.314C509.783 282.314 508.179 283.733 508.179 285.483C508.179 287.234 509.783 288.653 511.762 288.653Z" fill="#35E97E"/>
<path d="M532.301 213.635C532.756 211.932 531.563 210.224 529.636 209.822C527.71 209.419 525.78 210.474 525.326 212.177C524.872 213.881 526.065 215.588 527.991 215.991C529.917 216.394 531.847 215.339 532.301 213.635Z" fill="#35E97E"/>
<path d="M528.801 230.559C530.78 230.559 532.384 229.14 532.384 227.39C532.384 225.639 530.78 224.22 528.801 224.22C526.821 224.22 525.217 225.639 525.217 227.39C525.217 229.14 526.821 230.559 528.801 230.559Z" fill="#35E97E"/>
<path d="M528.801 245.082C530.78 245.082 532.384 243.663 532.384 241.913C532.384 240.163 530.78 238.744 528.801 238.744C526.821 238.744 525.217 240.163 525.217 241.913C525.217 243.663 526.821 245.082 528.801 245.082Z" fill="#35E97E"/>
<path d="M528.801 259.606C530.78 259.606 532.384 258.187 532.384 256.436C532.384 254.686 530.78 253.267 528.801 253.267C526.821 253.267 525.217 254.686 525.217 256.436C525.217 258.187 526.821 259.606 528.801 259.606Z" fill="#35E97E"/>
<path d="M528.801 274.129C530.78 274.129 532.384 272.71 532.384 270.96C532.384 269.21 530.78 267.791 528.801 267.791C526.821 267.791 525.217 269.21 525.217 270.96C525.217 272.71 526.821 274.129 528.801 274.129Z" fill="#35E97E"/>
<path d="M528.801 288.653C530.78 288.653 532.384 287.234 532.384 285.483C532.384 283.733 530.78 282.314 528.801 282.314C526.821 282.314 525.217 283.733 525.217 285.483C525.217 287.234 526.821 288.653 528.801 288.653Z" fill="#35E97E"/>
<path d="M547.228 215.791C549.057 215.12 549.925 213.266 549.169 211.648C548.412 210.03 546.316 209.263 544.487 209.933C542.659 210.604 541.79 212.459 542.547 214.076C543.304 215.694 545.4 216.462 547.228 215.791Z" fill="#35E97E"/>
<path d="M545.842 230.559C547.821 230.559 549.425 229.14 549.425 227.39C549.425 225.639 547.821 224.22 545.842 224.22C543.862 224.22 542.258 225.639 542.258 227.39C542.258 229.14 543.862 230.559 545.842 230.559Z" fill="#35E97E"/>
<path d="M545.842 245.082C547.821 245.082 549.425 243.663 549.425 241.913C549.425 240.163 547.821 238.744 545.842 238.744C543.862 238.744 542.258 240.163 542.258 241.913C542.258 243.663 543.862 245.082 545.842 245.082Z" fill="#35E97E"/>
<path d="M545.842 259.606C547.821 259.606 549.425 258.187 549.425 256.436C549.425 254.686 547.821 253.267 545.842 253.267C543.862 253.267 542.258 254.686 542.258 256.436C542.258 258.187 543.862 259.606 545.842 259.606Z" fill="#35E97E"/>
<path d="M545.842 274.129C547.821 274.129 549.425 272.71 549.425 270.96C549.425 269.21 547.821 267.791 545.842 267.791C543.862 267.791 542.258 269.21 542.258 270.96C542.258 272.71 543.862 274.129 545.842 274.129Z" fill="#35E97E"/>
<path d="M545.842 288.653C547.821 288.653 549.425 287.234 549.425 285.483C549.425 283.733 547.821 282.314 545.842 282.314C543.862 282.314 542.258 283.733 542.258 285.483C542.258 287.234 543.862 288.653 545.842 288.653Z" fill="#35E97E"/>
<path d="M564.267 215.791C566.095 215.121 566.964 213.266 566.207 211.648C565.45 210.03 563.354 209.263 561.526 209.933C559.698 210.604 558.829 212.459 559.586 214.076C560.342 215.694 562.438 216.462 564.267 215.791Z" fill="#35E97E"/>
<path d="M562.88 230.559C564.859 230.559 566.464 229.14 566.464 227.39C566.464 225.639 564.859 224.22 562.88 224.22C560.9 224.22 559.296 225.639 559.296 227.39C559.296 229.14 560.9 230.559 562.88 230.559Z" fill="#35E97E"/>
<path d="M562.88 245.082C564.859 245.082 566.464 243.664 566.464 241.913C566.464 240.163 564.859 238.744 562.88 238.744C560.9 238.744 559.296 240.163 559.296 241.913C559.296 243.664 560.9 245.082 562.88 245.082Z" fill="#35E97E"/>
<path d="M562.88 259.606C564.859 259.606 566.464 258.187 566.464 256.437C566.464 254.686 564.859 253.267 562.88 253.267C560.9 253.267 559.296 254.686 559.296 256.437C559.296 258.187 560.9 259.606 562.88 259.606Z" fill="#35E97E"/>
<path d="M562.88 274.13C564.859 274.13 566.464 272.711 566.464 270.96C566.464 269.21 564.859 267.791 562.88 267.791C560.9 267.791 559.296 269.21 559.296 270.96C559.296 272.711 560.9 274.13 562.88 274.13Z" fill="#35E97E"/>
<path d="M562.88 288.653C564.859 288.653 566.464 287.234 566.464 285.484C566.464 283.733 564.859 282.314 562.88 282.314C560.9 282.314 559.296 283.733 559.296 285.484C559.296 287.234 560.9 288.653 562.88 288.653Z" fill="#35E97E"/>
<path d="M583.422 213.638C583.876 211.934 582.683 210.226 580.757 209.824C578.831 209.421 576.901 210.476 576.447 212.179C575.992 213.883 577.185 215.59 579.112 215.993C581.038 216.396 582.968 215.341 583.422 213.638Z" fill="#35E97E"/>
<path d="M579.919 230.559C581.899 230.559 583.503 229.14 583.503 227.39C583.503 225.639 581.899 224.22 579.919 224.22C577.94 224.22 576.335 225.639 576.335 227.39C576.335 229.14 577.94 230.559 579.919 230.559Z" fill="#35E97E"/>
<path d="M579.919 245.082C581.899 245.082 583.503 243.664 583.503 241.913C583.503 240.163 581.899 238.744 579.919 238.744C577.94 238.744 576.335 240.163 576.335 241.913C576.335 243.664 577.94 245.082 579.919 245.082Z" fill="#35E97E"/>
<path d="M579.919 259.606C581.899 259.606 583.503 258.187 583.503 256.437C583.503 254.686 581.899 253.267 579.919 253.267C577.94 253.267 576.335 254.686 576.335 256.437C576.335 258.187 577.94 259.606 579.919 259.606Z" fill="#35E97E"/>
<path d="M579.919 274.129C581.899 274.129 583.503 272.71 583.503 270.96C583.503 269.21 581.899 267.791 579.919 267.791C577.94 267.791 576.335 269.21 576.335 270.96C576.335 272.71 577.94 274.129 579.919 274.129Z" fill="#35E97E"/>
<path d="M579.919 288.653C581.899 288.653 583.503 287.234 583.503 285.483C583.503 283.733 581.899 282.314 579.919 282.314C577.94 282.314 576.335 283.733 576.335 285.483C576.335 287.234 577.94 288.653 579.919 288.653Z" fill="#35E97E"/>
<path d="M9.40992 347.338C11.3892 347.338 12.9937 345.919 12.9937 344.168C12.9937 342.418 11.3892 340.999 9.40992 340.999C7.43067 340.999 5.82617 342.418 5.82617 344.168C5.82617 345.919 7.43067 347.338 9.40992 347.338Z" fill="#35E97E"/>
<path d="M12.957 359.206C13.2741 357.479 11.9474 355.851 9.99363 355.57C8.03989 355.29 6.19898 356.463 5.88184 358.191C5.56471 359.919 6.89144 361.547 8.84518 361.827C10.7989 362.107 12.6398 360.934 12.957 359.206Z" fill="#35E97E"/>
<path d="M12.957 373.73C13.2741 372.002 11.9474 370.374 9.99362 370.094C8.03988 369.814 6.19898 370.987 5.88184 372.715C5.56471 374.442 6.89144 376.07 8.84518 376.351C10.7989 376.631 12.6398 375.458 12.957 373.73Z" fill="#35E97E"/>
<path d="M12.957 388.254C13.2741 386.526 11.9474 384.898 9.99363 384.618C8.03989 384.337 6.19898 385.511 5.88184 387.238C5.56471 388.966 6.89144 390.594 8.84518 390.875C10.7989 391.155 12.6398 389.982 12.957 388.254Z" fill="#35E97E"/>
<path d="M10.7895 405.199C12.618 404.529 13.4867 402.674 12.7299 401.056C11.9731 399.439 9.8774 398.671 8.04896 399.341C6.22052 400.012 5.35178 401.867 6.10856 403.484C6.86534 405.102 8.96108 405.87 10.7895 405.199Z" fill="#35E97E"/>
<path d="M10.79 419.723C12.6185 419.053 13.4872 417.198 12.7304 415.58C11.9736 413.963 9.87789 413.195 8.04945 413.865C6.22101 414.536 5.35227 416.391 6.10905 418.008C6.86583 419.626 8.96157 420.394 10.79 419.723Z" fill="#35E97E"/>
<path d="M26.4505 347.338C28.4297 347.338 30.0342 345.919 30.0342 344.168C30.0342 342.418 28.4297 340.999 26.4505 340.999C24.4712 340.999 22.8667 342.418 22.8667 344.168C22.8667 345.919 24.4712 347.338 26.4505 347.338Z" fill="#35E97E"/>
<path d="M29.996 359.205C30.3132 357.477 28.9864 355.849 27.0327 355.569C25.079 355.289 23.238 356.462 22.9209 358.19C22.6038 359.917 23.9305 361.545 25.8842 361.826C27.838 362.106 29.6789 360.933 29.996 359.205Z" fill="#35E97E"/>
<path d="M29.9965 373.729C30.3136 372.001 28.9869 370.373 27.0332 370.093C25.0794 369.812 23.2385 370.986 22.9214 372.713C22.6043 374.441 23.931 376.069 25.8847 376.35C27.8385 376.63 29.6794 375.457 29.9965 373.729Z" fill="#35E97E"/>
<path d="M29.9965 388.253C30.3136 386.525 28.9869 384.897 27.0332 384.616C25.0794 384.336 23.2385 385.509 22.9214 387.237C22.6043 388.965 23.931 390.593 25.8847 390.873C27.8385 391.154 29.6794 389.98 29.9965 388.253Z" fill="#35E97E"/>
<path d="M27.8301 405.199C29.6585 404.528 30.5272 402.673 29.7705 401.055C29.0137 399.438 26.9179 398.67 25.0895 399.341C23.2611 400.011 22.3923 401.866 23.1491 403.484C23.9059 405.101 26.0016 405.869 27.8301 405.199Z" fill="#35E97E"/>
<path d="M27.8301 419.722C29.6585 419.052 30.5273 417.197 29.7705 415.579C29.0137 413.962 26.9179 413.194 25.0895 413.865C23.2611 414.535 22.3923 416.39 23.1491 418.008C23.9059 419.625 26.0016 420.393 27.8301 419.722Z" fill="#35E97E"/>
<path d="M43.489 347.338C45.4683 347.338 47.0728 345.919 47.0728 344.168C47.0728 342.418 45.4683 340.999 43.489 340.999C41.5098 340.999 39.9053 342.418 39.9053 344.168C39.9053 345.919 41.5098 347.338 43.489 347.338Z" fill="#35E97E"/>
<path d="M46.962 359.444C47.4174 357.74 46.225 356.034 44.2987 355.632C42.3724 355.231 40.4416 356.286 39.9862 357.989C39.5308 359.692 40.7232 361.399 42.6495 361.8C44.5758 362.202 46.5066 361.147 46.962 359.444Z" fill="#35E97E"/>
<path d="M46.9589 373.969C47.4138 372.266 46.2211 370.559 44.2949 370.157C42.3686 369.755 40.4383 370.81 39.9834 372.513C39.5285 374.216 40.7212 375.923 42.6474 376.326C44.5737 376.728 46.504 375.673 46.9589 373.969Z" fill="#35E97E"/>
<path d="M46.9584 388.493C47.4134 386.79 46.2206 385.083 44.2944 384.681C42.3681 384.279 40.4378 385.334 39.9829 387.037C39.528 388.74 40.7207 390.447 42.647 390.85C44.5732 391.252 46.5035 390.197 46.9584 388.493Z" fill="#35E97E"/>
<path d="M46.016 404.502C47.4149 403.264 47.4149 401.256 46.016 400.017C44.6171 398.779 42.3489 398.779 40.95 400.017C39.5511 401.256 39.5511 403.264 40.95 404.502C42.3489 405.741 44.6171 405.741 46.016 404.502Z" fill="#35E97E"/>
<path d="M46.016 419.026C47.4149 417.787 47.4149 415.779 46.016 414.54C44.6171 413.302 42.3489 413.302 40.95 414.54C39.5511 415.779 39.5511 417.787 40.95 419.026C42.3489 420.264 44.6171 420.264 46.016 419.026Z" fill="#35E97E"/>
<path d="M559.607 656.361H28.3921V25.6375H559.605V656.361H559.607ZM31.3692 653.728H556.628V28.2703H31.3692V653.728Z" fill="white"/>
<path d="M114.589 583.337C120.484 583.337 125.262 579.111 125.262 573.898C125.262 568.685 120.484 564.459 114.589 564.459C108.695 564.459 103.916 568.685 103.916 573.898C103.916 579.111 108.695 583.337 114.589 583.337Z" fill="#35E97E"/>
<path d="M207.542 62.9138C210.438 60.3524 210.438 56.1994 207.542 53.6379C204.645 51.0765 199.949 51.0765 197.053 53.6379C194.157 56.1994 194.157 60.3524 197.053 62.9138C199.949 65.4753 204.645 65.4753 207.542 62.9138Z" fill="#35E97E"/>
<path d="M539.988 475.185C540.644 471.609 537.898 468.24 533.855 467.66C529.811 467.08 526.002 469.508 525.345 473.084C524.689 476.659 527.435 480.029 531.478 480.609C535.522 481.189 539.332 478.761 539.988 475.185Z" fill="#35E97E"/>
<path d="M273.368 352.62C277.464 352.62 280.785 349.683 280.785 346.06C280.785 342.438 277.464 339.501 273.368 339.501C269.272 339.501 265.951 342.438 265.951 346.06C265.951 349.683 269.272 352.62 273.368 352.62Z" fill="#35E97E"/>
<path d="M264.937 217.328C264.937 217.328 387.237 240.135 433.683 153.662C480.128 67.1892 360.366 59.0784 324.108 66.4553C287.85 73.8322 173.505 85.894 168.701 144.403C163.898 202.91 264.937 217.328 264.937 217.328Z" fill="#35E97E"/>
<path d="M306.515 217.294C254.197 230.07 198.751 219.315 163.122 200.377C156.581 196.901 97.5797 165.47 103.404 134.432C106.798 116.351 121.708 104.327 122.971 103.469C134.082 95.9411 146.217 94.8402 153.167 94.2873C171.25 92.8491 175.726 98.6694 199.179 99.8328C213.339 100.535 221.603 101.21 231.122 97.6689C242.095 93.5863 244.953 87.8286 253.881 80.6771C269.524 68.1464 290.572 61.9361 307.527 61.1018C340.175 59.4942 365.5 77.4321 367.424 78.8358C379.734 87.8072 383.51 96.1813 400.768 103.998C410.239 108.288 413.527 109.813 424.688 111.171C444.612 113.594 479.65 129.64 484.268 153.03C487.232 168.037 475.824 180.665 474.047 182.574C462.671 194.788 443.064 202.751 427.626 198.362C419.84 196.149 419.939 192.773 411.971 190.174C396.872 185.249 381.389 192.447 369.8 197.278C369.8 197.278 343.383 208.292 306.515 217.294Z" fill="#009688"/>
<path d="M240.479 153.348H245.784C245.707 148.682 241.872 145.46 236.043 145.46C230.303 145.46 226.097 148.631 226.122 153.386C226.109 157.247 228.832 159.459 233.256 160.52L236.107 161.236C238.957 161.926 240.543 162.744 240.555 164.509C240.543 166.426 238.727 167.73 235.915 167.73C233.038 167.73 230.967 166.401 230.788 163.78H225.432C225.572 169.443 229.625 172.371 235.979 172.371C242.371 172.371 246.129 169.315 246.142 164.521C246.129 160.162 242.844 157.848 238.293 156.825L235.94 156.263C233.665 155.739 231.76 154.895 231.798 153.016C231.798 151.328 233.294 150.088 236.004 150.088C238.651 150.088 240.274 151.29 240.479 153.348ZM272.966 154.984C272.238 148.938 267.661 145.46 261.601 145.46C254.685 145.46 249.405 150.344 249.405 158.909C249.405 167.449 254.596 172.358 261.601 172.358C268.313 172.358 272.365 167.896 272.966 163.077L267.367 163.051C266.843 165.851 264.644 167.462 261.691 167.462C257.715 167.462 255.017 164.509 255.017 158.909C255.017 153.463 257.676 150.357 261.729 150.357C264.759 150.357 266.945 152.108 267.367 154.984H272.966ZM282.471 145.818H276.936V172H282.471V145.818ZM287.026 172H304.719V167.436H292.561V161.185H303.76V156.621H292.561V150.382H304.668V145.818H287.026V172ZM330.968 145.818H325.458V162.284H325.228L313.926 145.818H309.069V172H314.604V155.521H314.796L326.186 172H330.968V145.818ZM358.642 154.984C357.913 148.938 353.337 145.46 347.277 145.46C340.361 145.46 335.081 150.344 335.081 158.909C335.081 167.449 340.271 172.358 347.277 172.358C353.989 172.358 358.041 167.896 358.642 163.077L353.043 163.051C352.518 165.851 350.32 167.462 347.366 167.462C343.391 167.462 340.693 164.509 340.693 158.909C340.693 153.463 343.352 150.357 347.405 150.357C350.435 150.357 352.621 152.108 353.043 154.984H358.642ZM362.612 172H380.305V167.436H368.147V161.185H379.346V156.621H368.147V150.382H380.254V145.818H362.612V172Z" fill="white"/>
<path d="M261.688 121.492C261.324 118.469 259.036 116.73 256.006 116.73C252.548 116.73 249.908 119.172 249.908 123.455C249.908 127.724 252.503 130.179 256.006 130.179C259.362 130.179 261.388 127.948 261.688 125.538L258.888 125.526C258.626 126.925 257.527 127.731 256.05 127.731C254.062 127.731 252.714 126.254 252.714 123.455C252.714 120.732 254.043 119.178 256.07 119.178C257.585 119.178 258.678 120.054 258.888 121.492H261.688ZM265.683 130L266.655 127.015H271.379L272.35 130H275.316L270.803 116.909H267.237L262.717 130H265.683ZM267.358 124.854L268.969 119.901H269.071L270.682 124.854H267.358ZM274.776 119.191H278.784V130H281.52V119.191H285.527V116.909H274.776V119.191ZM287.298 130H296.145V127.718H290.066V124.592H295.665V122.31H290.066V119.191H296.119V116.909H287.298V130ZM307 121.141H309.812C309.454 118.552 307.172 116.73 304.213 116.73C300.755 116.73 298.089 119.223 298.089 123.467C298.089 127.609 300.582 130.179 304.27 130.179C307.575 130.179 309.934 128.089 309.934 124.643V122.994H304.456V125.078H307.268C307.23 126.702 306.124 127.731 304.283 127.731C302.206 127.731 300.895 126.178 300.895 123.442C300.895 120.719 302.257 119.178 304.258 119.178C305.683 119.178 306.648 119.913 307 121.141ZM324.043 123.455C324.043 119.172 321.384 116.73 317.913 116.73C314.423 116.73 311.783 119.172 311.783 123.455C311.783 127.718 314.423 130.179 317.913 130.179C321.384 130.179 324.043 127.737 324.043 123.455ZM321.237 123.455C321.237 126.229 319.92 127.731 317.913 127.731C315.899 127.731 314.589 126.229 314.589 123.455C314.589 120.68 315.899 119.178 317.913 119.178C319.92 119.178 321.237 120.68 321.237 123.455ZM326.093 130H328.861V125.359H330.881L333.361 130H336.416L333.635 124.912C335.125 124.273 335.949 122.975 335.949 121.185C335.949 118.584 334.23 116.909 331.258 116.909H326.093V130ZM328.861 123.135V119.172H330.727C332.325 119.172 333.099 119.881 333.099 121.185C333.099 122.483 332.325 123.135 330.74 123.135H328.861ZM336.593 116.909L341.368 125.372V130H344.117V125.372L348.892 116.909H345.792L342.806 122.547H342.679L339.694 116.909H336.593Z" fill="white"/>
<path d="M488.605 134.591C495.74 128.282 495.74 118.051 488.605 111.741C481.47 105.432 469.902 105.432 462.767 111.741C455.632 118.051 455.632 128.282 462.767 134.591C469.902 140.901 481.47 140.901 488.605 134.591Z" fill="#35E97E"/>
<path d="M131.747 208.191C152.043 208.191 168.495 193.641 168.495 175.693C168.495 157.745 152.043 143.195 131.747 143.195C111.452 143.195 95 157.745 95 175.693C95 193.641 111.452 208.191 131.747 208.191Z" fill="#35E97E"/>
<path d="M187.756 216.913C193.202 214.918 195.788 209.396 193.532 204.58C191.276 199.764 185.032 197.477 179.586 199.472C174.14 201.466 171.554 206.988 173.81 211.804C176.066 216.62 182.31 218.907 187.756 216.913Z" fill="#35E97E"/>
<path d="M459.116 150.576C461.962 148.059 461.962 143.978 459.116 141.461C456.269 138.944 451.655 138.944 448.808 141.461C445.962 143.978 445.962 148.059 448.808 150.576C451.655 153.093 456.269 153.093 459.116 150.576Z" fill="#35E97E"/>
<path d="M64.5535 462.171C65.197 458.657 62.4978 455.345 58.5246 454.773C54.5514 454.202 50.8087 456.587 50.1652 460.101C49.5217 463.615 52.2209 466.927 56.1941 467.499C60.1673 468.07 63.9099 465.685 64.5535 462.171Z" fill="#35E97E"/>
<path d="M299.613 544.72C406.462 544.72 493.08 539.315 493.08 532.648C493.08 525.981 406.462 520.576 299.613 520.576C192.765 520.576 106.146 525.981 106.146 532.648C106.146 539.315 192.765 544.72 299.613 544.72Z" fill="#009688"/>
<path opacity="0.3" d="M232.581 484.069C232.195 487.018 231.768 489.964 231.297 492.907C230.417 498.216 229.428 503.514 228.258 508.79L227.342 512.743C227.011 514.057 226.696 515.374 226.349 516.686C225.998 517.999 225.654 519.312 225.272 520.622C224.899 521.94 224.507 523.229 224.066 524.575C224.064 524.58 224.06 524.595 224.058 524.6C223.711 525.602 222.457 526.182 221.255 525.893C220.054 525.604 219.358 524.557 219.705 523.555L219.719 523.512C220.572 521.041 221.348 518.443 222.069 515.878C222.433 514.592 222.766 513.297 223.115 512.005L224.088 508.114C225.335 502.917 226.408 497.685 227.373 492.439C227.893 489.519 228.37 486.593 228.805 483.661C218.795 482.299 184.613 476.809 191.458 466.136C198.122 455.744 221.464 475.063 229.075 481.804C230.074 474.81 230.838 467.789 231.376 460.754C231.677 456.816 231.906 452.874 232.065 448.929C222.914 447.987 186.841 443.534 193.381 432.428C199.745 421.618 224.807 441.313 232.122 447.41C232.345 441.236 232.398 435.056 232.288 428.878L232.048 420.903L231.683 414.633C223.254 415.036 185.527 416.175 189.689 404.088C193.78 392.206 224.044 409.073 231.618 413.519L231.585 412.934L231.467 410.941L231.295 408.951L230.939 404.973L230.582 400.994C230.446 399.669 230.269 398.347 230.115 397.022C229.692 393.281 229.199 389.546 228.638 385.816C220.652 385.785 182.194 385.014 187.314 373.065C192.309 361.407 221.306 379.916 228.472 384.722C226.859 374.229 224.712 363.79 222.084 353.433C215.968 353.532 178.434 353.675 183.027 342.253C187.519 331.087 216.142 348.997 221.909 352.75C220.319 346.539 218.557 340.356 216.632 334.209C215.129 329.568 213.524 324.953 211.824 320.359C206.673 320.533 171.309 321.344 175.343 310.623C179.283 300.153 206.519 316.614 211.623 319.813C208.379 311.093 204.776 302.465 200.819 293.947C196.875 293.97 164.894 293.871 168.896 284.42C172.796 275.212 196.591 290.809 200.631 293.544C198.157 288.237 195.547 282.971 192.796 277.756C191.239 276.775 163.875 259.349 174.343 253.741C184.721 248.181 192.295 275.665 192.835 277.682C195.675 282.851 198.374 288.076 200.941 293.346C200.302 288.534 197.604 264.127 208.847 266.318C220.633 268.613 203.174 291.448 201.228 293.94C205.314 302.366 209.05 310.912 212.436 319.555C212.933 313.77 215.911 286.55 227.832 290.864C240.262 295.363 216.037 317.358 212.724 320.296C214.485 324.825 216.157 329.378 217.727 333.957C219.734 339.996 221.582 346.074 223.266 352.184C225.64 345.655 236.358 318.384 247.562 325.194C259.191 332.265 228.748 350.17 223.53 353.141C226.331 363.42 228.658 373.793 230.46 384.234C234.583 376.785 250.278 350.334 260.84 358.77C271.841 367.556 237.76 382.625 230.694 385.607C231.321 389.339 231.882 393.079 232.373 396.825C232.552 398.153 232.753 399.48 232.912 400.81L233.34 404.804L233.767 408.799L233.976 410.797L234.116 412.622C240.573 405.458 261.626 383.581 269.686 393.414C278.052 403.618 243.183 412.313 234.246 414.346L234.736 420.803L235.12 428.82C235.341 435.036 235.398 441.257 235.284 447.478C242.099 441.219 266.235 420.282 273.244 430.884C280.481 441.835 243.858 447.713 235.256 448.93C235.166 452.925 235.004 456.921 234.77 460.912C234.34 468.209 233.673 475.5 232.751 482.771C240.665 477.966 269.891 461.208 274.185 472.882C278.58 484.838 241.315 484.345 232.581 484.069Z" fill="#2B4EAF"/>
<path opacity="0.3" d="M341.125 455.171C342.096 453.485 343.022 451.78 344.026 450.105C359.535 440.628 381.482 437.08 411.728 436.249C442.287 435.406 447.21 410.409 447.21 410.409C427.839 419.803 426.659 415.787 391.443 421.648C365.099 426.033 351.364 439.947 346.114 446.681L346.443 446.14L348.358 443.188C349.008 442.208 349.615 441.209 350.3 440.246L352.315 437.336L353.322 435.881C353.663 435.398 354.021 434.924 354.37 434.445L356.475 431.577C357.866 429.666 359.342 427.741 360.697 425.785C362.078 423.835 363.385 421.848 364.662 419.849C366.456 416.991 368.127 414.076 369.649 411.109C387.695 399.88 420.925 399.719 420.925 399.719C453.958 395.948 455.444 373.866 455.509 371.761C455.511 371.754 455.509 371.746 455.511 371.738C455.513 371.697 455.517 371.667 455.513 371.647C455.515 371.644 455.515 371.641 455.515 371.641C455.515 371.626 455.513 371.618 455.515 371.61C455.513 371.601 455.513 371.598 455.513 371.598C455.337 372.193 455.134 372.799 454.892 373.409C453.05 376.447 445.776 382.605 417.115 386.345C388.11 390.128 375.643 402.132 371.125 408.112C371.225 407.898 371.328 407.688 371.426 407.474C372.387 405.351 373.28 403.205 374.066 401.03C374.838 398.851 375.517 396.651 376.077 394.426C377.166 389.973 377.771 385.428 377.712 380.88C377.678 378.034 377.381 375.192 376.821 372.387C383.31 364.626 389.757 361.575 395.363 359.656C425.239 349.426 421.167 330.365 421.112 330.121C421.055 330.329 418.859 337.934 398.385 346.724C381.618 353.925 377.531 366.646 376.581 371.269C376.29 369.971 375.943 368.682 375.539 367.405C374.848 365.21 373.997 363.052 373.012 360.941C372.023 358.831 370.894 356.769 369.673 354.753C367.727 351.544 365.513 348.463 363.226 345.43C364.745 341.077 370.587 333.359 370.587 333.359C383.489 314.443 376.79 298.61 376.63 298.245C376.63 298.242 376.626 298.24 376.628 298.237C375.2 309.036 368.808 304.66 362.958 320.102C358.548 331.734 360.841 340.508 362.241 344.128C361.977 343.783 361.713 343.436 361.449 343.091C359.997 341.194 358.54 339.302 357.165 337.37C355.794 335.438 354.506 333.461 353.513 331.376C352.581 329.273 351.707 327.135 350.761 325.028C350.288 323.974 349.818 322.919 349.317 321.874C349.069 321.349 348.813 320.829 348.549 320.311C348.413 320.053 348.281 319.795 348.133 319.54C348.063 319.412 347.986 319.287 347.909 319.162C347.822 319.044 347.759 318.904 347.627 318.816C347.755 318.906 347.818 319.046 347.901 319.166C347.976 319.292 348.051 319.417 348.118 319.547C348.259 319.802 348.388 320.063 348.518 320.322C348.772 320.843 349.016 321.368 349.254 321.895C349.733 322.947 350.182 324.008 350.633 325.068C351.537 327.191 352.363 329.327 353.257 331.458C354.216 333.574 355.473 335.584 356.808 337.543C358.148 339.501 359.57 341.417 360.982 343.335C362.103 344.851 363.212 346.373 364.294 347.907C361.487 345.692 348.833 339.368 343.973 331.782C338.858 323.791 323.629 318.446 323.629 318.446C323.629 318.446 323.627 318.449 323.631 318.454C323.596 318.921 322.313 338.676 343.737 343.55C361.002 347.479 366.514 351.92 368.04 353.566C368.343 354.061 368.641 354.559 368.93 355.06C370.101 357.076 371.174 359.132 372.108 361.228C373.037 363.327 373.831 365.463 374.468 367.632C375.744 371.968 376.37 376.427 376.329 380.883C376.307 383.769 376.012 386.649 375.492 389.502C373.42 366.84 352.357 355.26 335.665 352.595C318.468 349.855 313.489 336.456 313.315 335.988C313.313 335.98 313.313 335.977 313.313 335.977C313.313 335.977 304.219 362.816 339.569 370.369C367.213 376.276 373.693 386.71 375.204 390.974C374.984 392.032 374.732 393.085 374.454 394.134C373.861 396.307 373.15 398.458 372.348 400.586C371.535 402.711 370.613 404.807 369.626 406.883C367.613 411.02 365.284 415.051 362.716 418.974C361.416 420.93 360.084 422.87 358.684 424.778C357.596 426.285 356.458 427.747 355.319 429.231C356.706 421.63 358.112 400.617 336.344 384.184C329.43 378.963 325.654 376.868 303.524 369.375C303.524 369.375 290.566 365.344 283.187 352.786C283.187 352.786 283.186 352.789 283.187 352.801C283.237 353.438 284.868 373.884 303.805 383.3C326.306 394.489 350.623 406.296 354.411 430.421C354.401 430.434 354.389 430.448 354.38 430.462L352.197 433.322C351.835 433.8 351.464 434.274 351.11 434.755L350.064 436.209L347.97 439.118C347.259 440.08 346.623 441.081 345.947 442.062L343.95 445.02L342.045 448.022C340.743 450.01 339.592 452.064 338.375 454.09C337.26 456.068 336.163 458.055 335.109 460.058C327.228 415.322 283.168 405.779 266.974 398.764C254.194 393.232 247.172 384.879 246.973 384.641C246.969 384.636 246.969 384.636 246.969 384.636C242.472 410.383 273.595 421.168 273.595 421.168C317.519 435.447 330.671 453.007 334.286 459.849C334.437 460.183 334.579 460.505 334.715 460.815C333.726 462.72 332.781 464.639 331.906 466.584C329.97 470.828 328.205 475.138 326.771 479.535C325.447 483.587 324.362 487.702 323.578 491.867C322.227 481.736 315.764 460.01 285.47 452.828C246.707 443.638 242.066 428.6 241.81 427.668C246.949 451.773 253.53 455.799 263.907 462.813C272.084 468.341 296.178 472.094 305.783 476.563C313.479 480.15 320.493 491.236 322.971 495.489C322.447 499.184 322.211 502.917 322.276 506.662C322.341 508.969 322.524 511.281 322.889 513.589C323.062 514.744 323.306 515.898 323.584 517.051C323.734 517.628 323.889 518.205 324.072 518.785C324.161 519.074 324.264 519.367 324.364 519.657C324.478 519.963 324.569 520.223 324.734 520.594C324.738 520.602 324.746 520.62 324.75 520.628C325.199 521.578 326.485 522.043 327.622 521.67C328.759 521.297 329.318 520.223 328.871 519.275L328.853 519.238C328.78 519.084 328.668 518.806 328.579 518.575C328.489 518.326 328.396 518.08 328.313 517.825C328.142 517.318 327.99 516.8 327.845 516.277C327.571 515.229 327.321 514.168 327.137 513.091C326.753 510.942 326.535 508.758 326.426 506.567C326.261 502.178 326.529 497.756 327.22 493.367C327.717 490.147 328.41 486.941 329.261 483.76C350.799 474.629 369.035 474.953 369.035 474.953C419.237 475.326 432.133 454.399 433.809 451.198L433.845 451.137C433.941 450.951 433.991 450.835 434.004 450.8C433.831 451.017 430.388 454.52 384.768 454.8C351.003 455.007 336.271 470.176 330.756 478.691C331.973 474.935 333.429 471.226 335.017 467.557C336.803 463.351 338.931 459.248 341.125 455.171Z" fill="#2B4EAF"/>
<path opacity="0.3" d="M167.722 472.524C175.018 463.199 180.204 453.47 179.639 447.836C179.342 444.878 182.95 436.487 182.95 436.487C182.95 436.487 177.685 438.703 175.351 441.894C173.017 445.085 177.782 447.499 167.17 461.063C158.856 471.694 158.846 488.586 159.23 495.398C154.711 489.345 150.447 483.149 146.32 476.89C147.756 472.146 152.541 457.675 160.386 447.171C169.895 434.438 166.497 417.962 162.313 411.966C162.313 411.966 165.851 428.245 154.065 444.622C143.799 458.888 145.751 470.556 145.94 476.31C145.903 476.254 145.865 476.196 145.828 476.141C143.166 472.149 140.588 468.106 137.964 464.088C140.224 460.253 149.222 444.556 150.126 436.342C151.162 426.942 148.006 410.215 148.006 410.215C148.006 410.215 147.711 428.307 141.998 439.367C137.49 448.099 137.267 458.983 137.371 463.183C137.176 462.884 136.981 462.586 136.784 462.287C134.381 458.626 131.968 454.97 129.504 451.336C130.469 447.69 134.367 432.962 135.833 427.203C137.509 420.609 137.915 405.488 129.809 395.535C129.809 395.535 134.389 410.529 128.005 424.676C123.575 434.491 125.907 443.915 127.751 448.768C127.69 448.679 127.631 448.59 127.57 448.503C126.778 447.364 126.014 446.216 125.202 445.087L122.779 441.696C121.113 439.459 119.462 437.213 117.585 435.089C117.549 435.046 117.514 435.006 117.478 434.964C117.567 433.866 117.926 429.62 119.196 415.884C120.754 399.053 107.854 392.398 107.854 392.398C109.851 393.388 112.948 402.875 113.425 414.615C113.826 424.508 116.409 432.414 117.213 434.656C116.868 434.269 116.503 433.894 116.141 433.516C115.662 432.99 115.119 432.509 114.599 432.013C114.116 431.572 113.616 431.145 113.115 430.72C111.579 429.101 107.214 424.08 101.324 413.736C93.9237 400.739 77.1116 397.395 77.1116 397.395C77.1116 397.395 83.0071 399.203 93.4982 413.57C102.636 426.084 111.193 430.269 113.249 431.14C113.633 431.482 114.014 431.824 114.382 432.175C114.886 432.678 115.412 433.163 115.875 433.694C116.352 434.214 116.834 434.729 117.268 435.278C118.383 436.595 119.415 437.962 120.419 439.344C118.641 438.919 112.493 436.814 97.7746 426.461C79.692 413.739 65.6671 418.35 65.6671 418.35C68.8975 417.829 74.1608 420.703 89.8876 429.234C103.853 436.811 117.551 438.988 120.443 439.38C121.06 440.232 121.668 441.089 122.275 441.944L124.607 445.368C125.389 446.507 126.126 447.67 126.888 448.819C127.942 450.424 128.982 452.036 130.016 453.651C109.075 449.921 101.742 446.084 101.742 446.084C82.1759 434.643 62.8739 435.42 62.8739 435.42C69.4373 436.02 76.5009 440.473 93.4529 448.712C108.484 456.017 126.333 454.379 130.186 453.914C132.061 456.849 133.908 459.795 135.752 462.744C136.546 464.013 137.334 465.283 138.12 466.553C113.167 468.323 98.3951 461.2 98.3951 461.2C75.1871 448.802 57 449.708 57 449.708C74.929 453.181 69.3782 457.854 94.2684 465.835C115.794 472.738 133.804 468.166 138.277 466.806C140.324 470.122 142.357 473.444 144.455 476.75C145.583 478.554 146.724 480.355 147.878 482.15C142.022 482.166 130.469 481.244 111.313 473.451C93.2461 466.101 74.2711 472.582 69.3959 474.502C72.3998 473.635 82.103 472.527 109.67 479.332C136.973 486.072 145.725 484.152 148.341 482.864C151.997 488.526 155.797 494.13 159.833 499.623C155.287 497 147.732 493.293 140.86 492.943C130.126 492.398 121.587 490.554 116.373 488.502C111.161 486.45 96.0432 486.436 85.3079 496.07C85.3079 496.07 100.631 490.883 108.699 494.19C116.767 497.498 124.962 499.647 130.012 499.606C134.665 499.567 149.659 498.402 161.123 501.369C161.828 502.314 162.539 503.256 163.26 504.192L165.849 507.513C166.272 508.072 166.733 508.609 167.182 509.154L168.535 510.784L169.889 512.416C170.095 512.659 170.308 512.899 170.521 513.139C136.968 501.653 98.1253 504.601 98.1253 504.601C104.608 504.154 120.985 513.433 133.924 516.184C140.685 517.621 164.348 515.492 171.953 514.751L172.717 515.612L173.428 516.409L174.173 517.188L175.662 518.745L176.407 519.524L177.191 520.282L178.759 521.795C179.015 522.051 179.292 522.293 179.568 522.536L180.396 523.267L181.223 523.998C181.497 524.243 181.8 524.47 182.088 524.707L182.962 525.41C183.11 525.527 183.25 525.646 183.403 525.76L183.868 526.097L184.8 526.769C185.109 526.994 185.458 527.198 185.785 527.413C185.952 527.518 186.114 527.626 186.287 527.73L186.829 528.032C187.014 528.133 187.179 528.234 187.394 528.331C187.613 528.432 187.759 528.517 188.101 528.642L188.19 528.675C188.243 528.693 188.296 528.711 188.351 528.724C189.175 528.933 190.044 528.547 190.296 527.86C190.546 527.173 190.083 526.448 189.26 526.238C189.24 526.233 189.051 526.146 188.923 526.088C188.789 526.034 188.633 525.944 188.485 525.867L188.038 525.628C187.889 525.543 187.741 525.448 187.593 525.357C187.298 525.17 186.994 525.002 186.705 524.8L185.834 524.196L185.399 523.893C185.255 523.791 185.117 523.678 184.975 523.571L184.132 522.92C183.854 522.7 183.563 522.495 183.295 522.263L182.483 521.575L181.672 520.885C181.4 520.655 181.128 520.428 180.872 520.183L179.314 518.739L178.534 518.016L177.787 517.266L176.292 515.766L175.544 515.017L174.825 514.245L173.391 512.697C173.027 512.299 172.654 511.907 172.29 511.509C203.45 475.383 188.062 453.582 189.086 456.029C190.12 458.503 186.287 470.495 178.475 486.56C172.898 498.025 171.579 506.466 171.281 510.36L170.586 509.557L169.209 507.968C168.752 507.437 168.283 506.913 167.85 506.368L165.205 503.121C163.339 500.801 161.521 498.453 159.742 496.083C161.576 481.614 163.43 478.009 167.722 472.524Z" fill="#2B4EAF"/>
<path opacity="0.3" d="M424.449 472.524C417.153 463.199 411.967 453.47 412.532 447.836C412.829 444.878 409.221 436.487 409.221 436.487C409.221 436.487 414.486 438.703 416.82 441.894C419.154 445.085 414.389 447.499 425.001 461.063C433.315 471.694 433.325 488.586 432.941 495.398C437.46 489.345 441.724 483.149 445.851 476.89C444.415 472.146 439.63 457.675 431.785 447.171C422.276 434.438 425.674 417.962 429.858 411.966C429.858 411.966 426.32 428.245 438.106 444.622C448.372 458.888 446.42 470.556 446.231 476.31C446.268 476.254 446.306 476.196 446.343 476.141C449.005 472.149 451.583 468.106 454.207 464.088C451.947 460.253 442.949 444.556 442.045 436.342C441.009 426.942 444.165 410.215 444.165 410.215C444.165 410.215 444.46 428.307 450.173 439.367C454.681 448.099 454.904 458.983 454.8 463.183C454.995 462.884 455.19 462.586 455.387 462.287C457.79 458.626 460.203 454.97 462.667 451.336C461.702 447.69 457.804 432.962 456.338 427.203C454.662 420.609 454.256 405.488 462.362 395.535C462.362 395.535 457.782 410.529 464.166 424.676C468.596 434.491 466.264 443.915 464.42 448.768C464.481 448.679 464.54 448.59 464.601 448.503C465.393 447.364 466.157 446.216 466.969 445.087L469.392 441.696C471.058 439.459 472.709 437.213 474.586 435.089C474.622 435.046 474.657 435.006 474.693 434.964C474.604 433.866 474.245 429.62 472.975 415.884C471.417 399.053 484.317 392.398 484.317 392.398C482.32 393.388 479.223 402.875 478.746 414.615C478.345 424.508 475.762 432.414 474.958 434.656C475.303 434.269 475.668 433.894 476.03 433.516C476.509 432.99 477.052 432.509 477.572 432.013C478.055 431.572 478.555 431.145 479.056 430.72C480.592 429.101 484.957 424.08 490.847 413.736C498.247 400.739 515.059 397.395 515.059 397.395C515.059 397.395 509.164 399.203 498.673 413.57C489.535 426.084 480.978 430.269 478.922 431.14C478.538 431.482 478.157 431.824 477.789 432.175C477.285 432.678 476.759 433.163 476.296 433.694C475.819 434.214 475.337 434.729 474.903 435.278C473.788 436.595 472.756 437.962 471.752 439.344C473.53 438.919 479.678 436.814 494.396 426.461C512.479 413.739 526.504 418.35 526.504 418.35C523.274 417.829 518.008 420.703 502.283 429.234C488.318 436.811 474.62 438.988 471.728 439.38C471.109 440.232 470.503 441.089 469.896 441.944L467.564 445.368C466.782 446.507 466.045 447.67 465.283 448.819C464.229 450.424 463.189 452.036 462.155 453.651C483.096 449.921 490.429 446.084 490.429 446.084C509.995 434.643 529.297 435.42 529.297 435.42C522.734 436.02 515.67 440.473 498.718 448.712C483.687 456.017 465.838 454.379 461.985 453.914C460.11 456.849 458.263 459.795 456.419 462.744C455.625 464.013 454.837 465.283 454.051 466.553C479.004 468.323 493.776 461.2 493.776 461.2C516.984 448.802 535.171 449.708 535.171 449.708C517.242 453.181 522.793 457.854 497.903 465.835C476.377 472.738 458.367 468.166 453.894 466.806C451.847 470.122 449.814 473.444 447.716 476.75C446.588 478.554 445.447 480.355 444.293 482.15C450.149 482.166 461.702 481.244 480.858 473.451C498.925 466.101 517.9 472.582 522.775 474.502C519.771 473.635 510.068 472.527 482.501 479.332C455.198 486.072 446.446 484.152 443.83 482.864C440.174 488.526 436.374 494.13 432.338 499.623C436.884 497 444.439 493.293 451.311 492.943C462.045 492.398 470.584 490.554 475.798 488.502C481.01 486.45 496.128 486.436 506.863 496.07C506.863 496.07 491.54 490.883 483.472 494.19C475.404 497.498 467.209 499.647 462.159 499.606C457.506 499.567 442.512 498.402 431.048 501.369C430.343 502.314 429.632 503.256 428.911 504.192L426.322 507.513C425.899 508.072 425.438 508.609 424.989 509.154L423.636 510.784L422.282 512.416C422.076 512.659 421.863 512.899 421.65 513.139C455.203 501.653 494.046 504.601 494.046 504.601C487.563 504.154 471.186 513.433 458.247 516.184C451.486 517.621 427.823 515.492 420.218 514.751L419.454 515.612L418.743 516.409L417.998 517.188L416.509 518.745L415.764 519.524L414.98 520.282L413.412 521.795C413.156 522.051 412.879 522.293 412.603 522.536L411.776 523.267L410.948 523.998C410.674 524.243 410.371 524.47 410.083 524.707L409.209 525.41C409.061 525.527 408.921 525.646 408.768 525.76L408.303 526.097L407.371 526.769C407.062 526.994 406.713 527.198 406.386 527.413C406.219 527.518 406.057 527.626 405.884 527.73L405.342 528.032C405.157 528.133 404.992 528.234 404.777 528.331C404.558 528.432 404.412 528.517 404.07 528.642L403.981 528.675C403.928 528.693 403.875 528.711 403.819 528.724C402.996 528.933 402.127 528.547 401.875 527.86C401.625 527.173 402.088 526.448 402.911 526.238C402.929 526.233 403.12 526.146 403.248 526.088C403.382 526.034 403.538 525.944 403.686 525.867L404.133 525.628C404.282 525.543 404.43 525.448 404.578 525.357C404.873 525.17 405.177 525.002 405.466 524.8L406.337 524.196L406.774 523.893C406.918 523.791 407.056 523.678 407.198 523.571L408.041 522.92C408.319 522.7 408.61 522.495 408.878 522.263L409.689 521.575L410.501 520.885C410.773 520.655 411.045 520.428 411.301 520.183L412.859 518.739L413.639 518.016L414.385 517.266L415.881 515.766L416.629 515.017L417.348 514.245L418.782 512.697C419.146 512.299 419.519 511.907 419.883 511.509C388.723 475.383 404.111 453.582 403.087 456.029C402.053 458.503 405.886 470.495 413.698 486.56C419.274 498.025 420.594 506.466 420.892 510.36L421.587 509.557L422.964 507.968C423.421 507.437 423.89 506.913 424.323 506.368L426.968 503.121C428.834 500.801 430.652 498.453 432.431 496.083C430.595 481.614 428.741 478.009 424.449 472.524Z" fill="#2B4EAF"/>
<g clip-path="url(#clip0_309_304)">
<path d="M299.423 273.292C299.667 274.096 300.064 274.829 300.583 275.439C301.103 276.05 301.734 276.523 302.431 276.825C303.128 277.127 303.874 277.25 304.618 277.187C305.362 277.124 306.084 276.876 306.734 276.459L350.965 292.661L365.604 279.546L308.552 268.138C307.867 266.937 306.82 266.065 305.609 265.686C304.398 265.307 303.108 265.449 301.983 266.084C300.858 266.72 299.975 267.804 299.503 269.132C299.032 270.461 299.003 271.941 299.423 273.292V273.292Z" fill="#FFB6B6"/>
<path d="M381.348 294.943C381.348 294.943 380.947 293.821 375.654 296.262C369.085 299.293 334.11 297.267 332.172 286.378C331.554 287.107 330.74 287.581 329.86 287.724C328.979 287.867 328.082 287.671 327.31 287.168L332.777 273.465C335.623 272.426 337.169 271.657 337.354 272.981L345.91 272.406L380.565 279.068L381.523 292.728L381.348 294.943Z" fill="#F2F2F2"/>
<path d="M370.449 281.204L387.659 279.503L403.793 287.925L412.853 431.042L377.299 412.265L362.044 417.085L370.449 281.204Z" fill="#F2F2F2"/>
<path d="M412.79 530.98L406.262 530.979L403.157 502.226L412.791 502.227L412.79 530.98Z" fill="#FFB6B6"/>
<path d="M414.455 538.205L393.406 538.204V537.9C393.406 535.419 394.269 533.04 395.806 531.285C397.342 529.531 399.426 528.545 401.599 528.545H401.599L405.444 525.214L412.618 528.546L414.455 528.546L414.455 538.205Z" fill="#2F2E41"/>
<path d="M387.493 526.282L381.125 527.923L372.549 500.658L381.948 498.235L387.493 526.282Z" fill="#FFB6B6"/>
<path d="M390.511 532.912L369.979 538.205L369.92 537.909C369.441 535.488 369.824 532.95 370.985 530.852C372.145 528.755 373.987 527.269 376.107 526.722L376.107 526.722L379.215 522.506L386.855 523.951L388.648 523.489L390.511 532.912Z" fill="#2F2E41"/>
<path d="M421.058 355.2C424.119 365.741 423.795 377.183 420.322 389.463L418.838 458.603C421.292 461.688 421.667 489.285 417.887 498.29C412.838 510.314 417.481 511.922 413.912 519.9H403.562L398.778 483.758L398.437 454.463C397.062 450.746 398.191 437.665 398.191 437.665L397.793 410.541L379.13 458.056C387.585 466.32 386.824 493.016 386.964 504.857L389.736 518.83L376.997 520.13L371.375 501.182L365.054 489.505C361.833 468.816 360.878 453.628 363.624 447.423L382.359 367.826L421.058 355.2Z" fill="#2F2E41"/>
<path d="M422.384 351.682L420.678 347.785C418.589 333.008 416.525 319.225 419.329 306.827C419.505 296.004 416.576 285.837 408.442 280.284L404.772 277.778L402.915 272.399L385.812 272.876L385.761 279.928L379.636 291.084V291.13L380.018 351.837L381.71 358.102L379.158 365.39L380.512 370.04L414.23 363.884L418.151 363.166C418.604 363 419.04 362.783 419.455 362.516C420.861 361.624 421.964 360.217 422.585 358.522C422.621 358.424 422.651 358.332 422.681 358.234C422.945 357.443 423.098 356.609 423.134 355.763C423.195 354.352 422.937 352.946 422.384 351.682V351.682Z" fill="#3F3D56"/>
<path opacity="0.2" d="M423.134 355.763C423.098 356.609 422.946 357.443 422.681 358.234L419.455 362.516C419.041 362.783 418.604 363 418.151 363.166L414.23 363.884L419.903 351.705L407.435 320.535L423.134 355.763Z" fill="black"/>
<path d="M158.231 481.695C154.269 481.741 150.311 481.428 146.393 480.759C142.744 480.055 140.895 479.054 140.895 477.784L140.896 477.761L147.702 418.589L144.274 407.368C144.13 406.897 144.088 406.393 144.15 405.9C144.213 405.406 144.378 404.936 144.633 404.531C144.888 404.126 145.225 403.796 145.615 403.571C146.004 403.346 146.436 403.231 146.873 403.236L169.414 403.504C169.843 403.509 170.265 403.63 170.646 403.856C171.026 404.083 171.354 404.409 171.603 404.808C171.852 405.207 172.015 405.667 172.078 406.152C172.142 406.636 172.104 407.131 171.969 407.596L168.76 418.588L175.566 477.761C175.568 480.872 164.67 481.695 158.231 481.695Z" fill="#F2F2F2"/>
<path d="M156.394 473.365H145.383V474.072H156.394V473.365Z" fill="#CCCCCC"/>
<path d="M156.394 469.123H145.383V469.83H156.394V469.123Z" fill="#CCCCCC"/>
<path d="M156.394 464.881H145.383V465.588H156.394V464.881Z" fill="#CCCCCC"/>
<path d="M156.394 460.639H145.383V461.346H156.394V460.639Z" fill="#CCCCCC"/>
<path d="M156.394 456.397H145.383V457.104H156.394V456.397Z" fill="#CCCCCC"/>
<path d="M257.296 481.695C253.335 481.741 249.376 481.428 245.458 480.759C241.81 480.055 239.96 479.054 239.96 477.784L239.961 477.761L246.767 418.589L243.339 407.368C243.196 406.897 243.153 406.393 243.216 405.9C243.278 405.406 243.444 404.936 243.699 404.531C243.954 404.126 244.29 403.796 244.68 403.571C245.07 403.346 245.501 403.231 245.938 403.236L268.48 403.504C268.909 403.509 269.331 403.63 269.711 403.856C270.091 404.083 270.419 404.409 270.668 404.808C270.917 405.207 271.08 405.667 271.144 406.152C271.207 406.636 271.17 407.131 271.034 407.596L267.826 418.588L274.632 477.761C274.633 480.872 263.736 481.695 257.296 481.695Z" fill="#F2F2F2"/>
<path d="M255.46 473.365H244.449V474.072H255.46V473.365Z" fill="#CCCCCC"/>
<path d="M255.46 469.123H244.449V469.83H255.46V469.123Z" fill="#CCCCCC"/>
<path d="M255.46 464.881H244.449V465.588H255.46V464.881Z" fill="#CCCCCC"/>
<path d="M255.46 460.639H244.449V461.346H255.46V460.639Z" fill="#CCCCCC"/>
<path d="M255.46 456.397H244.449V457.104H255.46V456.397Z" fill="#CCCCCC"/>
<path d="M210.859 481.695C206.898 481.741 202.939 481.428 199.021 480.759C195.373 480.055 193.523 479.054 193.523 477.784L193.524 477.761L200.33 418.589L196.902 407.368C196.759 406.897 196.716 406.393 196.779 405.9C196.841 405.406 197.007 404.936 197.262 404.531C197.517 404.126 197.853 403.796 198.243 403.571C198.633 403.346 199.064 403.231 199.501 403.236L222.043 403.504C222.472 403.509 222.894 403.63 223.274 403.856C223.654 404.083 223.982 404.409 224.231 404.808C224.48 405.207 224.643 405.667 224.707 406.152C224.77 406.636 224.733 407.131 224.597 407.596L221.389 418.588L228.195 477.761C228.196 480.872 217.299 481.695 210.859 481.695Z" fill="#F2F2F2"/>
<path d="M209.023 473.365H198.012V474.072H209.023V473.365Z" fill="#CCCCCC"/>
<path d="M209.023 469.123H198.012V469.83H209.023V469.123Z" fill="#CCCCCC"/>
<path d="M209.023 464.881H198.012V465.588H209.023V464.881Z" fill="#CCCCCC"/>
<path d="M209.023 460.639H198.012V461.346H209.023V460.639Z" fill="#CCCCCC"/>
<path d="M209.023 456.397H198.012V457.104H209.023V456.397Z" fill="#CCCCCC"/>
<path d="M284.075 486.092H263.024V445.791H284.075C285.225 445.791 286.327 445.27 287.14 444.342C287.953 443.413 288.409 442.155 288.409 440.842C288.409 439.529 287.953 438.27 287.14 437.342C286.327 436.414 285.225 435.893 284.075 435.893H137.334C136.185 435.893 135.082 436.414 134.269 437.342C133.457 438.27 133 439.529 133 440.842C133 442.155 133.457 443.413 134.269 444.342C135.082 445.27 136.185 445.791 137.334 445.791H155.29V486.092H137.334C136.185 486.092 135.082 486.614 134.269 487.542C133.457 488.47 133 489.729 133 491.041C133 492.354 133.457 493.613 134.269 494.541C135.082 495.469 136.185 495.991 137.334 495.991H284.075C284.645 495.991 285.209 495.864 285.735 495.615C286.262 495.367 286.74 495.003 287.143 494.543C287.546 494.083 287.866 493.537 288.084 492.937C288.302 492.336 288.414 491.692 288.414 491.041C288.414 490.391 288.302 489.747 288.084 489.146C287.866 488.545 287.546 487.999 287.143 487.54C286.74 487.08 286.262 486.716 285.735 486.467C285.209 486.219 284.645 486.091 284.075 486.092ZM163.958 486.092V445.791H254.356V486.092H163.958Z" fill="#CCCCCC"/>
<path d="M280.666 538.272C269.899 538.272 259.857 537.477 252.39 536.035C243.179 534.255 238.701 531.67 238.701 528.131L238.706 528.019L254.873 387.443L246.779 360.947C246.391 359.701 246.274 358.365 246.44 357.055C246.606 355.746 247.049 354.502 247.731 353.432C248.397 352.346 249.287 351.464 250.324 350.865C251.36 350.267 252.51 349.97 253.671 350.002L307.27 350.639C308.406 350.653 309.523 350.973 310.53 351.573C311.538 352.173 312.407 353.037 313.066 354.093C313.726 355.15 314.157 356.369 314.326 357.652C314.494 358.935 314.394 360.246 314.035 361.476L306.458 387.434L322.628 528.022V528.076C322.63 531.892 317.561 534.601 307.13 536.359C296.884 538.086 285.21 538.272 280.666 538.272Z" fill="white"/>
<path d="M280.666 538.272C269.899 538.272 259.857 537.477 252.39 536.035C243.179 534.255 238.701 531.67 238.701 528.131L238.706 528.019L254.873 387.443L246.779 360.947C246.391 359.701 246.274 358.365 246.44 357.055C246.606 355.746 247.049 354.502 247.731 353.432C248.397 352.346 249.287 351.464 250.324 350.865C251.36 350.267 252.51 349.97 253.671 350.002L307.27 350.639C308.406 350.653 309.523 350.973 310.53 351.573C311.538 352.173 312.407 353.037 313.066 354.093C313.726 355.15 314.157 356.369 314.326 357.652C314.494 358.935 314.394 360.246 314.035 361.476L306.458 387.434L322.628 528.022V528.076C322.63 531.892 317.561 534.601 307.13 536.359C296.884 538.086 285.21 538.272 280.666 538.272ZM253.523 351.682C252.621 351.681 251.732 351.928 250.932 352.404C250.131 352.88 249.444 353.569 248.927 354.413C248.384 355.265 248.032 356.254 247.9 357.296C247.768 358.338 247.861 359.401 248.17 360.393L256.379 387.266L256.356 387.464L240.171 528.186C240.174 529.564 241.793 532.283 252.636 534.376C260.024 535.804 269.978 536.59 280.666 536.59C290.061 536.59 299.874 535.882 306.915 534.696C315.911 533.18 321.093 530.788 321.155 528.127L304.954 387.269L312.638 360.945C312.924 359.965 313.003 358.923 312.869 357.902C312.735 356.881 312.392 355.91 311.867 355.07C311.342 354.229 310.651 353.542 309.849 353.064C309.048 352.586 308.159 352.332 307.255 352.321L253.648 351.683C253.606 351.682 253.564 351.682 253.523 351.682Z" fill="#3F3D56"/>
<path opacity="0.5" d="M311.22 510.931H250.113L259.8 436.132L260.064 434.07L264.099 402.931C264.345 401.032 266.26 402.507 267.614 401.368C276.021 394.299 284.528 394.094 293.11 400.907C294.436 401.961 296.268 400.728 296.516 402.551L300.755 433.785L301.165 436.806L311.22 510.931Z" fill="#6C63FF"/>
<path d="M303.498 520.989H257.409C256.2 520.989 255.006 520.692 253.908 520.117C252.809 519.543 251.832 518.705 251.043 517.66C250.253 516.615 249.67 515.389 249.333 514.064C248.997 512.739 248.914 511.346 249.091 509.982L262.556 406.001C262.626 405.469 262.817 404.968 263.111 404.548C263.404 404.128 263.79 403.804 264.229 403.608C264.667 403.413 265.143 403.354 265.608 403.436C266.073 403.518 266.511 403.74 266.878 404.077C275.084 411.585 284.029 411.415 293.462 403.577C293.828 403.272 294.256 403.08 294.706 403.02C295.156 402.96 295.612 403.035 296.03 403.236C296.456 403.435 296.83 403.758 297.114 404.172C297.399 404.585 297.585 405.076 297.654 405.596L311.807 509.917C311.993 511.286 311.917 512.684 311.585 514.016C311.253 515.349 310.672 516.583 309.882 517.635C309.093 518.687 308.114 519.531 307.011 520.11C305.909 520.689 304.711 520.989 303.498 520.989Z" fill="#599600"/>
<path d="M285.133 509.215H258.948V510.896H285.133V509.215Z" fill="white"/>
<path d="M285.133 499.126H258.948V500.807H285.133V499.126Z" fill="white"/>
<path d="M285.185 489H259V490.681H285.185V489Z" fill="white"/>
<path d="M285.185 479H259V480.681H285.185V479Z" fill="white"/>
<path d="M285.133 468.86H258.948V470.542H285.133V468.86Z" fill="white"/>
<path d="M302.4 442.394C300.369 444.697 297.926 446.471 295.238 447.594C292.55 448.718 289.681 449.163 286.828 448.901C283.574 448.565 280.607 447.178 277.751 445.429C274.798 443.622 271.942 441.461 268.673 440.452C265.809 439.569 262.415 439.452 259.956 441.638C259.755 441.815 259.51 441.915 259.255 441.923C259.001 441.931 258.751 441.845 258.542 441.68L258.822 439.494C261.561 437.308 264.889 436.972 268.15 437.72C274.717 439.233 279.702 445.438 286.431 446.329C289.334 446.702 292.272 446.246 294.982 445.002C297.692 443.757 300.089 441.763 301.958 439.2L301.965 439.191L302.4 442.394Z" fill="white"/>
<path d="M454.001 538.316C454.001 538.406 453.986 538.495 453.956 538.578C453.926 538.661 453.881 538.737 453.826 538.8C453.77 538.864 453.704 538.914 453.631 538.948C453.558 538.983 453.48 539 453.402 539H133.639C133.48 539 133.328 538.928 133.215 538.8C133.103 538.671 133.04 538.497 133.04 538.316C133.04 538.135 133.103 537.961 133.215 537.832C133.328 537.704 133.48 537.632 133.639 537.632H453.402C453.48 537.632 453.558 537.649 453.631 537.684C453.704 537.718 453.77 537.768 453.826 537.832C453.881 537.895 453.926 537.971 453.956 538.054C453.986 538.137 454.001 538.226 454.001 538.316Z" fill="#CCCCCC"/>
<path d="M387.562 279.48L404.772 277.778L420.907 286.201L429.967 429.318L394.412 410.541L379.158 415.361L387.562 279.48Z" fill="#F2F2F2"/>
<path d="M302.624 279.303C304.291 279.303 305.643 277.759 305.643 275.855C305.643 273.95 304.291 272.406 302.624 272.406C300.956 272.406 299.604 273.95 299.604 275.855C299.604 277.759 300.956 279.303 302.624 279.303Z" fill="#6C63FF"/>
<path d="M297.59 321.261C299.258 321.261 300.61 319.717 300.61 317.813C300.61 315.908 299.258 314.364 297.59 314.364C295.922 314.364 294.57 315.908 294.57 317.813C294.57 319.717 295.922 321.261 297.59 321.261Z" fill="#6C63FF"/>
<path d="M281.483 345.976C283.151 345.976 284.503 344.432 284.503 342.528C284.503 340.623 283.151 339.079 281.483 339.079C279.815 339.079 278.463 340.623 278.463 342.528C278.463 344.432 279.815 345.976 281.483 345.976Z" fill="#6C63FF"/>
<path d="M356.875 372.696V335.675C356.876 334.926 357.137 334.208 357.601 333.678C358.065 333.148 358.694 332.85 359.35 332.849H383.834C384.49 332.85 385.12 333.148 385.584 333.678C386.047 334.208 386.308 334.926 386.309 335.675V372.696C386.308 373.445 386.047 374.163 385.584 374.693C385.12 375.223 384.49 375.521 383.834 375.522H359.35C358.694 375.521 358.065 375.223 357.601 374.693C357.137 374.163 356.876 373.445 356.875 372.696V372.696Z" fill="#E6E6E6"/>
<path d="M358.753 361.514V337.714C358.754 337.012 358.998 336.339 359.433 335.843C359.868 335.347 360.457 335.068 361.071 335.067H382.113C382.728 335.068 383.317 335.347 383.751 335.843C384.186 336.339 384.43 337.012 384.431 337.714V370.657C384.43 371.359 384.186 372.032 383.751 372.528C383.317 373.024 382.728 373.303 382.113 373.304H369.078C366.341 373.3 363.716 372.057 361.781 369.847C359.845 367.637 358.757 364.64 358.753 361.514V361.514Z" fill="white"/>
<path d="M362.161 344.355C362.161 343.669 362.4 343.011 362.825 342.526C363.249 342.042 363.825 341.769 364.426 341.768H379.022C379.623 341.768 380.199 342.041 380.624 342.526C381.049 343.011 381.287 343.669 381.287 344.355C381.287 345.04 381.049 345.698 380.624 346.183C380.199 346.668 379.623 346.941 379.022 346.941H364.426C363.825 346.94 363.249 346.667 362.825 346.183C362.4 345.698 362.161 345.04 362.161 344.355V344.355Z" fill="#E6E6E6"/>
<path d="M362.161 352.401C362.161 351.716 362.4 351.058 362.825 350.573C363.249 350.088 363.825 349.816 364.426 349.815H379.022C379.623 349.815 380.199 350.087 380.624 350.572C381.049 351.057 381.287 351.715 381.287 352.401C381.287 353.087 381.049 353.745 380.624 354.23C380.199 354.715 379.623 354.988 379.022 354.988H364.426C363.825 354.987 363.249 354.714 362.825 354.229C362.4 353.744 362.161 353.087 362.161 352.401V352.401Z" fill="#E6E6E6"/>
<path d="M362.161 360.448C362.161 359.762 362.4 359.105 362.825 358.62C363.249 358.135 363.825 357.862 364.426 357.862H379.022C379.623 357.862 380.199 358.134 380.624 358.619C381.049 359.104 381.287 359.762 381.287 360.448C381.287 361.134 381.049 361.792 380.624 362.277C380.199 362.762 379.623 363.034 379.022 363.034H364.426C363.825 363.034 363.249 362.761 362.825 362.276C362.4 361.791 362.161 361.134 362.161 360.448V360.448Z" fill="#E6E6E6"/>
<path d="M376.821 379.083C377.51 378.757 378.128 378.264 378.632 377.636C379.136 377.008 379.513 376.262 379.737 375.45C379.961 374.638 380.027 373.78 379.929 372.936C379.831 372.092 379.572 371.283 379.171 370.565L396.923 352.149L403.151 324.64L392.098 323.59L388.72 345.177L371.792 368.971C370.781 369.82 370.078 371.064 369.817 372.466C369.555 373.868 369.753 375.331 370.373 376.577C370.993 377.824 371.992 378.767 373.18 379.229C374.369 379.691 375.664 379.639 376.821 379.083V379.083Z" fill="#FFB6B6"/>
<path d="M404.854 299.797C404.854 299.797 407.548 299.842 406.335 306.211C405.363 311.311 401.678 340.006 398.736 346.425C399.41 347.089 399.87 347.989 400.046 348.985C400.222 349.98 400.102 351.014 399.707 351.924L387.412 346.477C386.341 343.292 388.138 342.302 389.284 342.017L389.059 332.027L390.822 306.562L402.907 299.724L404.854 299.797Z" fill="#F2F2F2"/>
<path d="M408.476 252.655C407.902 257.432 405.692 261.753 402.33 264.669C398.968 267.585 394.73 268.858 390.546 268.208C386.363 267.558 382.577 265.038 380.02 261.202C377.463 257.365 376.344 252.527 376.909 247.749L376.94 247.491C377.6 242.778 379.856 238.55 383.221 235.718C386.587 232.887 390.792 231.681 394.93 232.358C399.068 233.036 402.806 235.543 405.339 239.34C407.873 243.137 408.997 247.919 408.471 252.655L408.476 252.655Z" fill="#FFB8B8"/>
<path d="M404.421 262.024C405.239 260.127 406.08 258.09 405.85 255.991C405.62 253.893 403.818 251.887 402.048 252.51C400.99 252.883 400.19 254.077 399.084 254.138C397.561 254.222 396.689 252.232 396.215 250.579L394.286 243.843C392.433 245.492 390.284 246.653 387.993 247.245C385.701 247.836 383.324 247.842 381.03 247.263C379.239 246.796 377.429 245.884 376.378 244.162C375.327 242.441 375.334 239.77 376.775 238.468C377.482 237.83 378.422 237.588 379.098 236.906C379.517 236.484 379.805 235.919 379.921 235.294C380.037 234.67 379.974 234.019 379.74 233.439C379.507 232.859 379.117 232.38 378.627 232.073C378.137 231.766 377.573 231.647 377.019 231.734L381.878 231.041L380.43 228.051C381.473 228.99 382.925 229.116 384.232 228.848C385.539 228.579 386.77 227.964 388.049 227.555C394.187 225.587 401.321 229.008 404.39 235.39C405.585 234.934 406.874 234.904 408.085 235.303C409.296 235.703 410.372 236.513 411.17 237.626C412.471 239.511 412.825 242.026 412.875 244.425C412.97 249.156 412.066 253.843 410.242 258.09C409.718 259.44 408.967 260.658 408.029 261.674C407.558 262.178 406.995 262.558 406.381 262.787C405.767 263.016 405.117 263.089 404.475 263.001" fill="#2F2E41"/>
</g>
<defs>
<clipPath id="clip0_309_304">
<rect width="321" height="312" fill="white" transform="translate(133 227)"/>
</clipPath>
</defs>
</svg>
