<svg width="588" height="682" viewBox="0 0 588 682" fill="none" xmlns="http://www.w3.org/2000/svg">
<path d="M588 0H0V682H588V0Z" fill="#A74568"/>
<path d="M87.7406 0C73.1339 13.9574 65.7226 31.0825 62.4961 48.0019C52.9357 98.1314 25.2686 126.209 0 141.753V0H87.7406Z" fill="#FF81AE"/>
<path d="M588 0V92.7653C575.186 83.2624 559.864 75.0791 541.592 69.481C489.014 53.3712 468.069 22.8499 459.757 0H588Z" fill="#FF81AE"/>
<path d="M588 510.718V681.998H0C0 608.874 0 535.748 0 462.624C18.3523 469.145 40.7815 480.45 54.1824 500.996C82.7706 544.825 47.2159 595.35 70.2926 610.393C87.5415 621.639 108.694 594.583 154.52 592.36C226.605 588.861 259.599 655.005 310.562 640.972C335.9 633.995 329.084 617.278 361.985 600.984C408.704 577.848 444.354 600.709 493.202 588.438C518.655 582.045 554.224 564.471 588 510.718Z" fill="#FF81AE"/>
<path d="M118.668 303.038C117.805 303.038 117.062 302.462 116.967 301.686C115.907 292.921 107.58 286.311 97.5972 286.311C94.5494 286.311 91.6336 286.915 88.9281 288.107C88.0815 288.479 87.0544 288.174 86.632 287.427C86.2115 286.678 86.5557 285.77 87.4005 285.396C90.5842 283.994 94.0135 283.284 97.5954 283.284C103.284 283.284 108.737 285.14 112.954 288.511C117.139 291.858 119.772 296.421 120.371 301.363C120.471 302.194 119.79 302.941 118.85 303.03C118.789 303.037 118.728 303.038 118.668 303.038Z" fill="#FF81AE"/>
<path d="M483.031 575.098C482.168 575.098 481.426 574.522 481.331 573.745C480.27 564.981 471.943 558.371 461.961 558.371C458.913 558.371 455.997 558.975 453.291 560.166C452.445 560.54 451.418 560.234 450.995 559.485C450.575 558.736 450.919 557.828 451.766 557.454C454.949 556.052 458.379 555.342 461.961 555.342C467.649 555.342 473.104 557.198 477.319 560.569C481.504 563.916 484.137 568.479 484.734 573.421C484.835 574.252 484.153 574.999 483.214 575.088C483.152 575.095 483.091 575.098 483.031 575.098Z" fill="#FF81AE"/>
<path d="M518.032 368.822C516.348 368.822 514.662 368.654 512.98 368.32C507.429 367.216 502.569 364.346 499.292 360.239C496.04 356.161 494.603 351.198 495.247 346.262C495.355 345.431 496.207 344.836 497.143 344.93C498.083 345.026 498.756 345.778 498.649 346.607C497.508 355.363 503.992 363.428 513.731 365.366C516.705 365.959 519.701 365.934 522.635 365.297C523.552 365.098 524.481 365.595 524.706 366.406C524.931 367.217 524.369 368.039 523.452 368.238C521.658 368.628 519.848 368.822 518.032 368.822Z" fill="#FF81AE"/>
<path d="M120.346 46.0223C120.037 46.0223 119.727 45.9483 119.446 45.7953C116.424 44.1366 113.938 41.9299 112.055 39.2362C109.065 34.9561 107.984 29.8763 109.013 24.9332C110.032 20.0262 113.039 15.6458 117.477 12.5999C118.223 12.0881 119.299 12.2066 119.879 12.8681C120.46 13.528 120.324 14.4791 119.576 14.9925C111.701 20.3964 109.722 30.1347 114.967 37.6466C116.569 39.9388 118.683 41.8164 121.251 43.2249C122.054 43.6659 122.3 44.599 121.803 45.3098C121.478 45.7689 120.918 46.0223 120.346 46.0223Z" fill="#FF81AE"/>
<path d="M452.465 70.99C450.051 70.99 447.636 70.651 445.306 69.9714C444.409 69.7098 443.922 68.8524 444.218 68.0593C444.514 67.2662 445.483 66.835 446.38 67.0967C455.844 69.8628 466.089 65.8856 470.212 57.8455C471.47 55.392 472.054 52.7921 471.945 50.123C471.911 49.2871 472.648 48.5861 473.593 48.5548C474.537 48.5252 475.331 49.1768 475.366 50.0127C475.495 53.1557 474.81 56.2115 473.331 59.0961C470.981 63.6772 466.816 67.304 461.603 69.3066C458.689 70.4272 455.579 70.99 452.465 70.99Z" fill="#FF81AE"/>
<path d="M294.605 611.008C293.825 611.008 293.04 610.974 292.251 610.903C286.591 610.398 281.375 608.066 277.565 604.337C273.782 600.637 271.679 595.861 271.646 590.892C271.64 590.056 272.401 589.374 273.348 589.37C273.352 589.37 273.356 589.37 273.359 589.37C274.301 589.37 275.066 590.041 275.071 590.875C275.131 599.689 282.665 607.005 292.597 607.892C295.63 608.162 298.6 607.821 301.426 606.876C302.31 606.58 303.298 606.975 303.633 607.757C303.968 608.538 303.522 609.412 302.638 609.708C300.044 610.572 297.351 611.008 294.605 611.008Z" fill="#FF81AE"/>
<path d="M431.777 273.69C431.174 273.69 430.57 273.564 430.011 273.307C428.741 272.723 427.952 271.572 427.952 270.305V244.726C427.952 243.458 428.741 242.308 430.011 241.724C431.282 241.14 432.801 241.229 433.973 241.956L454.59 254.747C455.61 255.379 456.218 256.414 456.218 257.516C456.218 258.617 455.61 259.652 454.59 260.286L433.973 273.077C433.314 273.483 432.548 273.69 431.777 273.69ZM431.779 244.368C431.707 244.368 431.641 244.388 431.591 244.411C431.493 244.457 431.375 244.548 431.375 244.726V270.305C431.375 270.483 431.493 270.575 431.591 270.62C431.69 270.664 431.842 270.697 432.006 270.595L452.623 257.804C452.764 257.717 452.794 257.599 452.794 257.515C452.794 257.431 452.764 257.312 452.623 257.225L432.006 244.434C431.926 244.387 431.848 244.368 431.779 244.368Z" fill="#FF81AE"/>
<path d="M23.6718 214.281C23.2792 214.281 22.8829 214.227 22.4996 214.119C21.3143 213.781 20.3876 212.95 20.0192 211.899L12.5838 190.62C12.1614 189.411 12.5317 188.106 13.5495 187.216C14.5692 186.325 16.0484 186.014 17.4123 186.403L44.9399 194.255C46.3038 194.644 47.2974 195.662 47.5375 196.91C47.7756 198.159 47.2156 199.409 46.0712 200.173L25.9773 213.599C25.3074 214.046 24.4943 214.281 23.6718 214.281ZM16.2289 189.263C16.1061 189.263 16.0168 189.315 15.9573 189.368C15.8772 189.437 15.7972 189.556 15.8568 189.725L23.2922 211.004C23.3425 211.148 23.4616 211.211 23.5527 211.236C23.6439 211.262 23.7797 211.273 23.9174 211.181L44.0114 197.755C44.1714 197.648 44.1844 197.51 44.1658 197.413C44.1472 197.316 44.0858 197.189 43.8942 197.135L16.3666 189.282C16.3127 189.269 16.2699 189.263 16.2289 189.263Z" fill="#FF81AE"/>
<path d="M513.148 215.792C514.977 215.121 515.846 213.266 515.089 211.649C514.332 210.031 512.236 209.263 510.408 209.934C508.579 210.605 507.711 212.459 508.467 214.077C509.224 215.695 511.32 216.462 513.148 215.792Z" fill="#FF81AE"/>
<path d="M511.762 230.559C513.742 230.559 515.346 229.14 515.346 227.39C515.346 225.639 513.742 224.22 511.762 224.22C509.783 224.22 508.179 225.639 508.179 227.39C508.179 229.14 509.783 230.559 511.762 230.559Z" fill="#FF81AE"/>
<path d="M511.762 245.082C513.742 245.082 515.346 243.663 515.346 241.913C515.346 240.163 513.742 238.744 511.762 238.744C509.783 238.744 508.179 240.163 508.179 241.913C508.179 243.663 509.783 245.082 511.762 245.082Z" fill="#FF81AE"/>
<path d="M511.762 259.606C513.742 259.606 515.346 258.187 515.346 256.437C515.346 254.686 513.742 253.267 511.762 253.267C509.783 253.267 508.179 254.686 508.179 256.437C508.179 258.187 509.783 259.606 511.762 259.606Z" fill="#FF81AE"/>
<path d="M511.762 274.129C513.742 274.129 515.346 272.71 515.346 270.96C515.346 269.21 513.742 267.791 511.762 267.791C509.783 267.791 508.179 269.21 508.179 270.96C508.179 272.71 509.783 274.129 511.762 274.129Z" fill="#FF81AE"/>
<path d="M511.762 288.653C513.742 288.653 515.346 287.234 515.346 285.483C515.346 283.733 513.742 282.314 511.762 282.314C509.783 282.314 508.179 283.733 508.179 285.483C508.179 287.234 509.783 288.653 511.762 288.653Z" fill="#FF81AE"/>
<path d="M532.301 213.635C532.756 211.932 531.563 210.224 529.636 209.822C527.71 209.419 525.78 210.474 525.326 212.177C524.872 213.881 526.065 215.588 527.991 215.991C529.917 216.394 531.847 215.339 532.301 213.635Z" fill="#FF81AE"/>
<path d="M528.801 230.559C530.78 230.559 532.384 229.14 532.384 227.39C532.384 225.639 530.78 224.22 528.801 224.22C526.821 224.22 525.217 225.639 525.217 227.39C525.217 229.14 526.821 230.559 528.801 230.559Z" fill="#FF81AE"/>
<path d="M528.801 245.082C530.78 245.082 532.384 243.663 532.384 241.913C532.384 240.163 530.78 238.744 528.801 238.744C526.821 238.744 525.217 240.163 525.217 241.913C525.217 243.663 526.821 245.082 528.801 245.082Z" fill="#FF81AE"/>
<path d="M528.801 259.606C530.78 259.606 532.384 258.187 532.384 256.436C532.384 254.686 530.78 253.267 528.801 253.267C526.821 253.267 525.217 254.686 525.217 256.436C525.217 258.187 526.821 259.606 528.801 259.606Z" fill="#FF81AE"/>
<path d="M528.801 274.129C530.78 274.129 532.384 272.71 532.384 270.96C532.384 269.21 530.78 267.791 528.801 267.791C526.821 267.791 525.217 269.21 525.217 270.96C525.217 272.71 526.821 274.129 528.801 274.129Z" fill="#FF81AE"/>
<path d="M528.801 288.653C530.78 288.653 532.384 287.234 532.384 285.483C532.384 283.733 530.78 282.314 528.801 282.314C526.821 282.314 525.217 283.733 525.217 285.483C525.217 287.234 526.821 288.653 528.801 288.653Z" fill="#FF81AE"/>
<path d="M547.228 215.791C549.057 215.12 549.925 213.266 549.169 211.648C548.412 210.03 546.316 209.263 544.487 209.933C542.659 210.604 541.79 212.459 542.547 214.076C543.304 215.694 545.4 216.462 547.228 215.791Z" fill="#FF81AE"/>
<path d="M545.842 230.559C547.821 230.559 549.425 229.14 549.425 227.39C549.425 225.639 547.821 224.22 545.842 224.22C543.862 224.22 542.258 225.639 542.258 227.39C542.258 229.14 543.862 230.559 545.842 230.559Z" fill="#FF81AE"/>
<path d="M545.842 245.082C547.821 245.082 549.425 243.663 549.425 241.913C549.425 240.163 547.821 238.744 545.842 238.744C543.862 238.744 542.258 240.163 542.258 241.913C542.258 243.663 543.862 245.082 545.842 245.082Z" fill="#FF81AE"/>
<path d="M545.842 259.606C547.821 259.606 549.425 258.187 549.425 256.436C549.425 254.686 547.821 253.267 545.842 253.267C543.862 253.267 542.258 254.686 542.258 256.436C542.258 258.187 543.862 259.606 545.842 259.606Z" fill="#FF81AE"/>
<path d="M545.842 274.129C547.821 274.129 549.425 272.71 549.425 270.96C549.425 269.21 547.821 267.791 545.842 267.791C543.862 267.791 542.258 269.21 542.258 270.96C542.258 272.71 543.862 274.129 545.842 274.129Z" fill="#FF81AE"/>
<path d="M545.842 288.653C547.821 288.653 549.425 287.234 549.425 285.483C549.425 283.733 547.821 282.314 545.842 282.314C543.862 282.314 542.258 283.733 542.258 285.483C542.258 287.234 543.862 288.653 545.842 288.653Z" fill="#FF81AE"/>
<path d="M564.267 215.791C566.095 215.121 566.964 213.266 566.207 211.648C565.45 210.03 563.354 209.263 561.526 209.933C559.698 210.604 558.829 212.459 559.586 214.076C560.342 215.694 562.438 216.462 564.267 215.791Z" fill="#FF81AE"/>
<path d="M562.88 230.559C564.859 230.559 566.464 229.14 566.464 227.39C566.464 225.639 564.859 224.22 562.88 224.22C560.9 224.22 559.296 225.639 559.296 227.39C559.296 229.14 560.9 230.559 562.88 230.559Z" fill="#FF81AE"/>
<path d="M562.88 245.082C564.859 245.082 566.464 243.664 566.464 241.913C566.464 240.163 564.859 238.744 562.88 238.744C560.9 238.744 559.296 240.163 559.296 241.913C559.296 243.664 560.9 245.082 562.88 245.082Z" fill="#FF81AE"/>
<path d="M562.88 259.606C564.859 259.606 566.464 258.187 566.464 256.437C566.464 254.686 564.859 253.267 562.88 253.267C560.9 253.267 559.296 254.686 559.296 256.437C559.296 258.187 560.9 259.606 562.88 259.606Z" fill="#FF81AE"/>
<path d="M562.88 274.13C564.859 274.13 566.464 272.711 566.464 270.96C566.464 269.21 564.859 267.791 562.88 267.791C560.9 267.791 559.296 269.21 559.296 270.96C559.296 272.711 560.9 274.13 562.88 274.13Z" fill="#FF81AE"/>
<path d="M562.88 288.653C564.859 288.653 566.464 287.234 566.464 285.484C566.464 283.733 564.859 282.314 562.88 282.314C560.9 282.314 559.296 283.733 559.296 285.484C559.296 287.234 560.9 288.653 562.88 288.653Z" fill="#FF81AE"/>
<path d="M583.422 213.638C583.876 211.934 582.683 210.226 580.757 209.824C578.831 209.421 576.901 210.476 576.447 212.179C575.992 213.883 577.185 215.59 579.112 215.993C581.038 216.396 582.968 215.341 583.422 213.638Z" fill="#FF81AE"/>
<path d="M579.919 230.559C581.899 230.559 583.503 229.14 583.503 227.39C583.503 225.639 581.899 224.22 579.919 224.22C577.94 224.22 576.335 225.639 576.335 227.39C576.335 229.14 577.94 230.559 579.919 230.559Z" fill="#FF81AE"/>
<path d="M579.919 245.082C581.899 245.082 583.503 243.664 583.503 241.913C583.503 240.163 581.899 238.744 579.919 238.744C577.94 238.744 576.335 240.163 576.335 241.913C576.335 243.664 577.94 245.082 579.919 245.082Z" fill="#FF81AE"/>
<path d="M579.919 259.606C581.899 259.606 583.503 258.187 583.503 256.437C583.503 254.686 581.899 253.267 579.919 253.267C577.94 253.267 576.335 254.686 576.335 256.437C576.335 258.187 577.94 259.606 579.919 259.606Z" fill="#FF81AE"/>
<path d="M579.919 274.129C581.899 274.129 583.503 272.71 583.503 270.96C583.503 269.21 581.899 267.791 579.919 267.791C577.94 267.791 576.335 269.21 576.335 270.96C576.335 272.71 577.94 274.129 579.919 274.129Z" fill="#FF81AE"/>
<path d="M579.919 288.653C581.899 288.653 583.503 287.234 583.503 285.483C583.503 283.733 581.899 282.314 579.919 282.314C577.94 282.314 576.335 283.733 576.335 285.483C576.335 287.234 577.94 288.653 579.919 288.653Z" fill="#FF81AE"/>
<path d="M9.40992 347.338C11.3892 347.338 12.9937 345.919 12.9937 344.168C12.9937 342.418 11.3892 340.999 9.40992 340.999C7.43067 340.999 5.82617 342.418 5.82617 344.168C5.82617 345.919 7.43067 347.338 9.40992 347.338Z" fill="#FF81AE"/>
<path d="M12.957 359.206C13.2741 357.479 11.9474 355.851 9.99359 355.57C8.03985 355.29 6.19894 356.463 5.8818 358.191C5.56467 359.919 6.8914 361.547 8.84514 361.827C10.7989 362.107 12.6398 360.934 12.957 359.206Z" fill="#FF81AE"/>
<path d="M12.957 373.73C13.2741 372.002 11.9474 370.374 9.99358 370.094C8.03984 369.814 6.19894 370.987 5.8818 372.715C5.56467 374.442 6.8914 376.07 8.84514 376.351C10.7989 376.631 12.6398 375.458 12.957 373.73Z" fill="#FF81AE"/>
<path d="M12.957 388.254C13.2741 386.526 11.9474 384.898 9.99359 384.618C8.03985 384.337 6.19894 385.511 5.8818 387.238C5.56467 388.966 6.8914 390.594 8.84514 390.875C10.7989 391.155 12.6398 389.982 12.957 388.254Z" fill="#FF81AE"/>
<path d="M10.7897 405.199C12.6182 404.529 13.4869 402.674 12.7301 401.056C11.9733 399.439 9.8776 398.671 8.04916 399.341C6.22072 400.012 5.35198 401.867 6.10876 403.484C6.86554 405.102 8.96128 405.87 10.7897 405.199Z" fill="#FF81AE"/>
<path d="M10.7902 419.723C12.6187 419.053 13.4874 417.198 12.7306 415.58C11.9738 413.963 9.87809 413.195 8.04965 413.865C6.22121 414.536 5.35247 416.391 6.10925 418.008C6.86603 419.626 8.96177 420.394 10.7902 419.723Z" fill="#FF81AE"/>
<path d="M26.4505 347.338C28.4297 347.338 30.0342 345.919 30.0342 344.168C30.0342 342.418 28.4297 340.999 26.4505 340.999C24.4712 340.999 22.8667 342.418 22.8667 344.168C22.8667 345.919 24.4712 347.338 26.4505 347.338Z" fill="#FF81AE"/>
<path d="M29.996 359.205C30.3132 357.477 28.9864 355.849 27.0327 355.569C25.079 355.289 23.238 356.462 22.9209 358.19C22.6038 359.917 23.9305 361.545 25.8842 361.826C27.838 362.106 29.6789 360.933 29.996 359.205Z" fill="#FF81AE"/>
<path d="M29.9964 373.729C30.3135 372.001 28.9868 370.373 27.0331 370.093C25.0793 369.812 23.2384 370.986 22.9213 372.713C22.6042 374.441 23.9309 376.069 25.8846 376.35C27.8384 376.63 29.6793 375.457 29.9964 373.729Z" fill="#FF81AE"/>
<path d="M29.9964 388.253C30.3135 386.525 28.9868 384.897 27.0331 384.616C25.0793 384.336 23.2384 385.509 22.9213 387.237C22.6042 388.965 23.9309 390.593 25.8846 390.873C27.8384 391.154 29.6793 389.98 29.9964 388.253Z" fill="#FF81AE"/>
<path d="M27.8303 405.199C29.6587 404.528 30.5274 402.673 29.7707 401.055C29.0139 399.438 26.9181 398.67 25.0897 399.341C23.2613 400.011 22.3925 401.866 23.1493 403.484C23.9061 405.101 26.0018 405.869 27.8303 405.199Z" fill="#FF81AE"/>
<path d="M27.8303 419.722C29.6587 419.052 30.5275 417.197 29.7707 415.579C29.0139 413.962 26.9181 413.194 25.0897 413.865C23.2613 414.535 22.3925 416.39 23.1493 418.008C23.9061 419.625 26.0018 420.393 27.8303 419.722Z" fill="#FF81AE"/>
<path d="M43.489 347.338C45.4683 347.338 47.0728 345.919 47.0728 344.168C47.0728 342.418 45.4683 340.999 43.489 340.999C41.5098 340.999 39.9053 342.418 39.9053 344.168C39.9053 345.919 41.5098 347.338 43.489 347.338Z" fill="#FF81AE"/>
<path d="M46.9619 359.444C47.4173 357.74 46.2249 356.034 44.2986 355.632C42.3723 355.231 40.4415 356.286 39.9861 357.989C39.5307 359.692 40.7231 361.399 42.6494 361.8C44.5757 362.202 46.5065 361.147 46.9619 359.444Z" fill="#FF81AE"/>
<path d="M46.959 373.969C47.4139 372.266 46.2212 370.559 44.295 370.157C42.3687 369.755 40.4384 370.81 39.9835 372.513C39.5286 374.216 40.7213 375.923 42.6475 376.326C44.5738 376.728 46.5041 375.673 46.959 373.969Z" fill="#FF81AE"/>
<path d="M46.9585 388.493C47.4135 386.79 46.2207 385.083 44.2945 384.681C42.3682 384.279 40.4379 385.334 39.983 387.037C39.5281 388.74 40.7208 390.447 42.6471 390.85C44.5733 391.252 46.5036 390.197 46.9585 388.493Z" fill="#FF81AE"/>
<path d="M46.0161 404.502C47.415 403.264 47.415 401.256 46.0161 400.017C44.6172 398.779 42.349 398.779 40.9501 400.017C39.5512 401.256 39.5512 403.264 40.9501 404.502C42.349 405.741 44.6172 405.741 46.0161 404.502Z" fill="#FF81AE"/>
<path d="M46.0161 419.026C47.415 417.787 47.415 415.779 46.0161 414.54C44.6172 413.302 42.349 413.302 40.9501 414.54C39.5512 415.779 39.5512 417.787 40.9501 419.026C42.349 420.264 44.6172 420.264 46.0161 419.026Z" fill="#FF81AE"/>
<path d="M559.607 656.361H28.3921V25.6375H559.605V656.361H559.607ZM31.3692 653.728H556.628V28.2703H31.3692V653.728Z" fill="white"/>
<path d="M114.589 583.337C120.484 583.337 125.262 579.111 125.262 573.898C125.262 568.685 120.484 564.459 114.589 564.459C108.695 564.459 103.916 568.685 103.916 573.898C103.916 579.111 108.695 583.337 114.589 583.337Z" fill="#FFBFD6"/>
<path d="M207.542 62.9138C210.438 60.3524 210.438 56.1994 207.542 53.6379C204.645 51.0765 199.949 51.0765 197.053 53.6379C194.157 56.1994 194.157 60.3524 197.053 62.9138C199.949 65.4753 204.645 65.4753 207.542 62.9138Z" fill="#FFBFD6"/>
<path d="M539.988 475.185C540.644 471.609 537.898 468.24 533.855 467.66C529.811 467.08 526.002 469.508 525.345 473.084C524.689 476.659 527.435 480.029 531.478 480.609C535.522 481.189 539.332 478.761 539.988 475.185Z" fill="#FFBFD6"/>
<path d="M273.368 352.62C277.464 352.62 280.785 349.683 280.785 346.06C280.785 342.438 277.464 339.501 273.368 339.501C269.272 339.501 265.951 342.438 265.951 346.06C265.951 349.683 269.272 352.62 273.368 352.62Z" fill="#FFBFD6"/>
<path d="M264.937 217.328C264.937 217.328 387.237 240.135 433.683 153.662C480.128 67.1892 360.366 59.0784 324.108 66.4553C287.85 73.8322 173.505 85.894 168.701 144.403C163.898 202.91 264.937 217.328 264.937 217.328Z" fill="#FFBFD6"/>
<path d="M306.515 217.294C254.197 230.07 198.751 219.315 163.122 200.377C156.581 196.901 97.5795 165.47 103.404 134.432C106.798 116.351 121.708 104.327 122.971 103.469C134.082 95.9411 146.217 94.8402 153.167 94.2873C171.25 92.8491 175.726 98.6694 199.179 99.8328C213.339 100.535 221.603 101.21 231.122 97.6689C242.095 93.5863 244.953 87.8286 253.881 80.6771C269.524 68.1464 290.572 61.9361 307.527 61.1018C340.175 59.4942 365.5 77.4321 367.424 78.8358C379.734 87.8072 383.51 96.1813 400.768 103.998C410.239 108.288 413.527 109.813 424.688 111.171C444.612 113.594 479.65 129.64 484.268 153.03C487.232 168.037 475.824 180.665 474.047 182.574C462.671 194.788 443.064 202.751 427.626 198.362C419.84 196.149 419.939 192.773 411.971 190.174C396.872 185.249 381.389 192.447 369.8 197.278C369.8 197.278 343.383 208.292 306.515 217.294Z" fill="#700D31"/>
<path d="M488.605 134.591C495.74 128.282 495.74 118.051 488.605 111.741C481.47 105.432 469.902 105.432 462.767 111.741C455.632 118.051 455.632 128.282 462.767 134.591C469.902 140.901 481.47 140.901 488.605 134.591Z" fill="#FFBFD6"/>
<path d="M131.747 208.191C152.043 208.191 168.495 193.641 168.495 175.693C168.495 157.745 152.043 143.195 131.747 143.195C111.452 143.195 95 157.745 95 175.693C95 193.641 111.452 208.191 131.747 208.191Z" fill="#FFBFD6"/>
<path d="M187.756 216.913C193.202 214.918 195.788 209.396 193.532 204.58C191.276 199.764 185.032 197.477 179.586 199.472C174.14 201.466 171.554 206.988 173.81 211.804C176.066 216.62 182.31 218.907 187.756 216.913Z" fill="#FFBFD6"/>
<path d="M459.116 150.576C461.962 148.059 461.962 143.978 459.116 141.461C456.269 138.944 451.655 138.944 448.808 141.461C445.962 143.978 445.962 148.059 448.808 150.576C451.655 153.093 456.269 153.093 459.116 150.576Z" fill="#FFBFD6"/>
<path d="M64.5535 462.171C65.197 458.657 62.4978 455.345 58.5246 454.773C54.5514 454.202 50.8087 456.587 50.1652 460.101C49.5217 463.615 52.2209 466.927 56.1941 467.499C60.1673 468.07 63.9099 465.685 64.5535 462.171Z" fill="#FFBFD6"/>
<path d="M299.467 545.144C406.316 545.144 492.934 539.739 492.934 533.072C492.934 526.405 406.316 521 299.467 521C192.618 521 106 526.405 106 533.072C106 539.739 192.618 545.144 299.467 545.144Z" fill="#700D31"/>
<path opacity="0.3" d="M232.581 484.069C232.195 487.018 231.768 489.964 231.297 492.907C230.417 498.216 229.428 503.514 228.258 508.79L227.342 512.743C227.011 514.057 226.696 515.374 226.349 516.686C225.998 517.999 225.654 519.312 225.272 520.622C224.899 521.94 224.507 523.229 224.066 524.575C224.064 524.58 224.06 524.595 224.058 524.6C223.711 525.602 222.457 526.182 221.255 525.893C220.054 525.604 219.358 524.557 219.705 523.555L219.719 523.512C220.572 521.041 221.348 518.443 222.069 515.878C222.433 514.592 222.766 513.297 223.115 512.005L224.088 508.114C225.335 502.917 226.408 497.685 227.373 492.439C227.893 489.519 228.37 486.593 228.805 483.661C218.795 482.299 184.613 476.809 191.458 466.136C198.122 455.744 221.464 475.063 229.075 481.804C230.074 474.81 230.838 467.789 231.376 460.754C231.677 456.816 231.906 452.874 232.065 448.929C222.914 447.987 186.841 443.534 193.381 432.428C199.745 421.618 224.807 441.313 232.122 447.41C232.345 441.236 232.398 435.056 232.288 428.878L232.048 420.903L231.683 414.633C223.254 415.036 185.527 416.175 189.689 404.088C193.78 392.206 224.044 409.073 231.618 413.519L231.585 412.934L231.467 410.941L231.295 408.951L230.939 404.973L230.582 400.994C230.446 399.669 230.269 398.347 230.115 397.022C229.692 393.281 229.199 389.546 228.638 385.816C220.652 385.785 182.194 385.014 187.314 373.065C192.309 361.407 221.306 379.916 228.472 384.722C226.859 374.229 224.712 363.79 222.084 353.433C215.968 353.532 178.434 353.675 183.027 342.253C187.519 331.087 216.142 348.997 221.909 352.75C220.319 346.539 218.557 340.356 216.632 334.209C215.129 329.568 213.524 324.953 211.824 320.359C206.673 320.533 171.309 321.344 175.343 310.623C179.283 300.153 206.519 316.614 211.623 319.813C208.379 311.093 204.776 302.465 200.819 293.947C196.875 293.97 164.894 293.871 168.896 284.42C172.796 275.212 196.591 290.809 200.631 293.544C198.157 288.237 195.547 282.971 192.796 277.756C191.239 276.775 163.875 259.349 174.343 253.741C184.721 248.181 192.295 275.665 192.835 277.682C195.675 282.851 198.374 288.076 200.941 293.346C200.302 288.534 197.604 264.127 208.847 266.318C220.633 268.613 203.174 291.448 201.228 293.94C205.314 302.366 209.05 310.912 212.436 319.555C212.933 313.77 215.911 286.55 227.832 290.864C240.262 295.363 216.037 317.358 212.724 320.296C214.485 324.825 216.157 329.378 217.727 333.957C219.734 339.996 221.582 346.074 223.266 352.184C225.64 345.655 236.358 318.384 247.562 325.194C259.191 332.265 228.748 350.17 223.53 353.141C226.331 363.42 228.658 373.793 230.46 384.234C234.583 376.785 250.278 350.334 260.84 358.77C271.841 367.556 237.76 382.625 230.694 385.607C231.321 389.339 231.882 393.079 232.373 396.825C232.552 398.153 232.753 399.48 232.912 400.81L233.34 404.804L233.767 408.799L233.976 410.797L234.116 412.622C240.573 405.458 261.626 383.581 269.686 393.414C278.052 403.618 243.183 412.313 234.246 414.346L234.736 420.803L235.12 428.82C235.341 435.036 235.398 441.257 235.284 447.478C242.099 441.219 266.235 420.282 273.244 430.884C280.481 441.835 243.858 447.713 235.256 448.93C235.166 452.925 235.004 456.921 234.77 460.912C234.34 468.209 233.673 475.5 232.751 482.771C240.665 477.966 269.891 461.208 274.185 472.882C278.58 484.838 241.315 484.345 232.581 484.069Z" fill="#700D31"/>
<path opacity="0.3" d="M341.125 455.171C342.096 453.485 343.022 451.78 344.026 450.105C359.535 440.628 381.482 437.08 411.728 436.249C442.287 435.406 447.21 410.409 447.21 410.409C427.839 419.803 426.659 415.787 391.443 421.648C365.099 426.033 351.364 439.947 346.114 446.681L346.443 446.14L348.358 443.188C349.008 442.208 349.615 441.209 350.3 440.246L352.315 437.336L353.322 435.881C353.663 435.398 354.021 434.924 354.37 434.445L356.475 431.577C357.866 429.666 359.342 427.741 360.697 425.785C362.078 423.835 363.385 421.848 364.662 419.849C366.456 416.991 368.127 414.076 369.649 411.109C387.695 399.88 420.925 399.719 420.925 399.719C453.958 395.948 455.444 373.866 455.509 371.761C455.511 371.754 455.509 371.746 455.511 371.738C455.513 371.697 455.517 371.667 455.513 371.647C455.515 371.644 455.515 371.641 455.515 371.641C455.515 371.626 455.513 371.618 455.515 371.61C455.513 371.601 455.513 371.598 455.513 371.598C455.337 372.193 455.134 372.799 454.892 373.409C453.05 376.447 445.776 382.605 417.115 386.345C388.11 390.128 375.643 402.132 371.125 408.112C371.225 407.898 371.328 407.688 371.426 407.474C372.387 405.351 373.28 403.205 374.066 401.03C374.838 398.851 375.517 396.651 376.077 394.426C377.166 389.973 377.771 385.428 377.712 380.88C377.678 378.034 377.381 375.192 376.821 372.387C383.31 364.626 389.757 361.575 395.363 359.656C425.239 349.426 421.167 330.365 421.112 330.121C421.055 330.329 418.859 337.934 398.385 346.724C381.618 353.925 377.531 366.646 376.581 371.269C376.29 369.971 375.943 368.682 375.539 367.405C374.848 365.21 373.997 363.052 373.012 360.941C372.023 358.831 370.894 356.769 369.673 354.753C367.727 351.544 365.513 348.463 363.226 345.43C364.745 341.077 370.587 333.359 370.587 333.359C383.489 314.443 376.79 298.61 376.63 298.245C376.63 298.242 376.626 298.24 376.628 298.237C375.2 309.036 368.808 304.66 362.958 320.102C358.548 331.734 360.841 340.508 362.241 344.128C361.977 343.783 361.713 343.436 361.449 343.091C359.997 341.194 358.54 339.302 357.165 337.37C355.794 335.438 354.506 333.461 353.513 331.376C352.581 329.273 351.707 327.135 350.761 325.028C350.288 323.974 349.818 322.919 349.317 321.874C349.069 321.349 348.813 320.829 348.549 320.311C348.413 320.053 348.281 319.795 348.133 319.54C348.063 319.412 347.986 319.287 347.909 319.162C347.822 319.044 347.759 318.904 347.627 318.816C347.755 318.906 347.818 319.046 347.901 319.166C347.976 319.292 348.051 319.417 348.118 319.547C348.259 319.802 348.388 320.063 348.518 320.322C348.772 320.843 349.016 321.368 349.254 321.895C349.733 322.947 350.182 324.008 350.633 325.068C351.537 327.191 352.363 329.327 353.257 331.458C354.216 333.574 355.473 335.584 356.808 337.543C358.148 339.501 359.57 341.417 360.982 343.335C362.103 344.851 363.212 346.373 364.294 347.907C361.487 345.692 348.833 339.368 343.973 331.782C338.858 323.791 323.629 318.446 323.629 318.446C323.629 318.446 323.627 318.449 323.631 318.454C323.596 318.921 322.313 338.676 343.737 343.55C361.002 347.479 366.514 351.92 368.04 353.566C368.343 354.061 368.641 354.559 368.93 355.06C370.101 357.076 371.174 359.132 372.108 361.228C373.037 363.327 373.831 365.463 374.468 367.632C375.744 371.968 376.37 376.427 376.329 380.883C376.307 383.769 376.012 386.649 375.492 389.502C373.42 366.84 352.357 355.26 335.665 352.595C318.468 349.855 313.489 336.456 313.315 335.988C313.313 335.98 313.313 335.977 313.313 335.977C313.313 335.977 304.219 362.816 339.569 370.369C367.213 376.276 373.693 386.71 375.204 390.974C374.984 392.032 374.732 393.085 374.454 394.134C373.861 396.307 373.15 398.458 372.348 400.586C371.535 402.711 370.613 404.807 369.626 406.883C367.613 411.02 365.284 415.051 362.716 418.974C361.416 420.93 360.084 422.87 358.684 424.778C357.596 426.285 356.458 427.747 355.319 429.231C356.706 421.63 358.112 400.617 336.344 384.184C329.43 378.963 325.654 376.868 303.524 369.375C303.524 369.375 290.566 365.344 283.187 352.786C283.187 352.786 283.186 352.789 283.187 352.801C283.237 353.438 284.868 373.884 303.805 383.3C326.306 394.489 350.623 406.296 354.411 430.421C354.401 430.434 354.389 430.448 354.38 430.462L352.197 433.322C351.835 433.8 351.464 434.274 351.11 434.755L350.064 436.209L347.97 439.118C347.259 440.08 346.623 441.081 345.947 442.062L343.95 445.02L342.045 448.022C340.743 450.01 339.592 452.064 338.375 454.09C337.26 456.068 336.163 458.055 335.109 460.058C327.228 415.322 283.168 405.779 266.974 398.764C254.194 393.232 247.172 384.879 246.973 384.641C246.969 384.636 246.969 384.636 246.969 384.636C242.472 410.383 273.595 421.168 273.595 421.168C317.519 435.447 330.671 453.007 334.286 459.849C334.437 460.183 334.579 460.505 334.715 460.815C333.726 462.72 332.781 464.639 331.906 466.584C329.97 470.828 328.205 475.138 326.771 479.535C325.447 483.587 324.362 487.702 323.578 491.867C322.227 481.736 315.764 460.01 285.47 452.828C246.707 443.638 242.066 428.6 241.81 427.668C246.949 451.773 253.53 455.799 263.907 462.813C272.084 468.341 296.178 472.094 305.783 476.563C313.479 480.15 320.493 491.236 322.971 495.489C322.447 499.184 322.211 502.917 322.276 506.662C322.341 508.969 322.524 511.281 322.889 513.589C323.062 514.744 323.306 515.898 323.584 517.051C323.734 517.628 323.889 518.205 324.072 518.785C324.161 519.074 324.264 519.367 324.364 519.657C324.478 519.963 324.569 520.223 324.734 520.594C324.738 520.602 324.746 520.62 324.75 520.628C325.199 521.578 326.485 522.043 327.622 521.67C328.759 521.297 329.318 520.223 328.871 519.275L328.853 519.238C328.78 519.084 328.668 518.806 328.579 518.575C328.489 518.326 328.396 518.08 328.313 517.825C328.142 517.318 327.99 516.8 327.845 516.277C327.571 515.229 327.321 514.168 327.137 513.091C326.753 510.942 326.535 508.758 326.426 506.567C326.261 502.178 326.529 497.756 327.22 493.367C327.717 490.147 328.41 486.941 329.261 483.76C350.799 474.629 369.035 474.953 369.035 474.953C419.237 475.326 432.133 454.399 433.809 451.198L433.845 451.137C433.941 450.951 433.991 450.835 434.004 450.8C433.831 451.017 430.388 454.52 384.768 454.8C351.003 455.007 336.271 470.176 330.756 478.691C331.973 474.935 333.429 471.226 335.017 467.557C336.803 463.351 338.931 459.248 341.125 455.171Z" fill="#700D31"/>
<path opacity="0.3" d="M167.722 472.524C175.018 463.199 180.204 453.47 179.639 447.836C179.342 444.878 182.95 436.487 182.95 436.487C182.95 436.487 177.685 438.703 175.351 441.894C173.017 445.085 177.782 447.499 167.17 461.063C158.856 471.694 158.846 488.586 159.23 495.398C154.711 489.345 150.447 483.149 146.32 476.89C147.756 472.146 152.541 457.675 160.386 447.171C169.895 434.438 166.497 417.962 162.313 411.966C162.313 411.966 165.851 428.245 154.065 444.622C143.799 458.888 145.751 470.556 145.94 476.31C145.903 476.254 145.865 476.196 145.828 476.141C143.166 472.149 140.588 468.106 137.964 464.088C140.224 460.253 149.222 444.556 150.126 436.342C151.162 426.942 148.006 410.215 148.006 410.215C148.006 410.215 147.711 428.307 141.998 439.367C137.49 448.099 137.267 458.983 137.371 463.183C137.176 462.884 136.981 462.586 136.784 462.287C134.381 458.626 131.968 454.97 129.504 451.336C130.469 447.69 134.367 432.962 135.833 427.203C137.509 420.609 137.915 405.488 129.809 395.535C129.809 395.535 134.389 410.529 128.005 424.676C123.575 434.491 125.907 443.915 127.751 448.768C127.69 448.679 127.631 448.59 127.57 448.503C126.778 447.364 126.014 446.216 125.202 445.087L122.779 441.696C121.113 439.459 119.462 437.213 117.585 435.089C117.549 435.046 117.514 435.006 117.478 434.964C117.567 433.866 117.926 429.62 119.196 415.884C120.754 399.053 107.854 392.398 107.854 392.398C109.851 393.388 112.948 402.875 113.425 414.615C113.826 424.508 116.409 432.414 117.213 434.656C116.868 434.269 116.503 433.894 116.141 433.516C115.662 432.99 115.119 432.509 114.599 432.013C114.116 431.572 113.616 431.145 113.115 430.72C111.579 429.101 107.214 424.08 101.324 413.736C93.9237 400.739 77.1116 397.395 77.1116 397.395C77.1116 397.395 83.0071 399.203 93.4982 413.57C102.636 426.084 111.193 430.269 113.249 431.14C113.633 431.482 114.014 431.824 114.382 432.175C114.886 432.678 115.412 433.163 115.875 433.694C116.352 434.214 116.834 434.729 117.268 435.278C118.383 436.595 119.415 437.962 120.419 439.344C118.641 438.919 112.493 436.814 97.7746 426.461C79.692 413.739 65.6671 418.35 65.6671 418.35C68.8975 417.829 74.1608 420.703 89.8876 429.234C103.853 436.811 117.551 438.988 120.443 439.38C121.06 440.232 121.668 441.089 122.275 441.944L124.607 445.368C125.389 446.507 126.126 447.67 126.888 448.819C127.942 450.424 128.982 452.036 130.016 453.651C109.075 449.921 101.742 446.084 101.742 446.084C82.1759 434.643 62.8739 435.42 62.8739 435.42C69.4373 436.02 76.5009 440.473 93.4529 448.712C108.484 456.017 126.333 454.379 130.186 453.914C132.061 456.849 133.908 459.795 135.752 462.744C136.546 464.013 137.334 465.283 138.12 466.553C113.167 468.323 98.3951 461.2 98.3951 461.2C75.1871 448.802 57 449.708 57 449.708C74.929 453.181 69.3782 457.854 94.2684 465.835C115.794 472.738 133.804 468.166 138.277 466.806C140.324 470.122 142.357 473.444 144.455 476.75C145.583 478.554 146.724 480.355 147.878 482.15C142.022 482.166 130.469 481.244 111.313 473.451C93.2461 466.101 74.2711 472.582 69.3959 474.502C72.3998 473.635 82.103 472.527 109.67 479.332C136.973 486.072 145.725 484.152 148.341 482.864C151.997 488.526 155.797 494.13 159.833 499.623C155.287 497 147.732 493.293 140.86 492.943C130.126 492.398 121.587 490.554 116.373 488.502C111.161 486.45 96.0432 486.436 85.3079 496.07C85.3079 496.07 100.631 490.883 108.699 494.19C116.767 497.498 124.962 499.647 130.012 499.606C134.665 499.567 149.659 498.402 161.123 501.369C161.828 502.314 162.539 503.256 163.26 504.192L165.849 507.513C166.272 508.072 166.733 508.609 167.182 509.154L168.535 510.784L169.889 512.416C170.095 512.659 170.308 512.899 170.521 513.139C136.968 501.653 98.1253 504.601 98.1253 504.601C104.608 504.154 120.985 513.433 133.924 516.184C140.685 517.621 164.348 515.492 171.953 514.751L172.717 515.612L173.428 516.409L174.173 517.188L175.662 518.745L176.407 519.524L177.191 520.282L178.759 521.795C179.015 522.051 179.292 522.293 179.568 522.536L180.396 523.267L181.223 523.998C181.497 524.243 181.8 524.47 182.088 524.707L182.962 525.41C183.11 525.527 183.25 525.646 183.403 525.76L183.868 526.097L184.8 526.769C185.109 526.994 185.458 527.198 185.785 527.413C185.952 527.518 186.114 527.626 186.287 527.73L186.829 528.032C187.014 528.133 187.179 528.234 187.394 528.331C187.613 528.432 187.759 528.517 188.101 528.642L188.19 528.675C188.243 528.693 188.296 528.711 188.351 528.724C189.175 528.933 190.044 528.547 190.296 527.86C190.546 527.173 190.083 526.448 189.26 526.238C189.24 526.233 189.051 526.146 188.923 526.088C188.789 526.034 188.633 525.944 188.485 525.867L188.038 525.628C187.889 525.543 187.741 525.448 187.593 525.357C187.298 525.17 186.994 525.002 186.705 524.8L185.834 524.196L185.399 523.893C185.255 523.791 185.117 523.678 184.975 523.571L184.132 522.92C183.854 522.7 183.563 522.495 183.295 522.263L182.483 521.575L181.672 520.885C181.4 520.655 181.128 520.428 180.872 520.183L179.314 518.739L178.534 518.016L177.787 517.266L176.292 515.766L175.544 515.017L174.825 514.245L173.391 512.697C173.027 512.299 172.654 511.907 172.29 511.509C203.45 475.383 188.062 453.582 189.086 456.029C190.12 458.503 186.287 470.495 178.475 486.56C172.898 498.025 171.579 506.466 171.281 510.36L170.586 509.557L169.209 507.968C168.752 507.437 168.283 506.913 167.85 506.368L165.205 503.121C163.339 500.801 161.521 498.453 159.742 496.083C161.576 481.614 163.43 478.009 167.722 472.524Z" fill="#700D31"/>
<path opacity="0.3" d="M424.449 472.524C417.153 463.199 411.967 453.47 412.532 447.836C412.829 444.878 409.221 436.487 409.221 436.487C409.221 436.487 414.486 438.703 416.82 441.894C419.154 445.085 414.389 447.499 425.001 461.063C433.315 471.694 433.325 488.586 432.941 495.398C437.46 489.345 441.724 483.149 445.851 476.89C444.415 472.146 439.63 457.675 431.785 447.171C422.276 434.438 425.674 417.962 429.858 411.966C429.858 411.966 426.32 428.245 438.106 444.622C448.372 458.888 446.42 470.556 446.231 476.31C446.268 476.254 446.306 476.196 446.343 476.141C449.005 472.149 451.583 468.106 454.207 464.088C451.947 460.253 442.949 444.556 442.045 436.342C441.009 426.942 444.165 410.215 444.165 410.215C444.165 410.215 444.46 428.307 450.173 439.367C454.681 448.099 454.904 458.983 454.8 463.183C454.995 462.884 455.19 462.586 455.387 462.287C457.79 458.626 460.203 454.97 462.667 451.336C461.702 447.69 457.804 432.962 456.338 427.203C454.662 420.609 454.256 405.488 462.362 395.535C462.362 395.535 457.782 410.529 464.166 424.676C468.596 434.491 466.264 443.915 464.42 448.768C464.481 448.679 464.54 448.59 464.601 448.503C465.393 447.364 466.157 446.216 466.969 445.087L469.392 441.696C471.058 439.459 472.709 437.213 474.586 435.089C474.622 435.046 474.657 435.006 474.693 434.964C474.604 433.866 474.245 429.62 472.975 415.884C471.417 399.053 484.317 392.398 484.317 392.398C482.32 393.388 479.223 402.875 478.746 414.615C478.345 424.508 475.762 432.414 474.958 434.656C475.303 434.269 475.668 433.894 476.03 433.516C476.509 432.99 477.052 432.509 477.572 432.013C478.055 431.572 478.555 431.145 479.056 430.72C480.592 429.101 484.957 424.08 490.847 413.736C498.247 400.739 515.059 397.395 515.059 397.395C515.059 397.395 509.164 399.203 498.673 413.57C489.535 426.084 480.978 430.269 478.922 431.14C478.538 431.482 478.157 431.824 477.789 432.175C477.285 432.678 476.759 433.163 476.296 433.694C475.819 434.214 475.337 434.729 474.903 435.278C473.788 436.595 472.756 437.962 471.752 439.344C473.53 438.919 479.678 436.814 494.396 426.461C512.479 413.739 526.504 418.35 526.504 418.35C523.274 417.829 518.008 420.703 502.283 429.234C488.318 436.811 474.62 438.988 471.728 439.38C471.109 440.232 470.503 441.089 469.896 441.944L467.564 445.368C466.782 446.507 466.045 447.67 465.283 448.819C464.229 450.424 463.189 452.036 462.155 453.651C483.096 449.921 490.429 446.084 490.429 446.084C509.995 434.643 529.297 435.42 529.297 435.42C522.734 436.02 515.67 440.473 498.718 448.712C483.687 456.017 465.838 454.379 461.985 453.914C460.11 456.849 458.263 459.795 456.419 462.744C455.625 464.013 454.837 465.283 454.051 466.553C479.004 468.323 493.776 461.2 493.776 461.2C516.984 448.802 535.171 449.708 535.171 449.708C517.242 453.181 522.793 457.854 497.903 465.835C476.377 472.738 458.367 468.166 453.894 466.806C451.847 470.122 449.814 473.444 447.716 476.75C446.588 478.554 445.447 480.355 444.293 482.15C450.149 482.166 461.702 481.244 480.858 473.451C498.925 466.101 517.9 472.582 522.775 474.502C519.771 473.635 510.068 472.527 482.501 479.332C455.198 486.072 446.446 484.152 443.83 482.864C440.174 488.526 436.374 494.13 432.338 499.623C436.884 497 444.439 493.293 451.311 492.943C462.045 492.398 470.584 490.554 475.798 488.502C481.01 486.45 496.128 486.436 506.863 496.07C506.863 496.07 491.54 490.883 483.472 494.19C475.404 497.498 467.209 499.647 462.159 499.606C457.506 499.567 442.512 498.402 431.048 501.369C430.343 502.314 429.632 503.256 428.911 504.192L426.322 507.513C425.899 508.072 425.438 508.609 424.989 509.154L423.636 510.784L422.282 512.416C422.076 512.659 421.863 512.899 421.65 513.139C455.203 501.653 494.046 504.601 494.046 504.601C487.563 504.154 471.186 513.433 458.247 516.184C451.486 517.621 427.823 515.492 420.218 514.751L419.454 515.612L418.743 516.409L417.998 517.188L416.509 518.745L415.764 519.524L414.98 520.282L413.412 521.795C413.156 522.051 412.879 522.293 412.603 522.536L411.776 523.267L410.948 523.998C410.674 524.243 410.371 524.47 410.083 524.707L409.209 525.41C409.061 525.527 408.921 525.646 408.768 525.76L408.303 526.097L407.371 526.769C407.062 526.994 406.713 527.198 406.386 527.413C406.219 527.518 406.057 527.626 405.884 527.73L405.342 528.032C405.157 528.133 404.992 528.234 404.777 528.331C404.558 528.432 404.412 528.517 404.07 528.642L403.981 528.675C403.928 528.693 403.875 528.711 403.819 528.724C402.996 528.933 402.127 528.547 401.875 527.86C401.625 527.173 402.088 526.448 402.911 526.238C402.929 526.233 403.12 526.146 403.248 526.088C403.382 526.034 403.538 525.944 403.686 525.867L404.133 525.628C404.282 525.543 404.43 525.448 404.578 525.357C404.873 525.17 405.177 525.002 405.466 524.8L406.337 524.196L406.774 523.893C406.918 523.791 407.056 523.678 407.198 523.571L408.041 522.92C408.319 522.7 408.61 522.495 408.878 522.263L409.689 521.575L410.501 520.885C410.773 520.655 411.045 520.428 411.301 520.183L412.859 518.739L413.639 518.016L414.385 517.266L415.881 515.766L416.629 515.017L417.348 514.245L418.782 512.697C419.146 512.299 419.519 511.907 419.883 511.509C388.723 475.383 404.111 453.582 403.087 456.029C402.053 458.503 405.886 470.495 413.698 486.56C419.274 498.025 420.594 506.466 420.892 510.36L421.587 509.557L422.964 507.968C423.421 507.437 423.89 506.913 424.323 506.368L426.968 503.121C428.834 500.801 430.652 498.453 432.431 496.083C430.595 481.614 428.741 478.009 424.449 472.524Z" fill="#700D31"/>
<path d="M168.539 427.54L154.144 393.323L198.685 373.643L168.539 427.54Z" fill="#FF5A95"/>
<path opacity="0.2" d="M168.539 427.54L154.144 393.323L198.685 373.643L168.539 427.54Z" fill="black"/>
<path d="M234.857 433.824C233.901 436.078 232.521 438.116 230.796 439.824C229.071 441.531 227.034 442.873 224.803 443.774C222.572 444.675 220.189 445.116 217.791 445.073C215.393 445.03 213.027 444.504 210.828 443.524C208.629 442.544 206.639 441.13 204.973 439.362C203.307 437.594 201.997 435.508 201.118 433.221C200.239 430.934 199.809 428.493 199.85 426.036C199.892 423.578 200.406 421.154 201.362 418.9L234.857 433.824Z" fill="#FF5A95"/>
<path d="M224.136 419.675H221.616V409.076C221.614 408.634 221.441 408.212 221.137 407.9C220.832 407.588 220.42 407.411 219.989 407.408H212.534C211.429 407.408 210.369 406.962 209.582 406.167C208.796 405.371 208.348 404.29 208.334 403.158V395.518C208.331 395.077 208.159 394.654 207.854 394.342C207.549 394.03 207.137 393.853 206.706 393.851H199.251C198.156 393.837 197.109 393.384 196.334 392.59C195.559 391.796 195.117 390.723 195.104 389.6V381.961C195.101 381.519 194.929 381.097 194.624 380.785C194.319 380.472 193.907 380.296 193.476 380.293H186.021C184.917 380.279 183.862 379.819 183.085 379.013C182.309 378.208 181.874 377.121 181.874 375.989V368.349C181.871 367.906 181.697 367.482 181.39 367.169C181.083 366.857 180.668 366.682 180.236 366.682H169.862V364.099H180.236C181.341 364.099 182.401 364.545 183.187 365.341C183.973 366.136 184.422 367.217 184.436 368.349V375.989C184.434 376.208 184.476 376.426 184.557 376.629C184.638 376.832 184.758 377.016 184.909 377.171C185.061 377.327 185.241 377.449 185.439 377.533C185.637 377.616 185.849 377.658 186.063 377.657H193.55C194.655 377.657 195.715 378.103 196.501 378.898C197.287 379.694 197.736 380.775 197.75 381.907V389.547C197.748 389.766 197.79 389.983 197.871 390.186C197.952 390.389 198.072 390.574 198.223 390.729C198.375 390.884 198.555 391.007 198.753 391.09C198.951 391.174 199.163 391.216 199.377 391.214H206.832C207.937 391.228 208.992 391.688 209.768 392.494C210.545 393.299 210.98 394.386 210.98 395.518V403.158C210.978 403.377 211.02 403.595 211.101 403.798C211.182 404.001 211.302 404.185 211.453 404.34C211.605 404.496 211.785 404.618 211.983 404.702C212.181 404.785 212.393 404.827 212.607 404.826H220.062C221.167 404.84 222.222 405.3 222.998 406.105C223.775 406.911 224.21 407.998 224.21 409.13L224.136 419.675Z" fill="#FF5A95"/>
<g opacity="0.5">
<path opacity="0.5" d="M224.136 419.675H221.616V409.076C221.614 408.634 221.441 408.212 221.137 407.9C220.832 407.588 220.42 407.411 219.989 407.408H212.534C211.429 407.408 210.369 406.962 209.582 406.167C208.796 405.371 208.348 404.29 208.334 403.158V395.518C208.331 395.077 208.159 394.654 207.854 394.342C207.549 394.03 207.137 393.853 206.706 393.851H199.251C198.156 393.837 197.109 393.384 196.334 392.59C195.559 391.796 195.117 390.723 195.104 389.6V381.961C195.101 381.519 194.929 381.097 194.624 380.785C194.319 380.472 193.907 380.296 193.476 380.293H186.021C184.917 380.279 183.862 379.819 183.085 379.013C182.309 378.208 181.874 377.121 181.874 375.989V368.349C181.871 367.906 181.697 367.482 181.39 367.169C181.083 366.857 180.668 366.682 180.236 366.682H169.862V364.099H180.236C181.341 364.099 182.401 364.545 183.187 365.341C183.973 366.136 184.422 367.217 184.436 368.349V375.989C184.434 376.208 184.476 376.426 184.557 376.629C184.638 376.832 184.758 377.016 184.909 377.171C185.061 377.327 185.241 377.449 185.439 377.533C185.637 377.616 185.849 377.658 186.063 377.657H193.55C194.655 377.657 195.715 378.103 196.501 378.898C197.287 379.694 197.736 380.775 197.75 381.907V389.547C197.748 389.766 197.79 389.983 197.871 390.186C197.952 390.389 198.072 390.574 198.223 390.729C198.375 390.884 198.555 391.007 198.753 391.09C198.951 391.174 199.163 391.216 199.377 391.214H206.832C207.937 391.228 208.992 391.688 209.768 392.494C210.545 393.299 210.98 394.386 210.98 395.518V403.158C210.978 403.377 211.02 403.595 211.101 403.798C211.182 404.001 211.302 404.185 211.453 404.34C211.605 404.496 211.785 404.618 211.983 404.702C212.181 404.785 212.393 404.827 212.607 404.826H220.062C221.167 404.84 222.222 405.3 222.998 406.105C223.775 406.911 224.21 407.998 224.21 409.13L224.136 419.675Z" fill="white"/>
</g>
<path d="M260.298 388.191L242.672 370.129L225.046 388.191L242.672 406.254L260.298 388.191Z" fill="#FF5A95"/>
<path opacity="0.2" d="M260.298 388.191L242.672 370.129L225.046 388.191L242.672 406.254L260.298 388.191Z" fill="white"/>
<path d="M323.582 295.375C319.613 281.14 316.232 263.493 301.71 266.904C293.783 268.776 295.925 257.381 296.46 253.443C296.996 249.505 301.269 245.976 304.703 247.816C306.204 248.623 307.16 250.205 308.525 251.237C311.916 253.788 317.009 252.163 319.781 248.924C322.553 245.685 323.634 241.328 324.758 237.174C325.881 233.021 327.278 228.695 330.449 225.865C332.447 224.058 334.997 223.02 337.661 222.929C340.325 222.838 342.937 223.7 345.048 225.367C347.159 227.035 348.639 229.403 349.232 232.066C349.825 234.729 349.495 237.52 348.299 239.961C354.063 239.38 358.641 234.753 362.043 229.943C365.445 225.134 368.343 219.732 372.995 216.214C377.646 212.695 384.965 211.824 388.85 216.214C392.997 220.905 390.95 228.674 386.834 233.43C382.718 238.186 377.006 241.22 372.869 245.965C368.732 250.71 366.506 258.35 370.517 263.181C373.572 266.861 378.812 267.324 383.379 268.561C387.947 269.798 392.829 272.499 394.74 277.061C396.651 281.624 394.415 288.09 389.627 288.897C384.167 289.823 380.282 283.808 377.667 278.805C375.053 273.801 370.181 268.163 365.067 270.293C359.723 272.51 360.363 280.483 362.495 285.982C364.912 292.24 368.015 298.196 371.745 303.736C374.234 307.437 376.995 312.344 374.444 315.991C371.556 320.015 364.889 317.541 362.432 313.237C358.799 306.781 359.282 291.448 348.54 292.599C345.737 292.9 343.395 295.945 340.655 296.72C335.751 298.076 324.926 300.196 323.582 295.375Z" fill="#FF5A95"/>
<path opacity="0.1" d="M323.582 295.375C319.613 281.14 316.232 263.493 301.71 266.904C293.783 268.776 295.925 257.381 296.46 253.443C296.996 249.505 301.269 245.976 304.703 247.816C306.204 248.623 307.16 250.205 308.525 251.237C311.916 253.788 317.009 252.163 319.781 248.924C322.553 245.685 323.634 241.328 324.758 237.174C325.881 233.021 327.278 228.695 330.449 225.865C332.447 224.058 334.997 223.02 337.661 222.929C340.325 222.838 342.937 223.7 345.048 225.367C347.159 227.035 348.639 229.403 349.232 232.066C349.825 234.729 349.495 237.52 348.299 239.961C354.063 239.38 358.641 234.753 362.043 229.943C365.445 225.134 368.343 219.732 372.995 216.214C377.646 212.695 384.965 211.824 388.85 216.214C392.997 220.905 390.95 228.674 386.834 233.43C382.718 238.186 377.006 241.22 372.869 245.965C368.732 250.71 366.506 258.35 370.517 263.181C373.572 266.861 378.812 267.324 383.379 268.561C387.947 269.798 392.829 272.499 394.74 277.061C396.651 281.624 394.415 288.09 389.627 288.897C384.167 289.823 380.282 283.808 377.667 278.805C375.053 273.801 370.181 268.163 365.067 270.293C359.723 272.51 360.363 280.483 362.495 285.982C364.912 292.24 368.015 298.196 371.745 303.736C374.234 307.437 376.995 312.344 374.444 315.991C371.556 320.015 364.889 317.541 362.432 313.237C358.799 306.781 359.282 291.448 348.54 292.599C345.737 292.9 343.395 295.945 340.655 296.72C335.751 298.076 324.926 300.196 323.582 295.375Z" fill="white"/>
<path d="M411.562 258.436C411.479 258.902 411.493 259.381 411.603 259.84C411.714 260.3 411.918 260.731 412.202 261.104C412.457 261.475 412.789 261.783 413.174 262.006C413.559 262.229 413.987 262.362 414.428 262.396C415.348 262.291 416.207 261.87 416.865 261.202C417.522 260.534 417.94 259.658 418.051 258.716C418.032 258.249 417.9 257.794 417.668 257.392C417.435 256.99 417.108 256.654 416.717 256.413C416.263 256.122 415.75 255.942 415.217 255.889C414.684 255.836 414.147 255.91 413.647 256.106C413.147 256.303 412.698 256.615 412.336 257.019C411.974 257.424 411.709 257.909 411.562 258.436V258.436Z" fill="#FF5A95"/>
<path d="M392.987 314.635C392.927 314.98 392.939 315.334 393.023 315.673C393.106 316.013 393.258 316.33 393.47 316.605C393.653 316.896 393.901 317.139 394.193 317.315C394.485 317.491 394.812 317.594 395.15 317.616C395.507 317.599 395.857 317.506 396.177 317.343C396.497 317.18 396.78 316.951 397.009 316.669C397.489 316.204 397.782 315.57 397.828 314.894C397.813 314.549 397.715 314.213 397.543 313.916C397.371 313.62 397.13 313.371 396.841 313.194C396.507 312.973 396.127 312.834 395.732 312.789C395.337 312.744 394.937 312.793 394.564 312.933C394.191 313.072 393.854 313.299 393.581 313.594C393.307 313.89 393.104 314.246 392.987 314.635V314.635Z" fill="#FF5A95"/>
<path d="M342.86 212.609C342.603 214.231 342.936 215.892 343.794 217.279C344.118 217.893 344.581 218.419 345.143 218.812C345.706 219.205 346.352 219.454 347.028 219.539C347.767 219.472 348.48 219.234 349.115 218.843C349.75 218.451 350.29 217.916 350.693 217.279C351.668 216.107 352.23 214.633 352.289 213.093C352.28 212.317 352.101 211.553 351.767 210.857C351.433 210.161 350.951 209.55 350.357 209.069C347.679 206.982 343.595 208.585 342.86 212.609Z" fill="#FF5A95"/>
<path d="M394.614 224.477C394.437 225.417 394.46 226.384 394.683 227.313C394.906 228.242 395.323 229.11 395.906 229.857C396.425 230.596 397.097 231.208 397.874 231.649C398.651 232.09 399.514 232.349 400.4 232.408C402.225 232.184 403.925 231.342 405.228 230.014C406.532 228.686 407.364 226.949 407.592 225.08C407.554 224.148 407.291 223.24 406.828 222.436C406.364 221.633 405.714 220.959 404.936 220.475C401.24 218.054 395.622 219.883 394.614 224.477Z" fill="#FF5A95"/>
<path opacity="0.1" d="M394.614 224.477C394.437 225.417 394.46 226.384 394.683 227.313C394.906 228.242 395.323 229.11 395.906 229.857C396.425 230.596 397.097 231.208 397.874 231.649C398.651 232.09 399.514 232.349 400.4 232.408C402.225 232.184 403.925 231.342 405.228 230.014C406.532 228.686 407.364 226.949 407.592 225.08C407.554 224.148 407.291 223.24 406.828 222.436C406.364 221.633 405.714 220.959 404.936 220.475C401.24 218.054 395.622 219.883 394.614 224.477Z" fill="white"/>
<path d="M270.756 255.423C270.756 255.423 272.237 211.114 288.606 213.976C304.976 216.838 270.756 255.423 270.756 255.423Z" fill="#FF5A95"/>
<path d="M258.85 243.716C258.85 243.716 233.45 223.445 241.136 216.268C248.822 209.091 258.85 243.716 258.85 243.716Z" fill="#FF5A95"/>
<path opacity="0.5" d="M258.85 243.716C258.85 243.716 233.45 223.445 241.136 216.268C248.822 209.091 258.85 243.716 258.85 243.716Z" fill="white"/>
<path d="M247.856 330.743C247.856 330.743 258.891 305.296 268.068 311.375C277.245 317.455 247.856 330.743 247.856 330.743Z" fill="#FF5A95"/>
<path opacity="0.2" d="M247.856 330.743C247.856 330.743 258.891 305.296 268.068 311.375C277.245 317.455 247.856 330.743 247.856 330.743Z" fill="black"/>
<path d="M199.651 332.777C199.651 332.777 188.174 318.208 183.239 323.771C178.304 329.334 199.651 332.777 199.651 332.777Z" fill="#FF5A95"/>
<path opacity="0.5" d="M199.651 332.777C199.651 332.777 188.174 318.208 183.239 323.771C178.304 329.334 199.651 332.777 199.651 332.777Z" fill="white"/>
<path d="M259.122 275.232C258.481 269.664 256.775 264.279 254.102 259.386C251.429 254.493 247.843 250.187 243.546 246.714C239.25 243.242 234.328 240.67 229.062 239.147C223.796 237.624 218.288 237.178 212.854 237.836C207.42 238.494 202.165 240.242 197.391 242.981C192.616 245.719 188.414 249.395 185.025 253.798C181.637 258.201 179.127 263.244 177.641 268.641C176.154 274.037 175.72 279.681 176.361 285.25C178.325 302.229 192.836 312.15 202.727 324.578C205.793 328.43 207.305 344.043 207.305 344.043L242.396 339.792C242.396 339.792 240.296 324.244 242.396 319.768C249.2 305.317 261.075 292.222 259.122 275.232Z" fill="#FF5A95"/>
<path d="M207.591 346.43L242.69 342.179L242.999 344.861C243.233 346.885 242.672 348.92 241.441 350.52C240.21 352.12 238.409 353.153 236.434 353.392L216.226 355.84C214.251 356.079 212.265 355.504 210.703 354.243C209.142 352.981 208.134 351.135 207.901 349.112L207.591 346.43Z" fill="#263238"/>
<path d="M218.382 358.06L234.784 356.076L234.874 356.856C235.107 358.88 234.546 360.915 233.315 362.515C232.083 364.115 230.282 365.148 228.307 365.386L226.785 365.57C224.81 365.809 222.824 365.234 221.263 363.972C219.702 362.71 218.694 360.865 218.461 358.841L218.371 358.061L218.382 358.06Z" fill="#263238"/>
<path opacity="0.5" d="M218.382 358.06L234.784 356.076L234.874 356.856C235.107 358.88 234.546 360.915 233.315 362.515C232.083 364.115 230.282 365.148 228.307 365.386L226.785 365.57C224.81 365.809 222.824 365.234 221.263 363.972C219.702 362.71 218.694 360.865 218.461 358.841L218.371 358.061L218.382 358.06Z" fill="white"/>
<path d="M259.123 275.232C258.163 266.901 254.831 259.043 249.541 252.64C244.25 246.237 237.237 241.573 229.376 239.229C219.601 238.261 204.733 237.82 205.468 244.168C206.518 253.594 227.045 247.106 232.253 251.765C237.461 256.424 218.477 268.572 225.113 273.134C231.749 277.696 243.11 264.989 243.11 264.989C243.11 264.989 240.212 282.807 245.21 283.464C250.208 284.12 248.035 270.068 251.195 269.68C254.356 269.293 258.64 276.212 256.603 292.599C258.841 287.116 259.707 281.146 259.123 275.232V275.232Z" fill="#FF5A95"/>
<path opacity="0.5" d="M259.123 275.232C258.163 266.901 254.831 259.043 249.541 252.64C244.25 246.237 237.237 241.573 229.376 239.229C219.601 238.261 204.733 237.82 205.468 244.168C206.518 253.594 227.045 247.106 232.253 251.765C237.461 256.424 218.477 268.572 225.113 273.134C231.749 277.696 243.11 264.989 243.11 264.989C243.11 264.989 240.212 282.807 245.21 283.464C250.208 284.12 248.035 270.068 251.195 269.68C254.356 269.293 258.64 276.212 256.603 292.599C258.841 287.116 259.707 281.146 259.123 275.232V275.232Z" fill="white"/>
<path d="M235.298 278.181C235.298 278.181 219.8 285.422 224.284 291.146C228.767 296.871 235.298 278.181 235.298 278.181Z" fill="#FF5A95"/>
<path opacity="0.7" d="M235.298 278.181C235.298 278.181 219.8 285.422 224.284 291.146C228.767 296.871 235.298 278.181 235.298 278.181Z" fill="white"/>
<path d="M190.169 239.272C187.892 240.991 185.754 242.894 183.774 244.964C183.428 245.341 183.984 245.911 184.331 245.535C186.259 243.514 188.341 241.653 190.557 239.972C190.967 239.66 190.557 238.96 190.169 239.272Z" fill="#FF5A95"/>
<path d="M177.884 252.507C171.664 262.494 168.942 274.351 170.166 286.132C170.219 286.638 171.006 286.649 170.954 286.132C169.737 274.496 172.422 262.781 178.567 252.916C178.84 252.475 178.157 252.077 177.884 252.507V252.507Z" fill="#FF5A95"/>
<g opacity="0.7">
<path opacity="0.7" d="M207.591 346.43L242.69 342.179L242.999 344.861C243.233 346.885 242.672 348.92 241.441 350.52C240.21 352.12 238.409 353.153 236.434 353.392L216.226 355.84C214.251 356.079 212.265 355.504 210.703 354.243C209.142 352.981 208.134 351.135 207.901 349.112L207.591 346.43Z" fill="white"/>
</g>
<path d="M367.955 472.076L390.394 465.77L395.371 474.335L374.633 483.471L367.955 472.076Z" fill="#FFB573"/>
<path d="M396.725 478.317C397.292 479.489 397.67 480.802 397.376 481.448C397.282 481.618 397.138 481.753 396.965 481.836C396.792 481.919 396.598 481.945 396.41 481.91C396.247 481.898 396.088 481.853 395.942 481.777C395.796 481.701 395.666 481.597 395.56 481.469C394.373 480.113 394.604 475.874 394.615 475.691C394.617 475.64 394.634 475.591 394.664 475.551C394.694 475.51 394.735 475.481 394.783 475.465C394.832 475.452 394.885 475.454 394.933 475.472C394.982 475.489 395.024 475.52 395.056 475.562C395.688 476.43 396.246 477.351 396.725 478.317V478.317ZM395.675 480.727C395.736 480.876 395.826 481.011 395.938 481.125C395.996 481.211 396.072 481.281 396.162 481.332C396.251 481.382 396.35 481.411 396.452 481.415C396.809 481.415 396.904 481.319 396.946 481.211C397.334 480.468 396.19 478.08 395.119 476.434C395.031 477.887 395.217 479.345 395.665 480.727H395.675Z" fill="#FF5A95"/>
<path d="M395.066 475.594C395.076 475.626 395.076 475.66 395.066 475.691C395.119 477.068 394.226 480.361 393.092 480.695C392.84 480.791 392.441 480.759 392.042 480.167C391.912 479.957 391.824 479.722 391.784 479.476C391.745 479.23 391.754 478.978 391.811 478.736C392.189 477.036 394.552 475.508 394.667 475.444C394.704 475.423 394.746 475.412 394.788 475.412C394.83 475.412 394.872 475.423 394.909 475.444C394.944 475.456 394.976 475.476 395.003 475.502C395.031 475.528 395.052 475.559 395.066 475.594ZM392.462 479.812L392.515 479.941C392.746 480.329 392.914 480.275 392.977 480.264C393.628 480.006 394.468 477.714 394.573 476.197C393.584 476.845 392.811 477.788 392.357 478.898C392.281 479.205 392.318 479.531 392.462 479.812V479.812Z" fill="#FF5A95"/>
<path d="M393.292 475.25L388.273 464.942C388.18 464.754 388.153 464.539 388.197 464.333C388.241 464.127 388.353 463.943 388.514 463.812L395.791 457.765C396.097 457.509 396.488 457.387 396.881 457.426C397.275 457.464 397.637 457.659 397.891 457.969C397.96 458.056 398.02 458.15 398.069 458.249C399.812 461.994 401.219 465.405 403.487 470.021C406.144 475.476 406.112 473.765 409.325 480.146C411.257 483.987 407.309 486.882 406.301 485.354C401.723 478.317 399.14 478.672 395.108 477.122C394.302 476.742 393.658 476.078 393.292 475.25V475.25Z" fill="#263238"/>
<path opacity="0.1" d="M383.527 479.554L388.399 477.402L384.892 467.32L380.24 468.622L383.527 479.554Z" fill="black"/>
<path d="M320.306 499.933L342.377 507.476L341.863 517.429L319.676 513.211L320.306 499.933Z" fill="#FFB573"/>
<path d="M340.834 521.496C340.676 522.798 340.277 524.111 339.679 524.477C339.509 524.565 339.317 524.597 339.128 524.569C338.94 524.54 338.765 524.451 338.629 524.315C338.499 524.213 338.39 524.085 338.309 523.939C338.228 523.793 338.176 523.632 338.156 523.465C337.904 521.658 340.393 518.268 340.498 518.085C340.529 518.044 340.572 518.014 340.621 517.999C340.67 517.984 340.722 517.984 340.771 517.999C340.818 518.015 340.859 518.045 340.889 518.085C340.919 518.126 340.937 518.175 340.939 518.225C341 519.317 340.965 520.412 340.834 521.496V521.496ZM338.639 522.906C338.618 523.067 338.618 523.229 338.639 523.39C338.646 523.494 338.675 523.595 338.724 523.686C338.773 523.777 338.841 523.856 338.923 523.917C339.196 524.143 339.353 524.09 339.448 524.036C340.172 523.638 340.498 521.001 340.498 519.022C339.646 520.186 339.016 521.503 338.639 522.906V522.906Z" fill="#FF5A95"/>
<path d="M340.939 518.301C340.944 518.333 340.944 518.365 340.939 518.398C340.235 519.581 337.705 521.808 336.592 521.432C336.319 521.367 336.004 521.12 336.025 520.42C336.03 520.172 336.084 519.926 336.184 519.699C336.283 519.472 336.425 519.267 336.602 519.097C337.841 517.903 340.634 518.021 340.802 518.021C340.847 518.022 340.89 518.036 340.927 518.061C340.964 518.085 340.993 518.12 341.012 518.161C341 518.213 340.975 518.261 340.939 518.301V518.301ZM336.476 520.313V520.453C336.476 520.905 336.623 520.958 336.686 520.991C337.369 521.141 339.311 519.721 340.214 518.516C339.041 518.496 337.889 518.837 336.907 519.495C336.684 519.713 336.54 520.001 336.497 520.313H336.476Z" fill="#FF5A95"/>
<path d="M339.647 516.999L341.065 505.572C341.09 505.363 341.184 505.17 341.331 505.023C341.478 504.876 341.669 504.785 341.873 504.765L351.208 503.882C351.404 503.863 351.602 503.884 351.791 503.943C351.98 504.002 352.155 504.099 352.308 504.228C352.46 504.357 352.586 504.516 352.678 504.694C352.77 504.873 352.827 505.069 352.846 505.27C352.856 505.378 352.856 505.486 352.846 505.593C352.268 509.704 351.596 513.34 350.966 518.505C350.21 524.563 351.113 523.121 350.326 530.244C349.853 534.548 345.002 534.71 344.992 532.859C344.992 524.402 342.661 523.175 340.151 519.635C339.669 518.851 339.489 517.911 339.647 516.999V516.999Z" fill="#263238"/>
<path opacity="0.1" d="M327.215 514.642L332.518 515.643L334.639 504.829L330.502 503.42L327.215 514.642Z" fill="black"/>
<path d="M279.314 390.687C279.314 390.687 269.99 407.548 258.44 447.36C246.89 487.172 254.587 500.805 290.99 509.768L325.987 515.148L328.79 502.236C328.79 502.236 299.264 487.732 282.149 481.62C281.684 481.458 281.259 481.197 280.9 480.854C280.541 480.511 280.258 480.093 280.069 479.629C279.881 479.164 279.791 478.664 279.805 478.162C279.82 477.659 279.939 477.165 280.154 476.713C285.866 464.77 303.8 425.819 310.237 394.636L279.314 390.687Z" fill="#FF5A95"/>
<path opacity="0.1" d="M279.314 390.687C279.314 390.687 269.99 407.548 258.44 447.36C246.89 487.172 254.587 500.805 290.99 509.768L325.987 515.148L328.79 502.236C328.79 502.236 298.991 487.624 281.908 481.534C281.472 481.383 281.073 481.139 280.737 480.817C280.402 480.496 280.137 480.104 279.961 479.669C279.785 479.234 279.702 478.765 279.717 478.294C279.732 477.823 279.845 477.361 280.049 476.939C285.635 465.275 303.758 426.023 310.237 394.636L279.314 390.687Z" fill="black"/>
<path d="M328.202 500.267L324.191 516.407C324.191 516.407 326.291 518.828 328.79 517.687L332.266 501.203C332.084 500.842 331.826 500.526 331.512 500.277C331.198 500.029 330.834 499.854 330.447 499.765C330.06 499.676 329.658 499.674 329.27 499.761C328.883 499.848 328.518 500.021 328.202 500.267Z" fill="#FF5A95"/>
<path opacity="0.6" d="M328.202 500.267L324.191 516.407C324.191 516.407 326.291 518.828 328.79 517.687L332.266 501.203C332.084 500.842 331.826 500.526 331.512 500.277C331.198 500.029 330.834 499.854 330.447 499.765C330.06 499.676 329.658 499.674 329.27 499.761C328.883 499.848 328.518 500.021 328.202 500.267Z" fill="white"/>
<path d="M288.533 403.244C289.877 422.494 296.24 458.12 301.49 479.285C306.74 500.45 320.737 504.743 335.437 501.881C350.137 499.019 373.94 484.665 384.083 481.437L379.883 467.449C379.883 467.449 346.934 474.034 332.917 480.544C332.476 480.748 331.992 480.834 331.51 480.797C331.028 480.759 330.563 480.598 330.157 480.328C329.752 480.058 329.419 479.688 329.189 479.252C328.96 478.816 328.84 478.328 328.843 477.832C328.843 462.327 327.793 415.166 314.437 394.636L288.533 391.86C288.533 391.86 288.344 400.403 288.533 403.244Z" fill="#FF5A95"/>
<path d="M377.174 466.545L382.508 483.223C383.262 483.362 384.038 483.312 384.769 483.078C385.5 482.844 386.166 482.432 386.708 481.878L381.374 465.383C380.658 465.012 379.832 464.925 379.057 465.139C378.282 465.354 377.611 465.855 377.174 466.545V466.545Z" fill="#FF5A95"/>
<path opacity="0.6" d="M377.174 466.545L382.508 483.223C383.262 483.362 384.038 483.312 384.769 483.078C385.5 482.844 386.166 482.432 386.708 481.878L381.374 465.383C380.658 465.012 379.832 464.925 379.057 465.139C378.282 465.354 377.611 465.855 377.174 466.545V466.545Z" fill="white"/>
<path d="M293.615 325.589L290.465 308.868C290.329 308.194 290.329 307.498 290.465 306.824L298.865 273.941L302.981 269.443C303.542 268.759 303.851 267.895 303.853 267.001V264.171C303.851 263.758 303.915 263.347 304.042 262.955L304.85 260.588C305.007 260.111 305.069 259.606 305.033 259.104C304.997 258.601 304.864 258.111 304.641 257.663C304.418 257.214 304.11 256.815 303.735 256.489C303.36 256.164 302.925 255.919 302.456 255.767L301.952 255.606C301.481 255.453 300.984 255.399 300.491 255.447C299.999 255.495 299.521 255.644 299.086 255.886L294.235 258.587C293.678 258.899 293.209 259.354 292.872 259.906C292.536 260.458 292.343 261.089 292.313 261.739L291.883 271.423C291.883 271.423 277.183 299.399 278.054 308.9C278.926 318.401 283.304 332.658 283.304 332.658C285.469 332.481 287.554 331.739 289.359 330.501C291.164 329.264 292.63 327.572 293.615 325.589V325.589Z" fill="#FFB573"/>
<path d="M337.715 335.101L353.287 324.696L365.194 293.492L364.018 287.94C363.868 287.239 363.969 286.506 364.301 285.874L365.929 282.732C366.181 282.246 366.558 281.839 367.018 281.555C367.479 281.271 368.006 281.12 368.543 281.118H368.9C369.462 281.119 370.012 280.954 370.486 280.645L372.302 279.472C372.647 279.248 373.033 279.1 373.436 279.036C373.839 278.972 374.251 278.995 374.645 279.102C375.04 279.209 375.408 279.399 375.728 279.658C376.047 279.918 376.311 280.243 376.502 280.612L379.138 287.735C379.455 288.349 379.557 289.056 379.427 289.737C379.297 290.419 378.943 291.034 378.424 291.48L372.554 297.441C372.554 297.441 366.59 329.172 363.44 332.68C360.29 336.188 343.133 344.968 343.133 344.968L337.715 335.101Z" fill="#FFB573"/>
<path d="M298.865 333.659L296.45 325.234C296.45 325.234 298.204 321.468 295.054 321.468C288.902 323.388 283.538 327.327 279.787 332.68C279.787 332.68 278.212 336.188 280.837 336.36L283.462 348.734C283.462 348.734 299.033 342.095 298.865 333.659Z" fill="#263238"/>
<path d="M322.49 337.791C322.49 337.791 333.515 334.724 335.615 332.669C335.615 332.669 336.76 329.592 338.86 329.947C340.96 330.302 345.758 337.963 345.758 345.678C345.758 345.678 345.758 349.627 342.608 347.647C342.608 347.647 336.487 352.134 325.283 355.545C325.283 355.545 318.29 344.419 322.49 337.791Z" fill="#263238"/>
<path d="M307.591 339.545C312.19 340.19 316.778 338.695 319.76 337.393C319.98 337.066 320.14 336.702 320.233 336.317C316.925 331.905 319.256 323.738 321.199 318.229L309.155 325.837C309.565 330.431 309.344 333.046 302.855 333.573C302.346 333.95 301.917 334.429 301.595 334.983C302.257 336.984 303.8 339.018 307.591 339.545Z" fill="#FFB573"/>
<path opacity="0.2" d="M316.316 321.307L309.229 325.869C309.345 326.941 309.366 328.021 309.292 329.097C311.717 329.097 315.76 327.655 316.642 325.094C316.846 323.824 316.734 322.521 316.316 321.307V321.307Z" fill="black"/>
<path d="M315.539 291.792C315.539 291.792 303.286 290.038 304.766 295.892C306.247 301.745 315.539 291.792 315.539 291.792Z" fill="#263238"/>
<path opacity="0.5" d="M315.539 291.792C315.539 291.792 303.286 290.038 304.766 295.892C306.247 301.745 315.539 291.792 315.539 291.792Z" fill="black"/>
<path d="M330.932 293.395C330.323 291.168 328.832 284.938 331.982 284.314C337.505 283.238 338.618 289.597 338.618 289.597C338.618 289.597 346.42 289.457 341.527 296.86C341.527 296.86 344.614 302.907 338.041 302.24C334.156 301.788 331.657 295.999 330.932 293.395Z" fill="#263238"/>
<path opacity="0.2" d="M330.932 293.395C330.323 291.168 328.832 284.938 331.982 284.314C337.505 283.238 338.618 289.597 338.618 289.597C338.618 289.597 346.42 289.457 341.527 296.86C341.527 296.86 344.614 302.907 338.041 302.24C334.156 301.788 331.657 295.999 330.932 293.395Z" fill="black"/>
<path d="M329 293.223C329 293.223 332.339 290.339 334.838 294.084C337.337 297.828 332.738 300.54 332.738 300.54C332.738 300.54 331.499 295.02 329 293.223Z" fill="#FF5A95"/>
<path d="M322.081 321.554C322.081 321.554 323.971 326.601 321.587 326.751C319.204 326.902 322.438 324.89 322.081 321.554Z" fill="#263238"/>
<path d="M329.935 309.632C326.039 318.574 324.569 322.426 318.385 325.374C309.008 329.818 299.149 322.942 300.367 313C301.48 304.048 307.717 290.888 317.755 290.684C319.974 290.615 322.174 291.129 324.145 292.176C326.116 293.223 327.794 294.769 329.018 296.668C330.243 298.566 330.974 300.753 331.141 303.022C331.309 305.291 330.908 307.566 329.977 309.632H329.935Z" fill="#FFB573"/>
<path d="M306.625 303.391C306.341 304.144 305.732 304.586 305.27 304.413C304.808 304.241 304.63 303.467 304.892 302.724C305.155 301.982 305.785 301.53 306.247 301.723C306.709 301.917 306.887 302.649 306.625 303.391Z" fill="#263238"/>
<path d="M306.446 301.842L304.85 300.647C304.85 300.647 305.27 302.391 306.446 301.842Z" fill="#263238"/>
<path d="M307.402 306.856C306.127 308.306 304.665 309.569 303.055 310.611C303.33 311.022 303.688 311.368 304.105 311.626C304.521 311.884 304.987 312.048 305.47 312.107L307.402 306.856Z" fill="#ED893E"/>
<path d="M319.204 305.134C319.107 305.135 319.012 305.104 318.932 305.046C318.853 304.988 318.794 304.906 318.763 304.812C318.446 304.125 317.995 303.512 317.437 303.012C316.878 302.512 316.225 302.136 315.518 301.906C315.46 301.89 315.405 301.862 315.358 301.824C315.31 301.786 315.27 301.738 315.241 301.684C315.212 301.63 315.193 301.57 315.187 301.509C315.18 301.447 315.186 301.385 315.203 301.325C315.219 301.267 315.246 301.212 315.283 301.165C315.32 301.117 315.365 301.077 315.417 301.048C315.469 301.019 315.526 301.001 315.585 300.995C315.644 300.989 315.703 300.995 315.76 301.013C316.61 301.283 317.395 301.737 318.059 302.344C318.724 302.951 319.254 303.697 319.614 304.532C319.631 304.59 319.638 304.651 319.633 304.711C319.628 304.772 319.611 304.831 319.584 304.885C319.557 304.939 319.519 304.987 319.474 305.026C319.429 305.065 319.376 305.094 319.32 305.113C319.284 305.132 319.244 305.139 319.204 305.134Z" fill="#263238"/>
<path d="M305.554 298.302C305.453 298.279 305.363 298.222 305.299 298.14C305.234 298.058 305.199 297.955 305.199 297.85C305.199 297.744 305.234 297.642 305.299 297.56C305.363 297.478 305.453 297.421 305.554 297.398C306.267 297.218 307.012 297.222 307.723 297.41C308.434 297.598 309.089 297.963 309.628 298.474C309.67 298.515 309.703 298.564 309.725 298.619C309.748 298.673 309.759 298.732 309.759 298.791C309.759 298.851 309.748 298.909 309.725 298.964C309.703 299.018 309.67 299.068 309.628 299.109V299.109C309.587 299.152 309.538 299.186 309.484 299.209C309.43 299.232 309.372 299.244 309.313 299.244C309.254 299.244 309.196 299.232 309.142 299.209C309.088 299.186 309.039 299.152 308.998 299.109C308.56 298.728 308.042 298.458 307.484 298.32C306.926 298.181 306.344 298.179 305.785 298.313C305.709 298.334 305.628 298.33 305.554 298.302V298.302Z" fill="#263238"/>
<path d="M314.836 306.544C314.552 307.276 313.943 307.738 313.481 307.566C313.019 307.394 312.841 306.619 313.103 305.877C313.366 305.134 313.996 304.682 314.468 304.801C314.941 304.919 315.056 305.78 314.836 306.544Z" fill="#263238"/>
<path d="M314.647 305.059L313.093 303.865C313.093 303.865 313.481 305.554 314.647 305.059Z" fill="#263238"/>
<path d="M326.638 314.829C324.834 309.778 324.374 304.327 325.304 299.033C325.304 299.033 309.47 298.904 314.573 294.837C314.573 294.837 301.228 291.243 306.446 285.088C311.665 278.934 320.8 283.184 324.433 288.564C324.433 288.564 332.507 291.9 333.568 300.658C334.817 310.977 322.48 326.687 321.671 322.641C321.199 320.252 326.638 314.829 326.638 314.829Z" fill="#263238"/>
<path d="M329.777 317.616C328.617 319.036 326.957 319.929 325.157 320.102C322.753 320.295 322.007 317.95 323.057 315.894C324.023 314.022 326.417 311.666 328.643 312.408C329.025 312.548 329.377 312.763 329.677 313.042C329.977 313.322 330.221 313.659 330.394 314.035C330.566 314.411 330.665 314.818 330.683 315.233C330.702 315.648 330.64 316.063 330.502 316.454C330.345 316.89 330.098 317.287 329.777 317.616V317.616Z" fill="#FFB573"/>
<path d="M322.154 336.123C320.371 337.626 318.296 338.721 316.067 339.337C313.839 339.953 311.507 340.075 309.229 339.696C303.328 338.533 302.614 334.864 302.75 332.68C291.715 332.572 287.053 335.639 287.053 335.639C278.915 347.206 276.815 394.012 276.815 394.012C295.453 399.93 318.07 400.199 318.07 400.199C319.907 384.328 333.2 346.668 333.2 346.668C333.2 346.668 331.594 340.212 322.154 336.123Z" fill="#263238"/>
<path d="M300.734 332.271H303.811C303.811 332.271 303.065 336.887 308.704 337.963C314.342 339.039 321.619 335.316 321.619 335.316L324.716 336.801C324.716 336.801 316.684 343.074 307.58 340.922C298.477 338.77 300.734 332.271 300.734 332.271Z" fill="#263238"/>
<path opacity="0.7" d="M300.734 332.271H303.811C303.811 332.271 303.065 336.887 308.704 337.963C314.342 339.039 321.619 335.316 321.619 335.316L324.716 336.801C324.716 336.801 316.684 343.074 307.58 340.922C298.477 338.77 300.734 332.271 300.734 332.271Z" fill="white"/>
<path d="M314.164 255.531C314.069 255.369 313.009 251.862 317.639 249.688C322.27 247.515 323.141 249.57 325.871 248.214C324.926 250.988 323.206 253.416 320.926 255.197C317.041 258.328 314.552 256.176 314.164 255.531Z" fill="black"/>
<path d="M303.149 266.603C297.49 270.229 280.354 279.515 279.43 278.008C278.506 276.502 294.13 264.763 299.8 261.137C305.47 257.511 310.783 255.757 311.707 257.306C312.631 258.856 308.798 262.977 303.149 266.603Z" fill="#FF5A95"/>
<path opacity="0.4" d="M303.149 266.603C297.49 270.229 280.354 279.515 279.43 278.008C278.506 276.502 294.13 264.763 299.8 261.137C305.47 257.511 310.783 255.757 311.707 257.306C312.631 258.856 308.798 262.977 303.149 266.603Z" fill="white"/>
<path d="M314.11 253.446L316.16 256.802L311.355 259.886C311.163 260.008 310.932 260.048 310.713 259.996C310.493 259.944 310.302 259.805 310.182 259.609L309.068 257.785C308.948 257.589 308.909 257.353 308.96 257.128C309.01 256.902 309.146 256.707 309.337 256.584L314.143 253.501L314.11 253.446Z" fill="#263238"/>
<path opacity="0.5" d="M314.11 253.446L316.16 256.802L311.355 259.886C311.163 260.008 310.932 260.048 310.713 259.996C310.493 259.944 310.302 259.805 310.182 259.609L309.068 257.785C308.948 257.589 308.909 257.353 308.96 257.128C309.01 256.902 309.146 256.707 309.337 256.584L314.143 253.501L314.11 253.446Z" fill="white"/>
<path d="M325.85 248.214C323.12 249.57 322.249 247.515 317.618 249.688C317.165 249.903 316.73 250.155 316.316 250.441C316.199 250.549 316.123 250.697 316.104 250.857C316.085 251.017 316.123 251.179 316.211 251.313C317.03 252.389 320.138 249.946 320.726 250.71C321.314 251.474 319.34 252.12 320.065 253.121C320.789 254.121 319.214 255.068 319.907 255.897C320.256 255.688 320.589 255.454 320.905 255.197C323.185 253.416 324.905 250.988 325.85 248.214V248.214Z" fill="#FF5A95"/>
<path d="M384.713 269.196C372.607 267.313 362.086 270.519 361.214 276.351C360.721 279.676 368.092 280.591 372.764 283.302C376.303 285.358 376.345 289.532 381.563 290.339C393.67 292.222 404.191 289.016 405.052 283.184C405.913 277.352 396.83 271.09 384.713 269.196ZM382.676 281.129C379.883 280.688 377.762 279.386 377.941 278.213C378.119 277.04 380.513 276.437 383.317 276.868C386.12 277.298 388.231 278.611 388.052 279.784C387.874 280.957 385.48 281.57 382.676 281.14V281.129Z" fill="#FF5A95"/>
<path opacity="0.9" d="M384.713 269.196C372.607 267.313 362.086 270.519 361.214 276.351C360.721 279.676 368.092 280.591 372.764 283.302C376.303 285.358 376.345 289.532 381.563 290.339C393.67 292.222 404.191 289.016 405.052 283.184C405.913 277.352 396.83 271.09 384.713 269.196ZM382.676 281.129C379.883 280.688 377.762 279.386 377.941 278.213C378.119 277.04 380.513 276.437 383.317 276.868C386.12 277.298 388.231 278.611 388.052 279.784C387.874 280.957 385.48 281.57 382.676 281.14V281.129Z" fill="#263238"/>
<path d="M375.841 274.576C375.841 275.491 374.297 276.233 372.386 276.233C370.475 276.233 368.9 275.48 368.9 274.576C368.9 273.672 370.444 272.908 372.355 272.908C374.266 272.908 375.841 273.64 375.841 274.576Z" fill="#FF5A95"/>
<path opacity="0.9" d="M375.841 274.576C375.841 275.491 374.297 276.233 372.386 276.233C370.475 276.233 368.9 275.48 368.9 274.576C368.9 273.672 370.444 272.908 372.355 272.908C374.266 272.908 375.841 273.64 375.841 274.576Z" fill="white"/>
<path d="M386.015 271.176C386.015 271.886 384.619 272.456 382.865 272.456C381.112 272.456 379.715 271.886 379.715 271.176C379.715 270.466 381.122 269.895 382.865 269.895C384.608 269.895 386.015 270.466 386.015 271.176Z" fill="#FF5A95"/>
<path opacity="0.7" d="M386.015 271.176C386.015 271.886 384.619 272.456 382.865 272.456C381.112 272.456 379.715 271.886 379.715 271.176C379.715 270.466 381.122 269.895 382.865 269.895C384.608 269.895 386.015 270.466 386.015 271.176Z" fill="white"/>
<path d="M393.607 277.578C395.851 277.578 397.67 276.788 397.67 275.813C397.67 274.839 395.851 274.049 393.607 274.049C391.363 274.049 389.543 274.839 389.543 275.813C389.543 276.788 391.363 277.578 393.607 277.578Z" fill="#FF5A95"/>
<path opacity="0.6" d="M393.607 277.578C395.851 277.578 397.67 276.788 397.67 275.813C397.67 274.839 395.851 274.049 393.607 274.049C391.363 274.049 389.543 274.839 389.543 275.813C389.543 276.788 391.363 277.578 393.607 277.578Z" fill="white"/>
<path d="M401.041 283.98C401.041 284.863 399.371 285.594 397.324 285.594C395.276 285.594 393.607 284.863 393.607 283.98C393.607 283.098 395.266 282.366 397.324 282.366C399.382 282.366 401.041 283.087 401.041 283.98Z" fill="#FF5A95"/>
<path opacity="0.8" d="M401.041 283.98C401.041 284.863 399.371 285.594 397.324 285.594C395.276 285.594 393.607 284.863 393.607 283.98C393.607 283.098 395.266 282.366 397.324 282.366C399.382 282.366 401.041 283.087 401.041 283.98Z" fill="white"/>
<path d="M389.512 285.809C389.512 286.832 387.727 287.649 385.522 287.649C383.317 287.649 381.532 286.832 381.532 285.809C381.532 284.787 383.317 283.98 385.522 283.98C387.727 283.98 389.512 284.798 389.512 285.809Z" fill="#FF5A95"/>
<path opacity="0.4" d="M389.512 285.809C389.512 286.832 387.727 287.649 385.522 287.649C383.317 287.649 381.532 286.832 381.532 285.809C381.532 284.787 383.317 283.98 385.522 283.98C387.727 283.98 389.512 284.798 389.512 285.809Z" fill="white"/>
<path d="M367.188 282.366C367.188 282.366 371.189 279.074 373.814 278.988C374.092 278.988 374.359 279.101 374.556 279.303C374.753 279.504 374.864 279.778 374.864 280.064C374.864 280.935 374.738 282.14 374.013 282.355C372.717 282.937 371.486 283.659 370.338 284.507L367.188 282.366Z" fill="#FFB573"/>
<path d="M283.787 350.412C284.228 348.422 285.058 344.785 290.087 349.229C295.117 353.673 294.025 346.959 297.962 347.174C301.9 347.389 296.849 355.394 296.849 355.394C296.849 355.394 303.086 354.738 303.023 358.622C302.96 362.507 294.938 361 294.938 361C294.938 361 291.2 372.492 287.798 368.371C284.396 364.25 290.035 359.763 289.132 356.04C288.229 352.317 282.8 355.072 283.787 350.412Z" fill="#FF5A95"/>
<path opacity="0.8" d="M283.787 350.412C284.228 348.422 285.058 344.785 290.087 349.229C295.117 353.673 294.025 346.959 297.962 347.174C301.9 347.389 296.849 355.394 296.849 355.394C296.849 355.394 303.086 354.738 303.023 358.622C302.96 362.507 294.938 361 294.938 361C294.938 361 291.2 372.492 287.798 368.371C284.396 364.25 290.035 359.763 289.132 356.04C288.229 352.317 282.8 355.072 283.787 350.412Z" fill="white"/>
<path d="M304.672 388.75C305.134 386.211 303.086 380.53 306.499 378.593C309.911 376.656 309.701 385.49 312.946 383.672C316.19 381.853 317.251 385.253 315.854 388.75C314.458 392.247 311.969 392.785 312.946 396.013C313.922 399.241 310.961 396.379 306.499 394.227C302.036 392.075 304.199 391.354 304.672 388.75Z" fill="#FF5A95"/>
<path opacity="0.2" d="M304.672 388.75C305.134 386.211 303.086 380.53 306.499 378.593C309.911 376.656 309.701 385.49 312.946 383.672C316.19 381.853 317.251 385.253 315.854 388.75C314.458 392.247 311.969 392.785 312.946 396.013C313.922 399.241 310.961 396.379 306.499 394.227C302.036 392.075 304.199 391.354 304.672 388.75Z" fill="black"/>
<path d="M275.167 544.34C272.785 555.93 274.325 568.005 279.535 578.578C279.755 579.041 280.49 578.761 280.27 578.298C275.122 567.852 273.596 555.922 275.944 544.469C276.038 543.963 275.261 543.834 275.167 544.34V544.34Z" fill="#FF5A95"/>
<path d="M284.9 533.526C284.63 533.517 284.362 533.474 284.102 533.397C281.854 540.746 281.212 548.512 282.222 556.144C282.285 556.649 283.073 556.628 283.01 556.144C282 548.554 282.645 540.829 284.9 533.526V533.526Z" fill="#FF5A95"/>
<path d="M288.964 522.304C287.931 524.102 286.999 525.96 286.171 527.866C286.416 527.98 286.64 528.136 286.832 528.329C287.667 526.395 288.61 524.513 289.657 522.691C289.919 522.239 289.226 521.852 288.964 522.304Z" fill="#FF5A95"/>
<path d="M304.577 314.7C304.577 314.7 306.919 314.183 313.45 314.56C312.673 316.884 311.234 318.713 307.885 318.52C307.002 318.486 306.167 318.105 305.553 317.456C304.938 316.806 304.592 315.938 304.588 315.034C304.577 314.926 304.577 314.818 304.577 314.7Z" fill="#263238"/>
<path d="M309.439 316.723C308.148 316.564 306.846 316.902 305.785 317.67C306.374 318.181 307.114 318.473 307.885 318.498C309.176 318.654 310.478 318.313 311.539 317.541C310.955 317.022 310.211 316.732 309.439 316.723V316.723Z" fill="#A02724"/>
<path d="M304.85 314.657C304.907 314.937 305.034 315.197 305.218 315.412C305.402 315.627 305.637 315.789 305.9 315.884C307.836 315.985 309.778 315.891 311.696 315.604C312.013 315.577 312.317 315.463 312.576 315.273C312.835 315.084 313.039 314.826 313.166 314.528C310.396 314.316 307.613 314.359 304.85 314.657V314.657Z" fill="white"/>
<path d="M370.118 352.511L356.164 356.352L357.214 376.99C356.18 376.923 355.143 377.04 354.148 377.334C350.998 378.227 348.436 380.444 348.53 382.294C348.625 384.145 351.302 384.931 354.494 384.048C357.686 383.166 360.206 380.928 360.112 379.077C359.849 374.042 359.125 359.709 359.125 359.709L367.987 357.234L370.118 352.511Z" fill="#FF5A95"/>
<path d="M420.088 360.721L411.887 363.002L412.507 375.139C411.898 375.098 411.288 375.163 410.701 375.333C408.821 375.86 407.351 377.162 407.404 378.259C407.456 379.357 409.031 379.809 410.911 379.282C412.79 378.754 414.26 377.452 414.208 376.366C414.061 373.407 413.63 364.992 413.63 364.992L418.88 363.55L420.088 360.721Z" fill="#FF5A95"/>
<path d="M284.333 370.211L273.991 373.095L274.768 388.395C274.004 388.347 273.237 388.431 272.5 388.643C270.137 389.31 268.3 390.956 268.3 392.333C268.3 393.711 270.4 394.281 272.72 393.625C275.041 392.968 276.92 391.311 276.92 389.945C276.731 386.211 276.185 375.612 276.185 375.612L282.769 373.783L284.333 370.211Z" fill="#FF5A95"/>
<path opacity="0.2" d="M284.333 370.211L273.991 373.095L274.768 388.395C274.004 388.347 273.237 388.431 272.5 388.643C270.137 389.31 268.3 390.956 268.3 392.333C268.3 393.711 270.4 394.281 272.72 393.625C275.041 392.968 276.92 391.311 276.92 389.945C276.731 386.211 276.185 375.612 276.185 375.612L282.769 373.783L284.333 370.211Z" fill="white"/>
<path d="M369.32 380.39L370.591 405.138C369.352 405.063 368.11 405.202 366.916 405.547C363.094 406.623 360.08 409.28 360.185 411.508C360.29 413.735 363.503 414.66 367.336 413.595C371.168 412.53 374.171 409.861 374.066 407.645C373.751 401.609 372.88 384.479 372.88 384.479L390.016 379.701L391.066 399.446C389.827 399.375 388.585 399.517 387.391 399.865C383.558 400.941 380.545 403.599 380.66 405.816C380.776 408.032 383.978 408.968 387.8 407.903C391.622 406.838 394.646 404.169 394.531 401.953C394.226 395.916 393.092 373.794 393.092 373.794L369.32 380.39Z" fill="#FF5A95"/>
<path d="M374.591 321.92L375.221 334.24C374.605 334.198 373.987 334.267 373.394 334.445C371.494 334.972 369.992 336.295 370.045 337.404C370.097 338.512 371.693 338.975 373.604 338.48C375.515 337.985 377.017 336.618 376.954 335.51C376.807 332.508 376.366 323.975 376.366 323.975L384.902 321.597L385.406 331.432C384.799 331.386 384.189 331.444 383.6 331.604C381.689 332.142 380.188 333.465 380.24 334.574C380.293 335.682 381.889 336.145 383.8 335.65C385.711 335.155 387.212 333.788 387.149 332.68C387.002 329.678 386.435 318.692 386.435 318.692L374.591 321.92Z" fill="#FF5A95"/>
<path opacity="0.2" d="M374.591 321.92L375.221 334.24C374.605 334.198 373.987 334.267 373.394 334.445C371.494 334.972 369.992 336.295 370.045 337.404C370.097 338.512 371.693 338.975 373.604 338.48C375.515 337.985 377.017 336.618 376.954 335.51C376.807 332.508 376.366 323.975 376.366 323.975L384.902 321.597L385.406 331.432C384.799 331.386 384.189 331.444 383.6 331.604C381.689 332.142 380.188 333.465 380.24 334.574C380.293 335.682 381.889 336.145 383.8 335.65C385.711 335.155 387.212 333.788 387.149 332.68C387.002 329.678 386.435 318.692 386.435 318.692L374.591 321.92Z" fill="black"/>
<path d="M375.102 452.437C388.854 449.723 398.865 441.473 397.463 434.009C396.06 426.546 383.775 422.696 370.024 425.409C356.272 428.123 346.26 436.373 347.663 443.837C349.065 451.3 361.351 455.151 375.102 452.437Z" fill="#FF5A95"/>
<path d="M381.794 449.394L372.565 438.924L367.787 452.116C372.574 451.998 377.307 451.063 381.794 449.351V449.394Z" fill="white"/>
<path d="M377.3 425.689C374.91 425.747 372.528 426.01 370.181 426.475C367.849 426.931 365.558 427.59 363.335 428.444L372.564 438.913L377.3 425.689Z" fill="white"/>
<path d="M364.154 452.116L372.554 438.978L353.224 448.662C354.683 449.674 356.288 450.448 357.98 450.954C359.99 451.574 362.061 451.964 364.154 452.116V452.116Z" fill="#263238"/>
<path d="M391.895 429.208C390.438 428.191 388.832 427.418 387.139 426.916C385.131 426.308 383.064 425.929 380.975 425.786L372.575 438.924L391.895 429.208Z" fill="#263238"/>
<path d="M380.251 437.407C380.681 439.71 377.594 442.26 373.352 443.088C369.11 443.917 365.309 442.744 364.879 440.441C364.448 438.139 367.535 435.589 371.777 434.749C376.019 433.91 379.82 435.104 380.251 437.407Z" fill="#FF5A95"/>
<path opacity="0.3" d="M380.251 437.407C380.681 439.71 377.594 442.26 373.352 443.088C369.11 443.917 365.309 442.744 364.879 440.441C364.448 438.139 367.535 435.589 371.777 434.749C376.019 433.91 379.82 435.104 380.251 437.407Z" fill="black"/>
<path d="M374.035 438.634C374.119 439.075 373.52 439.559 372.712 439.71C371.903 439.86 371.179 439.645 371.095 439.204C371.011 438.763 371.609 438.279 372.418 438.128C373.226 437.977 373.951 438.193 374.035 438.634Z" fill="white"/>
<path d="M438.282 408.042C439.578 403.843 434.359 398.407 426.624 395.898C418.889 393.39 411.568 394.76 410.272 398.958C408.975 403.157 414.195 408.593 421.929 411.102C429.664 413.61 436.985 412.24 438.282 408.042Z" fill="#FF5A95"/>
<path d="M426.167 411.432L424.277 403.492L418.282 408.872C419.519 409.514 420.804 410.053 422.125 410.486C423.444 410.918 424.796 411.235 426.167 411.432V411.432Z" fill="white"/>
<path d="M430.283 398.101C429.046 397.459 427.761 396.919 426.44 396.487C425.121 396.058 423.768 395.745 422.397 395.551L424.277 403.492L430.283 398.101Z" fill="white"/>
<path d="M416.455 407.806L424.277 403.502L411.824 402.986C412.294 403.913 412.904 404.759 413.63 405.493C414.487 406.367 415.434 407.143 416.455 407.806V407.806Z" fill="#263238"/>
<path d="M436.741 404.008C436.271 403.081 435.661 402.235 434.935 401.501C434.076 400.626 433.129 399.847 432.11 399.177L424.277 403.481L436.741 404.008Z" fill="#263238"/>
<path d="M428.603 404.89C428.204 406.192 425.947 406.612 423.563 405.837C421.18 405.063 419.563 403.384 419.962 402.093C420.361 400.802 422.618 400.371 425.002 401.146C427.385 401.921 429.002 403.599 428.603 404.89Z" fill="#FF5A95"/>
<path opacity="0.3" d="M428.603 404.89C428.204 406.192 425.947 406.612 423.563 405.837C421.18 405.063 419.563 403.384 419.962 402.093C420.361 400.802 422.618 400.371 425.002 401.146C427.385 401.921 429.002 403.599 428.603 404.89Z" fill="black"/>
<path d="M425.107 403.761C425.033 404.008 424.603 404.083 424.141 403.944C423.679 403.804 423.385 403.47 423.458 403.223C423.532 402.975 423.962 402.9 424.424 403.04C424.886 403.18 425.18 403.513 425.107 403.761Z" fill="white"/>
<path d="M193.479 157.348H198.784C198.707 152.682 194.872 149.46 189.043 149.46C183.303 149.46 179.097 152.631 179.122 157.386C179.109 161.247 181.832 163.459 186.256 164.52L189.107 165.236C191.957 165.926 193.543 166.744 193.555 168.509C193.543 170.426 191.727 171.73 188.915 171.73C186.038 171.73 183.967 170.401 183.788 167.78H178.432C178.572 173.443 182.625 176.371 188.979 176.371C195.371 176.371 199.129 173.315 199.142 168.521C199.129 164.162 195.844 161.848 191.293 160.825L188.94 160.263C186.665 159.739 184.76 158.895 184.798 157.016C184.798 155.328 186.294 154.088 189.004 154.088C191.651 154.088 193.274 155.29 193.479 157.348ZM202.865 176H220.559V171.436H208.401V165.185H219.6V160.621H208.401V154.382H220.507V149.818H202.865V176ZM246.808 149.818H241.298V166.284H241.067L229.766 149.818H224.908V176H230.444V159.521H230.636L242.026 176H246.808V149.818ZM256.917 149.818H251.381V176H256.917V149.818ZM277.729 176.384C280.017 176.384 282.498 175.744 284.428 174.236L286.013 176H291.689L287.752 171.487C289.209 169.557 290.13 166.783 290.13 163.229H285.617C285.617 164.942 285.195 166.463 284.505 167.754L280.184 162.794L281.718 161.695C283.917 160.109 285.195 158.115 285.195 155.648C285.195 152.298 282.6 149.473 278.394 149.473C274.098 149.473 271.248 152.401 271.248 156.197C271.248 158.524 272.373 160.467 273.74 162.206C270.89 164.162 268.972 166.016 268.972 169.045C268.972 173.175 272.283 176.384 277.729 176.384ZM281.488 170.963C280.388 171.641 279.186 172.011 277.998 172.011C275.722 172.011 274.252 170.605 274.252 168.739C274.252 167.741 274.929 166.591 276.374 165.543L276.527 165.44L281.488 170.963ZM277.563 159.688C276.591 158.46 275.914 157.374 275.914 156.287C275.914 154.97 276.911 153.871 278.432 153.858C279.966 153.845 280.836 154.919 280.836 155.955C280.836 157.054 280.235 157.962 278.931 158.793L277.563 159.688ZM311.674 176C319.651 176 324.484 171.065 324.484 162.884C324.484 154.727 319.651 149.818 311.751 149.818H302.393V176H311.674ZM307.928 171.257V154.561H311.457C316.366 154.561 318.961 157.067 318.961 162.884C318.961 168.726 316.366 171.257 311.444 171.257H307.928ZM328.584 176H346.277V171.436H334.12V165.185H345.319V160.621H334.12V154.382H346.226V149.818H328.584V176ZM364.83 157.348H370.136C370.059 152.682 366.224 149.46 360.394 149.46C354.654 149.46 350.448 152.631 350.474 157.386C350.461 161.247 353.184 163.459 357.607 164.52L360.458 165.236C363.309 165.926 364.894 166.744 364.907 168.509C364.894 170.426 363.079 171.73 360.266 171.73C357.39 171.73 355.319 170.401 355.14 167.78H349.783C349.924 173.443 353.977 176.371 360.33 176.371C366.722 176.371 370.481 173.315 370.494 168.521C370.481 164.162 367.195 161.848 362.644 160.825L360.292 160.263C358.016 159.739 356.112 158.895 356.15 157.016C356.15 155.328 357.646 154.088 360.356 154.088C363.002 154.088 364.626 155.29 364.83 157.348ZM379.752 149.818H374.217V176H379.752V149.818ZM401.668 158.281H407.293C406.577 153.104 402.013 149.46 396.094 149.46C389.178 149.46 383.847 154.446 383.847 162.935C383.847 171.219 388.832 176.358 396.209 176.358C402.818 176.358 407.536 172.178 407.536 165.287V161.989H396.58V166.156H402.205C402.128 169.403 399.916 171.462 396.234 171.462C392.08 171.462 389.459 168.355 389.459 162.884C389.459 157.438 392.182 154.357 396.183 154.357C399.034 154.357 400.964 155.827 401.668 158.281ZM433.593 149.818H428.083V166.284H427.853L416.551 149.818H411.694V176H417.229V159.521H417.421L428.811 176H433.593V149.818Z" fill="white"/>
<path d="M251.688 121.492C251.324 118.469 249.036 116.73 246.006 116.73C242.548 116.73 239.908 119.172 239.908 123.455C239.908 127.724 242.503 130.179 246.006 130.179C249.362 130.179 251.388 127.948 251.688 125.538L248.888 125.526C248.626 126.925 247.527 127.731 246.05 127.731C244.062 127.731 242.714 126.254 242.714 123.455C242.714 120.732 244.043 119.178 246.07 119.178C247.585 119.178 248.678 120.054 248.888 121.492H251.688ZM255.683 130L256.655 127.015H261.379L262.35 130H265.316L260.803 116.909H257.237L252.717 130H255.683ZM257.358 124.854L258.969 119.901H259.071L260.682 124.854H257.358ZM264.776 119.191H268.784V130H271.52V119.191H275.527V116.909H264.776V119.191ZM277.298 130H286.145V127.718H280.066V124.592H285.665V122.31H280.066V119.191H286.119V116.909H277.298V130ZM297 121.141H299.812C299.454 118.552 297.172 116.73 294.213 116.73C290.755 116.73 288.089 119.223 288.089 123.467C288.089 127.609 290.582 130.179 294.27 130.179C297.575 130.179 299.934 128.089 299.934 124.643V122.994H294.456V125.078H297.268C297.23 126.702 296.124 127.731 294.283 127.731C292.206 127.731 290.895 126.178 290.895 123.442C290.895 120.719 292.257 119.178 294.258 119.178C295.683 119.178 296.648 119.913 297 121.141ZM314.043 123.455C314.043 119.172 311.384 116.73 307.913 116.73C304.423 116.73 301.783 119.172 301.783 123.455C301.783 127.718 304.423 130.179 307.913 130.179C311.384 130.179 314.043 127.737 314.043 123.455ZM311.237 123.455C311.237 126.229 309.92 127.731 307.913 127.731C305.899 127.731 304.589 126.229 304.589 123.455C304.589 120.68 305.899 119.178 307.913 119.178C309.92 119.178 311.237 120.68 311.237 123.455ZM316.093 130H318.861V125.359H320.881L323.361 130H326.416L323.635 124.912C325.125 124.273 325.949 122.975 325.949 121.185C325.949 118.584 324.23 116.909 321.258 116.909H316.093V130ZM318.861 123.135V119.172H320.727C322.325 119.172 323.099 119.881 323.099 121.185C323.099 122.483 322.325 123.135 320.74 123.135H318.861ZM326.593 116.909L331.368 125.372V130H334.117V125.372L338.892 116.909H335.792L332.806 122.547H332.679L329.694 116.909H326.593Z" fill="white"/>
</svg>
